<?xml version="1.0" encoding="UTF-8"?>
<svg version="1.1" viewBox="0 0 310.29 467.16" xmlns="http://www.w3.org/2000/svg" xmlns:cc="http://creativecommons.org/ns#" xmlns:dc="http://purl.org/dc/elements/1.1/" xmlns:rdf="http://www.w3.org/1999/02/22-rdf-syntax-ns#">
<metadata>
<rdf:RDF>
<cc:Work rdf:about="">
<dc:format>image/svg+xml</dc:format>
<dc:type rdf:resource="http://purl.org/dc/dcmitype/StillImage"/>
<dc:title>ASL letter</dc:title>
<dc:date>11/11/2013</dc:date>
<dc:creator>
<cc:Agent>
<dc:title>edited by Paul Sherman</dc:title>
</cc:Agent>
</dc:creator>
<dc:rights>
<cc:Agent>
<dc:title>PD</dc:title>
</cc:Agent>
</dc:rights>
<dc:publisher>
<cc:Agent>
<dc:title>WPClipart</dc:title>
</cc:Agent>
</dc:publisher>
<dc:subject>
<rdf:Bag>
<rdf:li>sign</rdf:li>
<rdf:li>language</rdf:li>
<rdf:li>letter</rdf:li>
<rdf:li>american</rdf:li>
</rdf:Bag>
</dc:subject>
<cc:license rdf:resource="http://creativecommons.org/publicdomain/zero/1.0/"/>
</cc:Work>
<cc:License rdf:about="http://creativecommons.org/publicdomain/zero/1.0/">
<cc:permits rdf:resource="http://creativecommons.org/ns#Reproduction"/>
<cc:permits rdf:resource="http://creativecommons.org/ns#Distribution"/>
<cc:permits rdf:resource="http://creativecommons.org/ns#DerivativeWorks"/>
</cc:License>
</rdf:RDF>
</metadata>
<path d="m76.277 454.7c-0.57083-0.96489 1.6485-16.269 5.2852-36.445 3.2044-17.778 5.6708-45.804 4.4567-50.641-0.4977-1.983-2.8249-6.1208-5.1716-9.1951-6.0816-7.9674-13.157-16.142-19.841-26.084-2.4233-3.6043-3.9592-8.2316-9.9544-21.077-8.4177-18.035-14.314-32.897-16.716-66.128-0.74526-10.312-4.7733-40.962-5.1975-43.712-0.79463-5.1505-13.072-13.359-12.582-26.814 0.40663-11.163-5.7144-16.236 6.3989-47.358l4.042-10.385 14.569-9.5502c12.894-8.4524 15.503-9.6738 22.694-10.625 4.4688-0.59116 10.094-2.0266 12.5-3.1899l4.375-2.1151 0.92516-14.375c1.0246-15.92 13.397-31.949 19.222-34.329 14.756-6.0299 12.816-5.6768 23.825-7.9722 9.0206-1.8808 23.214-2.2583 26.865-0.8264 1.5894 0.62327 0.56455-2.4069 4.5177-4.5893 11.538-6.3695 10.353-9.6565 22.116-10.203 5.6194-0.26106 13.84-1.6957 21.552-0.84203 12.941 1.4325 14.381 1.8626 18.684 5.5824l4.6624 4.0303 5.5274-4.8696c6.0806-5.3571 15.642-5.6062 19.521-5.6062 4.1854 0 14.714 2.5579 21.337 7.7009 6.9927 5.4299 13.322 12.525 16.214 18.175 0.87969 1.7188 4.0148 9.8561 6.9668 18.083 5.2752 14.701 5.364 15.216 5.1742 30-0.32145 25.035-0.31881 69.61 0.52496 81.319 0.55656 7.7236-0.0934 7.2532 0.0462 30.19 0.1238 20.347-0.74373 33.936-2.9359 43.908-4.9187 22.374-5.9905 28.502-33.45 80.251-13.111 24.709-21.62 44.264-24.026 55.216-1.4027 6.3852-2.051 16.049-2.1404 31.906-0.11975 21.231-0.25563 22.5-2.0397 19.054-1.8232-3.5217-2.0128-3.5908-4.1077-1.4964-3.6771 3.6761-4.4274 0.053-3.7939-18.32 1.301-37.731 3.8354-49.422 14.522-66.984 8.2798-13.607 33.461-55.571 38.798-75.712 2.9657-11.193 4.6404-15.339 6.463-24.954 2.8171-14.861 1.9028-17.212 3.494-34.079 1.4458-15.325-1.5738-30.353-1.1225-44.721 0.28481-9.0666-4.9168-45.515-3.5275-68.665 1.0336-17.223-0.63687-25.346-8.1896-39.824-5.3884-10.329-18.088-24.722-24.941-28.266-3.53-1.8255-4.9151-1.9201-9.4639-0.6465-2.9307 0.82056-7.3905 3.1915-9.9105 5.2687-5.1953 4.2824-19.584 25.138-25.695 37.245-3.9528 7.8305-4.0539 8.4173-3.3301 19.339 0.41053 6.195 1.6744 17.451 2.8085 25.014 1.3384 8.9247 1.858 18.137 1.4806 26.25l-0.5815 12.5 2.1476-5.0348c3.6351-8.5218 13.146-10.645 21.686-4.8418 6.4771 4.4013 8.8213 10.163 6.9615 17.11-1.539 5.7486-4.9022 12.142-6.3872 12.142-0.51508 0-1.5543-1.1543-2.3093-2.5651-1.0431-1.949-0.89494-4.0039 0.61666-8.5549 2.2953-6.9106 1.7604-9.2311-2.5844-11.211-4.2913-1.9552-8.181-1.7766-11.469 0.52656-2.2484 1.5749-2.7781 3.1518-2.7781 8.2708 0 6.8524 0.4993 6.5892-7.5739 3.9932-2.1171-0.68076-4.9261 4.096-4.9261 8.3768 0 1.358 2.3216 4.9878 5.1592 8.0662 4.768 5.1726 5.6258 5.5971 11.312 5.5971 16.232 0 21.055-10.9 28.361-34.325 3.0659-9.8298 5.1417-9.7282 7.4854-19.563l2.4992-10.487 2.7073-17.259c1.9474-12.414 0.70337-17.139 3.9676-24.204 4.3753-9.4699 5.9949-13.481 9.7233-12.298 4.5501 1.4442 5.3689 6.1295 2.624 15.016-3.0406 9.8443-5.4734 14.4-7.1054 30.27-1.2516 12.171-0.92438 11.759-3.1615 18.509l-4.5753 13.805-6.881 15.938c-4.3756 10.135-2.3264 9.9027-9.2106 19.676-3.9172 5.5609-15.192 12.827-22.223 12.808-5.0669-0.0132-12.861 0.53518-20.19-4.159-7.2629-4.652-7.4556-3.1622-13.617-1.7003-9.3884 2.2276-23.454 2.0713-29.448-0.32709-4.8914-1.9571-5.3314-1.9344-9.7128 0.50146-8.3969 4.6683-20.581 5.3386-25.947 6.5244-4.169 0.92136-5.3339-1.1531-5.1044-0.80592-0.15497 0.15498 3.694 3.7545 8.5534 7.999 9.4934 8.2922 22.877 15.496 39.158 21.077 5.5 1.8854 7.0954 6.2332 7.299 6.3773 0.20355 0.14414 1.7762 0.87705-0.25879 4.9131-6.9091 13.703-8.254 23.574-6.4497 47.338 0.73082 9.625 1.8121 18.217 2.872 21.439 4.4012 13.38 19.383 35.309 42.089 55.157l4.2126 6.6998 3.8042 4.789-5.4091 2.8695-13.249-14.01c-24.528-25.937-32.589-33.745-38.933-51.989-2.4015-6.9063-9.1286-36.283-9.0582-49.331 0.0204-3.7812 1.1698-9.9688 2.5542-13.75 3.6485-9.965 4.0502-11.819-2.9582-14.221-8.7357-2.9942-20.373-9.1106-30.871-17.85-4.826-4.0174-11.637-8.051-12.789-8.9635-1.9221-1.5223-2.0747-0.94031-1.8504 7.0598 0.22446 8.0074-0.0616 9.0956-3.5056 13.336-5.6675 6.9784-13.523 10.811-20.213 10.956-7.1024 0.15385-11.785 1.5113-23.616-8.464-4.5061-3.7992-4.9286-6.8416-8.0603-8.6911-2.7982-1.6525-5.2334-7.016-5.4116-6.7577-0.1782 0.25831 0.10988 11.096 0.64019 24.084 1.2088 29.604 3 46.35 7.9006 54.079 2.0095 3.169 4.798 12.488 8.2265 20.017 6.0522 13.29 8.2728 16.067 13.477 25.789 10.039 18.752 14.341 19.67 26.941 21.999 7.8956 1.4596 10.46 2.9508 11.954 6.9508 2.8561 7.6474 2.8932 7.5514-2.914 7.5514-6.2968 0-11.214 2.2786-13.11 6.0751-0.73477 1.4712-2.2034 9.9874-3.2637 18.925-2.2709 19.142-9.3615 53.17-11.654 55.927-1.7815 2.1424-6.2496 3.6692-7.0043 2.3935zm8.3354-230.65c6.3461-2.686 8.2223-5.7683 9.7457-16.011 1.3881-9.3332 1.3611-9.5239-2.0918-14.742-3.3753-5.1004-3.676-5.2584-8.5648-4.4971-9.4514 1.4717-16.016 5.6966-19.195 12.354l-2.8786 6.0275 2.7407 7.2511c3.1088 8.225 10.455 11.319 13.558 11.319 1.465 0 4.4737-0.76611 6.686-1.7025zm-21.991-33.923c0.6105-1.4555 1.9615-3.6267 4.2122-2.7935 6.3603 2.3547 2.1377-2.8907 6.2111-2.1902 2.7137 0.46666 8.2805-1.5275 9.5437-1.0762 3.9444 1.4092-3.9385-6.1662-17.368-16.69-10.287-8.0614-13.083-11.013-16.147-17.043-5.1737-10.182-5.8688-17.591-2.3135-24.658 1.5355-3.052 3.6602-6.5369 4.7218-7.7442 3.3221-3.7784 0.54996-3.9578-4.7204-0.30545-6.0406 4.1862-13.447 12.164-14.941 16.094-0.59346 1.5609-2.5342 9.2659-4.3128 17.122l-2.8499 18.123 9.4424 15.018c8.6411 13.744 5.6918 10.391 16.268 19.215 7.2803 6.0738 6.8576 5.225 9.9017 9.1807l0.27969-13.331c0.07447-3.5496 2.0727-8.9211 2.0727-8.9211zm75.138-7.3812c1.8565-0.96592 4.6679-3.1401 6.2476-4.8316 2.8224-3.022 2.8487-3.3114 1.5172-16.681-1.6737-16.806-5.0044-32.452-6.2796-46.687-0.91343-10.196-0.99365-11.921 0.4305-24.134 0.84459-7.2431 0.0368-19.817 1.9585-28.41s3.3665-15.792 3.2106-15.995c-0.67173-0.87786-27.137 2.47-32.785 4.1473-13.44 3.9912-16.629 9.581-17.459 30.598-0.53579 13.568-0.3058 15.358 4.0948 31.875 3.6173 13.577 4.7388 20.302 5.003 30 0.23404 8.5916 1.1152 14.65 2.8181 19.375 4.9527 13.743 7.5732 18.58 11.102 20.493 4.4483 2.4114 15.719 2.5515 20.141 0.25031zm-4.1246-35.784c-7.8497-5.6024-11.066-5.8363-18.312-1.332-3.426 2.1297-6.436 3.8722-6.689 3.8722s0.66371-3.3274 2.0371-7.3943c2.4622-7.2909 2.584-7.4151 8.7093-8.8846 4.8798-1.1706 7.0179-1.1566 9.9687 0.0658 4.2472 1.7592 10.319 11.037 9.6912 14.808-0.37811 2.2705-0.74027 2.1945-5.4053-1.135zm-34.903 26.003c-1.6835-3.8066-4.2768-10.924-5.7629-15.817-1.4861-4.8928-2.857-8.896-3.0464-8.896-0.1894 0-3.0539 1.1986-6.3656 2.6635l-6.0212 2.6635-2.9614-3.601c-8.416-10.233-10.314-13.97-10.314-20.307 0-8.8324 3.027-12.581 10.338-18.36 7.4144-5.8607 4.1013-6.0208-4.3152-0.68319-6.1401 3.8939-11.694 13.091-13.086 21.669-0.8359 5.1511 2.9794 11.593 13.062 22.055 6.9863 7.249 30.261 26.807 31.01 26.058 0.28805-0.28806-0.85366-3.6383-2.5371-7.4449zm81.687 4.4927c3.173-0.63459 4.5921-2.02 7.062-6.8942 1.7001-3.355 3.8826-9.3257 4.85-13.268 3.5632-14.521 3.555-21.553-0.059-50.834l-3.4728-28.137 3.0432-6.5462c1.6737-3.6004 5.2016-9.8991 7.8396-13.997 5.0262-7.8078 10.829-19.963 10.829-22.685 0-1.9081-8.3049-4.0229-21.581-5.4957-10.082-1.1185-17.095-0.25298-20.44 2.5225-3.2456 2.6936-14.662 21.817-17.36 36.857-3.8481 21.447-2.7725 25.669-0.72628 51.316 0.95006 11.908 2.9584 24.302 3.4649 26.361 0.9068 3.6872 3.6463 2.1034 6.0715-4.6606l2.4632-6.87 5.8197-0.37653c9.4358-0.61048 13.781 1.1075 16.955 6.7042 2.8341 4.9966 3.6708 9.2973 1.8088 9.2973-0.56333 0-4.0399-2.25-7.7258-5s-7.2021-5-7.814-5-3.8902 2.3422-7.2851 5.2048l-7.7082 9.0437 0.39891 9.2955c0.37361 8.7059 3.2419 11.26 4.6692 12.394 2.0968 1.6656 12.331 2.0817 18.898 0.76831zm-94.326-33.054c3.8463-1.8342 4.4143-8.441 4.3933-12.321-0.0317-5.8662-2.8727-16.672-4.5284-17.223-0.71888-0.23962-5.903-1.0196-8.705 2.0202-4.727 5.1281-2.6872 0.38389-5.9361 11.36-2.9118 9.8378 6.9433 19.899 14.776 16.164z"/>
</svg>
