<?xml version="1.0" encoding="UTF-8"?>
<svg version="1.1" viewBox="0 0 465.88 432.78" xmlns="http://www.w3.org/2000/svg" xmlns:cc="http://creativecommons.org/ns#" xmlns:dc="http://purl.org/dc/elements/1.1/" xmlns:rdf="http://www.w3.org/1999/02/22-rdf-syntax-ns#">
<metadata>
<rdf:RDF>
<cc:Work rdf:about="">
<dc:format>image/svg+xml</dc:format>
<dc:type rdf:resource="http://purl.org/dc/dcmitype/StillImage"/>
<dc:title>ASL letter</dc:title>
<dc:date>11/11/2013</dc:date>
<dc:creator>
<cc:Agent>
<dc:title>edited by Paul Sherman</dc:title>
</cc:Agent>
</dc:creator>
<dc:rights>
<cc:Agent>
<dc:title>PD</dc:title>
</cc:Agent>
</dc:rights>
<dc:publisher>
<cc:Agent>
<dc:title>WPClipart</dc:title>
</cc:Agent>
</dc:publisher>
<dc:subject>
<rdf:Bag>
<rdf:li>sign</rdf:li>
<rdf:li>language</rdf:li>
<rdf:li>letter</rdf:li>
<rdf:li>american</rdf:li>
</rdf:Bag>
</dc:subject>
<cc:license rdf:resource="http://creativecommons.org/publicdomain/zero/1.0/"/>
</cc:Work>
<cc:License rdf:about="http://creativecommons.org/publicdomain/zero/1.0/">
<cc:permits rdf:resource="http://creativecommons.org/ns#Reproduction"/>
<cc:permits rdf:resource="http://creativecommons.org/ns#Distribution"/>
<cc:permits rdf:resource="http://creativecommons.org/ns#DerivativeWorks"/>
</cc:License>
</rdf:RDF>
</metadata>
<path d="m324.75 409.5c-7.3236-11.57-22.147-32.601-28.589-40.559-4.4944-5.5528-17.86-14.482-26.083-17.426-4.3933-1.5728-8.9785-4.8846-15.435-11.148-9.5775-9.2917-26.665-28.555-34.032-38.365-22.923-30.525-30.785-41.525-64.353-90.034-6.9582-10.055-22.527-24.788-48.501-45.896-30.097-24.459-62.002-58.335-67.634-71.814-4.6005-11.01-0.89919-23.517 8.3185-28.108 8.2235-4.0959 12.312-4.575 19.17-2.2466 8.3426 2.8324 15.273 8.2362 30.591 23.854 16.381 16.701 23.563 23.074 26.004 23.074 2.1556 0 12.777 6.5299 18.285 11.241 4.1918 3.5856 16.406 14.431 20.009 17.766 1.3328 1.2337 2.8796 2.2431 3.4375 2.2431 1.5957 0 1.1521-6.3881-0.82465-11.875-0.99072-2.75-1.8168-8.6562-1.8356-13.125-0.0466-11.029 2.785-15.594 17.263-27.836 10.631-8.9881 12.075-9.8279 15.625-9.0827 2.1513 0.45161 5.5831 0.92735 7.6262 1.0572 3.3334 0.21185 3.7909-0.21312 4.4561-4.1389 1.4687-8.6687 6.9957-16.327 17.761-24.611l7.7683-5.9776 12.178 0.33883c11.83 0.32916 12.198 0.2559 12.907-2.5671 0.40114-1.5982 0.16765-4.3832-0.51883-6.1889-1.0335-2.7182-0.77178-3.7849 1.5214-6.2012 6.4257-6.7708 16.816-15.173 21.564-17.437l5.1007-2.4326 13.024 5.5691c20.236 8.6528 28.342 13.804 33.378 21.211 1.5698 2.3086 4.9448 5.2604 7.5 6.5594 14.44 7.3414 29.172 21.243 67.741 63.927 14.029 15.526 14.306 16.523 14.01 50.526-0.1884 21.652 0.19901 30.207 1.6415 36.25 2.7312 11.442 3.8317 44.147 1.9804 58.856-1.3557 10.77-1.29 12.585 0.60907 16.814 4.823 10.74 9.3673 20.529 16.015 34.5 3.8629 8.1178 7.0234 15.171 7.0234 15.673 0 0.50243 1.1441 3.1418 2.5425 5.8653 2.5195 4.9071 2.4982 13.3-0.0405 16.009-0.54492 0.58131-3.625-3.6374-6.8446-9.375-3.2196-5.7376-7.7583-13.526-10.086-17.307-2.3277-3.7812-4.7503-8-5.3836-9.375-0.63332-1.375-4.2562-7.5625-8.0509-13.75-5.8505-9.5397-7.4475-11.307-10.504-11.622-2.4124-0.24896-4.7855 0.64229-7.1732 2.694-3.251 2.7935-5.0312 3.1444-20.026 3.9476-9.0518 0.48481-21.205 0.67873-27.008 0.43094-10.239-0.43724-10.827-0.63283-19.925-6.6326-8.8977-5.8674-32.331-27.83-36.669-34.368-1.113-1.6773-2.3812-2.692-2.8182-2.255-1.1113 1.1113 1.7634 13.037 4.613 19.137 1.3058 2.7952 2.3741 6.0296 2.3741 7.1875 0 3.4895-3.3885 2.3728-5.9392-1.9572-3.4868-5.9192-5.0323-12.252-7.0382-28.841-0.98283-8.1279-2.069-15.06-2.4136-15.405-1.0732-1.0732-8.0038 3.0982-9.053 5.449-0.54833 1.2286-1.0384 13.484-1.089 27.234-0.058 15.754-0.55433 25.009-1.342 25.025-0.6875 0.014-2.2928-3.9235-3.5673-8.75-1.8928-7.168-2.2078-11.816-1.7194-25.377 0.56623-15.721 0.46086-16.697-1.9872-18.412-2.2673-1.5881-2.8443-1.5762-4.6926 0.0965-1.1591 1.049-2.4698 4.1737-2.9128 6.9439-1.2756 7.9772-3.9641 5.5083-3.4306-3.1505l0.4401-7.1435-11.065-10.554c-6.0855-5.8046-11.749-10.554-12.585-10.554-2.1084 0-8.3032 2.7433-27.571 12.21-9.1248 4.483-16.924 7.8171-17.332 7.4091-0.99549-0.99547 12.374-14.276 16.029-15.922 8.3352-3.7549 19.775-12.275 19.729-14.694-0.0915-4.8966-9.0814-11.777-19.906-15.235-4.3341-1.3846-8.4912-2.5174-9.238-2.5174-2.5052 0-12.066-4.0776-12.066-5.146 0-0.581 1.4062-1.4093 3.125-1.8407 3.6793-0.92345 4.183-3.0133 0.7263-3.0133-1.3193 0-4.037-0.94029-6.0395-2.0895-4.89-2.8065-7.0402-1.7015-11.885 6.1079-5.6928 9.1757-7.2244 13.898-8.0416 24.793l-0.70777 9.4369 14.912 20.563c8.2014 11.31 20.932 29.001 28.291 39.313 7.3587 10.312 14.924 20.669 16.812 23.015 25.013 31.076 43.078 49.579 52.808 54.086 17.168 7.9537 33.829 23.654 48.149 45.372 11.354 17.22 16.819 29.111 14.156 30.799-4.0585 2.5722-6.2025 0.91813-13.258-10.228zm110.95-99.846c0-1.3344-0.5625-2.7739-1.25-3.1988-0.70895-0.43815-1.25 0.61203-1.25 2.4262 0 1.7593 0.5625 3.1988 1.25 3.1988s1.25-1.0918 1.25-2.4262zm-42.267-31.613c7.9661-3.096 11.779-5.4502 16.33-10.083 3.2656-3.3244 5.9375-7.0193 5.9375-8.211 0-1.1917 0.50561-2.7011 1.1236-3.3542 0.61796-0.65313 1.7248-5.9688 2.4596-11.812 1.0479-8.3337 0.9402-13.725-0.49945-25-2.5727-20.149-4.4559-47.028-4.3789-62.5 0.036-7.2188-0.30544-17.047-0.7586-21.84-0.82334-8.7086-0.83035-8.7217-9.6976-18.177-4.8805-5.2044-18.371-19.734-29.979-32.287-15.413-16.669-22.071-23.018-24.688-23.541-1.9704-0.39408-3.5825-1.2226-3.5825-1.8412 0-1.7336-6.2847-3.7203-9.0212-2.8517-1.3426 0.42611-3.0836 2.5498-3.869 4.7193l-1.4279 3.9446-0.65343-4.375-0.65342-4.375-21.175 0.29978c-11.646 0.16488-21.63 0.75498-22.186 1.3113-0.55635 0.55636-1.5776 5.4762-2.2695 10.933-1.0556 8.3254-1.831 10.494-4.8207 13.484-3.3141 3.3141-4.4302 3.6106-15.986 4.2474-10.446 0.57561-12.749 0.35944-14.466-1.358-2.7037-2.7037-3.4712-2.5762-3.4712 0.57693 0 3.5518 4.4256 9.5192 8.6982 11.729 11.175 5.7788 29.169 10.632 42.552 11.476 13.967 0.88126 24.124-0.86865 30.617-5.2749 8.7491-5.9373 9.9524-3.2624 3.5184 7.8213-2.278 3.9244-2.7373 5.8136-1.823 7.5 2.3484 4.3318 13.274 12.879 16.462 12.879 2.394 0 12.475 5.0186 12.475 6.2104 0 1.6756-5.1921 5.0396-7.7781 5.0396-3.3502 0-2.8522 5.5494 0.70719 7.8817 1.611 1.0556 5.9704 2.484 9.6875 3.1744 15.916 2.956 17.655 6.4439 3.2128 6.4439-9.3251 0-11.186-0.72414-17.937-6.9814-2.6384-2.4452-3.6078-2.7308-5.0907-1.5001-2.4005 1.9923-6.6274 11.411-11.379 25.356-6.3205 18.549-7.0884 20.408-9.5632 23.142-1.6012 1.7693-3.2806 2.3968-5.1554 1.9262-2.1222-0.53263-3.4429 0.2322-5.5776 3.2302-2.4576 3.4514-2.8067 5.5372-2.877 17.19-0.0762 12.638 0.1185 13.659 4.1408 21.717 7.2661 14.556 22.708 27.547 40.695 34.236 5.8246 2.166 10.295 2.8187 19.648 2.869 10.756 0.0579 13.268-0.3858 22.5-3.9739zm-55.456-202.21c-0.39544-3.7784-0.28212-7.9971 0.25184-9.375 1.7215-4.4423 2.5671 0.57943 1.4726 8.7448l-1.0054 7.5-0.71901-6.8698zm-10.189-2.3796c-0.85687-4.2844-0.28741-6.3756 1.7362-6.3756 1.3831 0 1.4089 4.5811 0.0454 8.0665-0.8101 2.0708-1.0806 1.8142-1.7816-1.6909zm-50.838 141.13c2.4062-1.3046 5.5839-2.9295 7.0614-3.6111 7.0938-3.2722 8.7707-12.481 3.4288-18.829-5.5981-6.653-6.9717-6.7957-13.123-1.3636-3.0206 2.6674-7.159 6.2807-9.1964 8.0294-4.0281 3.4575-4.0685 2.5911 0.72034 15.454 1.2928 3.4726 5.0928 3.5822 11.109 0.3205zm-19.321-4.6927c-2.1878-5.7012-3.2169-13.803-2.1199-16.688 1.3585-3.5731 11.05-13.332 14.25-14.349 1.2015-0.38185 2.5031-1.9634 2.8924-3.5144 1.013-4.0362-14.343-26.255-26.876-38.888-5.4566-5.5-13.616-15.062-18.133-21.25-17.626-24.147-20.54-26.875-28.71-26.875-5.6803 0-24.237 12.598-26.781 18.182-2.3704 5.2025-1.798 19.553 1.0444 26.184 2.8486 6.6455 7.4713 11.279 39.914 40.01 3.1053 2.75 13.954 12.734 24.108 22.188 17.674 16.454 22.262 19.827 20.411 15.003zm-27.346-42.399c-1.6639-1.6639-0.69698-2.8747 6.9792-8.7391 4.2969-3.2827 8-6.4093 8.2292-6.9481 0.83619-1.9658 2.7083-0.91189 2.7083 1.5246 0 3.3131-11.345 14.996-14.562 14.996-1.3868 0-2.8965-0.375-3.3548-0.83334zm-73.34 22.396c-0.0164-5.776 6.8989-22.516 10.819-26.19 1.6153-1.514 2.937-3.4564 2.937-4.3163 0-2.2336-18.808-19.602-22.267-20.563-4.3266-1.2021-6.7398 0.48415-15.109 10.558-6.3477 7.6403-7.6234 9.961-7.6234 13.868 0 5.8068 2.2371 8.4074 16.25 18.89 5.8438 4.3717 10.812 8.3968 11.042 8.9446 0.80448 1.9231 3.9583 0.97234 3.9522-1.1914zm161.25-3.583c5.5788-5.0401 6.484-9.5582 2.9848-14.899-2.5425-3.8803-4.8713-3.872-12.236 0.044-3.2325 1.7188-6.6224 3.125-7.5331 3.125s-2.338 0.82198-3.1718 1.8266c-1.484 1.7881-1.3928 2.4086 1.8906 12.861 0.30715 0.97778 2.8431 1.5625 6.7764 1.5625 5.4664 0 6.9378-0.58918 11.289-4.5204zm-24.996-10.501c0-5.3938 0.57286-6.7258 4.8064-11.176 5.6472-5.9365 10.918-6.6468 18.944-2.5526 5.608 2.861 6.25 2.9863 6.25 1.2194 0-3.5726-17.698-28.719-20.213-28.719-0.71233 0-4.0767 2.5008-7.4763 5.5574-4.5778 4.1159-7.6016 5.7704-11.657 6.3786-5.2462 0.78673-8.1537 0.17435-8.1537-1.7173 0-1.2116 11.987-8.9687 13.859-8.9687 2.0746 0 12.391-8.5886 12.391-10.316 0-3.3754-5.4741-7.1844-10.325-7.1844-5.3345 0-18.634-2.9763-26.55-5.9417-9.0398-3.3864-13.209-5.8575-19.861-11.772-5.5967-4.9758-6.8192-6.8901-8.2747-12.958-1.7539-7.3109-1.6996-7.7923 3.4127-30.267 0.48748-2.143 0.0844-2.8097-1.6934-2.8008-3.7825 0.01901-14.588 6.8469-19.58 12.372-8.899 9.8501-5.7458 19.498 12.968 39.682 8.8119 9.5037 25.226 30.765 44.242 57.309 15.665 21.866 16.911 22.739 16.911 11.854zm-173.9-20.216c2.1441-2.193 3.8983-4.4823 3.8983-5.0873 0-1.8175 7.8067-12.634 10.883-15.079 1.5766-1.253 2.8666-3.0334 2.8666-3.9563 0-1.8588-10.444-11.52-14.375-13.297-1.375-0.62173-4.1875-2.206-6.25-3.5205-6.2046-3.9545-8.2556-3.205-13.75 5.0247-10.057 15.063-9.8144 14.481-7.9386 19.086 0.92874 2.2802 3.1119 5.7873 4.8514 7.7936 4.3115 4.9726 13.471 13.023 14.817 13.023 0.60395 0 2.8523-1.7943 4.9964-3.9873zm213.94-14.803c2.854-2.854 2.6436-3.4468-3.9097-11.017-4.3299-5.002-7.2635-6.1183-11.653-4.434-1.0875 0.4173-1.9772 1.9725-1.9772 3.456 0 2.9975 4.5274 12.147 6.7192 13.579 2.6932 1.7593 8.2983 0.93923 10.821-1.5832zm-241.81-12.773c1.9939-3.6094 4.1926-7.499 4.8862-8.6437 0.69352-1.1446 2.6341-4.6759 4.3124-7.8473l3.0514-5.7661-7.4264-7.74c-21.463-22.369-31.083-29.69-39.014-29.69-6.9731 0-12.787 5.7807-12.787 12.714 0 11.104 7.691 22.922 24.167 37.134 6.302 5.4363 12.822 11.351 14.489 13.143 1.6667 1.7924 3.4054 3.2589 3.8638 3.2589 0.4584 0 2.4648-2.9531 4.4587-6.5625zm182.47-48.986c2.0647-1.5307 2.1935-2.1804 0.86391-4.358-0.85938-1.4075-1.5625-5.0783-1.5625-8.1572 0-6.4165-1.2102-7.4646-10.17-8.8081-7.4103-1.1111-10.258 0.44811-12.111 6.6309-3.752 12.523-0.73083 15.706 15.479 16.304 2.7905 0.10301 6.1655-0.6222 7.5-1.6116zm44.301-30.506c9.538-2.6947 10.677-4.891 5.428-10.464-3.0691-3.2581-8.3154-6.0787-31.396-16.879-3.9237-1.8361-4.4203-1.7539-12.028 1.9915-10.531 5.1842-18.551 13.754-18.017 19.25 0.49755 5.1158 1.9497 5.5312 24.138 6.9044 9.625 0.59569 18.906 1.1751 20.625 1.2877 1.7188 0.11254 6.7812-0.82838 11.25-2.0909zm-183.02 314.17c-1.1223-1.7128-2.7307-3.1244-3.5742-3.1367-0.84353-0.0125-3.3833-2.8507-5.6439-6.3075-4.5349-6.9346-7.0808-8.542-10.122-6.391-1.7544 1.2407-6.2995 3.4699-15.768 7.7332-17.892 8.0566-33.608 8.0245-51.454-0.10525-18.383-8.3742-32.715-36.556-35.399-69.603-1.634-20.123-1.6384-66.491-0.0078-83.071 0.69544-7.0715 1.8427-19.045 2.5495-26.607 0.70681-7.5625 1.8081-17.969 2.4472-23.125 0.63917-5.1562 1.5186-13.295 1.9543-18.087 0.92031-10.121 0.96797-10.093 9.4968 5.5866 8.3647 15.377 7.6943 15.139 16.897 6.0181 4.3401-4.3015 7.8911-7.5136 7.8911-7.1381 0 0.37552-1.1573 7.1093-2.5717 14.964-1.4145 7.8546-3.4216 20.469-4.4603 28.031-1.0387 7.5625-2.4081 17.406-3.0431 21.875-2.8025 19.722-3.6119 33.917-3.6349 63.75-0.01993 25.879 0.3267 32.548 1.8428 35.455 1.027 1.9692 1.8673 4.1436 1.8673 4.8319 0 0.68834 2.5639 5.1082 5.6976 9.8219 6.0528 9.1046 16.031 18.619 19.541 18.633 1.1626 5e-3 2.4614 0.57058 2.8863 1.2581s4.1492 1.25 8.2762 1.25c8.0731 0 21.099-4.9526 21.099-8.022 0-2.3713-3.6566-5.2413-10.312-8.0942-3.2656-1.3997-5.9375-3.0327-5.9375-3.6288 0-0.59617 8.2969-5.7613 18.437-11.478 10.141-5.7168 23.206-13.265 29.034-16.773 16.731-10.072 15.506-10.456 14.446 4.5389-0.49877 7.0578-1.4368 15.926-2.0846 19.707-2.8907 16.874-4.8408 30.79-5.6138 40.059-0.45959 5.5108-1.2542 10.278-1.7659 10.595-0.51163 0.31621-1.8485-0.82649-2.9708-2.5393z"/>
</svg>
