<?xml version="1.0" encoding="UTF-8"?>
<svg version="1.1" viewBox="0 0 504.17 234.91" xmlns="http://www.w3.org/2000/svg" xmlns:cc="http://creativecommons.org/ns#" xmlns:dc="http://purl.org/dc/elements/1.1/" xmlns:rdf="http://www.w3.org/1999/02/22-rdf-syntax-ns#">
<metadata>
<rdf:RDF>
<cc:Work rdf:about="">
<dc:format>image/svg+xml</dc:format>
<dc:type rdf:resource="http://purl.org/dc/dcmitype/StillImage"/>
<dc:title>ASL letter</dc:title>
<dc:date>11/11/2013</dc:date>
<dc:creator>
<cc:Agent>
<dc:title>edited by Paul Sherman</dc:title>
</cc:Agent>
</dc:creator>
<dc:rights>
<cc:Agent>
<dc:title>PD</dc:title>
</cc:Agent>
</dc:rights>
<dc:publisher>
<cc:Agent>
<dc:title>WPClipart</dc:title>
</cc:Agent>
</dc:publisher>
<dc:subject>
<rdf:Bag>
<rdf:li>sign</rdf:li>
<rdf:li>language</rdf:li>
<rdf:li>letter</rdf:li>
<rdf:li>american</rdf:li>
</rdf:Bag>
</dc:subject>
<cc:license rdf:resource="http://creativecommons.org/publicdomain/zero/1.0/"/>
</cc:Work>
<cc:License rdf:about="http://creativecommons.org/publicdomain/zero/1.0/">
<cc:permits rdf:resource="http://creativecommons.org/ns#Reproduction"/>
<cc:permits rdf:resource="http://creativecommons.org/ns#Distribution"/>
<cc:permits rdf:resource="http://creativecommons.org/ns#DerivativeWorks"/>
</cc:License>
</rdf:RDF>
</metadata>
<path d="m246.91 218.89c-3.4636-0.62984-9.4884-2.5563-13.388-4.2811l-7.0908-3.1359-8.4275 3.1721c-7.5012 2.8234-9.0523 3.0179-14.112 1.7689-7.0643-1.7439-17.548-8.5288-21.808-14.114-2.2589-2.9616-3.6559-7.0405-4.6905-13.696-1.3951-8.9734-1.7119-9.6126-5.9546-12.013-5.8348-3.301-14.604-12.368-16.284-16.837-1.677-4.4616-1.693-10.969-0.0376-15.323 0.70674-1.8588 1.0139-3.6508 0.68266-3.982-0.33126-0.33127-7.5905 3.3248-16.927 4.592-16.249 2.2053-9.5766 0.72404-27.245 4.3727l-10.92 2.2551-25.077 5.2013c-16.506 3.4234-25.238 4.8837-28.779 4.8662-7.2011-0.0356-16.445-0.0857-23.674-6.75-8.2541-7.6084-11.117-13.658-11.173-23.614-0.07958-14.028 9.284-29.265 19.458-31.663 2.984-0.70328 3.3175-1.4393 4.0096-8.8513 1.0141-10.86 5.2179-18.688 14.799-27.559 9.3825-8.6866 23.373-15.763 38.562-19.503 5.8437-1.4393 18.781-6.3336 28.75-10.876 17.499-7.974 21.563-7.2065 31.519-9.6825 16.513-4.1065 4.9189-0.93935 16.513-4.1065 20.312-5.5487 32.733-3.8771 44.653-4.1541 29.28-0.68055 26.022 0.4105 60.733-2.0211 20.507-1.4366 28.326-0.95469 30.926-0.46691 5.4939 1.0307 52.078 19.893 66.02 30.74 12.323 9.5875 14.385 11.005 28.807 28.382 9.5917 11.557 23.243 27.613 29.852 30.358 2.8229 1.1725 20.476 4.0175 26.299 4.6993 13.139 1.5384 12.858 1.7508 22.924 3.2371l16.35 2.414-3.8948 5.2932c-3.0852 4.193-6.5027 3.68-12.437 3.2289-6.0314-0.45848-10.432-2.2238-13.869-3.1708s-12.654-1.336-22.229-3.4936c-13.767-3.1022-6.6054-1.0952-19.495-3.4192-4.5422-0.81898-7.8768-0.26294-8.5575 1.6747-5.2808 15.033-9.4174 19.051-17.735 27.856-10.55 11.168-18.228 14.468-41.951 12.186-20.962-2.0161-23.409-4.9025-42.274-22.344l-11.471-10.606-0.87425 6.0159c-0.48084 3.3087-1.8045 7.4356-2.9415 9.171-2.4054 3.6711-2.6554 3.3324 3.8323 5.1917 11.54 3.3072 15.418 14.305 9.7852 27.747-1.2459 2.9732-4.1218 5.8429-8.9718 8.9526-9.2296 5.9176-13.941 7.7882-24.638 9.7827-4.8125 0.89729-13.461 4.2534-16.211 5.2016-5.2847 1.8224-18.164 9.7782-18.164 11.333 0 0.50343 1.8281 1.9142 4.0625 3.1349 3.2158 1.757 6.9283 4.67 17.812 4.6285 12.946-0.0494 19.151-0.71652 37.105-0.74693 27.073-0.0458 23.635-1.2353 42.487-1.9565 8.923-0.34134 19.777-2.8695 22.43-2.8701 6.0774-1e-3 11.231-3.1869 24.755-12.41 7.056-4.8123 13.9-8.0839 15.269-7.491 1.117 0.48383 5.1584-1.8566 7.8527-1.4405l0.59132 3.8332-2.4663 1.5084c-3.8379 2.3473-9.305 6.8313-12.399 9.5765l-5.625 4.9914 4.3057 3.1552c7.8444 5.7484 26.17 6.5452 36.252 6.3821 8.5876 0.92102 20.64 0.51346 34.082-1.6963 0 0-1.453 0.3219-1.5225 4.0744l2.1207 7.3184-16.757-0.32096c-20.735-0.39716-19.689-0.8632-30.302-1.1801-16.845-0.50305-17.931-2.4441-28.342-6.1234l-10.797-2.4952-8.1331 0.40969c-11.184 0.56339-8.4184 1.1162-26.321 3.1111-15.96 1.7784-14.011 1.7784-15.96 1.7784-9.9477 0-14.871 0.37112-26.29 1.064-17.039 1.0339-19.717-0.15498-35.225 0.35749-8.724 0.28829-18.696 9e-3 -22.159-0.621zm-26.141-17.316c5.3538-2.8217 10.303-4.7202 15.136-8.3554s14.875-7.2247 15.925-7.2247c4.63 0 26.12-11.094 31.599-13.46l6.0298-2.605-6.0749-3.1089c-4.6904-2.4004-6.5131-4.2246-7.9978-8.0043l-1.923-4.8954-6.3772-2.4671c-3.2861-1.2713-13.807-0.37887-21.026 1.9478-16.557 5.3363-25.067 7.6753-37.227 15.428-5.1562 3.2874-11.833 7.2249-14.837 8.75l-5.4618 2.7728 0.5964 6.2069c0.68889 7.1694 4.51 11.997 12.706 16.052 5.9252 2.9316 5.9335 5.8154 18.933-1.0358zm21.083-55.512c9.6252-2.8287 22.913-3.0399 26.847-4.8398l5.7582-2.6344-3.9284-1.0958c-5.0323-1.4038-15.895-11.141-17.942-16.084-1.3213-3.1898-1.2469-4.668 0.45981-9.137 2.8487-7.4592-0.50848-5.3718-7.5838-3.2771-11.748 3.478-5.902-1.8095-26.148 8.4707-71.893 36.504-46.129 14.812-52.419 24.989-3.107 5.0273-3.7078 10.288-0.55864 14.291 3.2154 4.0877 14.361 9.6531 19.332 9.6531 2.2262 0 11.998-2.2697 20.663-6.6572 20.995-10.517 30.422-12.218 35.519-13.679zm56.981 10.897c0-6.3228-2.9743-8.5013-10.405-7.6213-3.4012 0.40283-6.4898 1.0382-6.8635 1.4119-0.37372 0.37374 0.22765 2.5819 1.3364 4.907 1.5026 3.151 3.3899 4.6957 7.4115 6.0665 6.4946 2.2136 8.5206 1.0808 8.5206-4.7641zm-230.33-8.4046c10.368-2.1744 14.808-4.9452 15.474-5.6103 2.0733-2.0733 0.59019-20.473-1.7385-25.527-2.0271-4.3993-2.3041-4.553-6.1939-3.4375-2.2395 0.64229-7.534 1.1678-11.766 1.1678-6.1547 0-9.1398-0.76065-14.922-3.8023l-7.2284-3.8023-5.7111 2.9172c-7.4518 3.8064-13.836 12.984-13.836 19.891 0 5.8052 2.1877 10.431 7.0759 14.961 9.7061 8.9948 17.14 7.7948 38.846 3.2427zm310.69-5.7883c14.757-7.5287 28.014-27.389 24.178-41.283-3.487-12.629-27.787-40.732-54.148-58.515-17.138-11.561-19.059-12.559-19.782-10.279-0.44085 1.389-2.0824 3.3647-3.6479 4.3904-2.6197 1.7165-4.3118 1.4038-21.255-3.9275l-18.408-5.7924-19.588 5.6735c-10.773 3.1204-26.901 7.7408-35.838 10.267s-18.5 5.8903-21.25 7.4748c-2.75 1.5845-10.552 8.1383-17.338 14.564l-12.338 11.683 5.7472 6.9672c7.8357 9.499 9.9881 14.903 8.3537 20.972-0.6995 2.5978-2.5438 5.9098-4.0984 7.3602-4.0824 3.8086-23.338 12.825-27.389 12.825-10.2 0-16.745-9.5724-21.615-31.614-1.3998-6.3361-3.5624-2.3316-2.8692 5.3131 1.3534 14.925 12.537 28.801 23.213 28.801 2.0159 0 12.304-0.50636 21.104-4.1531 33.502-13.884 11.67-6.6478 27.14-11.269 7.736-2.3108 16.517-5.1196 18.062-5.7276 4.6291-1.8209 10.213-6.5608 21.355-10.736 21.814-8.1753 15.014-6.2493 21.814-8.1753 2.7528-0.77967 11.422-1.7807 17.609-1.2633 14.922 1.2477 20.193 0.60707 15.273 3.6476-0.74364 0.45959-1.2578 5.811-6.0312 6.2514l-8.6789 0.80065 14.175 16.25c15.101 17.311 20.213 21.862 28.856 25.685 14.666 6.4872 38.534 8.3286 47.395 3.8083zm-250-6.9704c6.0462-1.5635 11.3-3.1496 11.675-3.5246 0.37509-0.37509-1.6549-4.6155-4.5111-9.4232-6.8051-11.455-10.415-21.097-9.5391-25.478 0.3819-1.9095 0.44061-3.4718 0.13049-3.4718-0.5857 0-33.881 14.636-39.374 17.307-1.7188 0.83607-2.1753 1.2524-1.0146 0.92527 4.4246-1.2471 8.0166 14.871 5.5258 24.795l-0.88594 3.5299 13.5-0.90826c7.4249-0.49954 18.447-2.1874 24.493-3.7509zm157.78-8.1925c1.6143-3.1218 1.7313-5.0437 0.65971-10.84-1.5463-8.3647-3.7885-12.128-9.1882-15.42-3.8438-2.3437-14.875-3.4992-14.392-1.5075 0.12509 0.51562-0.43428 3.1875-1.243 5.9375-3.3837 11.506-0.96155 16.92 10.016 22.39 8.6451 4.308 11.693 4.1874 14.148-0.55999zm-115.82-17.506c12.838-6.9196 12.46-6.1015 7.3195-15.847-5.1237-9.7139-7.2964-11.64-10.718-9.5033-1.2829 0.80118-5.7848 2.1359-10.004 2.966-8.6135 1.6946-8.8746 2.2087-5.7619 11.344 1.9833 5.8208 8.5586 14.84 10.819 14.84 0.71309 0 4.469-1.71 8.3465-3.8zm-90.884-11.394c6.4261-2.169 20.403-7.545 31.059-11.947 16.934-6.9948 20.901-8.1535 31.489-9.197 23.606-2.3266 38.616-9.6622 50.183-24.525 8.9306-11.475 12.788-13.429 38.953-19.731 10.312-2.4837 22.674-5.7347 27.47-7.2246 7.4245-2.3064 8.2602-2.837 5.625-3.571-6.1145-1.7033 9.2631 2.2123-23.469 2.2371-10.162 0.0077 0 0-19.635 0.22043-29.048 0.3261-32.435-1.8497-46.241 3.6253-10.546 4.182-14.454 5.0778-25 5.73-12.222 0.75591-12.889 0.96041-30 9.2069-9.625 4.6386-17.711 8.5646-17.969 8.7245-0.25794 0.15987 0.44519 2.5754 1.5625 5.3678 1.1173 2.7924 2.0315 8.4547 2.0315 12.583 0 6.9066-0.25589 7.6029-3.2064 8.7247-1.7635 0.67048-3.451 1.2191-3.75 1.2191-0.299 0-0.54363-3.4306-0.54363-7.6236 0-6.9903-2.461-15.182-5.0398-16.776-1.3879-0.85776-22.05 6.519-28.191 10.065-9.0064 5.2001-18.019 18.159-18.019 25.909 0 11.439 11.936 13.988 32.691 6.9824zm242.17-70.267c1.148-1.3832-0.63608-2.6976-9.3126-6.8609-9.6408-4.626-11.242-5.0355-15.739-4.025-2.7536 0.6187-5.2394 1.3577-5.524 1.6423-0.41162 0.41162 25.343 10.218 28.371 10.803 0.43144 0.08331 1.4234-0.61848 2.2045-1.5595z"/>
</svg>
