<?xml version="1.0" encoding="UTF-8"?>
<svg version="1.1" viewBox="0 0 415.83 448.23" xmlns="http://www.w3.org/2000/svg" xmlns:cc="http://creativecommons.org/ns#" xmlns:dc="http://purl.org/dc/elements/1.1/" xmlns:rdf="http://www.w3.org/1999/02/22-rdf-syntax-ns#">
<metadata>
<rdf:RDF>
<cc:Work rdf:about="">
<dc:format>image/svg+xml</dc:format>
<dc:type rdf:resource="http://purl.org/dc/dcmitype/StillImage"/>
<dc:title>ASL letter</dc:title>
<dc:date>11/11/2013</dc:date>
<dc:creator>
<cc:Agent>
<dc:title>edited by Paul Sherman</dc:title>
</cc:Agent>
</dc:creator>
<dc:rights>
<cc:Agent>
<dc:title>PD</dc:title>
</cc:Agent>
</dc:rights>
<dc:publisher>
<cc:Agent>
<dc:title>WPClipart</dc:title>
</cc:Agent>
</dc:publisher>
<dc:subject>
<rdf:Bag>
<rdf:li>sign</rdf:li>
<rdf:li>language</rdf:li>
<rdf:li>letter</rdf:li>
<rdf:li>american</rdf:li>
</rdf:Bag>
</dc:subject>
<cc:license rdf:resource="http://creativecommons.org/publicdomain/zero/1.0/"/>
</cc:Work>
<cc:License rdf:about="http://creativecommons.org/publicdomain/zero/1.0/">
<cc:permits rdf:resource="http://creativecommons.org/ns#Reproduction"/>
<cc:permits rdf:resource="http://creativecommons.org/ns#Distribution"/>
<cc:permits rdf:resource="http://creativecommons.org/ns#DerivativeWorks"/>
</cc:License>
</rdf:RDF>
</metadata>
<path d="m98.989 433.25-3.7664-3.6818 2.8207-1.7361c1.5514-0.95488 6.4769-3.8674 10.946-6.4724 13.525-7.884 19.702-14.775 32.479-36.235 3.6841-6.1875 10.348-17.107 14.808-24.265l8.1099-13.015-2.8372-2.2974c-3.8196-3.093-5.0717-2.9628-18.841 1.9592-6.5484 2.3407-14.562 4.6541-17.808 5.1408-5.3566 0.80327-30.911-1.4395-30.911-2.7128 0-0.55989 5.0405-10.757 5.6716-11.473 0.20036-0.22757 1.5635 0.22803 3.0292 1.0124 4.8611 2.6016 15.913 3.6996 24.049 2.3893 22.93-3.6928 47.513-27.805 54.09-53.053 2.6122-10.029 2.4173-16.007-1.204-36.935-1.774-10.252-3.119-22.943-3.125-29.485l-0.01-11.486-5.9375-0.74535c-9.7336-1.2219-20.348-3.4532-20.933-4.4008-0.75149-1.2159 6.8926-3.3759 18.121-5.1203 5.1562-0.80108 10.781-1.8488 12.5-2.3283 5.3481-1.4919 12.138-12.128 27.073-42.411l14.415-29.227-3.0006-3.0006c-1.6504-1.6504-6.3446-4.3753-10.432-6.0554l-7.431-3.0548 7.5-0.0113c4.125-6e-3 11.156 0.85935 15.625 1.9234l8.125 1.9346 7.6095-8.3952c7.4467-8.2156 7.5883-8.5048 6.6169-13.516-0.54647-2.8161-1.0109-7.9328-1.0325-11.37l-0.0394-6.25 3.2029 5.625c7.8084 13.713 11.566 15.519 32.392 15.567 13.22 0.0301 17.008-0.37494 20.312-2.172 2.2344-1.2149 4.0625-2.7768 4.0625-3.4708 0-0.79889-0.97504-0.74005-2.6575 0.16035-2.388 1.278-3.6871 0.41024-12.812-8.5589-9.8188-9.6506-10.394-10.007-17.363-10.767-6.8305-0.7443-7.2831-0.62102-8.6382 2.3529-1.6427 3.6053-3.9162 3.8934-10.155 1.2867-5.1916-2.1692-11.404-1.6403-23.967 2.0401-18.767 5.4981-22.759 8.8951-37.95 32.291-12.769 19.667-15.932 23.207-34.582 38.708-26.642 22.144-43.426 41.394-50.519 57.94-1.3707 3.1978-5.0211 14.467-8.112 25.042-8.2826 28.339-13.11 37.973-28.287 56.456-10.102 12.303-17.457 24.168-17.457 28.162 0 1.8695 0.80424 5.6785 1.7872 8.4645l1.7872 5.0655-3.9747 1.3842c-8.8345 3.0766-12.827 7.0274-18.812 18.615-5.6404 10.921-14.145 22.297-19.441 26.007-2.4927 1.7459-2.5378 1.685-1.2538-1.6934 0.73261-1.9275 4.3079-9.9733 7.945-17.88 3.6371-7.9062 8.1696-18.031 10.072-22.5 4.646-10.913 11.959-24.314 30.353-55.625 22.802-38.814 24.524-42.683 30.312-68.125 2.7373-12.031 6.9453-33.349 9.3511-47.374l4.3741-25.499 5.7405-7.0013c21.872-26.676 33.671-39.121 58.843-62.068 27.548-25.113 27.825-25.322 37.894-28.676 8.7305-2.9075 11.811-4.7975 22.115-13.568 16.948-14.425 20.537-17.065 23.2-17.065 1.2914 0 6.9569 1.9065 12.59 4.2366 16.388 6.7788 23.056 8.3888 38.992 9.4141 12.782 0.82242 16.009 1.4784 21.825 4.4361 18.044 9.1773 50.057 31.478 56.956 39.678 3.1428 3.735 3.3467 4.6639 2.8139 12.819-0.93443 14.302-8.0886 24.399-17.298 24.412-1.918 3e-3 -4.6343 1.498-6.7687 3.7258-5.1789 5.4056-10.52 6.754-22.964 5.7975-8.8992-0.68404-12.318-1.6375-20.987-5.8529-9.527-4.6325-10.585-4.8908-13.216-3.2261-1.7418 1.102-8.1206 2.1505-16.313 2.6814l-13.453 0.87173-4.2476 5.1911c-10.316 12.607-32.882 55.254-34.115 64.471-0.83296 6.2306 3.716 18.976 10.322 28.919 7.5163 11.314 26.946 29.926 31.241 29.926 5.2463 0 19.979-6.7412 42.592-19.489 11.613-6.5468 26.379-14.467 32.812-17.6 10.753-5.2377 12.21-5.6291 18.059-4.8532 13.974 1.8536 26.43 8.3177 30.245 15.695 4.7199 9.1273-0.0824 18.012-17.103 31.642-13.123 10.509-16.806 14.259-25.394 25.855-7.5716 10.224-15.328 18.463-19.4 20.606-1.7302 0.91079-8.7614 2.316-15.625 3.1226-14.017 1.6473-19.735 3.832-41.854 15.991-12.441 6.839-15.973 9.5544-26.25 20.183-10.905 11.278-12.416 12.396-18.499 13.689-3.6432 0.77414-16.362 1.4075-28.263 1.4075s-24.243 0.35694-27.426 0.7932c-5.5902 0.76621-5.9932 1.1169-11.851 10.312-3.335 5.2356-10.171 17.113-15.191 26.394-5.0203 9.2812-11.23 19.969-13.799 23.75-8.7443 12.871-22.034 23.594-35.666 28.777-2.5309 0.96225-3.668 0.54007-6.8051-2.5265zm128.43-98.266c8.6768-0.87612 18.795-7.59 33.135-21.986 10.832-10.874 10.938-11.041 10.938-17.239 0-6.4547 0.81339-7.2493 5.0822-4.9647 1.5061 0.80603 2.4178 2.6129 2.4178 4.7917 0 1.9237 0.31455 3.8122 0.699 4.1967s3.4165-1.1297 6.7378-3.3648c6.4754-4.3576 17.668-8.6309 35.688-13.625 19.101-5.294 19.139-5.3211 35.737-25.302 9.9944-12.031 17.89-20.224 23.184-24.055 16.768-12.135 12.804-23.193-8.9006-24.835-8.0048-0.60541-9.911-0.29718-16.326 2.64-3.995 1.829-11.849 6.3765-17.454 10.106-9.8514 6.5549-10.241 7.0004-11.722 13.405-0.84238 3.6436-2.8815 9.156-4.5314 12.25l-2.9997 5.625-0.0565-7.8517c-0.0441-6.1423-0.5103-8.0259-2.1409-8.6516-3.8262-1.4683-15.916 2.0135-27.916 8.0398-10.838 5.4427-11.946 6.3325-12.688 10.188-0.8462 4.3984-2.9894 6.6183-5.8767 6.0869-0.92918-0.17101-3.0916-4.8109-4.8054-10.311-2.9042-9.3201-3.6817-10.507-11.436-17.45-13.208-11.828-17.498-16.62-20.913-23.36-3.7684-7.4366-8.0312-23.282-8.0312-29.854 0-6.1535 15.489-37.163 28.094-56.247 5.1733-7.832 9.406-14.403 9.406-14.602s-1.345-0.36212-2.9889-0.36212c-3.5701 0-12.84 7.4025-19.795 15.806-2.9201 3.5288-6.059 6.0685-7.5001 6.0685-2.0199 0-3.3338 2.4273-7.1043 13.125-6.1977 17.584-17.085 38.205-27.332 51.769-4.6224 6.1183-9.0398 12.02-9.8164 13.115-1.9137 2.6985-0.0366 31.903 3.2771 50.986 2.9781 17.15 3.048 20.736 0.62942 32.255-2.7014 12.867-9.341 25.358-18.332 34.49-10.779 10.948-10.242 11.203 21.941 10.404 13.831-0.34302 28.095-0.92143 31.7-1.2854zm-28.806-82.529c-2.6527-2.6527-0.37586-5.645 7.6857-10.101 7.7462-4.2813 9.2874-4.6898 16.25-4.3064 7.068 0.38916 7.6921 0.65653 7.6921 3.2956 0 2.4646-0.83529 2.9973-5.8877 3.755-4.9616 0.74404-15.167 4.0333-22.928 7.3896-1.0672 0.46154-2.3328 0.44665-2.8125-0.0331zm-38.351-120.45c18.502-18.488 21.293-21.844 26.875-32.319 10.351-19.424 9.8666-19.079 38.104-27.169 13.406-3.841 28.031-7.259 32.5-7.5955 4.4688-0.33647 18.237 0.52802 30.596 1.9211 17.586 1.9822 22.805 2.9898 24.008 4.6347 1.6098 2.2015 3.4504 10.393 4.8138 21.424 0.79679 6.4465 0.89083 6.5667 7.7757 9.9352 12.94 6.3309 26.036 4.9947 33.431-3.411l2.5-2.8414-4.0288 2.333c-4.0214 2.3287-4.0349 2.3274-7.3371-0.7291-4.415-4.0864-8.8709-11.215-10.188-16.298-0.85395-3.2955-1.936-4.3614-5.3167-5.2374-2.3345-0.60492-10.69-5.2739-18.568-10.376-7.8779-5.1017-15.502-9.269-16.942-9.2607-1.4404 0.0083-5.0815 1.4228-8.0914 3.1434l-5.4724 3.1283 0.7068-3.534c0.38874-1.9437 0.88257-4.3426 1.0974-5.3309 0.3332-1.5327-5.1219-1.7842-37.109-1.7107-34.788 0.07994-37.907 0.2683-43.125 2.6041-7.6468 3.4229-21.943 15.996-35.316 31.06-9.4567 10.652-12.376 15.087-19.742 30-4.7546 9.625-11.727 21.438-15.494 26.25-8.6759 11.084-11.799 15.666-17.039 25l-4.2104 7.5 12.463-11.245c6.8549-6.1846 21.754-20.528 33.11-31.875zm-32.91 3.1197c10.882-16.43 12.734-19.454 10.713-17.5-0.71091 0.6875-6.1372 6.816-12.058 13.619-9.1826 10.55-10.766 13.022-10.766 16.812 0 5.4396-0.19348 5.6461 12.111-12.931zm246.61-44.717c2.1608-3.8324 1.5866-4.8303-2.2088-3.8378-2.0621 0.53924-2.7579 1.6569-2.7579 4.4296 0 4.448 2.2782 4.1765 4.9667-0.59181zm-16.492-0.71151c1.2368-0.78481 1.0021-1.7747-1.0344-4.3638-2.7776-3.5311-7.2342-6.4555-8.2659-5.4238-0.71118 0.71118 5.781 10.85 6.9293 10.822 0.42426-0.0105 1.4912-0.47593 2.371-1.0342zm-55.156-7.1256c0.99102-2.5826 0.60956-2.8272-5.8656-3.7615l-5.5781-0.80484 3.75 3.2026c4.3218 3.691 6.6427 4.1023 7.6936 1.3636zm67.296-13.676c-4.6072-3.7643-5.2328-3.818-6.2735-0.5391-0.57205 1.8024 0.0565 3.547 2.0377 5.6559l2.8649 3.0495 5.1108-5.1108-3.7398-3.0555zm-16.865-4.3066v-7.4112l-9.0625-5.6216c-14.139-8.7707-15.647-9.2775-17.925-6.0254-1.9641 2.8041-7.2627 3.6947-8.6478 1.4535-0.43031-0.69626 0.0571-2.9488 1.0833-5.0058 1.6906-3.3889 1.6691-3.8405-0.22889-4.8127-1.152-0.59009-8.2821-1.4159-15.845-1.8351-11.5-0.63751-16.195-1.586-28.691-5.7964-21.706-7.3131-25.524-6.7871-35.44 4.8825l-5.3818 6.3334 22.882 0.0095c35.553 0.01467 41.482 1.5462 64.307 16.611 10.52 6.9431 25.961 14.08 31.387 14.507 1.0881 0.08564 1.5625-2.127 1.5625-7.2882z"/>
</svg>
