<?xml version="1.0" encoding="UTF-8"?>
<svg version="1.1" viewBox="0 0 353.42 462.14" xmlns="http://www.w3.org/2000/svg" xmlns:cc="http://creativecommons.org/ns#" xmlns:dc="http://purl.org/dc/elements/1.1/" xmlns:rdf="http://www.w3.org/1999/02/22-rdf-syntax-ns#">
<metadata>
<rdf:RDF>
<cc:Work rdf:about="">
<dc:format>image/svg+xml</dc:format>
<dc:type rdf:resource="http://purl.org/dc/dcmitype/StillImage"/>
<dc:title>ASL letter</dc:title>
<dc:date>11/11/2013</dc:date>
<dc:creator>
<cc:Agent>
<dc:title>edited by Paul Sherman</dc:title>
</cc:Agent>
</dc:creator>
<dc:rights>
<cc:Agent>
<dc:title>PD</dc:title>
</cc:Agent>
</dc:rights>
<dc:publisher>
<cc:Agent>
<dc:title>WPClipart</dc:title>
</cc:Agent>
</dc:publisher>
<dc:subject>
<rdf:Bag>
<rdf:li>sign</rdf:li>
<rdf:li>language</rdf:li>
<rdf:li>letter</rdf:li>
<rdf:li>american</rdf:li>
</rdf:Bag>
</dc:subject>
<cc:license rdf:resource="http://creativecommons.org/publicdomain/zero/1.0/"/>
</cc:Work>
<cc:License rdf:about="http://creativecommons.org/publicdomain/zero/1.0/">
<cc:permits rdf:resource="http://creativecommons.org/ns#Reproduction"/>
<cc:permits rdf:resource="http://creativecommons.org/ns#Distribution"/>
<cc:permits rdf:resource="http://creativecommons.org/ns#DerivativeWorks"/>
</cc:License>
</rdf:RDF>
</metadata>
<path d="m153.28 444.15c-6.3174-18.42-2.5218-60.061 6.858-75.238 1.3881-2.246 2.5238-4.3673 2.5238-4.7139 0-0.3466-2.1094-0.98784-4.6875-1.425-6.2028-1.0517-16.363-6.8077-19.478-11.035-2.847-3.8632-4.5843-17.239-2.2391-17.239 0.77264 0 1.411 0.42187 1.4186 0.9375 7e-3 0.51562 2.8154 4.0312 6.2397 7.8125l6.2259 6.875 3.1334-3.75c7.804-9.3396 16.999-31.805 19.969-48.788 2.0047-11.463 0.8034-21.085-5.52-44.213-7.9201-28.969-8.3799-33.455-5.228-51.016 3.8426-21.408 3.6959-23.228-2.3341-28.964-6.5329-6.2146-6.5473-9.2842-0.0525-11.23 6.333-1.8974 13.802-8.8489 13.802-12.845 0-1.6565-0.87018-4.2541-1.9337-5.7726-1.8378-2.6239-1.7293-2.8854 2.1875-5.2735 2.2667-1.382 5.1312-2.5148 6.3656-2.5173 4.3065-9e-3 8.3807-5.6552 8.3807-11.615 0-6.9412 0.77576-7.6481 5.0519-4.6032 6.1428 4.3741 10.63 2.9667 12.483-3.9155 0.72147-2.6793 1.7119-4.8642 2.2011-4.8553 0.48912 9e-3 3.7018 4.3444 7.1393 9.6346 18.158 27.944 25.941 35.349 37.151 35.349 7.4672 0 12.816-2.6032 15.327-7.4591 2.9526-5.7096 2.3156-8.3053-3.1369-12.783-2.7682-2.2732-6.5154-6.8078-8.3271-10.077-1.8117-3.2691-3.4848-5.753-3.7179-5.5198s0.0799 3.1208 0.69572 6.4171c0.78874 4.2219 2.1443 6.8102 4.5864 8.7575 4.6082 3.6745 3.4661 6.914-2.4376 6.914-7.3826 0-8.2657-0.84809-8.274-7.9462-4e-3 -3.5358-0.37451-11.144-0.82307-16.907l-0.81559-10.479-7.5214-8.0404c-4.1368-4.4222-9.0445-8.828-10.906-9.7907-1.8616-0.96268-8.4299-2.3638-14.596-3.1135-6.1663-0.74975-14.423-2.1098-18.348-3.0222-6.9646-1.619-7.2285-1.5821-10.924 1.5276-3.9243 3.3021-3.981 3.7939-1.552 13.472l0.87642 3.492-3.9599-2.8197c-4.4716-3.1841-8.1927-9.4631-7.1768-12.11 1.2999-3.3874-1.1579-1.5905-5.7961 4.2375-2.5717 3.2314-8.8764 11.571-14.011 18.532-7.8814 10.686-12.069 14.84-26.895 26.684-19.59 15.649-28.041 24.42-33.586 34.857-5.9561 11.211-16.611 38.977-15.862 41.336 0.37526 1.1824 1.2106 9.1101 1.8564 17.617 2.2111 29.13-2.1153 63.035-12.359 96.85-4.303 14.205-42.538 116.26-44.668 119.23-0.46906 0.65327-7.8365-2.4508-8.5476-3.6012-0.31271-0.50596 1.0692-3.9484 3.0709-7.6497 2.0017-3.7014 6.132-13.48 9.1784-21.73 3.0464-8.25 8.1479-21.078 11.337-28.507 3.1887-7.4286 8.9253-23.179 12.748-35 3.8227-11.821 7.7577-23.341 8.7444-25.598s1.8043-7.8827 1.817-12.5c0.0165-6.025 1.2042-12.101 4.207-21.52 6.1326-19.237 6.5282-28.494 2.7245-63.75-7.081-65.633-6.9778-64.25-5.6149-75.222 2.3804-19.163 6.9443-25.269 29.302-39.204 8.0999-5.0484 10.703-6.0008 18.917-6.922 5.2385-0.58747 9.6322-1.2277 9.7637-1.4227 0.13152-0.195 2.0829-3.7296 4.3364-7.8546 10.15-18.58 41.161-54.987 53.678-63.02 7.1494-4.5878 13.147-6.0485 15.798-3.8481 1.5783 1.3098 4.1132 0.09855 15.37-7.3444 7.4139-4.9021 14.788-8.9129 16.387-8.9129 1.599 0 6.3558 2.0696 10.571 4.599 9.3955 5.6384 72.506 47.001 73.067 47.888 0.2217 0.3509 4.1592 11.302 8.75 24.335l8.3469 23.697 6.25 2.2138c8.2589 2.9254 10.625 5.9803 10.625 13.718 0 7.7797-2.1918 12.023-9.3868 18.173-5.0899 4.3507-6.2315 6.3772-10.635 18.878-4.9044 13.923-4.9314 14.103-4.6897 31.189 0.1885 13.325-0.19818 18.177-1.7218 21.604-2.8227 6.348-16.622 18.457-36.059 31.64l-16.867 11.441-15.633 29.56c-17.569 33.222-19.468 36.288-28.775 46.471-8.394 9.1844-18.891 16.677-32.797 23.41-12.527 6.0651-16.529 10.762-21.201 24.881-2.3115 6.9856-2.7454 11.436-2.9755 30.519-0.24669 20.459-1.738 32.352-4.2519 33.905-0.49522 0.30605-1.9076-2.3803-3.1386-5.9697zm31.62-94.004c8.2637-3.8472 18.931-12.014 27.355-20.942 4.887-5.1797 9.1204-12.169 17.318-28.593 5.9675-11.955 13.853-26.276 17.523-31.823 9.1271-13.795 22.485-26.229 34.429-32.048 10.829-5.2756 16.626-11.008 21.775-21.532 3.4665-7.0853 3.5061-7.4114 2.139-17.629-1.2796-9.564-1.1512-11.313 1.5814-21.524 5.0668-18.933 9.0224-27.377 15.257-32.568 7.2298-6.0198 10.868-11.888 9.8608-15.903-1.0945-4.3607-3.5078-3.8304-6.3183 1.3883-4.0704 7.5582-8.6377 10.525-16.202 10.525h-6.601l-0.78718 7.5314c-0.92839 8.8823-3.0687 13.484-8.3309 17.912-5.2472 4.4152-11.978 6.0601-19.243 4.7028-6.8909-1.2874-7.2077-0.96817-12.6 12.697l-3.3412 8.468 4.3699 7.9501c6.3873 11.62 6.6686 16.989 0.88986 16.989-3.2994 0-4.0863-0.83839-7.5-7.9912-2.0976-4.3952-3.8138-8.862-3.8138-9.9262 0-3.866-2.9322-3.5271-13.107 1.5148-19.052 9.4407-22.423 17.155-12.718 29.101 2.9836 3.6724 6.0109 7.8021 6.7273 9.1771 1.6203 3.1101 0.0933 7.5044-3.2252 9.2803-2.2235 1.19-3.6646-0.48011-14.758-17.103-6.7616-10.132-14.214-20.562-16.562-23.178-3.7103-4.1349-19.305-14.624-21.743-14.624-0.47564 0-0.87443 1.2656-0.88621 2.8125-0.0112 1.5469-1.1271 7.0312-2.4786 12.188-3.292 12.56-3.125 19.883 0.78771 34.551 1.8082 6.7784 4.6507 17.387 6.3166 23.574 6.8386 25.4 1.2286 56.06-14.494 79.213-2.8106 4.1388-5.1103 7.8373-5.1103 8.2188 0 0.38148 3.7969 0.68809 8.4375 0.68138 6.3243-9e-3 10.094-0.78332 15.051-3.091zm52.925-164.36c3.0041-1.3631 7.1785-2.4907 9.2765-2.5058 3.397-0.0245 4.1114-0.73047 6.5286-6.4517 2.9366-6.9508 2.7316-8.5758-1.0819-8.5758-8.4046 0-17.778-7.5087-31.237-25.024-8.5113-11.076-11.135-13.699-13.717-13.711-4.2828-0.0203-13.113 5.7765-19.62 12.88-4.6109 5.0336-5.3125 6.5456-5.3125 11.449 0 4.6915-0.73553 6.4635-4.3381 10.451l-4.338 4.8017 1.2856 7.9828c0.70707 4.3905 1.4615 8.1587 1.6765 8.3737 0.21501 0.21502 1.8727-0.28418 3.6837-1.1093 2.9629-1.35 3.9496-1.0462 9.849 3.0325 3.606 2.493 10.213 7.8707 14.681 11.95l8.125 7.4175 9.538-9.241c5.2459-5.0826 11.996-10.356 15-11.719zm-163.91 0.67662c0-0.9034 3.5823-8.8858 7.9606-17.739l7.9606-16.096 19.852-16.225c26.962-22.037 35.888-31.229 44.598-45.926 12.419-20.957 18.414-23.153 45.429-16.643 7.866 1.8956 16.802 3.1691 22.238 3.1691 12.461 0 15.666 2.5582 31.337 25.012 12.452 17.84 20.107 27.488 21.813 27.488 0.49355 0 0.72784-6.8056 0.52064-15.124-0.34717-13.938-0.68847-15.8-4.3518-23.748-3.6906-8.0068-4.6552-9.0566-13.479-14.669-13.574-8.6339-30.497-17.967-50.512-27.856l-17.379-8.5872-3.6187 2.5768c-1.9903 1.4172-3.6187 2.7731-3.6187 3.013 0 0.23994 1.105 3.0141 2.4556 6.1649 1.3506 3.1507 2.1716 5.7286 1.8244 5.7286-1.9306 0-8.0828-5.8597-9.3408-8.8968-1.2063-2.9122-1.8742-3.3246-3.7548-2.3181-4.0186 2.1507-23.124 25.552-38.498 47.154-18.177 25.541-23.214 31.444-44.599 52.265-20.405 19.868-22.425 23.428-20.36 35.892 0.75917 4.5815 1.8624 8.032 2.4516 7.6678 0.58921-0.36415 1.0713-1.4012 1.0713-2.3046zm213.25-30.085c4.2163-2.7041 5.9111-8.2213 4.3296-14.095-1.4699-5.4586-3.6092-6.9455-8.2997-5.7683-2.3994 0.6022-3.0257 1.574-3.0257 4.6946 0 5.9045-2.0983 12.073-5.2826 15.529l-2.8424 3.0851 6.25-0.88266c3.4375-0.48545 7.4293-1.639 8.8707-2.5634zm-195.14-25.538c8.2392-8.2978 14.264-15.087 13.388-15.087-2.5671 0-11.509 4.873-20.054 10.929-8.7132 6.1748-15.189 14.979-15.189 20.651v3.5904l3.4375-2.4983c1.8906-1.374 10.179-9.2874 18.418-17.585zm224.08-0.42045c0.85937-0.67237 1.5625-2.004 1.5625-2.9592 0-1.3226-1.1781-1.5483-4.941-0.94662-9.0875 1.4532-10.53 0.38129-13.172-9.7838-2.9256-11.26-2.9242-11.276 1.776-21.224l3.8489-8.1463-2.1937-5.97c-2.9136-7.9291-12.472-16.494-29.877-26.773-7.4615-4.4064-20.035-12.633-27.941-18.281-7.9062-5.6482-15.641-10.922-17.188-11.72-3.2787-1.6907-4.72-1.0835-15.639 6.5893l-7.2017 5.0605 28.542 14.431c15.698 7.9373 31.485 16.68 35.082 19.427 8.7447 6.6801 12.875 13.523 18.285 30.293 8.1748 25.343 19.745 37.289 29.058 30.003zm-29.757-2.4789c-0.0384-0.85938-1.1766-4.0938-2.5294-7.1875l-2.4595-5.625 0.7761 6.25c0.42685 3.4375 1.0358 6.6719 1.3532 7.1875 0.93141 1.5132 2.9357 1.0752 2.8597-0.625zm26.878-12.609c2.1136-1.5455 2.1493-2.0814 0.47328-7.1094-0.99693-2.9908-2.4036-5.6349-3.1258-5.8756-2.0946-0.6982-4.4808 6.58-3.5487 10.824 0.91409 4.1618 2.6417 4.7638 6.2012 2.1611z"/>
</svg>
