<?xml version="1.0" encoding="UTF-8"?>
<svg version="1.1" viewBox="0 0 245.91 533.67" xmlns="http://www.w3.org/2000/svg" xmlns:cc="http://creativecommons.org/ns#" xmlns:dc="http://purl.org/dc/elements/1.1/" xmlns:rdf="http://www.w3.org/1999/02/22-rdf-syntax-ns#">
<metadata>
<rdf:RDF>
<cc:Work rdf:about="">
<dc:format>image/svg+xml</dc:format>
<dc:type rdf:resource="http://purl.org/dc/dcmitype/StillImage"/>
<dc:title>ASL letter</dc:title>
<dc:date>11/11/2013</dc:date>
<dc:creator>
<cc:Agent>
<dc:title>edited by Paul Sherman</dc:title>
</cc:Agent>
</dc:creator>
<dc:rights>
<cc:Agent>
<dc:title>PD</dc:title>
</cc:Agent>
</dc:rights>
<dc:publisher>
<cc:Agent>
<dc:title>WPClipart</dc:title>
</cc:Agent>
</dc:publisher>
<dc:subject>
<rdf:Bag>
<rdf:li>sign</rdf:li>
<rdf:li>language</rdf:li>
<rdf:li>letter</rdf:li>
<rdf:li>american</rdf:li>
</rdf:Bag>
</dc:subject>
<cc:license rdf:resource="http://creativecommons.org/publicdomain/zero/1.0/"/>
</cc:Work>
<cc:License rdf:about="http://creativecommons.org/publicdomain/zero/1.0/">
<cc:permits rdf:resource="http://creativecommons.org/ns#Reproduction"/>
<cc:permits rdf:resource="http://creativecommons.org/ns#Distribution"/>
<cc:permits rdf:resource="http://creativecommons.org/ns#DerivativeWorks"/>
</cc:License>
</rdf:RDF>
</metadata>
<path d="m78.431 519.89-4.4227-1.7786 2.9016-14.034c1.9863-9.6072 2.79-17.22 2.5477-24.133-0.434-12.383-1.8186-14.481-19.737-29.908-20.235-17.422-20.956-19.491-27.418-78.743l-2.3176-21.25-9.1244-18.501c-9.7682-19.807-10.568-23.506-6.6962-30.992 2.9105-5.6283 15.076-17.586 27.439-26.969 14.39-10.923 14.269-10.729 16.264-25.928 2.9184-22.233 10.849-48.585 16.246-53.982 1.5288-1.5288 5.5824-3.7751 9.0079-4.9918l6.2282-2.2121 1.863-29.196c2.0466-32.074 2.4935-40.635 3.3529-52.038l1.313-17.421 0.79231-10.392c0.71252-9.345 1.4944-16.123-0.96171-27.736l0.4024-13.031 2.749-9.9318c3.3248-12.012 10.35-13.165 20.765-14.398 8.0099-0.94865 11.612 0.05109 16.894 4.6892 3.8125 3.3474 5.7236 7.0613 10.105 19.638 0.44229 1.2695 1.3373 1.204 4.27-0.3125 9.7717-5.0531 26.756 0.02063 30.198 9.0211 0.59208 1.5482 3.4444 18.514 5.5908 34.391 3.5569 26.309 3.395 22.146 5.4888 37.934l3.131 23.61 0.85528 49.109-0.58232 48.391 3.183 8.75c6.0286 16.573 8.6388 22.574 20.4 46.903 18.597 38.47 16.395 65.307 10.724 82.66-3.2008 9.7936-4.8657 12.236-8.0686 19.629-7.1056 16.401-9.2161 17.513-12.315 23.983-2.6549 5.542-2.3783 5.0718-5.2084 16.941-4.9529 20.771-7.0532 32.879-7.1355 41.135-0.16133 16.191-3.8014 25.687-9.0716 23.665-1.7063-0.65476-2.1041-2.533-2.1041-9.934 0-16.733 7.7595-56.406 11.34-62.984 0.81279-1.4934 3.2468-11.404 6.5608-16.263 3.0891-10.796 6.8308-11.525 11.435-24.013 3.2811-9.1233 7.4142-17.809 8.6069-28.776 2.8164-25.895 1.4641-29.629-18.644-69.347-6.3073-12.458-12.433-25.178-13.612-28.266-1.551-4.0611-3.4126-6.3145-6.7275-8.143-8.7578-4.8308-9.8056-4.7545-12.703 0.92578-3.309 6.4861-10.895 14.934-14.714 16.386-3.6856 1.4013-8.1594-0.7858-18.728-9.1554-7.4437-5.8949-7.8125-6.4444-7.8125-11.639v-5.4524l3.8476 1.3413c2.1162 0.7377 7.1507 4.3994 11.188 8.1372 8.2769 7.6629 9.1243 7.6508 16.043-0.22921 5.6336-6.4164 5.137-8.2626-3.3-12.27-3.9718-1.8863-9.7374-5.6785-12.812-8.4271-9.9206-8.8674-13.96-7.8131-18.867 4.9249-8.0543 20.905 0.59155 40.034 23.918 52.918 4.4596 2.4631 9.9382 4.8602 12.175 5.3268 4.3266 0.90268 6.7805 3.7195 23.286 26.731 4.6189 6.4393 8.1819 11.924 7.9178 12.188-0.26408 0.26408-5.0031-2.7544-10.531-6.7078-6.7404-4.8205-11.432-9.326-14.243-13.679-5.1164-7.9228-11.113-10.279-11.126-4.3724-7e-3 3.5398-4.7781 10.195-9.1613 12.781-3.4433 2.0316-4.9406 4.5049-8.8618 14.639-6.0006 15.507-7.5757 25.198-5.8729 36.136 2.7156 17.443 13.117 30.708 30.786 39.26 5.5447 2.6838 11.889 5.2411 14.098 5.683 4.379 0.87579 4.9033 2.34 2.1435 5.9859-1.7476 2.3087-2.0377 2.2811-11.216-1.0664-11.556-4.2148-22.096-10.924-28.992-18.456-9.4667-10.339-12.885-19.438-13.983-37.222l-0.81055-13.125-9.4914-0.7719c-22.907-1.8629-31.55-8.8218-40.461-32.575-2.0658-5.507-2.798-6.1367-12.609-10.844-9.6411-4.6261-10.478-5.3302-11.254-9.466-1.6794-8.9518 2.7367-22.273 8.3449-25.173 4.3626-2.256 4.4154-1.7588 1.0065 9.4644-2.392 7.8752-2.4408 8.8081-0.64278 12.285 1.4206 2.7472 3.8187 4.4635 8.8855 6.3592 3.8168 1.428 8.0219 2.5965 9.3446 2.5965 1.7813 0 2.7598 1.3775 3.7734 5.3125 3.7801 14.675 6.7707 21.172 12.051 26.184 7.4879 7.1068 17.484 8.9568 28.364 5.2494 5.9581-2.0301 8.3031-4.8214 9.9961-11.898 0.71815-3.0019 0.24568-3.5014-5.6163-5.9375-7.2966-3.0324-13.865-3.4385-15.902-0.98326-0.7653 0.92214-1.2962 5.1341-1.1797 9.36 0.1165 4.2259-0.15245 8.0476-0.59759 8.4927-0.44513 0.44514-2.1552-0.0725-3.8002-1.1503-6.0455-3.9611-4.9558-15.772 2.1042-22.806 3.5304-3.5174 3.7768-4.2282 2.404-6.9336-0.96294-1.8976-1.2516-5.403-0.77902-9.4611 0.73475-6.3098 0.63117-6.575-4.8817-12.5-3.0978-3.3294-7.9196-10.62-10.715-16.202-3.6174-7.223-5.9133-10.371-7.9636-10.92-9.3205-2.4964-18.012 1.0034-34.629 13.944-17.86 13.909-28.877 26.556-28.877 33.151 0 0.96286 2.76 7.6464 6.1334 14.852 9.4427 20.171 10.315 23.479 11.471 43.497 1.5981 27.672 8.2545 58.601 13.926 64.71 1.5642 1.6846 7.8534 6.6578 13.976 11.052 10.214 7.3298 11.66 7.9886 17.535 7.9886 4.7459 0 8.7663-1.1324 15.532-4.375 5.021-2.4062 9.6729-4.375 10.338-4.375 1.4445 0 4.8671 7.6913 4.0273 9.0501-0.32287 0.52244-1.4506 0.94989-2.5061 0.94989-1.0555 0-6.9259 2.3906-13.045 5.3125l-11.126 5.3125-6e-3 7.359c-5e-3 6.5629-3.7856 34.997-6.0266 45.329l-0.85418 3.9381-4.4226-1.7786zm56.779-206.34c-4.8475-5.2922-4.865-5.3925-2.3709-13.62l1.8602-6.1362-4.9234-4.1148c-8.2298-6.8782-16.297-24.069-16.297-34.729 0-2.2081 1.686-10.684 3.7466-18.836 2.0606-8.1515 3.7482-16.166 3.75-17.811 5e-3 -4.0655-10.591-16.239-16.16-18.565-4.935-2.062-14.714-1.5849-20.358 0.99319-5.4431 2.4861-10.852 17.09-13.785 37.217-1.3346 9.1599-2.2283 16.853-1.986 17.095 0.24234 0.24234 3.6207-0.63298 7.5075-1.9452l7.0669-2.3858 4.0305 3.765c2.2167 2.0708 4.276 3.5195 4.576 3.2194 1.0343-1.0343-3.6134-8.5775-8.6549-14.047l-5.0542-5.4831 5.4371 1.9183c9.587 3.3825 12.364 7.7159 18.538 28.929 2.2598 7.7639 3.5364 9.8532 9.4963 15.541 8.1301 7.7594 10.604 13.817 8.1054 19.848-1.4568 3.5169-1.3325 4.1541 1.384 7.0991 3.691 4.0014 9.2451 6.5534 14.403 6.6178l3.9186 0.0489-4.2311-4.6193zm13.761-1.8698c1.619-4.5796 0.0589-9.1086-3.7328-10.836-2.8122-1.2814-3.5507-1.1743-4.9902 0.7232-2.3056 3.0393-2.2364 3.4494 1.5486 9.1689 3.644 5.5065 5.4764 5.7477 7.1745 0.94413zm37.558-154.85c-0.75727-10.312-1.6366-25.597-3.2718-33.526-1.6352-7.9293-3.9556-21.429-4.717-30-3.3021-37.167-7.109-42.225-12.597-46.843-3.2292-2.7172-4.1498-2.9103-8.55-1.7934-2.7121 0.68841-6.4709 2.8588-8.3529 4.8232-3.0449 3.1782-3.5378 4.92-4.4758 15.815-0.57978 6.7339-1.513 16.902-2.0737 22.595-0.89795 9.1165-0.78795 10.256 0.92181 9.5519 8.6839-3.5778 17.481-2.9359 22.024 1.6072 1.9265 1.9265 1.9138 2.1839-0.18265 3.717-2.7708 2.026-4.4916 2.0642-8.6033 0.19081-2.7423-1.2495-3.6053-1.072-6.0769 1.25-1.5844 1.4884-4.1101 2.7063-5.6126 2.7063-2.3306 0-2.7262 0.6887-2.6926 4.6875 0.0216 2.5781-0.0326-9.101 2.011 21.766 1.0852 16.391 0.74891 29.311 1.2956 48.311 0.12175 4.2312 1.6812 8.1107 1.4501 10.861l-0.42026 5 8.4372 0.36961 6.6401 4.3231 1.797 0.36444c4.9907 1.0121-4.0646 9.948-7.2842 8.702-6.346-2.456-8.3317-2.1059-11.371 2.0044l-3.0156 4.0789 5.5227 4.9121c9.3365 8.3042 16.325 12.509 27.396 16.482l10.627 3.8139 1.0962-33.51c0.59614-18.224 0.83599-41.947 0.0787-52.26zm-50.201 44.781c0.32468-6.3594 0.62706-12.485 0.78774-18.235 0.23869-8.5415-1.0639-13.446-0.79105-26.347 0.23036-10.892-1.4103-17.252-1.0474-19.124 0.36287-1.8719 0.94132-7.5127-0.47167-14.731-3.0511-15.588-3.1525-21.167-0.71565-39.375 3.8069-28.445 1.7826-51.328-5.2078-58.871-2.5925-2.7974-3.6718-3.1379-7.6065-2.3997-11.241 2.1089-15.993 8.5253-17.348 23.426-0.63222 6.9531 2.4957 36.831 4.0149 38.351 0.30044 0.30044 1.8097-0.63724 3.3538-2.0837 5.2322-4.9013 12.62-6.4942 18.952-4.0865 2.0384 0.77502 2.9317 1.8637 2.4847 3.0284-1.1056 2.8812-4.1145 3.3983-8.0205 1.3784-3.5245-1.8226-3.6864-1.7623-7.0266 2.6169-2.7785 3.6428-4.0736 4.3864-6.9139 3.9695-2.9963-0.43977-3.679 0.0446-4.7848 3.3954-4.9055 14.864-8.4249 71.951-6.7602 85.993l0.92575 7.8092 7.7334 2.328c8.4519 2.5443 17.127 11.804 21.424 19.136 4.927 8.4074 6.3356 7.1672 7.017-6.1781zm-107.6 118.81c-3.256-3.256-0.34995-8.3828 6.8553-12.094 3.4377-1.7705 14.977-1.8434 16.054-0.1015 1.402 2.2684-2.0556 4.9452-6.3876 4.9452-2.295 0-4.898 0.88406-5.7844 1.9646-5.9079 7.2011-7.8601 8.1621-10.737 5.2854z"/>
</svg>
