<svg xmlns="http://www.w3.org/2000/svg" viewBox="0 0 420.04 189.68"><title>American Sign Language ASL</title><path d="M27.07,168.55c-.9-1.17-1-2-1-8.06,0-3.71-.29-10.44-.61-15-.56-8-.62-8.25-2.07-10.17-3.33-4.39-9-14.86-9-16.67a2.07,2.07,0,0,0-.52-1.25,6.37,6.37,0,0,1-1-2.21c-.24-.92-.79-2.9-1.23-4.4C10,105.17,8.85,98.63,7.6,88.27c-.26-2.18-.48-8.05-.48-13,0-8.08.11-9.34,1-11.41,1.29-3,1.58-3.68,3.26-7.54.77-1.77,1.82-4.3,2.34-5.62a19,19,0,0,1,3.12-4.8,11.41,11.41,0,0,1,10.25-3.71c2.15.3,2.65.19,4.35-1,1.06-.75,1.92-1.56,1.92-1.81,0-1,3.94-5.82,5.6-6.86,2.43-1.53,7-1.21,9.75.69a10.22,10.22,0,0,0,2.23,1.3A27.78,27.78,0,0,0,54.65,31a23.05,23.05,0,0,1,4.75-4,14.36,14.36,0,0,1,5-.24c6.83.57,7.21.69,9.55,3.07l2.18,2.22,2.53-1.78,2.53-1.78H93.36l2.92-5a30.67,30.67,0,0,1,4.28-6.05c1.64-1.24,7.27-1.7,10.38-.85s3.31,2,2.41,9.9L112.6,33l1.48,3.6c.81,2,1.76,4.27,2.1,5.09,2.8,6.69,3.88,11.3,3.24,13.89l-1,3.86a9.69,9.69,0,0,1-.91,2.48c-.79,1.07-2.93,11.84-3.56,17.89-.4,3.86-.63,5-2.26,11.23-1.27,4.85-4.28,11.2-8.46,17.86a8.85,8.85,0,0,0-.75,1.61c-.16.48-.46.87-.68.87s-.55.48-.73,1.07a74.3,74.3,0,0,1-5.05,8.85c-.15.14-.93,1.23-1.73,2.44a49.28,49.28,0,0,1-4,4.95c-1.67,1.8-2.66,3.35-2.87,4.48-.18,1-.17,8,0,15.74l.34,14-2,1.26a17.77,17.77,0,0,1-2.13,1.26c-.25,0-1-14.33-1.09-21.65-.11-6.71-.75-9.47-2.32-10.05-.58-.21-3.56-.89-6.64-1.5A28.91,28.91,0,0,1,64.2,129c-3.78-2-3.94-2.21-6.19-6.28-5.36-9.7-6.62-14.3-6-21.91.4-4.67-.45-5.25-1.94-1.32a11.06,11.06,0,0,1-1.56,3,2.43,2.43,0,0,0-.61,1.63c0,1.18-1.08,2.45-1.62,1.9s-.37-1.87.66-5.16a11.62,11.62,0,0,0,.75-3.78,4.68,4.68,0,0,0-2.1-1.4,22.83,22.83,0,0,1-5.38-4.47l-3.51-3.71h-3c-3,0-3.1-.06-5-2.11-2.15-2.34-4.1-5.06-4.1-5.72a4,4,0,0,0-1.14-1.53c-1-1-1.73-1.11-6.22-1.2-4.15-.09-5.31.05-6.38.77-1.72,1.15-2.07,2.82-1.16,5.43a55,55,0,0,1,1.52,6.59c.43,2.46,1,5.36,1.24,6.45s.68,3.21,1,4.71a91.94,91.94,0,0,0,1.94,9.15c.26.83.95,3.19,1.53,5.23,1.18,4.14,1.1,4,3.65,8.43,2,3.6,1.79,3.26,5.71,7.38,3.43,3.6,6.32,4.75,12,4.76,4.59,0,10.09-1.61,13.19-3.88,1.48-1.09,2.35-.77,2.35.86,0,2.34-5.16,5.25-12.4,7-2.94.71-6,1.54-6.89,1.84-1.18.42-1.72.4-2.29-.08-1.58-1.34-1.75-.13-1.75,11.92,0,15.35-.7,18.46-3.37,15Zm54.29-42.12c4.49-1.06,8.19-4.14,13.2-11l4.26-5.82c.4-.53,5.33-10.73,6-12.4,1.35-3.42,4.83-15.64,4.83-17a18,18,0,0,1,.69-3.43c.38-1.33,1.06-4.2,1.51-6.38s1-4.86,1.29-6,.65-2.88.87-4,.55-2.67.73-3.5c.32-1.42.21-1.58-1.66-2.44-2.51-1.15-3-2.72-1.55-4.75a6.62,6.62,0,0,0,1-1.79,4,4,0,0,1,.93-1.38c.87-1,.88-1.16.21-3-.4-1.09-.93-2.84-1.19-3.9a11.86,11.86,0,0,0-3.73-6.6L107,31.56l.13-4.18a28,28,0,0,1,.78-6.12c.87-2.57.05-3.12-2.91-2-2.08.81-6.55,4.85-6.56,5.92a6.71,6.71,0,0,1-.72,2C96.52,29.56,96,36,96.56,41.33a34.92,34.92,0,0,0,.82,5.25,9.05,9.05,0,0,1,.57,2.19c.24,1.52.51,1.77,2.52,2.37,2.48.74,3.93,2,2.79,2.39a21.17,21.17,0,0,1-3.53.38L96.85,54l-1.18,3.22C93.93,62,93.6,64.18,94.09,67.72a25.37,25.37,0,0,1,.34,3.2,7.82,7.82,0,0,0-3.59,3.6c-.45,1-.9,2-1,2.12s.67,1.29,6.09,7.31c4.77,5.31,6.75,9.53,4.47,9.53a.88.88,0,0,1-1-.74c0-.41-.22-.74-.49-.74-.7,0-.6,1.11.28,2.9.76,1.55.55,3.82-.3,3.29A63.33,63.33,0,0,1,95,92c-4.38-7.48-6.93-10.55-8.38-10.08a3,3,0,0,0-1.39.88c-.22.35-2.28.55-5.66.55-4.54,0-5.46.14-6.33.94a3.12,3.12,0,0,0-1,1.52c0,.65-2.07,2.68-3.89,3.82a17.52,17.52,0,0,1-5.55,1.09c-2.38.18-4.65.6-5,.93-1.3,1.1-3.06,5.84-3.35,9-.41,4.44.52,8.61,3.13,14.15,3.83,8.1,5.54,9.94,10.8,11.61,3,.94,9.08,1,13,0ZM51.43,91.14c1.2-1.1,2.49-4.86,2.15-6.26a10,10,0,0,0-2-3.07c-1.52-1.7-1.85-1.85-3.49-1.58-2.44.4-2.74.82-3.15,4.4-.38,3.31.1,4.91,2.06,6.92C48.12,92.68,50,92.51,51.43,91.14Zm12.49-6.3c1.51-.86,2.69-4.95,1.66-5.81a2.13,2.13,0,0,1-.65-1.42c0-1.51-1.26-2.13-3.6-1.77s-2.66.69-3.07,5.18c-.25,2.73-.16,3.27.61,3.85a5.27,5.27,0,0,0,5,0Zm5.57-6c1-17,1.38-22,1.86-23.81a44.58,44.58,0,0,0,.9-4.46c.2-1.36.58-3.37.85-4.46s.76-3.56,1.08-5.48c.54-3.21.5-3.65-.4-5.46a15.41,15.41,0,0,0-2.52-3.45c-1.49-1.45-1.67-1.49-6.32-1.49s-4.85.06-6.61,1.51a13.34,13.34,0,0,0-2.84,3.47c-1,1.89-1,2.58-.89,20.56.06,10.23.24,19.77.4,21.2.3,2.76,1.18,3.61,1.18,1.14a5.1,5.1,0,0,1,1.13-2.8c.91-1.08,1.66-1.39,3.82-1.57a8.86,8.86,0,0,1,3.68.32c1.44.79,3,4.43,3.23,7.54.25,3.39.21,3.22.72,2.67A21.85,21.85,0,0,0,69.5,78.84ZM60.16,66.4c-1.05-.75-1.4-1.92-.7-2.36a32.55,32.55,0,0,1,4.62-.58c4-.34,4.25-.31,4.25.64C68.34,66.32,62.4,68,60.16,66.4ZM37.42,82.29a5.75,5.75,0,0,0-.8-4.07,1.39,1.39,0,0,0-2.53.5c-.39,1.8,0,4.38.71,4.84S37,83.39,37.42,82.29ZM43,81.08c.66-3.4,1-3.72,5-4.12a14.13,14.13,0,0,0,3.28-.59c.52-.33.71-8.3.22-8.81-.16-.16-1.05,0-2,.44a9.5,9.5,0,0,1-3.73.58c-1.78-.13-2-.31-2.17-1.47s.11-1.4,1.46-1.85a27.89,27.89,0,0,1,3.6-.84c3.46-.54,3.32,0,2.67-11.2-.88-15.35-.81-14.88-2.66-16.17-1.28-.89-2.26-1.11-5-1.11-3.35,0-3.48.05-5.31,1.93A25.53,25.53,0,0,0,34.88,43l-1.63,3.17,1,2c.58,1.08,1.23,2.31,1.46,2.71,1,1.83,2.65,7.13,3.92,12.65.5,2.19.93,6.38,1.78,17.48.13,1.7.41,3.1.62,3.1s.64-1.34,1-3ZM31.51,79.8c.27-3.28,1.38-4.68,4.11-5.15,1.82-.31,1.86-.37,1.74-2.28A13,13,0,0,0,36.68,69c-.48-1.18-.77-1.36-1.83-1.1-4.94,1.2-7.37.72-6.33-1.26.38-.72,1-.94,2.84-.94a5.42,5.42,0,0,0,3.63-1c1.46-1.17,1.58-2.09.55-4.11a6.57,6.57,0,0,1-.73-2.21c0-1.06-4.12-9.43-5.41-11-.93-1.12-1.36-1.24-4.66-1.22l-3.64,0-1.95,2.13L17.2,50.41l.21,4.3A19.24,19.24,0,0,0,18.2,60a18.43,18.43,0,0,1,1,2.23,34,34,0,0,0,1.94,3.72c.8,1.36,1.68,3,1.94,3.57a30.87,30.87,0,0,0,1.64,3C26.49,75.29,29,80.15,29,80.72s1.43,1.8,2,1.83A6.66,6.66,0,0,0,31.51,79.8Zm47-1.47c2.68-1.42,3.27-3.9,1.84-7.77-.64-1.73-1.47-2-3.44-1.17-3,1.28-4.2,3.64-3.28,6.47.51,1.58,2.06,3.22,3,3.22A7.26,7.26,0,0,0,78.56,78.34Zm9.08-4.57A28.58,28.58,0,0,0,91.2,62.38a15.55,15.55,0,0,1,1.38-5.11,13.68,13.68,0,0,0,2-11.71,49.33,49.33,0,0,1-2.37-10.12l-.34-3.22L89,32a29.79,29.79,0,0,0-4.5-.07,6.32,6.32,0,0,0-4.72,4.33c-.16.79-.6,2.56-1,3.92-.75,2.65-1.66,6.11-2.87,10.91a63.29,63.29,0,0,0-1.74,12.31c0,2.88.76,3.5,3.77,3.08,1.91-.27,2.49-.16,3.13.57a18,18,0,0,1,2.81,7.78,4.37,4.37,0,0,0,.31,1.95C84.79,77.36,86.24,76.1,87.64,73.77Zm-8.37-11.4c-1.95-.19-4.64-1.77-4-2.38.44-.45,10.11.29,10.11.78a2.68,2.68,0,0,1-.76,1.18C83.83,62.7,83.28,62.75,79.27,62.36Zm-59.6,11a2.89,2.89,0,0,0,1.87-1c.34-.91-1.6-2.44-4-3.16a27.19,27.19,0,0,1-3.47-1.33c-2.74-1.35-3.32-.85-3.48,3l-.15,3.42,3.79-.3C16.34,73.81,18.78,73.52,19.67,73.33ZM17,63.77a2.92,2.92,0,0,0-.45-1.86,6.87,6.87,0,0,1-.73-2.5c0-1.56-.79-1.83-1.93-.67-1.71,1.74-1,4.2,1.44,5.12C16.47,64.27,16.75,64.25,17,63.77Zm94.71-33.65c.76-1.51,1.84-8.8,1.45-9.82a1.8,1.8,0,0,0-3.3.12,46.32,46.32,0,0,0-.6,5.91c-.3,5-.28,5.14.72,5.14a2.15,2.15,0,0,0,1.72-1.36Z"/><path d="M59.36,156l-6,14.79h12Zm-2.49-4h5L74.31,181.8H69.72l-3-7.62H52l-3,7.62H44.41Z" style="fill:#6067ff"/><path d="M345.56,168.16c-1.05-.79-2.32-10.22-1.93-14.33.29-3.06,2.51-12,4.6-18.56a15.78,15.78,0,0,0,.76-2.89,36.19,36.19,0,0,0-4.27,1.11c-5.26,1.55-10,1.91-13,1a15.75,15.75,0,0,1-7.67-5.36,28.4,28.4,0,0,1-3.6-9.65c-.08-1.25.07-1.43,1.57-2a3.65,3.65,0,0,1,1.93-.34,31.08,31.08,0,0,1,1.32,4.56,21.69,21.69,0,0,0,1.84,5.31c1.07,1.36,3.64,2.6,7.14,3.44,2.86.69,3,.69,6.79-.16,4.39-1,15-5.57,20.35-8.83,1.88-1.14,5-3.83,9-6.08,5.08-2.85,2.35-1.21,8.45-3.49a28.51,28.51,0,0,1,5-1.61c4.2-1,6-1.38,7.26-2,.53-.25,4-1.88,6.2-2.94,5.07-2.44,4.16-1.82,7.23-2.65a8,8,0,0,0,2.74-1.79c1.66-1.51-.4-3.66-6.51-6.81C397.51,92.41,397,92.29,393,92c-4.75-.31-6.7,0-9,1.65-1.34.93-19.2,6.55-20.81,6.55a.74.74,0,0,0-.42,1.4c.69.39,0,1.69-1,3.43-1.27,2.27-1.55,2.44-.07,8.78.24,1,.54.67-1.15,0-.84-.35.09.32-1.61-2.38l-.33-3.73.59-3.77,1.13-4.37-2.23-2.77c-1.22-1.52.56-2.36.28-2.86-1-1.68-1.11.69.92-12.25,1.14-7.28.48-9.14.06-9.14-.09,0-3.87-1.09-6.19-1.64s-2.5-2.2-4.06-1.9c-.91.17-1.11-.62-1.14-1.87,0-.75,2.11.52,5.78,1.1s2.6,1.34,5.27,1.85c2,.38,2.1-1.63,1.58-6.87a110.48,110.48,0,0,1-.21-12,37.61,37.61,0,0,0-.56-7.26c-1.29-9.34-1.78-8.68-2.83-9.45-.83-.61-1.58-.72-4.21-.6l-3.21.15.13-1.41.13-1.41,3.17-.12a13.31,13.31,0,0,1,4,.3c1.16.57,1.29.26,1.63-3.73a14.77,14.77,0,0,0-.7-6.82c-1.81-6.16-4.58-9.44-8-9.44-2.32,0-3.16,1.16-3.53,4.85-.3,3,.27,17,.74,18.27a22.36,22.36,0,0,1-.46,4.4,86.36,86.36,0,0,0-.65,12A108.18,108.18,0,0,1,345.6,62c-.33,2.14-.76,3.78-.42,4.93.42,1.41-.24,1.2-.87,5.52-.34,2.34-.56,5.95-.82,8.33-.42,3.8.06,4,.21,8.71.09,2.85.73,6,.77,8.8l.1,6.52-.73,1.33a17.81,17.81,0,0,1-2.11,2.52c-2.07,2.36-3.77,3.21-6.4,3.21s-5.42-.65-6.47-1.5c-.88-.72-.86-.73-1.62,1a5.41,5.41,0,0,1-5.23,3.29c-2.71,0-6.31-1-7.77-2.14-1.15-.9-1.19-.9-2.69-.2A12.16,12.16,0,0,1,299,110.75c-3.79-3-4.1-3.84-4.48-11.61a52.21,52.21,0,0,0-.92-8.52c-.59-1.77-.58-1.82.6-2.69.66-.49,1.35-.75,1.54-.58.88.8,2.52,9.23,2.52,13,0,2.15-.23,4.77,0,4.77s3.28-2.13,5-2.85c3-1.24,4.44,0,6.37-.49.92-.24,1-.13.67-1.2a33.29,33.29,0,0,1-1-7.55c.26-4.77-.65-17.74-3-18.17-1.69-.31-7.12,1-9.42,2.66a16.23,16.23,0,0,0-6.63,9.91L289,92l0,10.09a51.8,51.8,0,0,0,.79,10.05c.09.09.72-.2,1.4-.64s-1.31.6,2.44-.48c4.75.91-1.44,2.88-2.9,4.31l-1.25,1.2.42,3.54c.31,2.58,1.08,5.22,2.85,9.76a68.36,68.36,0,0,1,2.73,8l.3,1.82,2.92.85a43.6,43.6,0,0,0,4.71,1.11,18.62,18.62,0,0,0,8.75-1.84c1.79-1,2.68-1,3.29,0,.36.62.35,1-.06,1.42-1.1,1.21-4.32,2.59-7.39,3.18a19.18,19.18,0,0,1-10.11-.83c-2.09-.67-2-.79-2.34,3.44a136,136,0,0,1-3.7,17.38l-.79,2.8-2.67.12-2.67.12,2.17-6.12a43.35,43.35,0,0,0,2.55-9.72c.21-2,.62-5.42.92-7.64.67-5,.42-6.19-2.85-13.42-3.21-7.08-3.4-8.61-3.24-26l.13-13.81,2.36-6.91a26.05,26.05,0,0,1,5.12-8.32c1.39-1.45,7.73-3.79,10.79-4l2.93-.25L309,68c2-2.81,2.08-2.88,6.6-4.69,1.73-.7,7.6-.88,7.9-.61.81.74-.78.44.51-1.89a12.19,12.19,0,0,1,3.95-4,2.24,2.24,0,0,1,.48-.29c4.41-1.13-.31-.75,4.41-1.13,2.26-.18,7.8,1.57,8.67,2.68.61.78.63.76.32-.38-.62-2.26.53-9.39.46-16.21,0-4.29.75-5.39.25-14.62A115.7,115.7,0,0,1,342.29,15a8.23,8.23,0,0,1,6.81-7c7-1.08,12.08,6,13.11,18.16a42.39,42.39,0,0,1,.1,6.44,19.42,19.42,0,0,0,.79,6.6c1.24,5.19-.34,10.09.91,14.9.93,3.58.39,6.91.25,9.79a97.53,97.53,0,0,1-1.34,14.54c-1.1,6.67-.57,4.59-.66,9.46-.1,5.21-.86,5,0,6,1.74,2.15,1.61,2.24,10.15-.49a84.75,84.75,0,0,0,10.3-3.89c2.33-1.28,3.14-1.49,7.11-1.83a35.56,35.56,0,0,1,6.06-.12,37.14,37.14,0,0,1,5.95,2.3c4.72,2.2,7.28,4.35,9.65,8.12,1.51,2.41,1.19,2.55,0,4.82-1,2.33-1.68,1.15-3.78,2.27-4.85,2.2-5.76,3.39-10.89,5.1-6.32,2.1-3.07,1-11.22,3.6-8.94,2.3-3.07.63-11.19,4-6,3.18-7.5,4.85-10.73,6.27-4.87,2.14-8.06,4.8-9.27,7.73-3.79,9.21-6.51,19.49-6.52,24.69a56.11,56.11,0,0,0,.74,6.48c.72,4.41.72,4.57-.08,5.1a2.37,2.37,0,0,1-2.91,0ZM323.07,110.8c1.82-.45,1.42-1.16.59-8-1.27-10.38-.31-8.21-.59-14.42-.3-6.58-.61-11.13-.92-14.58-.27-3-1.84-7.89-2.73-8.21-1.57-.55-6.71,2.65-8.73,5.44-1.12,1.55-1.12,1.56-.41,3.65a26.33,26.33,0,0,1,.68,4.91c.22,2.09.2,6.65.49,7.7.5,1.79.38,2.49.6,7.17.1,2.09,1,7.13,1.71,7.55.21.12,3.78-.71,4.86-.7,9.75,0,8.08,1.54,5.52,1.64l-1.75.06-2.34-.25c-2.37-.25-3.51,0-4.85,1.26-1,.87-.45,4,.91,5.69,1,1.2,1.25,1.3,3.56,1.3A21.17,21.17,0,0,0,323.07,110.8Zm-13.83-1.63c1-.18,1.26-.49,1.48-1.68.31-1.7.3-3.68,0-3-.15.34-.64-.43-1.42-.7-2-.68-6.77-.43-8.12,1.71l-1.74,2.75-.54-1.77c-.48-1.59-.18-2-.18-1.19,0,1.12,2.24,3.15,4.05,3.67C305.79,109.83,305.65,109.82,309.24,109.17Zm29.93-1.22a6,6,0,0,0,2.94-5.52c0-3.29-.92-8.69-1.08-13.88-.12-3.8-.17-5.39-.33-8.8-.23-4.8.28-11.65-.32-14.14-1.19-4.88-1.27-5-3.22-5.82-2.51-1-6.22-1-8.12,0-1.09.61-1.89,1.66-3.18,4.21a24.29,24.29,0,0,0-1.72,3.9c0,.28.94,8.62,1,10.4.21,8.44.68-4,.26,7.45s-.72,11.73,1.3,14.93a2.14,2.14,0,0,1,.06,2.13c-.61.34,1.7,4,3.29,5.27,1.23.94,1.56,1,4.53.8A13.75,13.75,0,0,0,339.17,107.94Zm-11.74-2.82c-2.29-.67.42-1.46-1.09-1.58-9.45-.79,1.15-2.68.86-3.48l3.25-2c3-1.83,3.32-1,5.26-1,3.85.07,6.73,1.33,6.73,5.22,0,2.37.77,4.25-.6,3.78-.73-.25-1.52-2.25-1.69-3.89-.29-2.79-4-3.71-7.25-2.84-2.35.64-6,2.62-4.28,5a3.7,3.7,0,0,1,.37,2.88C326.74,109,327.24,105.86,327.43,105.13Z"/><path d="M315.07,155.86h4.19v23h15.09v3H315.07Z" style="fill:#6067ff"/><path d="M167.86,164.83a17.37,17.37,0,0,0-1.66-2.31c-1.54-1.76-2-5.17-2.25-18.67l-.27-12.53-1.32-2.91c-1-2.25-1.68-5-2.91-12.07-.88-5-2.53-13.65-3.68-19.14-4.42-21.13-4.19-19.59-3.67-24.82C153.25,61,158,51.51,165.95,44.79A23.59,23.59,0,0,1,175,39.61c2.81-.82,3.12-1.33,3.12-5.19v-3.3l2-2.18c2.24-2.46,5-3.85,10-5,3.11-.71,4.46-.6,6.8.55.51.25.74-.2,1.13-2.14.53-2.61,3.07-7.9,4.5-9.38,1.78-1.84,15.3-1.39,20.13.67,2.21.94,4.34,3.1,4.34,4.41,0,1.12.92,1.38,5.9,1.66,7.47.43,13.25,3.1,15,6.95,1.06,2.37.9,7.05-.51,14.82-.67,3.7-1.22,7.18-1.22,7.73,0,1,3.88,16.73,5.08,20.58,1.46,4.67,2.33,9.53,2.12,11.87-.4,4.58-1.69,6.67-16.49,26.71-3.65,4.95-7.89,11.09-9.42,13.64-6.94,11.61-10.72,22.89-11.64,34.7-.25,3.24-.4,3.7-1.42,4.53-2.07,1.68-2.15,1.46-1.84-5,.36-7.58,1.2-14.22,2.18-17.16.66-2,3.49-7.74,7.81-15.91.61-1.15,1.58-3,2.15-4.2,1.18-2.38,2.33-4,8.49-11.85,9.19-11.75,13.78-18.57,15.85-23.53,1.59-3.82,1.3-6.81-1.31-13.49s-4.77-14.66-5.2-19.11-1.1-5.3-5.23-7.47a18.05,18.05,0,0,1-5-3.9l-2.05-2.34-4,.31-4,.31-.93,3-.93,3h-1.94a5.06,5.06,0,0,1-3.73-1.45c-2.34-1.89-6.88-7-6.88-7.68,0-.34,1.51.61,3.45,2.14,3.35,2.64,7.55,4.9,9.31,2.21l1.16-1.76-1.62-1.49a36,36,0,0,1-3.69-4.36,26.73,26.73,0,0,0-3-3.6c-2.14-1.71-5.75-.29-7.38,2.89a13.83,13.83,0,0,0-.34,9.56c1,2.61,5.3,7.81,9,11,2.91,2.46,7.15,4.92,9.24,5.37,1.32.28,1.68.8.93,1.33a18.15,18.15,0,0,0-1.83,3.21A34.11,34.11,0,0,0,220,75.85c0,4.91.41,7.07,1.68,8.62s.94,3.27-.42,3.09c-2.1-.27-3.87-3.14-4.32-7-.42-3.63.59-15.22,1.51-17.32s.95-2.69.25-2.68c-.87,0-2.34,6.52-2.34,10.37V74.4l-1.81,1.69c-1.82,1.7-6.5,3.91-8.33,3.93A4.56,4.56,0,0,1,204,78.87a7.47,7.47,0,0,0-1.57-1.16c-.13,0-.23.8-.23,1.78,0,4.54-3.14,7.73-8.16,8.26-2.48.26-2.84.17-5.61-1.41-2.12-1.22-3.07-2.05-3.38-3l-.43-1.26-.76,1.67c-.59,1.3-1.31,1.94-3.25,2.9a12.19,12.19,0,0,1-3.38,1.23c-2.1,0-8-5.18-8-7a15.18,15.18,0,0,1,.81-3.21c.89-2.57,1-4.43.43-6.18a13.39,13.39,0,0,0-5-5.77l-2-1.28V54.05l1.42.77c1.57.85,1.65,1.06,2,4.9.23,2.28.55,3.06,2.2,5.34,3.49,4.83,3.86,5.82,4,10.78.17,4.73.48,5.55,2.6,6.8a3.75,3.75,0,0,0,4.53-.3c1.23-1.1,3.86-7,4-9,.11-1.27,0-1.4-1.51-1.7s-3.93-.86-5.5-.13c-2.94,1.36-6.29,2.62-4.81.43A13.27,13.27,0,0,1,175,69.12a9.21,9.21,0,0,1,4.41-1.53c2.79.07,1.68-.56,2.79.07,1.45.82,2.33.77,1.29-2.37-1.18-3.53-1.62-6.12-2-11.92-.43-6.08-1-8.35-2.26-9.84a3.37,3.37,0,0,0-4.71-.25,32.65,32.65,0,0,1-3.62,2.41,27.47,27.47,0,0,0-6.12,5.53,28.14,28.14,0,0,0-5.75,9.07c-1.64,3.69-2.33,5.79-2.47,7.58-.13,1.6-.33,3.63,0,3.72A7.57,7.57,0,0,0,160,72.76l3.16-.09,2.08-1.7,2.08-1.7c4.5-.93,1.89.47,2.82.7a.94.94,0,0,1,.43,1.45,35.79,35.79,0,0,0-4.19,2.36,12.62,12.62,0,0,1-3.57,1.91,15.25,15.25,0,0,1-6.35-.56c-.74-.33-.76-.15-.49,3.7a51.91,51.91,0,0,0,1.51,8.55c1.47,5.38,3.79,16.63,5.86,28.4a81.74,81.74,0,0,0,2.3,10.35c1.14,2.54,3.71,4.21,8,5.18a23.88,23.88,0,0,1,4.68,1.46c1.11.66,2.2,2.37,1.8,2.82a33.84,33.84,0,0,1-5.81-.49,49.14,49.14,0,0,0-5.74-.57c-1,1.19-1.1,18.39-.09,26.6.55,4.45.42,5.36-.53,3.71Zm29.3-82.13c2-2.56,2.14-4,1-14.74-1.39-12.71-1.38-12.45-.46-16.24,1.16-4.75,1.1-10-.16-16.23a27.1,27.1,0,0,0-1.78-6c-.72-1.09-1-1.18-3.64-1.13q-13.48.28-8.48,16A40.76,40.76,0,0,1,185.45,54,61.59,61.59,0,0,0,187,63c.58,2.1,1.12,4.1,1.21,4.45a.54.54,0,0,0,.8.35,18.71,18.71,0,0,1,3.36-.54c4-.37,5.78-.41,6.5,3.73.53,3,1.69,3.08,1.06,4.18-.53.92,1.11,2.43,0,2.43-1.54,0-1.83-2-2.26-4.16s-3.12-3.09-4.25-3.41c-2.5-.71-4.69,2.53-5.45,8.06-.35,2.52-.32,2.66.83,3.88,1.33,1.42,2,1.64,5.26,1.73C195.93,83.73,196.47,83.56,197.16,82.7Zm13.64-8.42c1.37-1,2.13-3.17,2.14-6.08V65.87l-1.88-1c-2.11-1.09-5,.82-5.78,1.41-1,.75-1,3.3-.77,4.72.49,2.93.2,3.82.2,3.82-2-.12-3-.75-2.67-4.93.12-1.42.17-3.48.17-3.48l2.51-3.09a3.84,3.84,0,0,1,2.73-1.72,11.46,11.46,0,0,1,5.72.68c.48.22,1.14-1.36,1.54-3,.5-2.12.48-2.25-.41-2.91-3.25-2.43-8.07-7.92-11.22-12.76l-.9-1.39v1.7a42.11,42.11,0,0,1-.86,5.78,23.93,23.93,0,0,0-.58,7.81c.79,11.21,2.73,17.31,5.71,18a6.28,6.28,0,0,0,4.36-1.21Zm33.5-36.74a38.38,38.38,0,0,0,.61-5.57c0-2-.16-2.53-1.32-3.79-1.66-1.81-3.26-2.56-8.23-3.87-3.53-.93-4.17-1-6.11-.45l-2.16.59-.66,3.77c-.36,2.07-.66,4-.66,4.27s.79.43,2.22.29c3.2-.3,3.91,0,7.08,3.35a34.86,34.86,0,0,0,3.74,3.53c1.44.88,4.23,1.73,4.57,1.4A16.07,16.07,0,0,0,244.3,37.53ZM204,27.11c1.73-2.68,4.82-4.64,7.34-4.64,1.86,0,4.85,2.08,8.42,5.86a10.65,10.65,0,0,0,2.27,2c.33,0,1.32-8.08,1.31-10.76,0-1.41-.59-1.61-8.35-2.93s-10.38-.72-12.06,3a28.45,28.45,0,0,0-2,9.77c0,3.21.42,3.82,1.1,1.59A19.86,19.86,0,0,1,204,27.11ZM204.61,131c-4.92-2.15-11.52-12-13.77-20.5-1.37-5.19-1.47-12.1-.2-15.14,2-4.72,2.14-4.55,2.16,1.9,0,10.35,2.44,17.74,8.25,25.27,3.71,4.81,6.07,5.79,9.33,3.9l1.66-1,1.19,1.3c1.59,1.74,1.37,2.86-.84,4.19S207.62,132.3,204.61,131Zm27.28-74.9c0-1.2,2.51-6,4.18-8a3.27,3.27,0,0,1,3.26-1.51c1.67,0,2,.13,1.85.81A3.25,3.25,0,0,1,239.64,49a29.61,29.61,0,0,0-4.58,4.4C232.63,56.19,231.89,56.81,231.89,56.09Z"/><path d="M200.16,152.57v3.91a28.8,28.8,0,0,0-4.72-1.63,18.26,18.26,0,0,0-4.29-.54,10.19,10.19,0,0,0-5.55,1.27,4.07,4.07,0,0,0-1.94,3.61,3.56,3.56,0,0,0,1.28,3,12.1,12.1,0,0,0,4.92,1.61l2.66.5q4.92.85,7.25,3a8.26,8.26,0,0,1-.83,12.29q-3.16,2.22-9.27,2.22a27.49,27.49,0,0,1-4.92-.48,39.44,39.44,0,0,1-5.38-1.41v-4.13a27.07,27.07,0,0,0,5.25,2.06,19.29,19.29,0,0,0,5.05.69,10.53,10.53,0,0,0,5.81-1.35,4.34,4.34,0,0,0,2-3.85,4.2,4.2,0,0,0-1.48-3.41,10.52,10.52,0,0,0-4.81-1.85l-2.68-.48q-4.92-.89-7.12-2.8a6.64,6.64,0,0,1-2.2-5.3,7.31,7.31,0,0,1,3-6.19q3-2.26,8.38-2.26a29.65,29.65,0,0,1,4.66.38A36.29,36.29,0,0,1,200.16,152.57Z" style="fill:#6067ff"/></svg>