<?xml version="1.0" encoding="UTF-8"?>
<svg version="1.1" viewBox="0 0 322.78 424" xmlns="http://www.w3.org/2000/svg" xmlns:cc="http://creativecommons.org/ns#" xmlns:dc="http://purl.org/dc/elements/1.1/" xmlns:rdf="http://www.w3.org/1999/02/22-rdf-syntax-ns#">
<title>ASL letter</title>
<metadata>
<rdf:RDF>
<cc:Work rdf:about="">
<dc:format>image/svg+xml</dc:format>
<dc:type rdf:resource="http://purl.org/dc/dcmitype/StillImage"/>
<dc:title>ASL letter</dc:title>
<dc:date>11/11/2013</dc:date>
<dc:creator>
<cc:Agent>
<dc:title>edited by Paul Sherman</dc:title>
</cc:Agent>
</dc:creator>
<dc:rights>
<cc:Agent>
<dc:title>PD</dc:title>
</cc:Agent>
</dc:rights>
<dc:publisher>
<cc:Agent>
<dc:title>WPClipart</dc:title>
</cc:Agent>
</dc:publisher>
<dc:subject>
<rdf:Bag>
<rdf:li>sign</rdf:li>
<rdf:li>language</rdf:li>
<rdf:li>letter</rdf:li>
<rdf:li>american</rdf:li>
</rdf:Bag>
</dc:subject>
<cc:license rdf:resource="http://creativecommons.org/publicdomain/zero/1.0/"/>
</cc:Work>
<cc:License rdf:about="http://creativecommons.org/publicdomain/zero/1.0/">
<cc:permits rdf:resource="http://creativecommons.org/ns#Reproduction"/>
<cc:permits rdf:resource="http://creativecommons.org/ns#Distribution"/>
<cc:permits rdf:resource="http://creativecommons.org/ns#DerivativeWorks"/>
</cc:License>
</rdf:RDF>
</metadata>
<path d="m65.002 408.68c-2.3981-3.0487-2.6833-5.22-2.7548-20.974-0.04387-9.6651-0.76988-27.18-1.6134-38.923-1.4944-20.805-1.6346-21.48-5.4885-26.459-8.8475-11.43-23.795-38.683-23.795-43.384 0-1.0258-0.62596-2.4911-1.391-3.2562-0.76506-0.76505-1.9029-3.3496-2.5285-5.7436-0.62561-2.3939-2.0949-7.547-3.2651-11.451-4.4142-14.728-7.5707-31.755-10.887-58.726-0.69819-5.679-1.2738-20.957-1.2792-33.951-0.0088-21.021 0.28253-24.294 2.6421-29.686 3.4385-7.8575 4.1982-9.579 8.6556-19.612 2.0499-4.6142 4.8456-11.201 6.2127-14.636 1.367-3.4358 5.0991-9.0542 8.2936-12.485 7.102-7.6283 16.837-11.075 27.239-9.6444 5.7153 0.78606 7.0306 0.48476 11.547-2.6453 2.8035-1.9428 5.0972-4.059 5.0972-4.7026 0-2.5656 10.472-15.138 14.877-17.86 6.4582-3.9914 18.635-3.1479 25.909 1.7948 2.7431 1.864 5.4136 3.389 5.9345 3.389 0.52089 0 4.9593-4.0522 9.8631-9.0048 4.9038-4.9527 10.576-9.6361 12.605-10.408 2.2286-0.84733 7.5309-1.0899 13.392-0.61266 18.133 1.4763 19.16 1.8006 25.36 8l5.7854 5.7854 13.429-9.2487 32.245-0.06709 7.7441-13.068c4.2593-7.1875 9.3708-14.277 11.359-15.756 4.3442-3.2297 19.314-4.4264 27.568-2.2038 8.0627 2.1711 8.8024 5.1451 6.4096 25.77l-1.9626 16.916 3.9201 9.3699c2.156 5.1535 4.6659 11.112 5.5775 13.242 7.4486 17.402 10.306 29.41 8.6005 36.139-0.71987 2.8395-1.8652 7.3572-2.5452 10.039-0.67997 2.6822-1.7736 5.5862-2.4303 6.4534-2.1028 2.7769-7.7905 30.812-9.4461 46.561-1.0565 10.05-1.6747 13.066-5.9916 29.23-3.3692 12.616-11.357 29.134-22.469 46.465-0.68271 1.0648-1.5826 2.9524-1.9997 4.1947-0.41713 1.2423-1.2323 2.2587-1.8116 2.2587-0.57925 0-1.451 1.2535-1.9373 2.7856-0.85306 2.6877-11.936 21.713-13.414 23.028-0.39906 0.35494-2.4664 3.2124-4.594 6.3499-2.1276 3.1375-6.9155 8.9288-10.64 12.87-4.4326 4.6905-7.0631 8.7212-7.6164 11.671-0.4649 2.4781-0.44247 20.913 0.0498 40.966l0.89509 36.46-5.1919 3.2775c-2.8555 1.8026-5.4063 3.2775-5.6684 3.2775-0.65904 0-2.5732-37.286-2.8917-56.327-0.29195-17.457-1.9834-24.632-6.1671-26.162-1.5276-0.55873-9.4686-2.3144-17.647-3.9015-11.515-2.2347-17.192-4.1195-25.168-8.3555-10.028-5.3259-10.461-5.756-16.439-16.347-14.25-25.245-17.578-37.215-15.851-57.019 1.0602-12.163-1.1897-13.666-5.1521-3.4415-1.3986 3.6087-3.2688 7.1647-4.1562 7.9022-0.88735 0.73747-1.6134 2.6506-1.6134 4.2515 0 3.0781-2.8781 6.3719-4.3135 4.9364-1.4226-1.4226-0.96963-4.8687 1.7655-13.431 1.4382-4.5018 2.3288-8.9304 1.9792-9.8415-0.34961-0.91105-2.8618-2.5472-5.5828-3.6359-2.8241-1.13-8.9527-6.118-14.281-11.623l-9.3337-9.6435h-8.0805c-7.8396 0-8.2338-0.16355-13.222-5.4854-5.7065-6.0886-10.885-13.171-10.885-14.888 0-0.61488-1.3658-2.401-3.0351-3.9693-2.6819-2.5195-4.603-2.8836-16.51-3.129-11.018-0.2271-14.108 0.13695-16.95 1.9973-4.5639 2.9874-5.511 7.3326-3.0796 14.129 1.0897 3.0458 2.9101 10.765 4.0454 17.154s2.6124 13.939 3.2824 16.779c0.66998 2.8395 1.8113 8.3572 2.5362 12.262 2.3824 12.831 3.8955 19.812 5.1608 23.81 0.68582 2.1669 2.5143 8.2958 4.0633 13.62 3.1369 10.782 2.9224 10.296 9.689 21.942 5.4427 9.367 4.7541 8.4954 15.176 19.21 9.1115 9.3666 16.79 12.363 31.76 12.393 12.192 0.0245 26.791-4.1793 35.048-10.092 3.9435-2.8239 6.2535-1.9951 6.2535 2.2437 0 6.0826-13.709 13.673-32.931 18.234-7.7984 1.8504-16.028 4.0079-18.289 4.7943-3.1463 1.0947-4.5703 1.0478-6.0742-0.20042-4.1862-3.4742-4.6589-0.32758-4.6589 31.009 0 39.941-1.8568 48.048-8.9411 39.042zm144.21-109.6c11.937-2.7608 21.748-10.785 35.069-28.679 5.6706-7.6177 10.759-14.431 11.308-15.141 1.0635-1.3755 14.153-27.929 15.906-32.267 3.595-8.8969 12.832-40.693 12.832-44.171 0-1.4533 0.82348-5.4679 1.83-8.9214 1.0065-3.4534 2.8084-10.925 4.0042-16.604 1.1958-5.679 2.7415-12.649 3.435-15.488 0.69343-2.8395 1.7309-7.486 2.3054-10.325 0.57456-2.8395 1.4502-6.9394 1.9459-9.111 0.84091-3.684 0.5464-4.1082-4.4013-6.3393-6.6594-3.003-8.0199-7.0793-4.1223-12.351 1.511-2.0438 2.7474-4.1377 2.7474-4.6531 0-0.5154 1.1146-2.1361 2.477-3.6017 2.3045-2.479 2.3433-3.0241 0.55716-7.8273-1.0559-2.8395-2.4776-7.4018-3.1593-10.138-1.9206-7.7098-4.8143-12.726-9.9125-17.183l-4.6774-4.0891 0.34038-10.872c0.1872-5.9794 1.1235-13.142 2.0807-15.917 2.3059-6.6845 0.14367-8.1136-7.7278-5.1074-5.5271 2.1108-17.401 12.609-17.416 15.398-4e-3 0.79394-0.86269 3.0823-1.9074 5.0852-3.2362 6.2046-4.6675 23.049-3.1301 36.837 0.75895 6.8063 1.7357 12.951 2.1705 13.654 0.43483 0.70356 1.1144 3.2709 1.5101 5.7052 0.64303 3.9555 1.3536 4.6109 6.6846 6.1653 6.5898 1.9215 10.43 5.149 7.4098 6.2271-0.96729 0.34525-5.1915 0.78773-9.3872 0.98329l-7.6285 0.35556-3.1351 8.3895c-4.6107 12.338-5.4816 18.002-4.1816 27.199 0.63736 4.5091 1.0403 8.2507 0.89541 8.3147-3.8694 1.708-7.8215 5.5844-9.5461 9.3632-1.2086 2.6481-2.3831 5.1347-2.61 5.5258-0.42996 0.74091 1.7912 3.3554 16.166 19.028 12.67 13.815 17.921 24.79 11.861 24.79-1.4341 0-2.5814-0.86046-2.5814-1.936 0-1.0648-0.58081-1.936-1.2907-1.936-1.8681 0-1.5869 2.8816 0.73525 7.5366 2.0093 4.0278 1.4523 9.949-0.80475 8.5541-0.64589-0.39918-5.3311-7.6775-10.412-16.174-11.632-19.453-18.407-27.442-22.254-26.242-1.5172 0.47305-3.1735 1.5078-3.6807 2.2995-0.58603 0.91467-6.064 1.4394-15.027 1.4394-12.058 0-14.499 0.35682-16.825 2.4587-1.4961 1.3523-2.7202 3.1313-2.7202 3.9533 0 1.6948-5.5011 6.9854-10.325 9.9305-1.8454 1.1265-8.1554 2.3427-14.74 2.8409-6.3324 0.47912-12.351 1.5661-13.374 2.4155-3.4621 2.8733-8.1232 15.199-8.9022 23.54-1.0796 11.561 1.3734 22.414 8.322 36.82 10.169 21.082 14.725 25.879 28.695 30.211 7.9078 2.4524 24.122 2.4791 34.594 0.0571zm-79.491-91.834c3.1874-2.8722 6.6175-12.654 5.708-16.278-0.42739-1.7029-2.79-5.2938-5.2502-7.9798-4.0505-4.4221-4.9262-4.81-9.2683-4.1054-6.4848 1.0523-7.2715 2.1283-8.3703 11.447-1.0144 8.6031 0.25735 12.789 5.4688 18 2.9148 2.9148 7.773 2.4649 11.712-1.0844zm33.18-16.407c4.0223-2.2284 7.1333-12.869 4.4207-15.12-0.95594-0.79336-1.7381-2.4619-1.7381-3.7078 0-3.9232-3.3448-5.5349-9.5541-4.6038-6.5661 0.98466-7.0604 1.8026-8.1518 13.491-0.66354 7.1057-0.43568 8.5195 1.6146 10.019 3.0191 2.2077 9.35 2.171 13.409-0.0776zm14.806-15.601c2.6117-44.223 3.6604-57.359 4.9458-61.953 0.79447-2.8395 1.8706-8.0668 2.3914-11.616 0.52083-3.5494 1.5381-8.7767 2.2607-11.616 0.72253-2.8395 2.0102-9.2572 2.8614-14.262 1.4229-8.3651 1.3363-9.5099-1.0737-14.198-1.4418-2.8043-4.4565-6.8412-6.6995-8.9708-3.964-3.7637-4.4336-3.8721-16.779-3.8721-12.238 0-12.878 0.1436-17.568 3.9408-2.6771 2.1675-6.07 6.2331-7.5397 9.0348-2.5821 4.9222-2.6616 6.726-2.3588 53.495 0.1724 26.62 0.6498 51.45 1.0609 55.177 0.79184 7.1785 3.1431 9.4048 3.1431 2.976 0-2.119 1.3307-5.3472 3.008-7.2971 2.4207-2.8143 4.4006-3.6125 10.14-4.0885 3.9247-0.32547 8.32 0.0441 9.7731 0.82181 3.8288 2.0491 7.9778 11.524 8.5902 19.617 0.66787 8.8254 0.5475 8.3897 1.9185 6.9444 0.63969-0.67439 1.5061-7.0342 1.9253-14.133zm-24.797-32.378c-2.7909-1.9548-3.7088-5.0027-1.8467-6.1318 0.53241-0.32285 6.0501-1.0066 12.262-1.5195 10.75-0.8876 11.294-0.80798 11.294 1.6531 0 5.7904-15.78 10.151-21.708 5.9983zm-60.403 41.346c0.91494-2.3843-0.25189-8.2109-2.119-10.581-2.0878-2.6506-6.0053-1.8973-6.7122 1.2907-1.041 4.6946-0.03102 11.4 1.8966 12.591 2.1519 1.3299 5.8295-0.4203 6.9346-3.3003zm14.891-3.1481c1.7426-8.8574 2.7601-9.6767 13.302-10.71 4.0635-0.39843 7.984-1.0926 8.7121-1.5426 1.3768-0.8509 1.8957-21.605 0.57326-22.928-0.41284-0.41284-2.7909 0.10183-5.2846 1.1438-2.4937 1.042-6.9476 1.7185-9.8976 1.5035-4.7251-0.34439-5.4107-0.79856-5.7599-3.8159-0.33344-2.8809 0.28159-3.6437 3.8721-4.8023 2.3476-0.75752 6.6568-1.7461 9.5759-2.197 9.18-1.4177 8.8161 0.0756 7.1004-29.141-2.3462-39.952-2.1384-38.713-7.0563-42.083-3.3929-2.3249-6.0101-2.892-13.346-2.892-8.8876 0-9.256 0.13102-14.118 5.0205-2.7456 2.7613-6.9379 8.73-9.3162 13.264l-4.3243 8.2434 2.7778 5.1284c1.5278 2.8206 3.2694 5.9996 3.8701 7.0644 2.6858 4.7602 7.0425 18.546 10.402 32.913 1.3303 5.6899 2.4678 16.613 4.7376 45.497 0.34865 4.4367 1.0896 8.0668 1.6466 8.0668 0.55695 0 1.6972-3.4795 2.5338-7.7322zm-30.596-3.3153c0.70832-8.5414 3.6645-12.168 10.918-13.393 4.8242-0.81513 4.9327-0.95441 4.6286-5.9438-0.17126-2.81-0.98856-6.7566-1.8162-8.7702-1.2639-3.0748-2.0407-3.5333-4.8514-2.8634-13.13 3.1296-19.587 1.8666-16.826-3.2912 1.0074-1.8824 2.7451-2.4458 7.5429-2.4458 4.3524 0 7.2604-0.8074 9.6347-2.675 3.8766-3.0494 4.2019-5.4386 1.4568-10.702-1.0604-2.0333-1.9281-4.6249-1.9281-5.7591 0-2.7516-10.934-24.542-14.36-28.619-2.4583-2.9252-3.616-3.2216-12.389-3.1722l-9.6773 0.05456-10.343 11.089 0.55582 11.18c0.3057 6.149 1.2453 12.342 2.0879 13.761 0.84266 1.4198 2.0967 4.0334 2.7868 5.8081 0.69009 1.7747 3.0037 6.1308 5.1414 9.6802 2.1377 3.5494 4.4522 7.732 5.1435 9.2947s2.6563 5.0582 4.3667 7.7677c4.5754 7.2479 11.199 19.89 11.199 21.375 0 1.2881 3.7975 4.682 5.3256 4.7596 0.4445 0.0226 1.076-3.1879 1.4032-7.1344zm124.96-3.8172c7.123-3.6834 8.6913-10.157 4.8974-20.214-1.6943-4.4913-3.9094-5.2316-9.129-3.0507-7.9835 3.3357-11.151 9.4607-8.7122 16.849 1.3574 4.1131 5.4735 8.3732 8.09 8.3732 0.58717 0 2.7714-0.88105 4.8537-1.9579zm24.123-11.896c4.8574-7.945 7.7752-17.083 9.4629-29.636 0.76199-5.6677 2.3666-11.484 3.6689-13.3 6.4785-9.0314 8.5281-20.591 5.401-30.461-3.9667-12.52-5.4861-18.876-6.2942-26.329l-0.90964-8.3895-7.7441-0.64534c-4.2593-0.35494-9.6393-0.43572-11.956-0.17951-5.1974 0.57489-11.519 6.264-12.53 11.276-0.41552 2.0603-1.5947 6.65-2.6205 10.199-1.9923 6.8939-4.4116 15.895-7.6324 28.395-2.4839 9.6404-4.6277 24.48-4.6277 32.034 0 7.5071 2.0141 9.1207 10.012 8.0207 5.0804-0.69874 6.6016-0.42703 8.3256 1.487 3.0816 3.4213 7.4761 15.321 7.4761 20.244 0 2.34 0.36678 4.6213 0.81504 5.0696 1.5781 1.5781 5.4319-1.7002 9.1524-7.7856zm-22.229-29.674c-5.1755-0.48545-12.318-4.6018-10.733-6.1861 1.1782-1.1782 26.867 0.76531 26.867 2.0327 0 0.56774-0.91269 1.9449-2.0282 3.0604-1.9784 1.9784-3.4501 2.0924-14.105 1.093zm-158.32 28.551c2.3681-0.48285 4.6088-1.6679 4.9793-2.6334 0.90603-2.3611-4.2438-6.359-10.576-8.2102-2.8395-0.83016-6.9835-2.3852-9.2089-3.4557-7.2839-3.5037-8.8096-2.2056-9.2468 7.8672l-0.38612 8.895 10.066-0.7925c5.5364-0.43586 12.004-1.1875 14.372-1.6704zm-6.9701-24.9c0.39307-0.636-0.14989-2.814-1.2066-4.8401-1.0567-2.026-1.9248-4.9563-1.9292-6.5116-0.01149-4.0656-2.0901-4.7702-5.1236-1.7366-4.5367 4.5367-2.7023 10.929 3.825 13.329 2.9053 1.0683 3.6504 1.0278 4.4344-0.24069zm251.58-87.578c2.0108-3.9273 4.8748-22.895 3.8574-25.546-1.428-3.7213-7.2893-3.5082-8.7577 0.31832-0.42209 1.1-1.1361 8.0248-1.5866 15.388-0.79847 13.05-0.7498 13.389 1.9252 13.389 1.6928 0 3.4407-1.36 4.5617-3.5494z"/>
</svg>
