<?xml version="1.0" encoding="UTF-8"?>
<svg version="1.1" viewBox="0 0 491.34 261.42" xmlns="http://www.w3.org/2000/svg" xmlns:cc="http://creativecommons.org/ns#" xmlns:dc="http://purl.org/dc/elements/1.1/" xmlns:rdf="http://www.w3.org/1999/02/22-rdf-syntax-ns#">
<metadata>
<rdf:RDF>
<cc:Work rdf:about="">
<dc:format>image/svg+xml</dc:format>
<dc:type rdf:resource="http://purl.org/dc/dcmitype/StillImage"/>
<dc:title>ASL letter</dc:title>
<dc:date>11/11/2013</dc:date>
<dc:creator>
<cc:Agent>
<dc:title>edited by Paul Sherman</dc:title>
</cc:Agent>
</dc:creator>
<dc:rights>
<cc:Agent>
<dc:title>PD</dc:title>
</cc:Agent>
</dc:rights>
<dc:publisher>
<cc:Agent>
<dc:title>WPClipart</dc:title>
</cc:Agent>
</dc:publisher>
<dc:subject>
<rdf:Bag>
<rdf:li>sign</rdf:li>
<rdf:li>language</rdf:li>
<rdf:li>letter</rdf:li>
<rdf:li>american</rdf:li>
</rdf:Bag>
</dc:subject>
<cc:license rdf:resource="http://creativecommons.org/publicdomain/zero/1.0/"/>
</cc:Work>
<cc:License rdf:about="http://creativecommons.org/publicdomain/zero/1.0/">
<cc:permits rdf:resource="http://creativecommons.org/ns#Reproduction"/>
<cc:permits rdf:resource="http://creativecommons.org/ns#Distribution"/>
<cc:permits rdf:resource="http://creativecommons.org/ns#DerivativeWorks"/>
</cc:License>
</rdf:RDF>
</metadata>
<path d="m413.07 242.3c-4.8125-0.912-14.938-4.0402-22.5-6.9516-18.631-7.1726-27.048-9.822-35.425-11.15-6.5227-1.0344-7.179 0.55698-14.995 2.6825-7.3382 1.9956-8.3093 1.7511-20.625 3.0612-7.4356 0.79097-13.959-0.0836-23.852-0.66291-6.8992-0.40404-23.492-0.47196-26.586-1.1472-7.0177-1.5316-13.776-1.7464-27.459-3.4517-12.257-1.5277-25.386 0.0608-35.623-6.2529-6.5021-4.0104-7.847-4.3566-16.925-4.3566-17.573 0-29.813-4.9003-35.488-14.207-2.6114-4.2827-3.2839-15.801-1.2368-21.185 1.5694-4.1278-1.0152-7.6234-7.8824-10.661-12.919-5.7149-18.724-26.488-11.428-40.899l3.1014-6.1261-5.0715-5.1674c-6.3945-6.5155-7.9475-12.5-5.5763-21.489l1.7078-6.4739-8.0294-4.2636-8.4162-1.9429-11.778 3.0204c-7.0779 1.8151-15.961 4.1433-22.492 6.4612-11.246 3.9914-11.608 4.988-30.297 7.3087-15.387 1.9107-17.38-0.2536-23.104-3.125-7.9303-3.9785-11.217-9.3902-11.089-18.257 0.12506-8.6517 3.9698-16.237 12.153-23.976 9.229-8.7284 16.218-11.888 40.383-18.254 19.259-5.0741 30.51-8.7617 36.312-11.902 1.2214-0.66108 12.627-1.8051 25.346-2.5422 12.719-0.73714 28.701-2.1791 35.516-3.2044 15.345-2.3085 33.652-2.3217 55.999-0.04028 18.693 1.9084 25.203 1.4257 41.417-3.0712 9.4208-2.6128 10.151-2.6421 18.549-0.74562 14.05 3.173 24.782 9.6188 37.119 22.295 7.8763 8.0931 16.828 15.226 33.275 26.515 20.586 14.129 23.326 16.458 32.207 27.38 5.9246 7.2855 10.014 13.543 10.494 16.058 1.172 6.1346 10.029 11.309 11.526 14.662 0.74192 1.6611 4.3254 1.4525 12.015 3.9388 10.29 3.3271 25.213 4.9612 42.769 11.296 6.2561 2.2573 8.6069 0.73485 13.465 3.5999 8.7856 5.1816 8.8228 2.5485 8.7856 5.1816-0.0725 5.1262-6.2426 7.3184-12.344 7.3184-1.7166 0-3.6541-5.0782-17.452-7.7711-13.407-2.6167-17.69-4.683-30.292-6.9934-9.8794-1.8112-10.695-2.3744-17.808-4.3177-3.1295-0.85504-9.3939-0.86737-9.5185-0.66349-0.12462 0.20388-2.0638 4.5146-4.0696 8.2091-5.2003 9.5787-4.9857 7.6222-15.423 15.37-5.4303 4.0313-9.4323 4.7781-22.091 3.6254-14.554-1.3253-9.9444-1.689-20.897-4.0719-13.285-2.8905-49.42-24.155-54.007-31.02-3.0685-4.5928-11.737-9.6269-11.737-8.1482 0 0.49772 0.90368 2.6525 2.0082 4.7883 1.4447 2.7938 1.863 6.1626 1.4909 12.007-0.50049 7.8599-0.34267 8.3836 4.8668 16.152 5.8857 8.7772 6.9331 14.962 3.6189 21.371-2.6516 5.1276-13.94 13.523-24.485 18.21-28.782 12.793-33.34 14.987-35.576 17.128-5.7405 5.4949 5.5381 7.9384 28.059 9.7974 19.024 1.5703 26.348 0.99657 44.002 2.8231 12.155 1.2575 16.874 0.65384 30.781 0.73258 18.097 0.1025 29.106-5.8843 38.06-11.143 5.9851-3.5154 9.3362-5.6433 19.015-5.6433 14.366 0 0.0349 8.475 0.0349 8.475l-10 4.1598 6.5378 3.643c3.3599 1.8722 13.842 4.0365 19.873 5.6454 13.961 3.7243 14.235 4.7753 44.509 12.262 13.811 3.4153 22.603 3.2624 22.603 3.2624 4.835-2.7068-3.1032 7.0379-4.0633 8.5739-2.7716 4.4291-27.2-2.9372-41.959-5.7341zm-212.76-41.544c2.1962-1.1357 6.8089-4.1895 10.25-6.7862 4.0198-3.033 9.526-5.6262 15.398-7.2522 5.0275-1.392 11.934-4.1433 15.347-6.114l6.206-3.583-2.6624-2.4094c-3.0979-2.8035-6.1564-8.3198-6.1564-11.103 0-3.0627 7.1313-2.5679 8.1253 0.56377 0.43656 1.3755 2.7347 3.9813 5.1071 5.7908l4.3133 3.29 5.9147-3.6974c5.381-3.3638 5.8826-4.0837 5.5592-7.9783-0.57016-6.8668-3.2992-8.5895-14.039-8.8617-5.1458-0.13043-11.887 0.48671-14.981 1.3714-3.0938 0.88468-8.4508 2.4029-11.904 3.3738-3.4537 0.97089-12.501 2.2149-20.106 2.7644-13.787 0.99629-13.857 1.0177-24.383 7.4727-5.8059 3.5604-11.785 6.4735-13.288 6.4735-3.3253 0-4.7715 2.527-7.0598 12.336-2.1652 9.2815-1.3915 10.554 7.9904 13.137 13.738 3.7825 24.561 4.2145 30.367 1.2121zm-18.492-45.847c10.627-4.8826 12.053-5.2048 25.751-5.8162 8.1173-0.36236 15.271-1.2814 16.25-2.0876 0.96173-0.79215 4.1821-2.091 7.1565-2.8864l5.4079-1.4461-2.1133-3.2253c-1.4983-2.2867-1.9325-4.8296-1.492-8.7379 0.75547-6.7025 1.1591-7.1625 5.3599-6.1081 2.9698 0.74536 3.2319 1.2572 2.538 4.9559-0.57442 3.0619-0.13496 4.9368 1.7055 7.2765 1.3636 1.7335 2.1227 3.5084 1.6869 3.9442-0.43582 0.43582 2.0941 0.79239 5.622 0.79239 7.0834 0 9.017-1.798 8.9852-8.3553-0.0342-7.0628-1.3556-9.0208-8.4203-12.477l-8.7299-2.6511-11.03 0.98-10.301 1.3444-25.355-0.95179c-10.357-0.38879-8.7236-0.49983-19.272-0.0262-13.955 0.62653-25.155 4.0541-30.406 9.3047-2.8483 2.8483-3.0141 3.702-2.3707 12.208 0.77736 10.279 1.9116 13.11 6.4397 16.077 3.529 2.3123 15.024 4.5338 18.837 3.6403 1.375-0.32223 7.5625-2.9119 13.75-5.7548zm183.14-4.6306c12.065-2.7305 17.242-9.9721 17.569-25.798l0.24345-11.776-6.0739-8.8093c-7.8099-11.327-19.141-21.916-35.542-33.215-7.1977-4.9584-18.712-13.824-25.587-19.701-14.056-12.016-35.579-27.167-41.25-29.037-3.1269-1.0315-6.1386-0.40759-18.125 3.7549l-14.375 4.992-16.875-2.0802c-22.835-2.8149-31.489-2.727-34.272 0.34805-1.1875 1.3122-3.7602 7.9113-5.7172 14.665-6.2171 21.455-11.584 23.191-38.449 12.433-8.9545-3.5857-10.312-3.8479-10.312-1.9914 0 2.5764 4.8837 10.001 7.5 11.402 1.0312 0.55233 9.1875 3.3325 18.125 6.1782 20.764 6.6113 30.803 7.5057 42.923 3.8244 13.851-4.2072 16.493-7.7722 18.005-24.294 0.31888-3.4848 0.36913-3.4586 4.8093 2.5116 2.4679 3.3183 5.468 8.9865 6.6669 12.596 1.1989 3.6095 3.2208 7.1199 4.4932 7.8009 4.1303 2.2105 12.875 4.0296 25.835-0.33356 16.229-5.4638 17.377-4.8214 26.698-4.1711 10.35 0.72211 8.9523-0.24493 4.1187 4.1731-2.8289 2.5857-2.9979 4.0697-5.8978 4.0697-9.0781 0-17.585 2.416-20.602 5.8512-7.2732 8.2812 1.8294 26.528 21.099 42.292 25.428 20.803 51.067 29.729 74.993 24.314zm-195.41-38.931c13.414-0.93168 14.088-0.51991 26.335-0.9365 11.462-0.38988 11.05 1.2736 21.873-0.23173 6.0156-0.83668 10.938 0.9135 10.938 0.77203s-0.6002-1.9789-1.3338-4.0833c-1.1937-3.4242 0.11863-16.998 1.8065-18.686 0.26527-0.26527 1.9659-0.11 3.7791 0.34511 3.1455 0.78948 3.26 1.1046 2.4955 6.8674-0.44067 3.322-0.42082 8.0676 0.0441 10.546 0.70427 3.7541 1.2544 4.3762 3.2966 3.728 1.3482-0.4279 4.3836-0.14027 6.7454 0.63919 3.1058 1.025 4.995 1.0421 6.8267 0.0619 4.339-2.3221 5.3471-5.8266 4.4476-15.46l-0.83688-8.9628-8.5088 0.41012c-9.8063 0.47263-14.949-1.4867-20.244-7.7129l-3.3569-3.9473-4.152 4.0134c-3.4186 3.3045-6.5448 4.5901-17.697 7.2777-15.38 3.7064-15.93 3.6687-38.499-2.6434-8.4024-2.35-16.481-4.2728-17.952-4.2728-5.5366 0-10.588 9.5874-10.604 20.128-9e-3 5.578 4.184 11.982 9.7968 14.963 4.6461 2.468 0.18977 4.4723 18.243-2.0855zm-104.61-26.158c44.422-16.087 45.549-13.883 56.074-12.341 6.3466 0.92963 10.952 3.1299 13.845 1.2989 1.4528-0.91933 0.93353-2.088-2.7293-6.1424-9.0732-10.043-9.3143-20.785-0.75609-33.684 1.9614-2.9563 3.5662-5.5336 3.5662-5.7273 0-0.19365-6.3281 0.66826-14.062 1.9154-14.874 2.3983-30.56 7.7153-26.158 8.8666 3.8333 1.0024 6.9642 12.131 6.0022 21.335-0.43307 4.1434-0.96773 7.7138-1.1881 7.9342-0.2204 0.2204-2.2521 0.77101-4.515 1.2236-3.6844 0.73687-4.0329 0.56652-3.3357-1.6302 0.42821-1.3492 0.86454-5.7917 0.96963-9.8723 0.23006-8.9338-3.8811-18.604-7.4588-17.545-1.1708 0.34662-12.254 3.5508-24.629 7.1204-12.375 3.5696-23.984 7.5279-25.798 8.7962-4.4146 3.0867-10.686 13.128-11.72 18.765-1.7358 9.4637 4.4344 13.506 20.643 13.524 8.7501 0.01 12.5-0.66722 21.25-3.836zm106.35-35.048c2.1495-4.0164 8.7217-23.92 8.1028-24.539-0.29604-0.29604-6.6607 0.92568-14.144 2.7149-7.483 1.7893-15.402 3.2532-17.599 3.2532-3.1636 0-4.5075 0.84386-6.4697 4.0625-1.3622 2.2344-2.33 4.5093-2.1506 5.0555 0.3954 1.2042 25.663 11.753 28.683 11.975 1.1789 0.0865 2.7887-1.0483 3.5772-2.5217z"/>
</svg>
