<svg width="1080" height="336" viewBox="0 0 1080 336" fill="none" xmlns="http://www.w3.org/2000/svg">
<path d="M250.896 320H273.325C275.323 320 276.677 318.775 276.677 316.874C276.677 314.973 275.323 313.748 273.325 313.748H254.505V276.72C254.505 274.399 253.119 272.981 250.896 272.981C248.64 272.981 247.286 274.399 247.286 276.72V316.262C247.286 318.582 248.64 320 250.896 320ZM295.368 320.645C301.685 320.645 306.615 318.099 308.839 313.651C309.129 312.975 309.322 312.33 309.322 311.782C309.322 310.042 308.098 308.946 306.422 308.946C305.423 308.946 304.714 309.301 303.973 310.171C301.395 313.684 299.01 315.005 295.207 315.005C289.664 315.005 286.184 311.138 286.184 304.95V304.789H306.68C308.839 304.789 310.128 303.5 310.128 301.244C310.128 291.995 303.908 285.485 294.885 285.485C285.281 285.485 279.158 292.446 279.158 303.21C279.158 314.167 285.152 320.645 295.368 320.645ZM286.216 299.923C286.57 294.638 290.051 291.093 294.853 291.093C299.687 291.093 303.006 294.605 303.167 299.923H286.216ZM325.468 320.58C329.883 320.58 334.201 318.195 336.167 314.425H336.328V317.293C336.393 319.355 337.714 320.612 339.647 320.612C341.613 320.612 342.999 319.291 342.999 317.1V296.636C342.999 289.836 337.746 285.485 329.528 285.485C323.438 285.485 318.313 287.935 316.541 291.77C316.122 292.543 315.929 293.316 315.929 294.025C315.929 295.766 317.186 296.926 318.926 296.926C320.15 296.926 321.053 296.475 321.762 295.443C323.695 292.35 325.919 291.157 329.271 291.157C333.524 291.157 336.07 293.413 336.07 297.184V299.794L326.757 300.342C318.732 300.793 314.156 304.435 314.156 310.364C314.156 316.455 318.829 320.58 325.468 320.58ZM327.369 315.069C323.663 315.069 321.182 313.136 321.182 310.171C321.182 307.271 323.534 305.434 327.691 305.144L336.07 304.628V307.303C336.07 311.718 332.235 315.069 327.369 315.069ZM353.247 320.612C355.31 320.612 356.728 319.194 356.728 316.938V299.633C356.728 295.411 358.661 292.221 363.431 292.188C364.881 292.188 365.912 291.898 366.621 291.286C367.298 290.738 367.652 289.933 367.652 288.837C367.652 287.741 367.362 286.903 366.718 286.388C366.138 285.84 365.203 285.55 363.979 285.55C360.595 285.55 357.469 288.096 356.534 291.898H356.373V288.998C356.373 286.871 355.02 285.485 353.086 285.485C351.12 285.485 349.767 286.871 349.767 288.998V316.938C349.767 319.194 351.152 320.612 353.247 320.612ZM374.903 320.612C376.934 320.612 378.384 319.227 378.384 316.938V300.245C378.384 294.992 381.542 291.512 386.44 291.512C391.274 291.512 393.659 294.315 393.659 299.407V316.938C393.659 319.227 395.109 320.612 397.14 320.612C399.202 320.612 400.652 319.227 400.652 316.938V298.054C400.652 290.287 396.366 285.518 388.89 285.518C383.669 285.518 380.124 287.838 378.287 291.705H378.126V289.03C378.126 286.871 376.74 285.485 374.742 285.485C372.712 285.485 371.423 286.871 371.423 288.998V316.938C371.423 319.227 372.841 320.612 374.903 320.612ZM437.487 320.773C448.348 320.773 455.244 315.263 455.244 306.497C455.244 299.729 451.248 295.83 441.483 293.768L436.424 292.704C430.397 291.415 427.98 289.159 427.98 285.775C427.98 281.521 432.009 278.879 437.455 278.879C442.096 278.879 445.641 280.716 447.22 285.002C447.961 286.678 449.024 287.483 450.765 287.483C452.634 287.483 453.955 286.259 453.955 284.39C453.955 283.713 453.858 283.165 453.697 282.714C451.893 276.494 445.576 272.724 437.552 272.724C427.658 272.724 420.665 278.202 420.665 286.162C420.665 292.865 424.887 297.184 434.168 299.149L439.26 300.213C445.479 301.566 447.929 303.822 447.929 307.432C447.929 311.589 443.707 314.618 437.81 314.618C432.428 314.618 428.206 312.588 426.756 308.237C426.047 306.497 424.983 305.756 423.34 305.756C421.374 305.756 420.085 307.109 420.085 309.204C420.085 309.978 420.246 310.751 420.472 311.46C422.276 316.874 428.464 320.773 437.487 320.773ZM464.59 280.974C466.846 280.974 468.65 279.169 468.65 276.978C468.65 274.754 466.846 273.014 464.59 273.014C462.366 273.014 460.562 274.754 460.562 276.978C460.562 279.169 462.366 280.974 464.59 280.974ZM464.59 320.612C466.685 320.612 468.07 319.162 468.07 316.938V289.191C468.07 286.936 466.685 285.485 464.59 285.485C462.495 285.485 461.109 286.936 461.109 289.191V316.938C461.109 319.162 462.495 320.612 464.59 320.612ZM489.404 332.762C499.491 332.858 505.646 327.444 505.646 319.065V289.062C505.646 286.807 504.164 285.485 502.166 285.485C500.168 285.485 498.653 286.807 498.653 289.062V291.802H498.524C496.462 287.967 492.724 285.55 487.922 285.55C479.156 285.55 473.678 292.156 473.678 302.759C473.678 313.232 479.221 319.903 487.761 319.903C492.595 319.903 496.591 317.486 498.492 313.812H498.653V319.194C498.653 323.932 495.205 327.154 489.533 327.09C486.214 327.025 483.829 325.769 481.058 322.868C480.123 321.934 479.446 321.579 478.383 321.579C476.61 321.579 475.418 322.739 475.418 324.351C475.418 325.156 475.611 325.865 476.062 326.639C478.383 330.312 483.249 332.697 489.404 332.762ZM489.63 314.231C484.28 314.231 480.8 309.881 480.8 302.791C480.8 295.733 484.28 291.286 489.63 291.286C495.076 291.286 498.686 295.862 498.686 302.823C498.686 309.784 495.076 314.231 489.63 314.231ZM515.991 320.612C518.021 320.612 519.472 319.227 519.472 316.938V300.245C519.472 294.992 522.63 291.512 527.528 291.512C532.362 291.512 534.747 294.315 534.747 299.407V316.938C534.747 319.227 536.197 320.612 538.228 320.612C540.29 320.612 541.74 319.227 541.74 316.938V298.054C541.74 290.287 537.454 285.518 529.978 285.518C524.757 285.518 521.212 287.838 519.375 291.705H519.214V289.03C519.214 286.871 517.828 285.485 515.83 285.485C513.8 285.485 512.511 286.871 512.511 288.998V316.938C512.511 319.227 513.929 320.612 515.991 320.612ZM566.329 320H588.759C590.757 320 592.11 318.775 592.11 316.874C592.11 314.973 590.757 313.748 588.759 313.748H569.938V276.72C569.938 274.399 568.553 272.981 566.329 272.981C564.073 272.981 562.72 274.399 562.72 276.72V316.262C562.72 318.582 564.073 320 566.329 320ZM606.87 320.58C611.285 320.58 615.604 318.195 617.569 314.425H617.73V317.293C617.795 319.355 619.116 320.612 621.05 320.612C623.016 320.612 624.401 319.291 624.401 317.1V296.636C624.401 289.836 619.148 285.485 610.931 285.485C604.84 285.485 599.716 287.935 597.943 291.77C597.524 292.543 597.331 293.316 597.331 294.025C597.331 295.766 598.588 296.926 600.328 296.926C601.553 296.926 602.455 296.475 603.164 295.443C605.098 292.35 607.321 291.157 610.673 291.157C614.927 291.157 617.473 293.413 617.473 297.184V299.794L608.159 300.342C600.135 300.793 595.559 304.435 595.559 310.364C595.559 316.455 600.231 320.58 606.87 320.58ZM608.771 315.069C605.065 315.069 602.584 313.136 602.584 310.171C602.584 307.271 604.937 305.434 609.094 305.144L617.473 304.628V307.303C617.473 311.718 613.638 315.069 608.771 315.069ZM634.649 320.612C636.68 320.612 638.13 319.227 638.13 316.938V300.245C638.13 294.992 641.288 291.512 646.187 291.512C651.021 291.512 653.405 294.315 653.405 299.407V316.938C653.405 319.227 654.855 320.612 656.886 320.612C658.948 320.612 660.398 319.227 660.398 316.938V298.054C660.398 290.287 656.112 285.518 648.636 285.518C643.415 285.518 639.87 287.838 638.033 291.705H637.872V289.03C637.872 286.871 636.486 285.485 634.488 285.485C632.458 285.485 631.169 286.871 631.169 288.998V316.938C631.169 319.227 632.587 320.612 634.649 320.612ZM681.346 332.762C691.433 332.858 697.588 327.444 697.588 319.065V289.062C697.588 286.807 696.105 285.485 694.107 285.485C692.109 285.485 690.595 286.807 690.595 289.062V291.802H690.466C688.403 287.967 684.665 285.55 679.863 285.55C671.098 285.55 665.619 292.156 665.619 302.759C665.619 313.232 671.162 319.903 679.702 319.903C684.536 319.903 688.532 317.486 690.434 313.812H690.595V319.194C690.595 323.932 687.146 327.154 681.475 327.09C678.155 327.025 675.771 325.769 672.999 322.868C672.064 321.934 671.388 321.579 670.324 321.579C668.552 321.579 667.359 322.739 667.359 324.351C667.359 325.156 667.553 325.865 668.004 326.639C670.324 330.312 675.19 332.697 681.346 332.762ZM681.571 314.231C676.222 314.231 672.741 309.881 672.741 302.791C672.741 295.733 676.222 291.286 681.571 291.286C687.018 291.286 690.627 295.862 690.627 302.823C690.627 309.784 687.018 314.231 681.571 314.231ZM716.183 320.612C721.371 320.612 724.819 318.324 726.688 314.264H726.85V317.1C726.85 319.227 728.203 320.612 730.201 320.612C732.199 320.612 733.521 319.227 733.521 317.067V289.191C733.521 286.871 732.103 285.485 730.04 285.485C728.01 285.485 726.56 286.871 726.56 289.191V305.853C726.56 311.138 723.53 314.618 718.503 314.618C713.701 314.618 711.252 311.847 711.252 306.69V289.191C711.252 286.871 709.802 285.485 707.771 285.485C705.709 285.485 704.291 286.871 704.291 289.191V308.044C704.291 315.811 708.803 320.612 716.183 320.612ZM750.343 320.58C754.758 320.58 759.076 318.195 761.042 314.425H761.203V317.293C761.268 319.355 762.589 320.612 764.522 320.612C766.488 320.612 767.874 319.291 767.874 317.1V296.636C767.874 289.836 762.621 285.485 754.403 285.485C748.312 285.485 743.188 287.935 741.416 291.77C740.997 292.543 740.804 293.316 740.804 294.025C740.804 295.766 742.061 296.926 743.801 296.926C745.025 296.926 745.928 296.475 746.637 295.443C748.57 292.35 750.794 291.157 754.146 291.157C758.399 291.157 760.945 293.413 760.945 297.184V299.794L751.632 300.342C743.607 300.793 739.031 304.435 739.031 310.364C739.031 316.455 743.704 320.58 750.343 320.58ZM752.244 315.069C748.538 315.069 746.057 313.136 746.057 310.171C746.057 307.271 748.409 305.434 752.566 305.144L760.945 304.628V307.303C760.945 311.718 757.11 315.069 752.244 315.069ZM788.854 332.762C798.94 332.858 805.096 327.444 805.096 319.065V289.062C805.096 286.807 803.613 285.485 801.615 285.485C799.617 285.485 798.103 286.807 798.103 289.062V291.802H797.974C795.911 287.967 792.173 285.55 787.371 285.55C778.605 285.55 773.127 292.156 773.127 302.759C773.127 313.232 778.67 319.903 787.21 319.903C792.044 319.903 796.04 317.486 797.941 313.812H798.103V319.194C798.103 323.932 794.654 327.154 788.982 327.09C785.663 327.025 783.278 325.769 780.507 322.868C779.572 321.934 778.896 321.579 777.832 321.579C776.06 321.579 774.867 322.739 774.867 324.351C774.867 325.156 775.061 325.865 775.512 326.639C777.832 330.312 782.698 332.697 788.854 332.762ZM789.079 314.231C783.729 314.231 780.249 309.881 780.249 302.791C780.249 295.733 783.729 291.286 789.079 291.286C794.525 291.286 798.135 295.862 798.135 302.823C798.135 309.784 794.525 314.231 789.079 314.231ZM826.655 320.645C832.972 320.645 837.902 318.099 840.126 313.651C840.416 312.975 840.609 312.33 840.609 311.782C840.609 310.042 839.385 308.946 837.709 308.946C836.71 308.946 836.001 309.301 835.26 310.171C832.682 313.684 830.297 315.005 826.494 315.005C820.951 315.005 817.471 311.138 817.471 304.95V304.789H837.967C840.126 304.789 841.415 303.5 841.415 301.244C841.415 291.995 835.195 285.485 826.172 285.485C816.568 285.485 810.445 292.446 810.445 303.21C810.445 314.167 816.439 320.645 826.655 320.645ZM817.503 299.923C817.857 294.638 821.338 291.093 826.14 291.093C830.974 291.093 834.293 294.605 834.454 299.923H817.503Z" fill="white"/>
</svg>
