<?xml version="1.0" encoding="UTF-8"?>
<svg version="1.1" viewBox="0 0 197.51 447.9" xmlns="http://www.w3.org/2000/svg" xmlns:cc="http://creativecommons.org/ns#" xmlns:dc="http://purl.org/dc/elements/1.1/" xmlns:rdf="http://www.w3.org/1999/02/22-rdf-syntax-ns#">
<metadata>
<rdf:RDF>
<cc:Work rdf:about="">
<dc:format>image/svg+xml</dc:format>
<dc:type rdf:resource="http://purl.org/dc/dcmitype/StillImage"/>
<dc:title>ASL letter</dc:title>
<dc:date>11/11/2013</dc:date>
<dc:creator>
<cc:Agent>
<dc:title>edited by Paul Sherman</dc:title>
</cc:Agent>
</dc:creator>
<dc:rights>
<cc:Agent>
<dc:title>PD</dc:title>
</cc:Agent>
</dc:rights>
<dc:publisher>
<cc:Agent>
<dc:title>WPClipart</dc:title>
</cc:Agent>
</dc:publisher>
<dc:subject>
<rdf:Bag>
<rdf:li>sign</rdf:li>
<rdf:li>language</rdf:li>
<rdf:li>letter</rdf:li>
<rdf:li>american</rdf:li>
</rdf:Bag>
</dc:subject>
<cc:license rdf:resource="http://creativecommons.org/publicdomain/zero/1.0/"/>
</cc:Work>
<cc:License rdf:about="http://creativecommons.org/publicdomain/zero/1.0/">
<cc:permits rdf:resource="http://creativecommons.org/ns#Reproduction"/>
<cc:permits rdf:resource="http://creativecommons.org/ns#Distribution"/>
<cc:permits rdf:resource="http://creativecommons.org/ns#DerivativeWorks"/>
</cc:License>
</rdf:RDF>
</metadata>
<path d="m153.57 433.34c-3.8256-2.2284-4.4257-3.1322-6.3334-9.5376-1.159-3.8918-2.1171-9.3765-2.1292-12.188-0.0239-5.5974 5.4418-38.518 7.134-42.969 2.0686-5.441 1.7938-5.6429-7.6954-5.6518-4.8125-5e-3 -12.8-0.45625-17.75-1.0038-20.311-2.247-38.015-16.442-44.692-35.835-3.4146-9.9163-3.1867-24.39 0.58185-36.956 3.9517-13.177 9.1077-23.803 14.683-30.261 2.6421-3.0604 4.9442-6.0254 5.1157-6.589 0.75565-2.4826-6.2264-6.4214-15.596-8.7982-5.2798-1.3393-12.185-3.8168-15.346-5.5056-6.8808-3.6767-16.415-11.648-21.054-17.602-5.1493-6.6094-5.1794-10.066-0.19852-22.805 2.3125-5.9147 5.1725-11.867 6.3556-13.228 3.2663-3.7574 8.251-4.123 14.741-1.081 5.4188 2.5398 21.012 7.1188 34.716 10.194 14.547 3.2645 16.56 4.6794 31.795 22.345 13.553 15.715 13.877 16.006 20.833 18.674 3.8864 1.4905 8.9786 3.7981 11.316 5.128 4.1926 2.3854 4.25 2.39 4.25 0.34148 0-1.1421-2.0185-7.1801-4.4855-13.418-4.6392-11.73-6.5223-18.703-8.5444-31.64-0.96197-6.1549-0.88178-10.868 0.43394-25.5 3.9853-44.322 3.8743-59.395-0.55565-75.45-2.479-8.9841-2.4592-8.4192-0.82912-23.663l1.3006-12.163-2.7749-5.6716c-2.9634-6.0569-7.1732-9.4923-11.64-9.4987-3.7663-0.0054-5.9094 2.9915-6.8954 9.6428-0.47728 3.2194-1.6098 9.3514-2.5166 13.627-1.3942 6.5727-1.4561 8.5802-0.40109 13 1.1524 4.8277 3.0267 38.305 2.9241 52.227-0.0394 5.3456-5.2268 44.507-6.6428 50.149-0.95313 3.7976-11.385 6.1858-11.362 2.601 6e-3 -0.9625 1.6216-8.05 3.5892-15.75 4.3672-17.09 5.5377-33.947 3.0855-44.436-1.3234-5.6606-1.3334-7.8901-0.0837-18.5 1.5608-13.25 1.1373-19.074-1.8126-24.928l-1.9471-3.864 2.6872-10.136c3.2401-12.222 4.3986-29.247 2.4609-36.167-2.4824-8.8663-10.629-12.168-16.934-6.8631-1.703 1.433-4.1925 4.4759-5.5323 6.7621-2.2693 3.8722-2.4351 5.1139-2.4229 18.145 9e-3 9.2169-0.55417 16.717-1.65 21.988-2.4778 11.92-2.7293 13.5-2.1483 13.5 0.29182 0 2.7001-0.92997 5.3518-2.0666 3.2401-1.3889 5.8793-1.8681 8.0478-1.4613 3.5694 0.66962 3.7364 0.84027 4.6776 4.7779 0.64123 2.6827 0.54972 2.75-3.7396 2.75-4.3668 0-10.986 2.1309-12.071 3.8859-0.31144 0.50391-0.73866 18.398-0.94938 39.765-0.27827 28.216-0.76533 40.628-1.7795 45.349l-1.3964 6.5-3.7563-0.11705c-2.066-0.0644-3.9891-0.34986-4.2736-0.63439-0.28454-0.28453 0.41333-11.129 1.5508-24.1 1.1375-12.97 1.8512-25.285 1.586-27.366-0.26515-2.0807-1.2226-13.908-2.1278-26.283-1.6356-22.362-1.6325-22.561 0.50383-32.5 4.973-23.136 5.0428-29.256 0.38649-33.913-2.988-2.988-8.5524-4.9151-12.78-4.4261-3.738 0.43233-6.8824 6.2294-9.1335 16.839-2.1435 10.102-1.5534 32.069 0.93536 34.819 2.5404 2.8071 2.0703 10.424-1.5345 24.867-3.1252 12.522-3.2067 13.423-3.5726 39.563l-0.37443 26.749-2.4252 0.60869c-4.8588 1.2195-4.9664 0.85082-6.197-21.237-1.0035-18.011-1.404-21.024-2.947-22.169-2.0691-1.5351-5.624-1.0292-11.722 1.6681-4.1969 1.8565-4.2858 2.0012-6.3944 10.408-1.176 4.689-2.8706 14.235-3.7657 21.213-1.5097 11.77-1.5065 14.004 0.0447 30.887l1.6721 18.199-2.4422 6.462c-9.1503 24.211-8.5056 21.518-9.2332 38.572-0.78278 18.347 0.59281 28.219 7.7188 55.39 4.803 18.314 7.6964 24.466 16.089 34.207 4.837 5.6143 6.4946 8.3833 7.3457 12.272 0.60456 2.7618 2.7421 11.233 4.75 18.825 2.008 7.592 3.6508 16.081 3.6508 18.864 0 2.9094-1.3423 9.295-3.1577 15.022-2.8573 9.0134-3.3568 9.904-5.25 9.3616-1.1508-0.32971-3.3298-0.86988-4.8423-1.2004s-2.7469-1.1072-2.743-1.7259c4e-3 -0.61875 1.214-4.5 2.6892-8.625 3.663-10.243 3.6495-20.33-0.0424-31.614-1.46-4.4625-2.9539-10.297-3.3197-12.966-0.57002-4.1587-1.5454-5.7895-6.8258-11.412-9.7287-10.359-13.829-18.857-20.895-43.303-5.6533-19.559-6.9531-28.822-6.9046-49.206 0.04756-19.996 0.0047-19.793 8.6801-41.092l4.5179-11.092-1.6552-16.481c-1.868-18.6-2.4657-13.366 6.8781-60.229 2.3215-11.643 3.713-21.048 3.3553-22.677-0.98107-4.4668 1.3338-17.991 4.0249-23.516 2.9813-6.1202 5.3951-7.4054 15.323-8.1584 6.5644-0.49791 7.4272-0.8065 8.2413-2.9478 0.50592-1.3307 0.62591-8.9391 0.27047-17.151-0.58999-13.631-0.46602-15.279 1.6214-21.551 2.3875-7.1745 6.4847-12.752 11.134-15.156 3.7548-1.9417 13.343-1.7459 18.901 0.3859l4.5 1.7261 4.2198-5.176c4.571-5.6066 12.656-10.385 17.572-10.385 1.5946 0 4.2359 0.7875 5.8695 1.75 3.4232 2.017 8.9409 9.9004 11.428 16.328 2.3995 6.2011 2.6892 6.3511 6.8329 3.5392 2.0332-1.3798 4.2324-2.3456 4.8871-2.1464s2.4196 0.63131 3.9221 0.96019c3.4368 0.75233 9.274 5.8257 12.4 10.777 4.3112 6.8294 5.3466 13.35 4.6988 29.592-0.54848 13.753-0.40989 15.409 2.1502 25.7 3.7236 14.968 4.2069 29.533 2.0403 61.486-2.2118 32.619-1.4175 39.994 7.1636 66.514l4.53 14-0.47578 19.5c-0.7174 29.403-5.3398 54.207-15.679 84.135-8.5477 24.742-14.801 56.791-13.729 70.365 0.30399 3.85 1.3992 10.262 2.4338 14.25 1.1932 4.5988 1.4888 7.2134 0.80828 7.15-0.59006-0.055-2.9746-1.2078-5.2989-2.5617zm-0.17132-79.393c6.9372-3.7127 21.002-59.035 21.978-86.445 0.37689-10.592 0.0319-12.303-3.2286-16.016-3.7272-4.2451-5.9453-5.4699-17.432-9.6263-4.7672-1.725-10.214-4.4936-12.103-6.1526-1.8895-1.659-7.086-8.4025-11.548-14.986-9.122-13.459-8.6416-13.348-13.265-3.0523-1.276 2.8417-3.4864 5.931-4.9119 6.865-1.9826 1.299-2.6022 2.5527-2.6357 5.3332-0.0241 1.9992-0.65721 5.3548-1.4068 7.4567l-1.3629 3.8217 9.4901 9.8874c5.2196 5.438 10.465 10.167 11.657 10.509 8.5745 2.4617 10.521 3.7624 15.046 10.052l4.61 6.4082h-3.1655c-1.741 0-5.9011-1.2811-9.2446-2.8469-3.3435-1.5658-8.104-3.687-10.579-4.7138-2.6069-1.0815-7.7477-4.9928-12.22-9.2973l-7.7199-7.4304-1.0696 2.8942c-0.58827 1.5918-1.9446 5.1442-3.014 7.8942-11.56 29.727-14.149 43.823-10.379 56.517 1.9773 6.6583 7.5571 14.998 14.164 21.169 4.2428 3.9632 6.5495 5.1626 14.946 7.771 5.4607 1.6965 11.923 3.4758 14.361 3.954 6.3634 1.2482 16.731 1.2665 19.035 0.0336zm-52.103-120.05c4.9941-2.9982 8.2042-6.147 7.0157-6.8816-0.62861-0.3885 0.1173-4.0862 1.9893-9.8617 1.6473-5.0821 2.995-9.3846 2.995-9.5612s-1.9049-1.5817-4.2331-3.1224c-3.1692-2.0973-5.9966-2.9713-11.25-3.4777l-7.0169-0.67635-4.81 5.3224c-5.3598 5.9308-9.91 7.812-15.69 6.4869-4.0145-0.92037-9.5803-3.6315-10.496-5.1126-1.1995-1.9409-2.5044-0.98067-2.5044 1.8428 0 2.9037 3.8127 8.9198 8.1145 12.804 5.7246 5.1689 24.858 14.17 30.386 14.294 1.1 0.0247 3.575-0.90068 5.5-2.0564zm-21.042-37.002c0.0634-0.92974-13.892-5.1288-15.277-4.597-1.3331 0.51157-4.2683 5.4755-3.5991 6.0866 0.22999 0.21002 3.1144 1.7349 6.4097 3.3887l5.9915 3.0069 3.2168-3.6372c1.7693-2.0005 3.2356-3.912 3.2585-4.248zm-21.618-72.353c0.34062-2.4851 1.7138-8.4599 3.0514-13.277 3.5577-12.813 3.819-15.778 1.6284-18.481-1.4929-1.8425-2.7987-2.264-6.8349-2.2066-2.8299 0.04025-6.0736 0.78132-7.4942 1.7122-4.0793 2.6728-6.1188 10.432-6.1574 23.425l-0.0332 11.208 5.6585-0.59089c4.9945-0.52155 5.8101-0.34819 6.9502 1.4773 1.757 2.8134 2.5011 2.0612 3.2313-3.2662z"/>
</svg>
