<?xml version="1.0" encoding="UTF-8"?>
<svg version="1.1" viewBox="0 0 286.34 439.68" xmlns="http://www.w3.org/2000/svg" xmlns:cc="http://creativecommons.org/ns#" xmlns:dc="http://purl.org/dc/elements/1.1/" xmlns:rdf="http://www.w3.org/1999/02/22-rdf-syntax-ns#">
<metadata>
<rdf:RDF>
<cc:Work rdf:about="">
<dc:format>image/svg+xml</dc:format>
<dc:type rdf:resource="http://purl.org/dc/dcmitype/StillImage"/>
<dc:title>ASL letter</dc:title>
<dc:date>11/11/2013</dc:date>
<dc:creator>
<cc:Agent>
<dc:title>edited by Paul Sherman</dc:title>
</cc:Agent>
</dc:creator>
<dc:rights>
<cc:Agent>
<dc:title>PD</dc:title>
</cc:Agent>
</dc:rights>
<dc:publisher>
<cc:Agent>
<dc:title>WPClipart</dc:title>
</cc:Agent>
</dc:publisher>
<dc:subject>
<rdf:Bag>
<rdf:li>sign</rdf:li>
<rdf:li>language</rdf:li>
<rdf:li>letter</rdf:li>
<rdf:li>american</rdf:li>
</rdf:Bag>
</dc:subject>
<cc:license rdf:resource="http://creativecommons.org/publicdomain/zero/1.0/"/>
</cc:Work>
<cc:License rdf:about="http://creativecommons.org/publicdomain/zero/1.0/">
<cc:permits rdf:resource="http://creativecommons.org/ns#Reproduction"/>
<cc:permits rdf:resource="http://creativecommons.org/ns#Distribution"/>
<cc:permits rdf:resource="http://creativecommons.org/ns#DerivativeWorks"/>
</cc:License>
</rdf:RDF>
</metadata>
<path d="m53.772 422.84c0.93994-2.6641 4.0082-7.5268 5.0698-11.476 6.0459-22.492 9.623-25.469 8.5636-61.032-0.07325-2.4587-7.2484-23.602-13.105-37.262-6.6573-15.527-13.91-26.674-17.769-34.224-10.208-19.973-24.531-51.314-24.531-66.304 0-3.4807 1.9082-12.037 4.5054-20.203 5.5473-17.44 6.4639-27.237 3.7679-40.273-1.1128-5.381-2.0233-13.421-2.0233-17.867 0-20.28 16.027-48.756 32.127-57.081 3.3638-1.7395 4.048-3.1355 6.3453-12.946 4.5782-19.552 10.751-29.684 20.892-34.29 9.2488-4.2016 17.73-3.0716 35.145 4.6829 0.76111 0.33892 2.1043-1.1232 2.985-3.2492 2.282-5.5091 10.184-11.802 19.825-15.789 6.8667-2.8394 10.257-3.4492 19.557-3.518 12.454-0.09208 18.491 1.7063 27.537 8.2026l5.2372 3.7611 7.3629-2.2224c4.5984-1.388 11.391-2.2207 18.092-2.2179 9.3792 4e-3 11.66 0.46953 18.125 3.699 6.0736 3.0341 7.9957 4.8075 10.754 9.9218 1.8471 3.425 4.2704 9.8938 5.3851 14.375 1.1147 4.4812 5.3858 14.977 9.4914 23.323 10.825 22.006 11.248 25.018 6.3368 45.033-2.1916 8.9306-4.5898 21.256-5.3292 27.39-0.73947 6.1336-2.4486 14.459-3.7982 18.5-2.4469 7.3273-2.4468 7.3552 0.0525 10.016 1.3784 1.4673 3.6888 5.4732 5.1341 8.9022 1.4453 3.4289 4.8463 10.734 7.5577 16.234 5.3737 10.9 8.3405 24.79 6.9166 32.38-1.1131 5.9332-7.5097 17.836-19.882 36.995-20.808 32.223-38.497 62.081-40.36 68.125-4.4291 14.363-3.3165 55.646 2.0507 76.089 1.2768 4.8632 2.1058 9.0578 1.8422 9.3213-0.26355 0.26356-3.0526-0.50359-6.1978-1.7048-5.5392-2.1154-5.806-2.4627-8.5055-11.07-2.3784-7.5834-2.7881-11.726-2.7948-28.261-4e-3 -10.656 0.47934-23.536 1.0749-28.621l1.0828-9.2463-2.9578 0.8694c-6.2787 1.8455-28.497 2.3403-36.286 0.80804-21.218-4.1744-36.683-19.664-41.159-41.223-3.4952-16.836 1.3928-42.44 11.868-62.168 4.7391-8.9248 5.0339-8.2902-6.5489-14.094-8.681-4.3497-18.148-12.384-20.929-17.761-0.97848-1.8922-1.779-5.4222-1.779-7.8444 0-3.5107-1.0786-5.4886-5.3165-9.7496-2.924-2.94-7.6854-9.3478-10.581-14.24-6.568-11.097-11.342-15.319-25.175-22.267-12.5-6.2777-19.577-13.118-20.907-20.207-0.92086-4.9086 0.24246-28.707 1.503-30.747 0.40798-0.66013 2.0884 0.78148 3.7342 3.2036 2.4849 3.6569 2.9924 5.9601 2.9924 13.58 0 13.076 3.3453 19.457 11.875 22.653 11.445 4.2882 14.947 6.0019 21.875 10.703l6.875 4.6658 2.9124-3.539c1.6018-1.9464 5.4341-5.0167 8.5161-6.8229 4.8114-2.8196 6.0555-3.0781 8.7997-1.8278 2.8571 1.3018 3.0989 1.2198 2.28-0.77268-5.0944-12.396-8.1332-22.629-8.1332-27.388 0-7.5962-4.021-11.321-17.862-16.545-5.7831-2.1827-13.269-5.9265-16.635-8.3197-3.3661-2.3932-6.9656-4.3457-7.9991-4.339-4.2856 0.0279-14.826 6.2579-19.166 11.328-8.5306 9.9661-10.062 17.482-10.295 50.535-0.19728 27.999-0.30498 29.128-4.1229 43.229-4.8837 18.037-4.8828 17.958-0.19184 15.533 2.0507-1.0604 6.1914-2.2656 9.2017-2.6782 4.7893-0.65645 5.7337-0.38048 7.5571 2.2084l2.0838 2.9587-6.5981 1.0353c-4.9263 0.77299-7.9974 2.2295-12.121 5.7486l-5.5228 4.7133 3.1877 9.8764c46.277 83.322 35.978 96.063 56.694 119.02 6.3465 3.6355 11.833 4.941 22.935 7.8008 5.6392 1.4527 13.102 2.9562 8.8611 4.3023-1.3709 0.43511-3.2442 1.5427-4.1628 2.4613-1.3936 1.3936-3.6555 0.97848-13.658-2.5067l-16.016-1.4919-4.4625 15.746c-8.4923 29.965-5.8769 29.962-9.5614 39.168l-4.1523 10.375-11.681 0.75939zm135.7-92.902c7.9573-1.7065 12.443-5.4572 19.934-16.666 6.4398-9.6367 12.839-18.952 27.548-40.098 19.594-28.169 26.293-41.088 26.293-50.701 0-6.1998-1.561-10.144-7.6843-19.415-2.7664-4.1885-6.8098-12.016-8.9853-17.395-5.4009-13.354-6.965-14.334-24.331-15.25-13.517-0.71309-14.101-0.63558-18.664 2.4786-5.6682 3.8682-13.434 6.0548-22.237 6.2609-5.3818 0.12601-7.2085-0.43373-10.526-3.2256-2.208-1.8579-4.4683-3.378-5.0228-3.378-2.0218 0-2.2786 5.1694-0.57464 11.57 3.491 13.114 1.3856 18.814-8.3945 22.727-6.3339 2.5343-25.48 3.0315-29.703 0.77135-3.4667-1.8553-7.5627-10.482-7.6-16.006-0.0279-4.1186-0.74361-4.6686-4.3002-3.3038-3.8628 1.4823-1.1663 13.405 4.1929 18.54 4.4713 4.2838 17.696 8.7186 39.556 13.264 9.9998 2.0795 21.134 4.8856 24.742 6.2357 6.9224 2.59 14.532 8.9506 14.532 12.147 0 1.5678 1.2071 1.7569 6.9256 1.0848 8.2071-0.96457 12.158 0.60965 11.588 4.6168-0.32019 2.2491-1.9837 3.1443-9.4779 5.1001l-9.0896 2.3722 3.7164 2.26c3.9988 2.4318 7.5877 8.2148 7.5877 12.227 0 2.4599-0.0627 2.4589-7.7157-0.12551l-7.7157-2.6056-2.8494 3.3126c-1.5672 1.8219-3.1576 3.3126-3.5343 3.3126-0.37674 0-0.68496-5.0904-0.68496-11.312 0-7.468-0.61962-12.51-1.8234-14.838-2.8444-5.5004-11.833-9.066-24.739-9.8133l-10.937-0.6333-4.8633 10.486c-10.593 22.841-14.678 41.557-11.565 52.986 2.1266 7.8055 11.464 21.973 17.053 25.873 5.3516 3.735 20.78 8.3201 28.376 8.4332 2.5443 0.0379 7.4826-0.54381 10.974-1.2926zm-43.111-130.83c-1.9252-4.6622-3.271-12.366-2.8327-16.217 0.40005-3.5139-0.0125-4.1932-3.2229-5.3125-10.418-3.6317-15.445 0.42513-14.143 11.414 0.41486 3.5029 1.6291 7.704 2.6983 9.3358 1.7201 2.6253 2.8916 2.9669 10.174 2.9669 7.3488 0 8.1332-0.2342 7.3266-2.1875zm10.113-1.5625c0.28751 0 0.52276-2.9862 0.52276-6.6361 0-7.5378-2.762-12.894-4.9571-9.6139-2.6688 3.9884-0.91588 18.102 2.1043 16.944 0.994-0.38142 2.0425-0.69351 2.33-0.69351zm-37.748-22.61 7.1367-5.1105-3.6255-6.452c-2.0004-3.56-5.9637-8.1096-8.8419-10.15l-5.2164-3.698-10.397 10.397 1.4368 7.7259c2.5596 13.764 7.7538 15.704 19.507 7.2875zm38.461-10.202c0.84058-1.5469 1.5635-5.625 1.6065-9.0625 0.0661-5.2908-0.69347-7.401-4.95-13.75-4.4426-6.6267-5.4508-7.4541-8.6579-7.1056-6.486 0.70466-10.708 3.8178-13.264 9.78-2.9713 6.9317-3.042 10.322-0.33404 16.001 2.5099 5.2634 5.9752 6.7196 16.302 6.8508 6.8237 0.0866 7.9544-0.24337 9.2968-2.7138zm35.36 1.5909c1.7672-0.67189 4.1571-3.2013 5.3109-5.6208 1.97-4.1312 1.9643-4.9659-0.0946-13.699l-2.1925-9.3002-6.6518-0.83109c-9.8847-1.235-11.615-0.24443-15.777 9.0323-5.172 11.527-4.9036 14.495 1.6675 18.433 5.5994 3.356 12.193 4.0942 17.738 1.9861zm44.313-9.0961c7.2532-4.3672 7.9856-5.8596 11.501-23.432 0.75649-3.7812 2.7938-11.366 4.5273-16.856 4.9029-15.526 3.9516-22.344-6.1302-43.937-4.451-9.5328-9.4526-20.671-11.115-24.752-1.6622-4.0808-4.776-9.2839-6.9197-11.562-3.74-3.9754-4.2764-4.1429-13.267-4.1429-8.8947 0-21.894 1.7671-23.294 3.1665-1.3925 1.3925 10.436 35.967 18.708 54.683 6.0556 13.701 8.7504 21.346 8.8244 25.033 0.0595 2.9646-1.8926 11.492-4.4214 19.314-2.4904 7.7034-4.5279 15.939-4.5279 18.3 0 3.9234 0.45845 4.4562 5.3125 6.1744 8.4626 2.9955 13.288 2.5339 20.801-1.9898zm-20.321-3.2477c-2.9816-3.2946-2.5203-7.5783 1.7326-16.089 3.3696-6.7432 4.319-7.692 8.8459-8.8411 3.9228-0.9957 6.3228-0.86078 10.598 0.59577l5.5263 1.883-0.6879 7.0709c-1.2043 12.379-1.8724 15.196-3.6044 15.196-2.3917 0-3.2021-2.873-3.2021-11.352v-7.3978h-4.1146c-3.7474 0-4.4168 0.61609-7.5 6.9027-1.862 3.7965-3.3854 8.2633-3.3854 9.9262 0 4.0236-1.7017 4.8751-4.2079 2.1057zm-85.317-19.774c4.3285-2.8034 15.76-6.6606 19.741-6.6606 1.2439 0 3.5324 1.9618 5.0856 4.3595 1.5532 2.3977 3.3185 4.3665 3.923 4.375 1.2266 0.0172 0.0346-15.02-1.8793-23.707-0.67826-3.0788-2.662-7.471-4.4084-9.7606-2.7847-3.6509-3.6601-4.0599-7.1183-3.3256-2.1687 0.46047-4.8606 1.645-5.9821 2.6324-1.7789 1.5662-2.297 1.5371-4.0625-0.2284-1.113-1.113-2.0236-2.7771-2.0236-3.6982 0-1.8334 6.9326-8.1468 8.9458-8.1468 0.68966 0-1.8843-3.5156-5.7199-7.8125-3.8356-4.2969-8.9938-11.648-11.463-16.335-6.2512-11.868-10.585-16.34-20.777-21.439-9.5814-4.7934-15.85-5.5489-22.609-2.7249-8.834 3.6911-15.985 16.748-15.8 28.851 0.0695 4.5682 0.66401 5.514 5.8434 9.2962 3.1713 2.3158 11.471 6.5683 18.445 9.4501 13.935 5.7587 21.615 10.862 22.481 14.938 0.30959 1.4583 1.4721 7.3311 2.5834 13.051s2.8861 12.47 3.9441 15c1.058 2.5305 2.4863 6.0071 3.174 7.7259l1.2504 3.125 1.1178-3.125c0.61476-1.7188 3.0038-4.3465 5.3089-5.8394zm77.31-13.577c0.0364-8.0184-0.2759-8.9229-13.213-38.273-3.8339-8.6976-9.3471-23.808-12.252-33.579-2.9044-9.7708-6.0203-18.505-6.9243-19.409-2.9849-2.9849-15.912-7.2007-22.326-7.2807-9.1672-0.11445-16.891 3.3127-23.579 10.463-3.1574 3.3755-5.7407 6.8104-5.7407 7.6332 0 3.8449 14.645 27.369 26.468 42.514 15.416 19.748 19.782 29.735 19.782 45.248v7.3759l2.3643-2.9198c2.0096-2.4817 3.7446-2.9892 11.562-3.3823 13.21-0.66419 17.531 0.7199 19.009 6.0883l1.1872 4.3119 1.8135-5.625c0.99742-3.0938 1.8289-9.0185 1.8477-13.166z"/>
</svg>
