<svg width="1080" height="336" viewBox="0 0 1080 336" fill="none" xmlns="http://www.w3.org/2000/svg">
<path d="M26.3837 209.148C34.7317 209.148 39.6787 204.098 39.6787 195.338V142.88H112.028V195.338C112.028 204.098 116.975 209.148 125.22 209.148C133.568 209.148 138.515 204.098 138.515 195.338V70.7366C138.515 61.9763 133.568 56.9263 125.22 56.9263C116.975 56.9263 112.028 61.9763 112.028 70.7366V120.515H39.6787V70.7366C39.6787 61.9763 34.7317 56.9263 26.3837 56.9263C18.1388 56.9263 13.0888 61.9763 13.0888 70.7366V195.338C13.0888 204.098 18.1388 209.148 26.3837 209.148ZM191.591 209.148C205.711 209.148 219.418 201.831 225.705 189.979H226.22V197.605C226.632 205.232 231.476 209.457 238.484 209.457C245.699 209.457 250.955 204.82 250.955 196.575V132.161C250.955 110.209 233.331 95.8836 206.226 95.8836C185.305 95.8836 168.402 103.922 162.837 116.599C161.703 118.969 161.085 121.237 161.085 123.607C161.085 129.791 165.62 133.913 171.907 133.913C176.235 133.913 179.636 132.264 182.316 128.76C188.706 119.382 195.198 115.981 205.195 115.981C217.872 115.981 225.602 122.576 225.602 134.016V141.849L196.641 143.498C170.051 145.147 155.107 156.793 155.107 176.168C155.107 195.853 170.464 209.148 191.591 209.148ZM199.424 189.773C188.293 189.773 180.77 184.104 180.77 175.138C180.77 166.481 187.881 160.915 200.248 160.091L225.602 158.545V166.893C225.602 180.085 213.853 189.773 199.424 189.773ZM284.45 209.457C291.973 209.457 297.332 204.613 297.332 195.956V144.116C297.332 128.451 306.711 117.836 321.449 117.836C336.083 117.836 343.298 126.493 343.298 141.952V195.956C343.298 204.613 348.657 209.457 356.18 209.457C363.704 209.457 368.96 204.613 368.96 195.956V136.799C368.96 111.549 355.253 96.0897 331.136 96.0897C314.337 96.0897 303.001 103.613 297.126 116.599H296.611V108.972C296.611 101.037 291.458 95.9866 283.934 95.9866C276.308 95.9866 271.67 101.037 271.67 108.972V195.956C271.67 204.613 276.926 209.457 284.45 209.457ZM430.385 209.148C447.287 209.148 459.036 200.594 464.292 188.021H464.807V196.575C464.807 204.923 470.373 209.457 477.793 209.457C485.213 209.457 490.469 204.82 490.469 196.575V70.1182C490.469 61.461 485.11 56.6171 477.587 56.6171C470.063 56.6171 464.807 61.461 464.807 70.1182V116.496H464.189C458.417 104.438 446.05 96.2958 430.385 96.2958C402.867 96.2958 385.038 118.145 385.038 152.67C385.038 187.402 402.867 209.148 430.385 209.148ZM438.114 188.124C421.521 188.124 411.318 174.519 411.318 152.773C411.318 131.131 421.624 117.423 438.114 117.423C454.295 117.423 464.91 131.337 464.91 152.773C464.91 174.416 454.295 188.124 438.114 188.124ZM566.941 209.87C602.703 209.87 625.068 191.937 625.068 163.492C625.068 141.437 611.876 128.863 580.545 122.37L564.571 119.072C546.02 115.156 538.599 108.663 538.599 98.5632C538.599 86.0927 550.348 78.26 566.838 78.26C580.751 78.26 591.367 83.6192 596.417 96.1927C599.199 101.964 603.013 104.644 609.196 104.644C616.101 104.644 620.739 100.212 620.739 93.7193C620.739 91.2458 620.43 89.2876 619.812 87.6386C613.731 67.9539 593.325 56.2049 567.044 56.2049C534.786 56.2049 511.803 73.9315 511.803 100.109C511.803 121.855 525.717 135.871 555.501 141.952L571.476 145.25C590.851 149.269 598.272 155.865 598.272 166.584C598.272 178.951 585.698 187.814 567.766 187.814C551.894 187.814 539.115 182.043 534.477 169.16C531.591 163.183 527.881 160.812 522.006 160.812C514.998 160.812 510.257 165.553 510.257 172.974C510.257 175.447 510.773 178.127 511.7 180.6C517.472 197.502 537.259 209.87 566.941 209.87ZM655.883 209.457C663.716 209.457 668.766 204.304 668.766 195.956V109.591C668.766 101.243 663.716 95.9866 655.883 95.9866C648.05 95.9866 643.104 101.243 643.104 109.488V195.956C643.104 204.304 648.05 209.457 655.883 209.457ZM737.405 248.518C771.106 248.724 791.203 231.409 791.203 203.892V109.075C791.203 100.624 785.844 95.9866 778.423 95.9866C771.106 95.9866 765.541 100.624 765.541 109.075V116.702H765.128C758.842 104.335 746.783 96.2958 731.221 96.2958C703.085 96.2958 685.771 117.217 685.771 151.434C685.771 185.032 703.291 206.262 730.706 206.262C746.371 206.262 759.254 198.327 764.922 186.578H765.437V203.995C765.437 218.527 755.028 228.318 737.611 228.111C727.202 228.008 719.575 223.886 711.021 215.332C707.826 212.24 705.25 211.003 701.642 211.003C695.15 211.003 690.924 215.229 690.924 220.897C690.924 223.577 691.542 226.05 693.088 228.627C700.406 240.376 716.483 248.415 737.405 248.518ZM738.538 186.268C722.358 186.268 712.052 173.283 712.052 151.64C712.052 130.203 722.358 116.599 738.538 116.599C754.925 116.599 765.644 130.409 765.644 151.64C765.644 172.974 754.925 186.268 738.538 186.268ZM824.904 209.457C832.427 209.457 837.787 204.613 837.787 195.956V144.116C837.787 128.451 847.165 117.836 861.903 117.836C876.538 117.836 883.752 126.493 883.752 141.952V195.956C883.752 204.613 889.111 209.457 896.635 209.457C904.158 209.457 909.414 204.613 909.414 195.956V136.799C909.414 111.549 895.707 96.0897 871.591 96.0897C854.792 96.0897 843.455 103.613 837.581 116.599H837.065V108.972C837.065 101.037 831.912 95.9866 824.389 95.9866C816.762 95.9866 812.124 101.037 812.124 108.972V195.956C812.124 204.613 817.38 209.457 824.904 209.457ZM962.079 209.148C976.198 209.148 989.905 201.831 996.192 189.979H996.707V197.605C997.12 205.232 1001.96 209.457 1008.97 209.457C1016.19 209.457 1021.44 204.82 1021.44 196.575V132.161C1021.44 110.209 1003.82 95.8836 976.713 95.8836C955.792 95.8836 938.89 103.922 933.325 116.599C932.191 118.969 931.573 121.237 931.573 123.607C931.573 129.791 936.107 133.913 942.394 133.913C946.723 133.913 950.124 132.264 952.803 128.76C959.193 119.382 965.686 115.981 975.683 115.981C988.359 115.981 996.089 122.576 996.089 134.016V141.849L967.129 143.498C940.539 145.147 925.595 156.793 925.595 176.168C925.595 195.853 940.951 209.148 962.079 209.148ZM969.911 189.773C958.781 189.773 951.257 184.104 951.257 175.138C951.257 166.481 958.369 160.915 970.736 160.091L996.089 158.545V166.893C996.089 180.085 984.34 189.773 969.911 189.773ZM1055.76 209.457C1063.29 209.457 1068.54 204.613 1068.54 195.956V70.1182C1068.54 61.461 1063.29 56.6171 1055.76 56.6171C1048.24 56.6171 1042.88 61.461 1042.88 70.1182V195.956C1042.88 204.613 1048.24 209.457 1055.76 209.457Z" fill="white"/>
<path d="M643.9 79.5516C648.85 79.5516 652.941 75.5098 652.092 70.6334C651.344 66.3424 650.059 62.1506 648.257 58.1593C645.221 51.4361 640.789 45.436 635.256 40.5577C629.722 35.6793 623.214 32.0345 616.163 29.8654C611.978 28.5778 607.658 27.8277 603.307 27.6242C598.363 27.3929 594.866 31.9583 595.486 36.8691V36.8691C596.106 41.7799 600.643 45.1353 605.546 45.8137C607.352 46.0636 609.141 46.4589 610.893 46.998C615.512 48.4191 619.776 50.8071 623.402 54.0034C627.027 57.1996 629.931 61.1308 631.92 65.5357C632.674 67.2066 633.291 68.9312 633.765 70.6921C635.052 75.4716 638.95 79.5516 643.9 79.5516V79.5516Z" fill="white"/>
<path d="M671.97 77.9763C676.642 77.9763 680.477 74.1781 679.971 69.5338C679.083 61.3786 676.911 53.3967 673.521 45.8879C668.968 35.8031 662.32 26.8029 654.02 19.4854C645.72 12.1679 635.957 6.7007 625.381 3.4471C617.507 1.02461 609.316 -0.129421 601.114 0.0114995C596.442 0.0917541 593.155 4.37226 593.74 9.00724V9.00724C594.326 13.6422 598.568 16.863 603.239 16.9232C609.047 16.998 614.828 17.9012 620.407 19.6173C628.688 22.165 636.332 26.446 642.832 32.1759C649.331 37.9058 654.536 44.9533 658.102 52.85C660.504 58.1694 662.124 63.7922 662.926 69.5442C663.571 74.1713 667.299 77.9763 671.97 77.9763V77.9763Z" fill="white"/>
</svg>
