<?xml version="1.0" encoding="UTF-8"?>
<svg version="1.1" viewBox="0 0 242.37 491.25" xmlns="http://www.w3.org/2000/svg" xmlns:cc="http://creativecommons.org/ns#" xmlns:dc="http://purl.org/dc/elements/1.1/" xmlns:rdf="http://www.w3.org/1999/02/22-rdf-syntax-ns#">
<metadata>
<rdf:RDF>
<cc:Work rdf:about="">
<dc:format>image/svg+xml</dc:format>
<dc:type rdf:resource="http://purl.org/dc/dcmitype/StillImage"/>
<dc:title>ASL letter</dc:title>
<dc:date>11/11/2013</dc:date>
<dc:creator>
<cc:Agent>
<dc:title>edited by Paul Sherman</dc:title>
</cc:Agent>
</dc:creator>
<dc:rights>
<cc:Agent>
<dc:title>PD</dc:title>
</cc:Agent>
</dc:rights>
<dc:publisher>
<cc:Agent>
<dc:title>WPClipart</dc:title>
</cc:Agent>
</dc:publisher>
<dc:subject>
<rdf:Bag>
<rdf:li>sign</rdf:li>
<rdf:li>language</rdf:li>
<rdf:li>letter</rdf:li>
<rdf:li>american</rdf:li>
</rdf:Bag>
</dc:subject>
<cc:license rdf:resource="http://creativecommons.org/publicdomain/zero/1.0/"/>
</cc:Work>
<cc:License rdf:about="http://creativecommons.org/publicdomain/zero/1.0/">
<cc:permits rdf:resource="http://creativecommons.org/ns#Reproduction"/>
<cc:permits rdf:resource="http://creativecommons.org/ns#Distribution"/>
<cc:permits rdf:resource="http://creativecommons.org/ns#DerivativeWorks"/>
</cc:License>
</rdf:RDF>
</metadata>
<path d="m48.522 455.19c-0.38942-13.315-1.5879-28.865-2.6832-34.815-2.839-15.422-9.5324-38.169-16.289-55.358-7.4305-18.902-14.778-49.202-17.463-72.016-0.82497-7.0092 4.3346-41.342 10.682-71.077 3.5481-16.623 3.5968-16.656 31.863-22.049 3.4924-0.66626 4.0225-1.3913 5.348-7.3139 1.8948-8.467 7.7305-20.66 11.584-24.204 3.6132-3.3227 11.32-6.1811 20.901-7.7517 6.1649-1.0107 7.9204-2.0111 14.113-8.0429 5.7007-5.5526 8.696-7.3901 15.444-9.4744 4.6045-1.4222 11.305-2.5858 14.891-2.5858h6.519l6.7678 8.4375c6.8394 8.5268 11.065 17.868 11.14 24.625 0.0275 2.483 0.45326 3.275 1.3035 2.4248 0.83381-0.83381 0.85875-3.3925 0.0734-7.5335-0.65407-3.4489-1.561-19.165-2.0154-34.925-0.75876-26.318-1.2744-31.164-6.3234-59.437-3.0235-16.931-5.485-32.118-5.4698-33.75 0.078-8.4235 9.6733-21.152 19.338-25.653 13.04-6.0723 24.012-1.8962 33.943 12.92 8.4523 12.609 10.098 19.703 11.544 49.766 1.0601 22.044 1.794 28.153 4.5803 38.125 4.3709 15.644 5.1202 26.177 2.5701 36.131-2.9845 11.65-2.5068 23.922 1.6988 43.646 7.3245 34.352 8.5933 43.714 7.3992 54.598-1.7977 16.387-7.0889 43.947-11.64 60.625-2.7233 9.9812-5.0251 22.623-6.3726 35-3.0546 28.057-5.8804 34.141-21.73 46.788-13.79 11.003-15.338 18.997-9.5519 49.317 1.7559 9.2012 3.1926 20.311 3.1926 24.688 0 7.6389-0.12438 7.958-3.1012 7.958-2.2156 0-3.2622-0.80314-3.6652-2.8125-0.31019-1.5469-2.9573-13.951-5.8825-27.564-4.6782-21.772-5.166-25.496-4.0514-30.938 1.3959-6.8143 1.1319-7.0264-5.3676-4.3107-8.4709 3.5394-26.913 1.6891-38.715-3.8843-13.417-6.3359-25.703-25.142-28.327-43.361-1.1567-8.0291-0.99975-10.056 1.3767-17.784 1.4752-4.7968 6.3567-14.867 10.848-22.378 5.2357-8.7568 7.9091-14.464 7.4513-15.907-0.47309-1.4906-3.6378-3.1206-9.3771-4.8299-4.7647-1.419-10.144-3.8536-11.953-5.4102l-3.2903-2.8302-6.9826 2.3573c-8.3148 2.8071-15.546 2.1306-21.695-2.0296-6.8604-4.641-7.7416-5.0987-6.7609-3.512 0.63201 1.0225-1.0677 1.4431-5.8318 1.4431-5.9247 0-7.3545 0.53986-12.031 4.5428-5.5527 4.7529-6.906 4.6011-8.2702-0.92731-0.70541-2.8588-0.07521-3.7424 5.1259-7.1875 4.3565-2.8856 7.3659-3.928 11.341-3.928 2.9759 0 5.4107-0.29995 5.4107-0.66655 0-2.966-18.726-33.104-21.154-34.046-0.47842-0.18556-2.1784 9.3769-3.7778 21.25-2.835 21.046-2.8566 21.932-0.86113 35.337 2.4038 16.148 21.356 74.37 27.62 84.848 6.0988 10.202 11.456 12.472 31.299 13.258 9.7594 0.38665 16.178 1.1431 16.069 1.8938-0.0994 0.6875-1.69 2.375-3.5348 3.75-3.0047 2.2395-5.3056 2.5-22.082 2.5h-18.728l0.68857 5.625c0.37872 3.0938 1.538 15.469 2.5763 27.5 1.0383 12.031 2.1816 24.125 2.5409 26.875 0.64288 4.9215 0.57444 5.0246-4.3566 6.5625-2.7554 0.85937-5.5032 1.5625-6.1062 1.5625s-1.4132-10.828-1.8002-24.062zm116.73-57.373c10.545-3.5615 23.12-16.669 30.794-32.099 3.9241-7.8898 4.5652-10.401 4.6275-18.125 0.0481-5.9736-0.65322-10.573-2.1014-13.78l-2.1737-4.8133-5.9487 4.9376c-7.976 6.6203-15.58 11.516-18.871 12.15-1.4846 0.28591-3.9503 1.396-5.4792 2.467-8.3714 5.8636-25.14-3.0122-39.889-21.113l-6.71-8.2353-3.5035 4.0853c-1.9269 2.2469-5.2855 7.7415-7.4635 12.21-3.5219 7.2261-3.9539 9.3005-3.9048 18.75 0.0414 7.9709 0.76133 12.431 2.882 17.856 3.5079 8.9729 14.588 21.364 20.995 23.478 10.371 3.4228 29.736 4.5984 36.746 2.2308zm3.624-61.355c0-0.70856 1.5234-0.99152 3.4375-0.63849 3.0731 0.56683 4.1332-0.30199 10-8.1958 3.6094-4.8564 6.5625-10.153 6.5625-11.769 0-3.6168-4.9219-13.512-11.672-23.467-11.445-16.879-22.278-25.334-30.484-23.794-10.7 2.0074-20.173 9.9966-22.986 19.386-3.844 12.83 7.9632 33.995 25.099 44.991 8.2027 5.2636 20.043 7.3238 20.043 3.4873zm-34.745-29.621c-5.9992-6.7006-7.7548-9.5445-7.7548-12.562 0-12.734 19.743-26.766 29.964-21.296 1.2647 0.67682 4.4147 5.0362 7 9.6875 2.5854 4.6513 5.4885 9.6808 6.4514 11.177 1.685 2.6175 1.2048 3.0758-12.77 12.188-7.9863 5.2073-14.659 9.4677-14.828 9.4677-0.1692 0-3.7973-3.8976-8.0624-8.6614zm19.891-9.0486c8.3117-3.3474 8.7802-3.7326 7.3515-6.0443-0.99936-1.617-1.358-1.5841-2.7604 0.25299-0.88652 1.1613-3.5168 2.2836-5.845 2.4939-2.7186 0.24562-4.8975 1.3887-6.09 3.195-2.3119 3.5018-1.1374 3.5182 7.3439 0.1025zm-14.439-1.5464c1.1518-4.5891 5.9857-8.3731 11.67-9.1356 2.8176-0.37791 5.1229-0.9141 5.1229-1.1915 0-0.27743-0.94167-1.9416-2.0926-3.6981-1.7217-2.6276-2.7557-3.0611-5.8331-2.4456-4.8292 0.96582-11.91 6.3827-13.373 10.23-0.74618 1.9626-0.64952 4.0908 0.27829 6.1272 1.7918 3.9325 3.2588 3.972 4.2272 0.11362zm70.869-2.6185c6.0928-22.447 8.9211-36.023 10.286-49.375 0.74503-7.2881 0.44186-9.0339-2.9433-16.949-8.4578-19.777-12.038-51.962-8.4422-75.901 2.8091-18.704 2.5743-22.301-2.3783-36.421-4.0316-11.495-4.3494-13.495-4.3695-27.5-0.0266-18.519-1.8549-36.887-4.4546-44.754-2.0989-6.351-11.508-17.825-15.711-19.159-1.4162-0.44947-5.0479-0.12479-8.0706 0.72152-6.3222 1.7701-14.255 9.5955-14.221 14.029 0.027 3.5613 7.9722 43.094 8.8341 43.956 0.3532 0.3532 3.3818-0.74478 6.7302-2.44 8.3782-4.2416 12.588-4.0717 15.007 0.60577 1.0489 2.0284 1.9071 3.9971 1.9071 4.375s-2.4211 0.68708-5.3803 0.68708c-3.8466 0-7.0885 1.0833-11.373 3.8004-5.5022 3.4894-5.9058 4.0776-4.9322 7.1875 0.5832 1.8629 1.0736 18.012 1.0897 35.887 0.0196 21.752 0.59309 35.704 1.734 42.188 0.93758 5.3281 1.8811 9.6875 2.0967 9.6875 0.21558 0 3.2626-0.61564 6.7711-1.3681 5.201-1.1154 7.9827-0.97511 15.062 0.75965 8.6187 2.1121 8.6824 2.1588 8.6824 6.3681 0 4.8633 0.13601 4.8234-8.0112 2.3518-3.3749-1.0238-10.266-1.8615-15.312-1.8615-7.3234 0-9.1763-0.37861-9.1763-1.875 0-2.9261-2.9687-2.2112-6.4884 1.5625-3.6807 3.9463-5.3086 6.9463-6.5253 12.026-0.85558 3.5716-0.83755 3.5842 3.8896 2.7181l4.7491-0.87004-10.352 10.814 1.0364 11.875c0.57 6.5312 1.4316 16.464 1.9148 22.072l0.8784 10.197 10.136 10.448c8.4422 8.7017 11.807 13.514 20.136 28.793 5.5 10.09 10.322 17.956 10.716 17.48 0.394-0.47616 3.3119-10.428 6.4843-22.116zm-94.79-8.1904c6.5514-7.2516 7.5394-10.508 4.4554-14.683-3.0297-4.1019-6.1894-18.307-6.219-27.957-0.0165-5.3908-1.3619-10.509-5.6364-21.441-6.2926-16.093-8.7691-25.845-10.057-39.603-0.48272-5.1562-1.5134-9.7883-2.2904-10.293-0.777-0.5051-3.479-0.92698-6.0043-0.9375-8.7693-0.0365-16.853 10.309-18.192 23.282-0.63327 6.1359-0.23631 7.6108 4.4818 16.652 5.1417 9.8529 5.1766 10.011 5.1766 23.489v13.569l10.375 16.353 10.875-6.0781 6.2503 4.5882c6.3384 4.6528 7.9587 8.4522 4.2169 9.8881-1.1184 0.42917-2.7277 0.20412-3.5762-0.50009-1.0698-0.8879-2.8768-0.723-5.8946 0.53791-2.3935 1.0001-5.6442 1.4803-7.2238 1.0673-2.7353-0.7153-2.8289-0.5188-1.9667 4.128 0.49794 2.6835 2.2928 6.7072 3.9887 8.9416 2.5353 3.3404 3.9349 4.0625 7.8743 4.0625 4.0135 0 5.5335-0.82194 9.3672-5.0654zm-34.734-0.55284c2.9947-1.2513 4.2426-2.4638 3.7791-3.6718-0.38068-0.992-1.3308-4.2294-2.1114-7.1943-0.78063-2.9649-3.4292-9.604-5.8857-14.754-4.1578-8.7161-4.5201-10.445-5.2438-25.028-0.6262-12.618-1.2772-16.511-3.3474-20.012l-2.57-4.3469-10.428 0.34821c-16.209 0.54124-21.402 4.5661-21.702 16.82-0.15688 6.3994 0.39922 7.7339 9.3004 22.319 5.207 8.5321 10.487 18.185 11.732 21.45 2.4605 6.4499 4.4254 7.7296 4.4254 2.8822 0-1.6804 1.2725-4.5347 2.8278-6.3428 2.731-3.1749 3.034-3.2356 8.8466-1.772 4.6001 1.1583 6.3222 2.2851 7.3058 4.7803 4.3778 11.105 3.1926 14.692-1.9532 5.9115-6.236-10.641-11.961-8.5757-12.01 4.3324-9e-3 2.4636 0.35793 4.8542 0.81626 5.3125 1.514 1.514 11.669 0.8661 16.218-1.0348zm21.073-16.882c0.4249-0.6875-0.0712-1.25-1.1025-1.25-1.0312 0-2.2226 0.5625-2.6475 1.25s0.0712 1.25 1.1025 1.25c1.0312 0 2.2226-0.5625 2.6475-1.25zm32.466-4.293c3.1477-1.6737 8.6877-3.6585 12.311-4.4107 6.4589-1.3409 6.5786-1.4464 6.1142-5.3945-0.43221-3.6744-0.86547-4.0358-4.9502-4.1292-3.4139-0.078-5.2438 0.74566-7.7087 3.4699-2.1984 2.4298-5.0311 3.8728-8.8571 4.5119-3.0938 0.51682-5.4844 1.346-5.3125 1.8426 0.17187 0.49659 0.3125 2.3092 0.3125 4.0279 0 3.8814 0.92739 3.8908 8.0908 0.082zm-4.7158-10.707c2.9998 0 7.875-3.9705 7.875-6.4136 0-2.3734-9.1518-0.18564-11.562 2.764-2.5521 3.1226-3.1517 7.6138-0.6875 5.1495 0.825-0.825 2.7938-1.5 4.375-1.5zm20.266-22.56c-1.5078-14.024-1.4261-16.754 1.0538-35.235l2.6882-20.033-2.6153-5.1481c-1.4384-2.8314-4.4989-8.1012-6.801-11.711-3.9003-6.1152-4.5246-6.5625-9.1575-6.5625-6.7372 0-16.442 3.3799-19.166 6.6754-1.2276 1.4848-3.6329 5.3817-5.345 8.6598-3.0603 5.8592-3.0902 6.198-1.7602 20 1.6414 17.035 1.4158 16.179 8.2368 31.233 3.0387 6.7064 5.8755 14.751 6.304 17.878 0.63035 4.5988 1.1626 5.5191 2.7878 4.8194 1.1048-0.47565 4.3628-1.753 7.2399-2.8386l5.2313-1.9737 6.0187 5.1328c3.3103 2.823 6.2213 4.9466 6.4689 4.7191s-0.28529-7.2544-1.1842-15.615z"/>
</svg>
