<?xml version="1.0" encoding="UTF-8"?>
<svg version="1.1" viewBox="0 0 387.38 526.12" xmlns="http://www.w3.org/2000/svg" xmlns:cc="http://creativecommons.org/ns#" xmlns:dc="http://purl.org/dc/elements/1.1/" xmlns:rdf="http://www.w3.org/1999/02/22-rdf-syntax-ns#">
<metadata>
<rdf:RDF>
<cc:Work rdf:about="">
<dc:format>image/svg+xml</dc:format>
<dc:type rdf:resource="http://purl.org/dc/dcmitype/StillImage"/>
<dc:title>ASL letter</dc:title>
<dc:date>11/11/2013</dc:date>
<dc:creator>
<cc:Agent>
<dc:title>edited by Paul Sherman</dc:title>
</cc:Agent>
</dc:creator>
<dc:rights>
<cc:Agent>
<dc:title>PD</dc:title>
</cc:Agent>
</dc:rights>
<dc:publisher>
<cc:Agent>
<dc:title>WPClipart</dc:title>
</cc:Agent>
</dc:publisher>
<dc:subject>
<rdf:Bag>
<rdf:li>sign</rdf:li>
<rdf:li>language</rdf:li>
<rdf:li>letter</rdf:li>
<rdf:li>american</rdf:li>
</rdf:Bag>
</dc:subject>
<cc:license rdf:resource="http://creativecommons.org/publicdomain/zero/1.0/"/>
</cc:Work>
<cc:License rdf:about="http://creativecommons.org/publicdomain/zero/1.0/">
<cc:permits rdf:resource="http://creativecommons.org/ns#Reproduction"/>
<cc:permits rdf:resource="http://creativecommons.org/ns#Distribution"/>
<cc:permits rdf:resource="http://creativecommons.org/ns#DerivativeWorks"/>
</cc:License>
</rdf:RDF>
</metadata>
<path d="m184.17 512.63c-3.002-2.4524-6.629-31.925-5.5089-44.765 0.83364-9.5566 7.156-37.481 13.124-57.965 1.3889-4.7675 2.3701-8.8234 2.1803-9.0132-0.18978-0.18978-5.6641 1.3747-12.165 3.4766-14.995 4.8483-28.408 5.9699-36.938 3.0889-8.4262-2.846-17.41-9.73-21.867-16.756-4.1276-6.5072-9.8986-23.439-10.274-30.144-0.21935-3.9147 0.19388-4.482 4.4739-6.1416 2.5936-1.0057 5.0641-1.48 5.4901-1.0539 0.42603 0.42601 2.1216 6.8353 3.768 14.243 1.6464 7.4075 4.0069 14.874 5.2456 16.593 3.0645 4.2521 10.381 8.1195 20.355 10.759 8.1601 2.1597 8.5418 2.1496 19.375-0.51122 12.526-3.0767 42.649-17.397 58.023-27.583 5.3522-3.5463 14.326-11.968 25.743-18.981 14.488-8.8994 6.7084-3.7876 24.09-10.889 1.951-0.79711 4.7095-2.4611 14.257-5.0417 11.97-3.2353 17.073-4.3066 20.701-6.2246 1.5017-0.79408 11.446-5.882 17.681-9.1765 14.447-7.6338 11.862-5.6971 20.619-8.2696 3.3311-0.97862 6.9875-4.7575 7.8125-5.5825 4.7214-4.7214-1.1428-11.446-18.561-21.283-9.4983-5.3645-10.852-5.7624-22.429-6.591-13.54-0.96912-19.11 0.14821-25.711 5.1575-3.8342 2.9096-54.748 20.467-59.351 20.467-2.5468 0-3.3757 3.0288-1.1974 4.375 1.9658 1.2149-0.0829 5.2873-2.8525 10.716-3.6239 7.1035-4.4141 7.6162-0.18914 27.434 0.6793 3.1863 1.5446 2.0876-3.2925-0.11635-2.4077-1.097 0.24828 0.9957-4.5873-7.4251l-0.95185-11.654 1.675-11.781 3.231-13.649-6.3495-8.6372c-3.4922-4.7504 1.6087-7.3711 0.80349-8.9213-2.7325-5.2606-3.1643 2.1481 2.6243-38.257 3.2575-22.738 1.3687-28.535 0.1784-28.535-0.26849 0-11.04-3.3984-17.655-5.1172s-7.1369-6.8595-11.568-5.9259c-2.5888 0.54549-3.1646-1.9234-3.2433-5.8558-0.0467-2.3351 6.0257 1.6241 16.478 3.4353 10.035 1.7389 7.4062 4.1774 15.015 5.7744 5.6071 1.177 5.99-5.0862 4.5089-21.471-0.81386-9.0032-1.0831-30.945-0.6121-37.622 0.49026-6.9502-0.76482-16.102-1.5926-22.662-3.6813-29.174-5.0853-27.101-8.0749-29.521-2.3609-1.9118-4.5056-2.2446-12.018-1.8653l-9.1443 0.46177 0.37095-4.4022 0.37095-4.4022 9.0431-0.36687c4.9737-0.20178 10.143 0.22162 11.487 0.94088 3.299 1.7656 3.6756 0.81846 4.6344-11.655 0.69255-9.0098 0.36703-12.466-2.0058-21.295-5.1674-19.229-13.066-29.499-22.688-29.499-6.608 0-9.0039 3.6103-10.057 15.154-0.85387 9.3617 0.76325 53.071 2.1107 57.05 0.29405 0.86831-0.29095 7.0558-1.3 13.75-1.1473 7.6116-1.8374 21.62-1.842 37.393-4e-3 13.872-0.597 29.461-1.3176 34.643-0.92983 6.6853-2.1612 11.817-1.1985 15.392 1.1872 4.409-0.67776 3.7592-2.4749 17.232-0.97684 7.3233-1.5859 18.57-2.3465 26.023-1.2101 11.858 0.18308 12.613 0.60076 27.194 0.25461 8.8885 2.076 18.659 2.1983 27.497l0.28163 20.355-2.0933 4.1423c-1.2578 2.4889-3.6893 4.9688-6.0204 7.8807-5.9023 7.3732-10.748 10.035-18.262 10.032-7.5117-2e-3 -15.442-2.0184-18.445-4.6883-2.5169-2.2374-2.4604-2.2761-4.6262 3.1627-2.6217 6.5834-7.9945 10.287-14.923 10.287-7.7287 0-17.981-3.096-22.162-6.6924-3.2694-2.8122-3.3918-2.8223-7.6821-0.63501-11.471 5.848-25.666 3.9419-35.675-4.7905-10.794-9.4171-11.696-11.982-12.761-36.259-0.50635-11.549-1.6927-23.529-2.6364-26.623-1.6851-5.5244-1.6548-5.6746 1.6967-8.4007 1.8769-1.5266 3.8512-2.337 4.3873-1.8009 2.5093 2.5093 7.1794 28.823 7.1903 40.514 0.0063 6.7031-0.65381 14.909-0.04254 14.909 0.61126 0 9.3508-6.6663 14.329-8.8865 8.6495-3.8578 12.672 0.0407 18.155-1.5166 2.6319-0.74745 2.8318-0.41293 1.9147-3.7435-1.1593-4.21-3.2169-17.635-2.9166-23.59 0.75063-14.887-1.8496-55.415-8.4601-56.747-4.8298-0.97303-20.297 3.0918-26.862 8.3114-2.4813 1.9728-15.27 11.625-18.903 30.966l-3.7075 14.355-0.11528 31.525c-0.06403 17.51 1.9712 31.122 2.2392 31.39 0.26801 0.26801 2.0665-0.62497 3.9968-1.9844 1.9302-1.3594-3.7345 1.8672 6.9594-1.4837 13.532 2.8577-4.0927 9.007-8.2576 13.452l-3.5577 3.7429 1.2 11.056c0.8757 8.0679 3.0727 16.305 8.1285 30.476 3.8106 10.681 7.3119 21.977 7.7805 25.102l0.85204 5.6818 8.3271 2.6632c4.5799 1.4648 10.623 3.0225 13.429 3.4616 5.9912 0.93756 18.982-2.0477 24.943-5.7318 5.1051-3.1551 7.6418-3.1259 9.3724 0.10788 1.0333 1.9307 0.9908 3.0497-0.16886 4.447-3.1259 3.7664-12.33 8.0984-21.086 9.924-9.5483 1.9909-17.999 1.2308-28.839-2.5938-5.9504-2.0994-5.7133-2.4801-6.6844 10.734-0.67737 9.2176-6.0027 36.647-10.539 54.284l-2.2506 8.75-15.202 0.73719 6.2006-19.119c4.3073-13.281 6.5301-22.554 7.2798-30.369 0.59358-6.1875 1.772-16.924 2.6186-23.859 1.9114-15.657 1.1978-19.332-8.1359-41.909-9.1394-22.107-9.6846-26.899-9.2262-81.107l0.36472-43.125 6.7288-21.569c4.2005-13.465 13.526-24.754 14.607-25.985 3.966-4.5143 22.03-11.838 30.78-12.646l8.3657-0.77322 6.9403-10.429c5.832-8.7636 5.939-8.9802 18.823-14.664 4.9214-2.1712 21.66-2.7588 22.524-1.8944 2.3128 2.3128-2.234 1.3835 1.4488-5.912 1.9429-3.8487 6.5599-9.6503 11.257-12.645 0.50557-0.32227 0.89798-0.76414 1.379-0.89898 12.583-3.5276-0.89751-2.3353 12.583-3.5276 6.4542-0.57086 22.249 4.9179 24.733 8.3754 1.7475 2.4332 1.7952 2.3709 0.90695-1.1816-1.7667-7.0656 1.51-29.321 1.3027-50.625-0.13041-13.405 2.1495-16.842 0.70117-45.661-0.86478-17.207-1.1916-33.801-0.7264-36.875 1.7424-11.512 9.4088-20.13 19.409-21.82 19.937-3.3683 34.452 18.666 37.374 56.735 0.55922 7.2855 0.68487 16.34 0.27923 20.121-0.52527 4.8963 0.12275 10.832 2.2516 20.625 3.5216 16.199-0.96494 31.521 2.6025 46.547 2.6578 11.195 1.1126 21.571 0.70127 30.577-0.83285 18.235-0.68981 24.535-3.8318 45.42-3.1346 20.835-1.6133 14.327-1.8824 29.539-0.28788 16.274-2.4433 15.676-0.0828 18.868 4.9742 6.7271 4.5894 7.0083 28.95-1.5232 12.031-4.2135 25.25-9.6873 29.375-12.164 6.6443-3.9892 8.9572-4.6416 20.272-5.7172 7.0244-0.66783 14.795-0.83461 17.268-0.37063 2.4732 0.46399 10.103 3.7011 16.954 7.1935 13.47 6.8661 20.752 13.579 27.511 25.362 4.3154 7.5234 3.3866 7.9558-0.0691 15.069-2.7977 7.2907-4.7906 3.581-10.765 7.1033-13.841 6.8733-16.426 10.582-31.044 15.914-18.013 6.5707-8.7576 3.2513-31.982 11.239-25.5 7.173-8.7519 1.96-31.918 12.596-17.235 9.9448-21.387 15.163-30.604 19.593-13.879 6.6709-22.984 14.987-26.419 24.13-10.814 28.781-18.556 60.887-18.595 77.114-7e-3 3.3058 0.94077 12.41 2.1084 20.232 2.0583 13.788 2.0515 14.273-0.22438 15.938-2.919 2.1345-5.8142 2.1881-8.3043 0.15387zm-64.128-179.16c5.1978-1.3962 4.0631-3.6353 1.691-24.903-3.6159-32.419-0.8712-25.637-1.6852-45.052-0.86137-20.544-1.7373-34.769-2.6328-45.527-0.7732-9.2894-5.2399-24.656-7.78-25.631-4.4862-1.7215-19.138 8.2736-24.907 16.991-3.1989 4.8339-3.2037 4.8812-1.1578 11.411 1.13 3.6066 1.3179 8.789 1.939 15.32s0.56575 20.78 1.3984 24.056c1.4206 5.5894 1.0715 7.7871 1.7142 22.392 0.28661 6.5128 2.7559 22.268 4.8717 23.575 0.59486 0.36764 10.772-2.2026 13.855-2.19 27.813 0.11297 23.026 4.8236 15.736 5.1074l-4.9793 0.19386-6.6787-0.78495c-6.7591-0.7944-10.012 0.13263-13.817 3.9374-2.7286 2.7286-1.294 12.533 2.599 17.763 2.7983 3.7593 3.5556 4.0612 10.148 4.0454 3.9181-0.01 8.2768-0.32676 9.6858-0.70528zm-39.434-5.0908c2.8257-0.56514 3.5998-1.5296 4.2154-5.2521 0.8791-5.3159 0.86225-11.494-0.0254-9.3099-0.43283 1.065-1.8265-1.3341-4.0439-2.1772-5.5829-2.1226-19.3-1.3319-23.154 5.3404l-4.9551 8.5797-1.5302-5.5219c-1.3757-4.9645-0.50989-6.224-0.50989-3.7305 0 3.5084 6.3972 9.8472 11.561 11.456 8.5902 2.6759 8.2048 2.663 18.442 0.61568zm85.346-3.8233c5.2746-3.0445 8.3989-9.4649 8.3886-17.239-0.0137-10.29-2.6121-27.136-3.0834-43.342-0.34523-11.87-0.48763-16.841-0.94434-27.492-0.64334-15.004 0.81207-36.383-0.92599-44.166-3.4028-15.237-3.6222-15.673-9.17-18.192-7.1478-3.2452-17.728-3.193-23.152 0.114-3.1216 1.9031-5.3887 5.1911-9.0625 13.143-2.6947 5.8327-4.8995 11.314-4.8995 12.18s2.692 26.922 2.819 32.489c0.60099 26.346 1.9526-12.563 0.7281 23.281-1.2154 35.577-2.047 36.651 3.6965 46.645 1.3772 2.3966 0.88867 6.199 0.16536 6.646-1.7416 1.0764 4.8545 12.647 9.3808 16.456 3.5068 2.9508 4.439 3.1306 12.907 2.4902 5.4972-0.41575 10.728-1.6144 13.153-3.0139zm-33.479-8.7985c-6.5389-2.1042 1.197-4.5521-3.1021-4.9474-26.941-2.4769 3.2928-8.377 2.4495-10.854l9.273-6.2719c8.4599-5.7219 9.4738-3.0771 14.998-2.9695 10.979 0.21382 19.18 4.1498 19.18 16.299 0 7.3955 2.1983 13.285-1.7177 11.803-2.091-0.79136-4.3299-7.0242-4.8229-12.155-0.83824-8.7237-11.531-11.593-20.665-8.8559-6.6957 2.0061-16.97 8.1738-12.209 15.593 2.1172 3.2994 1.3965 8.7115 1.0486 9.0054-6.4007 5.4068-4.9789-4.3643-4.4317-6.6474z"/>
</svg>
