<?xml version="1.0" encoding="UTF-8"?>
<svg version="1.1" viewBox="0 0 285.69 499.61" xmlns="http://www.w3.org/2000/svg" xmlns:cc="http://creativecommons.org/ns#" xmlns:dc="http://purl.org/dc/elements/1.1/" xmlns:rdf="http://www.w3.org/1999/02/22-rdf-syntax-ns#">
<metadata>
<rdf:RDF>
<cc:Work rdf:about="">
<dc:format>image/svg+xml</dc:format>
<dc:type rdf:resource="http://purl.org/dc/dcmitype/StillImage"/>
<dc:title>ASL letter</dc:title>
<dc:date>11/11/2013</dc:date>
<dc:creator>
<cc:Agent>
<dc:title>edited by Paul Sherman</dc:title>
</cc:Agent>
</dc:creator>
<dc:rights>
<cc:Agent>
<dc:title>PD</dc:title>
</cc:Agent>
</dc:rights>
<dc:publisher>
<cc:Agent>
<dc:title>WPClipart</dc:title>
</cc:Agent>
</dc:publisher>
<dc:subject>
<rdf:Bag>
<rdf:li>sign</rdf:li>
<rdf:li>language</rdf:li>
<rdf:li>letter</rdf:li>
<rdf:li>american</rdf:li>
</rdf:Bag>
</dc:subject>
<cc:license rdf:resource="http://creativecommons.org/publicdomain/zero/1.0/"/>
</cc:Work>
<cc:License rdf:about="http://creativecommons.org/publicdomain/zero/1.0/">
<cc:permits rdf:resource="http://creativecommons.org/ns#Reproduction"/>
<cc:permits rdf:resource="http://creativecommons.org/ns#Distribution"/>
<cc:permits rdf:resource="http://creativecommons.org/ns#DerivativeWorks"/>
</cc:License>
</rdf:RDF>
</metadata>
<path d="m51.936 480.1c1.7994-3.5699 3.6532-8.5762 5.3179-14.32 2.803-9.6728 3.9776-10.514 3.6097-31.875-0.21852-12.686-1.3561-32.127-2.1693-41.683l-4.3863-16.004-8.4428-25.704c-4.4778-13.632-11.863-18.574-12.915-24.507l-2.5115-14.163-1.5001-22.842c-0.71151-10.834-2.1059-44.418-3.2202-59.988-1.2837-17.935-0.17273-17.27-2.476-34.54l-1.9518-14.634-1.0616-13.921c-3.3872-44.418-8.2298-70.208-7.3994-84.857 2.0455-36.087-0.010286-42.446 2.7863-48.793 3.0836-6.9987 10.827-14.813 18.096-18.263 2.3214-1.1016 7.1505-2.0028 10.731-2.0028 6.3335 0 6.7108 0.20762 13.86 7.6282 8.6525 8.981 9.0015 10.055 11.735 36.122 1.1173 10.656 3.7354 26.969 5.8179 36.25 2.1718 9.6792 4.0462 22.205 4.3959 29.375 0.7672 15.731 1.2761 17.403 3.8059 12.5 4.3787-8.4855 6.8141-9.8648 22.247-12.6 17.791-3.1525 24.144-1.6723 27.026 6.296l1.5713 4.3454 4.4922-8.396c6.1502-11.495 11.495-14.218 29.477-15.018 11.417-0.50778 13.501-0.26155 18.576 2.1948 3.1434 1.5217 6.8839 4.4079 8.3122 6.4137l2.5969 3.647 6.2146-6.7997c7.3814-8.0764 11.994-9.8932 24.513-9.6552 10.742 0.20418 15.722 2.0345 22.708 8.3454 4.7538 4.2948 5.138 5.1243 5.138 11.092 0 13.522 2.7213 28.062 8.6811 46.384 5.4647 16.8 6.2038 20.44 7.106 35 1.7851 28.809 1.3265 35.987-3.2349 50.625-3.9234 12.591-4.1221 14.23-4.8835 40.272l-0.79369 27.147-6.875 6.9941c-3.7812 3.8468-13.898 12.443-22.482 19.103-18.224 14.14-24.362 20.222-30.592 30.316-9.2275 14.95-8.9098 29.271 1.6256 73.271 6.2904 26.271 6.7973 32.898 2.5165 32.898-5.3427 0-10.775-3.4477-12.119-7.6915-4.3866-13.849-8.3052-36.618-11.53-66.996-0.82102-7.7344 2.2515-19.937 2.0416-19.937-0.20991 0-2.4957 0.55563-4.2819 1.2347-8.9378 2.6508-17.215 4.937-27.585 3.7119-10.881-3.2313-27.843-9.9862-38.953-30.323-9.1091-16.674-10.719-25.64-5.9126-39.908 2.8803-8.5501 8.646-21.018 14.915-26.912 7.4745-7.027 3.2969-9.1025-6.1607-7.9128-10.664 1.3415-14.993 0.53883-21.151-3.9216-6.0546-4.3859-7.4016-8.9958-12.198-41.742-1.9197-13.108-4.7791-26.914-6.9494-33.556-3.8796-11.872-5.8586-25.828-9.2772-65.423-1.0684-12.375-3.3161-29.531-4.9947-38.125-1.6786-8.5938-3.6785-19-4.4441-23.125s-1.8281-16.219-2.3612-26.875c-0.73094-14.613-1.5147-20.45-3.1887-23.75-3.7424-7.3768-5.5603-8.75-11.583-8.75-11.48 0-14.961 9.6157-18.291 30.571-0.91336 5.7475 0.01549 9.9705-0.53178 16.939-1.4937 19.02 1.3785 39.4 2.1708 51.878 0.24909 3.9225 2.9457 23.383 4.9619 31.977 0.98452 15.056 2.9924 20.507 5.3478 31.973-0.52343 3.4375 2.9501 9.1001 2.926 9.7876-0.0241 0.6875 1.2649 0.55086 3.6634 0.89461 6.6879 0.95852-0.82282 6.4168-3.9169 9.5654-5.1291 5.2195-4.3478 4.5653-3.7508 7.55 0.36772 1.8386 1.354 8.3823 2.1916 14.541 0.83768 6.1592 1.6794 11.393 1.8706 11.632 0.19116 0.23815 2.7777-1.2296 5.7479-3.2617 8.4267-5.7652 13.437-7.9926 16.088-7.1514 4.4628 1.4164 2.78 5.3093-4.2349 9.7966-3.6698 2.3476-8.7107 6.7557-11.202 9.796l-4.5295 5.5277-0.98559 17.601c-0.54207 9.6806-0.66045 23.43-0.26306 30.555l4.9709 23.411 4.8775 9.1176c8.6738 16.214 8.1198 18.717 10.558 24.457 3.8978 9.1793 4.276 8.2408 6.8883 18.498 2.6301 10.327 3.1323 14.482 5.2539 17.462 2.923 4.105 4.8623 2.1066 19.474-0.10142 3.081-0.46556 4.2964-0.0405 5.3125 1.8581 1.7958 3.3554-1.6074 6.0459-3.513 5.4072-0.85938-0.28805-0.79414 3.5921-4.5445 3.0372-9.4245-1.3945-9.7653 2.2592-11.266 2.266-3.9007 0.0175-5.0207 3.586-5.3556 27.072-0.20077 14.076-0.63967 21.662-2.0428 27.585-1.1402 4.8125-1.3843 16.013-1.3843 16.013 2.7406 0.52449-4.8347 2.4962-9.727 2.4962-1.3902 0 1.9264-2.9372 0.58008-1.7341-2.0662 1.8464-10.434 2.8092-7.673-2.6692zm120.44-95.158c7.4662-2.3158 14.032-4.4932 14.591-4.8388 0.55908-0.34554 1.3854-2.3076 1.8362-4.3602 2.4492-11.151 32.961-25.807 49.234-44.153l13.429-10.072 1.6677-26.591c1.2536-19.988 1.3287-31.703 3.9518-40.265 3.0267-9.8791 3.5895-13.876 3.5895-25.49v-13.774l-5.9061-7.0098c-3.2484-3.8554-9.152-10.18-13.119-14.054-6.044-5.903-8.1762-7.1884-13.156-7.9315-3.2688-0.48773-7.8588-1.6848-10.2-2.66l-4.2564-1.7733-9.4936 9.8496c-9.73 10.095-16.07 13.658-21.761 12.23-1.5177-0.38091-5.6969-3.569-9.2871-7.0846-6.7697-6.629-10.321-14.574-10.321-23.092 0-6.6616 9.0848-17.584 22.259-26.761 2.274-1.584 3.8803-3.1342 3.5697-3.4448-0.97785-0.97784-18.334 4.7705-20.28 6.7168-3.1996 3.1996-5.199 8.1735-7.1833 17.87-1.8081 8.8354-1.7806 9.7667 0.47768 16.192 3.2953 9.3757 8.5918 14.3 27.732 25.784 18.792 11.274 26.727 17.216 31.701 23.738 3.3707 4.4192 3.4075 4.6274 1.1154 6.3034-1.3037 0.95328-3.8836 1.7333-5.7331 1.7333-2.95 0-3.5393 0.70126-4.8014 5.7135-0.79127 3.1424-2.1148 11.367-2.941 18.277-1.7382 14.535-3.2176 16.199-8.6339 9.7116l-3.5332-4.2322v5.2932c0 4.4682-0.80691 6.1686-5.1768 10.909-5.8776 6.3765-20.352 14.134-28.382 15.211-4.863 0.65227-5.6088 0.31897-11.394-5.0924-3.4047-3.1847-6.6488-5.7904-7.2092-5.7904-4.3705 0-13.663 10.762-22.074 27.032-6.2519 12.094-9.5364 21.683-3.3996 33.336 10.147 19.267 22.158 28.985 30.112 33.092 4.3239 2.2326 4.728 5.1373 22.973-0.52173zm3.6202-101.29c2.6562-1.8407 5.4989-4.5126 6.3172-5.9375 0.99147-1.7265 1.5108-10.097 1.5569-25.091 0.038-12.375 0.48348-23.389 0.98996-24.476 0.69005-1.4805-0.85298-3.1535-6.156-6.6744-12.092-8.0288-17.566-14.02-24.468-26.781-7.4766-13.824-7.8298-16.93-4.0759-35.832 1.6781-8.4498 3.0264-11.961 5.8108-15.132 5.4076-6.1589 15.698-10.728 24.977-11.091 4.4335-0.17323 7.9438-0.91178 8.2161-1.7286 0.26148-0.7844-2.5258-2.8233-6.1939-4.531-7.9682-3.7094-21.381-4.312-27.344-1.2284-8.4588 4.3742-12.406 19.503-12.432 47.647-0.0161 17.638 0.36058 21.486 2.9981 30.625 6.5478 22.688 6.8463 24.398 5.2186 29.911-1.2166 4.1204-1.1748 6.7725 0.21235 13.461 1.6256 7.8385 1.5804 10.28-0.40089 21.678-1.0285 5.9168 1.2689 12.807 5.3374 16.007 4.7854 3.7642 13.336 3.4002 19.436-0.82722zm-20.32-24.688c0-7.5218 8.859-11.999 19.375-9.7924 4.4506 0.93402 5.043 1.4903 5.3917 5.063 0.43192 4.4259 0.70977 4.311-9.7667 4.0418-5.3758-0.1381-7.4769 0.38475-9.6352 2.3976-3.926 3.6615-5.3648 3.2029-5.3648-1.71zm-25 15.61c1.7188-1.1991 4.3572-3.9902 5.8631-6.2023 2.5914-3.8066 2.7144-5.1063 2.2952-24.26-0.24361-11.131-1.0599-22.207-1.8139-24.613-2.2494-7.178-6.4002-33.236-7.6531-48.045-1.5093-17.839-4.3754-30.876-7.5331-34.266-2.0614-2.2126-3.927-2.6894-10.523-2.6894-11.454 0-13.498 1.3296-19.36 12.597-8.9441 17.192-9.4239 34.967-1.6001 59.278 3.7791 11.743 4.6576 16.808 6.0182 34.698 2.1313 28.023 4.4909 33.019 16.957 35.905 5.7301 1.3265 13.558 0.24257 17.349-2.4022zm-28.27-24.377c-2.4641-6.4213 4.0654-11.125 16.3-11.743 9.856-0.4977 14.47 0.96552 14.47 4.589 0 3.8682-2.7555 5.206-10.722 5.206-4.2473 0-9.7417 0.84375-12.21 1.875-5.5916 2.3363-6.9643 2.3491-7.8378 0.073zm97.851-12.886c-2.5313-3.4776-3.3262-1.0135-3.2259 10l0.10537 11.562 2.1289-10c1.3234-6.2164 1.6986-10.591 0.9916-11.562zm-4.8622-56.832c4.6233-4.2734 8.569-8.1374 8.7683-8.5868 0.27507-0.62041-5.1895-10.552-8.1457-14.805-0.20513-0.2951-2.2954 0.38023-4.6451 1.5007-4.6385 2.212-14.446 14.194-14.446 17.649 0 4.7082 5.4084 11.829 9.094 11.974 0.53298 0.0209 4.7517-3.4584 9.375-7.7317zm55.938-8.7928c-3.2144-9.2978-6.1345-20.891-7.4343-29.514-3.2474-21.545-2.0959-20.173-16.929-20.173h-12.518l-4.4345 6.6789c-7.7555 11.681-7.3012 15.425 3.784 31.191 4.4086 6.2702 5.8132 7.3509 11.875 9.1358 8.8443 2.6042 19.29 8.1472 25.625 13.598 2.75 2.3662 5.0733 4.3232 5.1629 4.349 0.0896 0.0259-2.2193-6.8437-5.1308-15.266zm-214.44-50.405c-0.66806-1.7571-1.2146-3.9938-1.2146-4.9704 0-2.7296 14.109-9.3116 19.961-9.3116 4.502 0 5.2076 0.42791 6.6985 4.0625l1.6664 4.0625-6.3503 0.75933c-3.7714 0.45095-9.0298 2.3499-12.948 4.6759l-6.5978 3.9166z"/>
</svg>
