<?xml version="1.0" encoding="UTF-8"?>
<svg version="1.1" viewBox="0 0 529.67 316.22" xmlns="http://www.w3.org/2000/svg" xmlns:cc="http://creativecommons.org/ns#" xmlns:dc="http://purl.org/dc/elements/1.1/" xmlns:rdf="http://www.w3.org/1999/02/22-rdf-syntax-ns#">
<metadata>
<rdf:RDF>
<cc:Work rdf:about="">
<dc:format>image/svg+xml</dc:format>
<dc:type rdf:resource="http://purl.org/dc/dcmitype/StillImage"/>
<dc:title>ASL letter</dc:title>
<dc:date>11/11/2013</dc:date>
<dc:creator>
<cc:Agent>
<dc:title>edited by Paul Sherman</dc:title>
</cc:Agent>
</dc:creator>
<dc:rights>
<cc:Agent>
<dc:title>PD</dc:title>
</cc:Agent>
</dc:rights>
<dc:publisher>
<cc:Agent>
<dc:title>WPClipart</dc:title>
</cc:Agent>
</dc:publisher>
<dc:subject>
<rdf:Bag>
<rdf:li>sign</rdf:li>
<rdf:li>language</rdf:li>
<rdf:li>letter</rdf:li>
<rdf:li>american</rdf:li>
</rdf:Bag>
</dc:subject>
<cc:license rdf:resource="http://creativecommons.org/publicdomain/zero/1.0/"/>
</cc:Work>
<cc:License rdf:about="http://creativecommons.org/publicdomain/zero/1.0/">
<cc:permits rdf:resource="http://creativecommons.org/ns#Reproduction"/>
<cc:permits rdf:resource="http://creativecommons.org/ns#Distribution"/>
<cc:permits rdf:resource="http://creativecommons.org/ns#DerivativeWorks"/>
</cc:License>
</rdf:RDF>
</metadata>
<path d="m173.16 301.84c-8.1936-4.9962-15.649-18.75-18.04-33.279-1.2021-7.307-1.091-11.129 0.65445-22.5 3.8148-24.852 3.8178-27.669 0.0471-44.348-4.6551-20.591-4.1018-31.165 2.4572-46.956 8.1482-19.617 13.297-33.313 12.734-33.875-0.30069-0.3007-3.8963 0.14513-7.9902 0.99071-6.4455 1.3313-8.1426 1.2577-12.657-0.54871-7.5651-3.027-10.117-2.685-25.586 3.4277-18.724 7.3993-21.694 7.8703-28.319 4.4905-7.1779-3.6619-14.269-3.4946-21.26 0.5014-13.749 7.8585-44.108 1.1147-56.049-12.451-6.3535-7.218-8.8154-16.022-6.0017-21.463 2.9166-5.6401 10.879-10.16 21.466-12.186 5.1698-0.98915 9.88-2.0953 10.467-2.458 0.58695-0.36275 9.7432 0.16304 19.656-2.5466 24.446-6.6824 19.477-4.4495 30.874-7.4319 21.488-5.6233 61.717-15.884 73.323-19.021l21.464-4.4833 24.572-7.8321 22.106-6.1877 24.883-4.1426c29.573-4.9233 46.359-11.409 57.9-13.192 13.422-2.0737 24.422-3.4995 32.695-3.5625 12.559-0.09568 20.966-1.258 33.983 0.0017 26.558 2.5702 46.637 10.251 64.811 24.793 18.697 14.96 34.806 35.455 54.356 69.157l11.964 20.625-4.6716 2.1547c-2.5693 1.1851-5.234 2.1553-5.9215 2.1559-0.6875 6.8e-4 -7.1562-9.9657-14.375-22.147-18.963-32.001-26.06-42.418-34.945-51.292-14.653-14.636-34.172-25.446-55.896-30.957-22.953-5.8224-55.835-7.215-79.671-1.9255-23.486 5.212-15.153 5.632-36.796 9.7846l-40.571 5.836-33.081 9.7119c-6.3157 1.8542-4.2498 1.3531-37.365 9.5698l-41.377 10.267-20.492 5.1125c-19.233 4.7985-13.112 4.615-38.234 10.031-16.139 3.4794-43.129 9.8087-47.823 12.233-2.6217 1.3538-3.0494 7.1914-0.78062 10.654 3.7417 5.7106 19.084 11.217 35.389 12.7 8.2352 0.74932 9.4507 0.54341 14.598-2.4728 3.0879-1.8096 6.6392-3.2988 7.8918-3.3094 1.6443-0.0139 1.834-0.30056 0.68222-1.0315-1.281-0.81295-1.2003-2.715 0.40975-9.6575 1.1027-4.7548 2.6241-9.3912 3.3809-10.303 2.21-2.6629 4.584 3.0388 4.6352 11.133 0.03839 6.0636-0.3307 7.168-2.7682 8.2831-2.5442 1.1639-2.1074 1.4943 4.5793 3.4641 10.482 3.0877 18.564 1.8506 33.511-5.1292l12.152-5.6748 20.103 5.2109 5.9212-2.9596c3.2567-1.6278 8.7337-3.279 12.171-3.6693 3.4375-0.39033 9.9711-1.3588 14.519-2.1522 8.2098-1.4321 8.3113-1.4999 14.154-9.4571 5.7617-7.847 5.8671-8.1563 5.0386-14.788-0.752-6.0188-0.56185-6.9251 1.7078-8.1397 3.0085-1.6101 2.8514-1.8302 6.3903 8.9524l2.7693 8.4375-2.617 4.2344c-1.4394 2.329-3.454 4.929-4.4769 5.778-3.2818 2.7236-2.0599 3.3515 8.0375 4.1302 12.826 0.9891 21.139 4.0039 36.646 13.29 6.9492 4.1618 13.041 7.5668 13.538 7.5668 1.1841 0 6.6445-13.853 8.7319-22.152 1.3924-5.5361 1.9226-6.2952 3.4925-5 3.4258 2.8262 6.4942 11.578 5.6359 16.075-0.98912 5.1818-4.5881 12.538-9.4964 19.411-2.0461 2.865-3.3205 5.8558-2.832 6.6461 0.526 0.85108 0.19988 1.2821-0.79984 1.0571-0.92836-0.20893-4.4404 2.5698-7.8044 6.1749-3.7432 4.0114-10.534 9.0535-17.5 12.994-18.647 10.549-26.627 16.821-35.297 27.746-11.468 14.45-17.962 27.807-17.962 36.947 0 12.223 8.239 25.101 16.059 25.101 3.1083 0 3.0193-0.20936-2.5241-5.9375-3.1603-3.2656-6.3735-7.1662-7.1405-8.6678-3.1552-6.1776-0.76645-19.873 4.4767-25.667 1.1142-1.2312 4.1865-2.8203 6.8273-3.5314 6.2186-1.6745 12.256-0.0529 20.426 5.4859l6.25 4.2371 6.6179-6.0434c7.4436-6.7974 23.94-17.344 41.206-26.344 11.342-5.912 11.8-6.0327 22.875-6.0327 13.116 0 16.053-1.1509 25.956-10.172 6.8304-6.2222 12.985-8.7431 25.43-10.416 9.9935-1.3435 20.182-10.888 34.89-32.684 4.486-6.6479 9.9427-12.35 19.032-19.887l12.743-10.567 14.493-0.023-3.8682 4.8134c-2.1275 2.6474-7.3571 7.7044-11.621 11.238-7.7892 6.4543-19.22 18.66-24.379 26.031-4.0866 5.8391-4.5446 10.207-1.7478 16.668 3.3365 7.7078 13.376 21.02 17.149 22.739 3.7493 1.7083 3.7865 2.2632 0.5738 8.5606-2.8787 5.6427-2.6765 5.5564-7.3511 3.139-5.5893-2.8903-11.436-10.477-16.651-21.605-4.665-9.955-6.2039-11.743-7.8356-9.1026-1.6972 2.7461-18.115 11.328-27.093 14.162-6.4275 2.0288-11.982 4.8864-16.875 8.6819-8.8209 6.8421-8.4221 6.7162-28.151 8.8888-14.92 1.6431-16.5 2.0882-26.738 7.5347-5.9846 3.1837-16.615 9.9672-23.623 15.075-11.49 8.3733-13.458 10.416-20.027 20.778-8.3541 13.178-20.166 26.387-25.616 28.644-2.0524 0.85016-3.4588 1.9874-3.1252 2.5272 0.73203 1.1844-3.9181 16.65-6.5358 21.737-3.105 6.0342-13.058 15.803-19.349 18.991-7.3684 3.7338-16.258 3.9794-21.797 0.602zm20.022-14.335c5.2189-2.1806 8.3757-6.5988 13.114-18.354l3.7438-9.2876-2.7311-1.8174c-5.4247-3.6098-13.385-12.692-16.757-19.12-2.944-5.6117-3.4353-8.0115-3.3908-16.563 0.0556-10.688 0.94185-13.005 11.167-29.199 5.9958-9.4954 6.9911-15.425 4.5502-27.107l-1.9956-9.5503 5.2848-4.9296c2.9066-2.7113 5.2848-5.3515 5.2848-5.8671 0-1.1188-26.171-20.747-26.757-20.067-0.22323 0.25863-1.326 3.2827-2.4506 6.7202-1.1246 3.4375-4.8536 11.256-8.2866 17.375-9.6432 17.188-10.673 23.892-6.2573 40.75 3.8651 14.756 4.1994 22.706 1.8652 44.359-1.1849 10.991-1.8932 23.929-1.574 28.75 0.64858 9.7977 4.824 20.953 8.9152 23.819 3.2849 2.3008 10.881 2.3422 16.275 0.0885zm-19.995-13.099c0.50977-3.8429 0.0974-9.1421-1.1201-14.392-1.692-7.2959-1.7057-8.7262-0.11175-11.73l1.8153-3.4208 3.0268 6.875c8.4087 19.099 8.7655 23.457 2.199 26.852-5.9978 3.1016-6.7079 2.5901-5.8092-4.1848zm62.058-45.251c1.3514-2.649 2.4572-5.1056 2.4572-5.4591 0-1.7186-8.008-4.4569-13.034-4.4569-4.699 0-6.0155 0.54529-7.7657 3.2164-1.8003 2.7476-1.9119 4.2507-0.76589 10.312 0.73785 3.9029 2.0022 8.7836 2.8098 10.846l1.4682 3.75 6.1867-6.6963c3.4027-3.683 7.2924-8.8637 8.6439-11.513zm-15.596-67.996c-1.096-5.4802-2.5582-6.2048-5.0002-2.4779-1.5621 2.3841-1.9435 4.5559-1.3529 7.7042l0.82247 4.3841 3.137-2.947c2.473-2.3232 2.9796-3.7337 2.3936-6.6634zm22.836-8.0467c9.5594-5.5882 20.645-14.306 23.253-18.286 1.7151-2.6175 1.4005-2.9293-8.541-8.465-13.32-7.4168-26.07-11.602-40.119-13.17-10.232-1.1417-23.279-0.46433-25.043 1.3002-0.38756 0.38755 3.6377 3.0879 8.9451 6.0007 13.31 7.3052 21.16 14.948 26.28 25.587 2.3065 4.7931 4.1937 9.4337 4.1937 10.312 0 2.5528 2.1465 1.9148 11.032-3.2794zm8.132 42.076c-6.124-6.2925-10.414-12.904-10.414-16.049 0-2.7529 11.215-0.50252 14.659 2.9414 3.4217 3.4217 5.0646 12.011 3.2245 16.858-1.0302 2.7135-1.3215 2.5673-7.4697-3.75zm69.636-35.636c-4.6354-12.672-5.1689-13.708-8.8912-17.275-2.0126-1.9282-3.6592-3.963-3.6592-4.5218 0-1.7878 13.061-1.1092 15.818 0.82182 4.8545 3.4002 10.432 13.598 10.432 19.073 0 4.7494-0.31532 5.1935-5.0253 7.0781-2.7639 1.1059-5.2547 2.0107-5.5352 2.0107-0.28044 0-1.693-3.2344-3.1391-7.1875zm-192.61-59.957c-1.7762-8.556-0.88339-16.577 2.0869-18.749 2.7346-1.9996 3.2066-1.9972 5.9796 0.0304 1.8784 1.3735 2.041 2.352 1.0108 6.0831-0.81306 2.9447-0.79679 6.6254 0.0481 10.899 0.70171 3.5489 1.0575 6.637 0.79065 6.8624-0.26685 0.22538-2.2778 0.75068-4.4688 1.1673-3.9766 0.75619-3.9862 0.74501-5.4473-6.2927z"/>
</svg>
