<?xml version="1.0" encoding="UTF-8"?>
<svg version="1.1" viewBox="0 0 232.67 478.12" xmlns="http://www.w3.org/2000/svg" xmlns:cc="http://creativecommons.org/ns#" xmlns:dc="http://purl.org/dc/elements/1.1/" xmlns:rdf="http://www.w3.org/1999/02/22-rdf-syntax-ns#">
<metadata>
<rdf:RDF>
<cc:Work rdf:about="">
<dc:format>image/svg+xml</dc:format>
<dc:type rdf:resource="http://purl.org/dc/dcmitype/StillImage"/>
<dc:title>ASL letter</dc:title>
<dc:date>11/11/2013</dc:date>
<dc:creator>
<cc:Agent>
<dc:title>edited by Paul Sherman</dc:title>
</cc:Agent>
</dc:creator>
<dc:rights>
<cc:Agent>
<dc:title>PD</dc:title>
</cc:Agent>
</dc:rights>
<dc:publisher>
<cc:Agent>
<dc:title>WPClipart</dc:title>
</cc:Agent>
</dc:publisher>
<dc:subject>
<rdf:Bag>
<rdf:li>sign</rdf:li>
<rdf:li>language</rdf:li>
<rdf:li>letter</rdf:li>
<rdf:li>american</rdf:li>
</rdf:Bag>
</dc:subject>
<cc:license rdf:resource="http://creativecommons.org/publicdomain/zero/1.0/"/>
</cc:Work>
<cc:License rdf:about="http://creativecommons.org/publicdomain/zero/1.0/">
<cc:permits rdf:resource="http://creativecommons.org/ns#Reproduction"/>
<cc:permits rdf:resource="http://creativecommons.org/ns#Distribution"/>
<cc:permits rdf:resource="http://creativecommons.org/ns#DerivativeWorks"/>
</cc:License>
</rdf:RDF>
</metadata>
<path d="m68.467 454.81c-2.4323-6.7031-6.2537-18.094-8.492-25.312-3.0574-9.8601-5.8426-15.78-11.197-23.799-13.76-20.609-23.44-43.321-31.158-73.111-7.7131-29.769-7.5156-48.002 0.77118-71.196 2.4601-6.8855 5.5717-18.686 6.9146-26.223 3.7832-21.234 5.5483-23.929 18.556-28.339l9.375-3.178-0.38508-16.834-0.38508-16.834 12.422-6.4961c14.392-7.5265 22.635-9.3382 26.514-5.8279 4.2405 3.8376 10.872 14.719 12.948 21.245 1.8994 5.9726 1.9602 5.0317 1.5343-23.781-0.46986-31.793-0.4963-31.967-7.9018-51.875-3.229-8.6806-4.5922-14.638-5.0676-22.147-0.8817-13.926 0.96459-20.01 8.2532-27.195 5.7228-5.6421 5.758-5.729 6.5752-16.239 1.3792-17.738 7.8974-25.668 21.097-25.668 14.87 0 24.894 9.3316 30.75 28.626 2.0132 6.6329 2.3948 37.806 0.55971 45.721-1.4046 6.0585 2.5216 8.1844 11.572 29.049 9.4655 21.822 9.4242 21.146 16.305 41.242 5.8806 17.173 9.8892 20.533 13.583 32.04 9.2955 28.955 13.838 38.54 17.377 56.073 3.9232 19.44 1.3982 34.838-12.048 72.289-6.7505 18.801-8.5055 25.351-10.001 37.319-0.99731 7.9838-3.5037 23.447-5.5697 34.362-3.1855 16.83-3.7564 22.867-3.7564 39.718l2.6644 21.945-5.8707-0.85321c-7.9441-1.1545-7.2446 4.0172-6.2606-28.156 0.49411-16.156 0.4357-29.369-0.1298-29.361-0.5655 7e-3 -3.7895 0.8512-7.1644 1.875-9.5424 2.8948-10.818 2.6113-9.9067-2.201 1.147-6.0545 2.7591-7.4955 7.4095-6.6231 2.572 0.48252 5.5955 7e-3 8.3683-1.3148 3.6505-1.7408 4.6697-3.1884 6.4054-9.0974 3.7616-12.807 4.3304-19.061 3.0828-33.902-0.66465-7.9062-1.6397-25.906-2.1668-40-1.1269-30.133-0.81628-29.24-15.627-44.912-5.5986-5.9241-14.605-17.382-20.015-25.462-5.4301-8.1106-12.709-17.207-16.25-20.307-6.6904-5.8579-17.054-10.568-23.251-10.568-2.6866 0-4.3233-1.0459-6.3575-4.0625-1.5068-2.2344-4.7488-5.8423-7.2046-8.0176l-4.4651-3.9551-8.4455 4.2531c-11.992 6.0392-17.316 11.002-17.316 16.142 0 5.2383 8.9603 23.232 14.772 29.665 2.4378 2.6983 6.5623 5.9926 9.1657 7.3208 6.0255 3.074 18.841 6.1118 25.883 6.1357 4.727 0.016 5.3157 0.30737 4.4577 2.206-2.2785 5.042-2.027 14.926 0.50602 19.891 3.1729 6.2194 10.719 14.011 18.915 19.531l6.3944 4.3062-5.1252 0.81955c-5.8956 0.94275-14.094-0.94137-18.859-4.3339l-3.287-2.3405-7.7026 14.19c-6.9105 12.73-8.0308 15.844-10.894 30.282-5.3128 26.789-2.5771 39.969 13.167 63.435 9.6335 14.358 9.8332 15.536 2.9832 17.587-2.1976 0.6581-3.135 0.0735-4.6836-2.9213-1.0649-2.0592-4.6317-7.0097-7.9262-11.001-9.8609-11.946-11.47-14.797-14.05-24.883-3.1685-12.389-3.1539-26.016 0.0452-42.178 2.1071-10.645 4.198-16.131 12.941-33.955l10.427-21.259-2.3396-3.1336c-1.2868-1.7235-2.6788-5.9981-3.0935-9.499l-0.75389-6.3654-6.1925-1.4294c-3.4059-0.78618-6.6472-1.4294-7.2029-1.4294-0.55573 0 0.84945 3.5156 3.1226 7.8125 5.6202 10.624 7.6599 24.651 4.8064 33.056-2.6579 7.8288-4.9236 11.085-9.8173 14.109-5.2451 3.2416-13.095 3.244-19.442 6e-3 -6.2236-3.1751-8.438-6.5719-10.736-16.468-1.6056-6.9152-2.7567-8.8255-9.3134-15.455l-7.4814-7.565-16.736 0.60455-2.3603 6.6377c-2.1772 6.1227-2.2528 8.0927-0.97395 25.388 2.1788 29.467 7.8889 51.311 19.238 73.594 6.6064 12.971 17.522 28.521 24.997 35.61 5.5136 5.2286 13.979 6.7155 19.106 3.3559 4.1344-2.7089 4.739-2.0356 3.6991 4.1195-1.183 7.002-4.2745 9.4392-10.94 8.6247-2.9387-0.35911-6.2151-1.0134-7.2809-1.4539-3.4467-1.4247-0.8575 16.688 3.9674 27.754 3.9288 9.0109 3.988 9.3918 1.7183 11.051-1.2929 0.94509-5.6889 0.83048-6.5124 0.83048-0.82349 0-0.82295-4.5963-3.2552-11.299zm134.69-157.74c11.56-35.757-1.3594-71.4-6.3878-87.956-6.1489-20.246-11.401-32.667-13.963-40.575-3.7673-11.631-10.697-31.258-19.923-47.785-5.1828-9.2841-10.754-19.002-12.381-21.595-1.6267-2.593-5.7065-10.468-9.0662-17.5-7.1407-14.946-12.799-21.29-20.779-23.3-11.774-2.9647-18.047 3.626-18.047 18.962 0 14.41 6.7723 29.302 12.995 42.675 2.0383 4.3803 2.4492 6.3304 4.6955 10.358 1.7069 3.0602 6.6001 16.244 10.743 24.389 3.6272 7.1311 5.3368 15.225 8.6072 23.542 4.3384 11.032 11.325 35.594 13.689 40.19 2.8337 5.5097 10.773 15.66 21.823 27.899 18.361 20.338 19.916 24.555 19.996 54.233 0.0561 20.939 0.0904 20.923 7.9976-3.5359zm-37.422-100.12c-4.125-1.2387-9.2949-2.2972-11.489-2.3522-3.7481-0.094-6.4486-1.9544-4.9754-3.4275 0.36365-0.36366 6.0229-1.3482 12.576-2.1878l6.2902 1.1377 3.7277 2.3533c1.8182 1.1479 3.7088 3.6337 4.0476 4.8368 0.74359 2.6409-0.30736 2.6037-10.178-0.36024zm-25.625-42.192c0-2.0404 8.5898-11.848 13.2-10.366 13.798 4.4349 6.1093-1.2161 8.4776 3.6908 2.3378 4.8438 1.9128 2.6646-1.5664 2.6646-2.0012 0-7.2044 1.1177-11.562 2.4839-9.2593 2.9025-8.5489 2.7756-8.5489 1.5264zm-12.503-35.255c3.3722-4.7358 9.2286-5.5802 12.944-5.0485 2.8184 0.40335 9.642 1.6279 7.9651 3.3048-0.87741 0.87742-19.23 5.4632-21.928 5.4791-1.1344 6e-3 -0.81695-1.1568 1.0192-3.7354zm-40.369 178.5c3.7961-3.6793 4.122-4.6124 4.122-11.801 0-4.2933-0.57448-8.1611-1.2766-8.595-0.70214-0.43395-3.374 0.23598-5.9375 1.4887-4.3935 2.147-6.7256 4.3767-6.6018 9.679 0.0723 3.0938 0.24952 7.1324 0.75573 8.613 0.72476 2.1198 1.2177 1.6954-0.97092 2.39-2.1696 0.68861-0.92019 0.23412 0.42841 1.0882 3.0193 1.9122 5.2487 1.2391 9.4806-2.8627zm-16.102-8.4872c-0.76918-4.2319-0.6888-7.0619 0.25042-8.8169 1.9917-3.7214 8.6903-7.4406 13.411-7.4461 2.2344-2e-3 4.0625-0.58959 4.0625-1.3045 0-2.4644-5.3218-11.847-11.4-20.099-3.3519-4.5507-9.9754-14.676-14.719-22.5-4.7434-7.8242-9.5657-14.415-10.716-14.647-2.6821-0.54001-11.291 5.4094-14.647 10.122-2.3398 3.2859-2.4819 4.5022-1.4716 12.593 0.99965 8.0058 0.81776 9.6563-1.7142 15.554-1.5579 3.629-2.8325 6.8018-2.8325 7.0508 0 0.24892 1.9283 0.67771 4.2851 0.95286l4.2851 0.50026-0.6822-5.7601c-0.51058-4.3111-0.05199-6.9885 1.823-10.643l2.5052-4.8832 3.3697 11.217c2.9987 9.9821 3.9251 11.63 8.4132 14.967 7.454 5.5423 10.976 10.817 12.992 19.458 1.6923 7.2544 2.642 9.9168 3.5374 9.9168 0.20932 0-0.12916-2.8046-0.75219-6.2324zm65.224-98.525c-2.8407-10.915-5.9057-19.836-9.8583-26.889-1.6358-2.919-3.3784-7.4577-5.7669-10.221l-4.6593-5.3899-2.5e-4 19.895c-1.8e-4 14.313-0.16388 20.958 0.82793 22.049 1.4741 1.6213 15.151 7.5086 17.894 7.7025 1.0833 0.0766 2.8298-2.2776 1.5625-7.1468zm-63.1-12.086c4.1115-3.0762 9.0521-5.94 10.979-6.3639 3.6961-0.81304 3.9284-2.6498 0.60074-4.7489-5.4981-3.4681-23.097 7.9258-21.46 13.893 0.42441 1.5469 1.139 2.8125 1.588 2.8125 0.44897 0 4.1802-2.5169 8.2917-5.5931zm75.352-137.48c-3.8461-10.405-12.58-19.422-18.812-19.422-3.5169 0-5.0508 0.76269-6.9136 3.4375-3.2646 4.6878-5.2763 11.011-5.2763 16.584 0 4.4925 0.17127 4.6719 5.0914 5.3318 7.1909 0.9645 14.358 6.4149 21.035 15.997l5.7482 8.2487 0.94084-11.362c0.83231-10.052 0.62306-12.222-1.8141-18.815zm-26.503 190.1c1.0756-3.5992 8.7968-9.7807 4.1717-8.9697-4.2257 0.74097 6.2441-3.5577 7.2411-2.5608 0.86745 0.86747-3.4202 9.5447-7.1777 14.526-2.0363 2.6996-5.9737 2.8218-4.2351-2.9957zm-45.266-13.158c-5.0116-3.0559-13.487-16.96-10.014-16.96 0.54748 0 5.8393 2.5464 9.5887 4.9351 3.7494 2.3887 8.582 7.9099 9.6537 7.9275 1.0717 0.0176 7.3354-2.8521 11.387-5.2916 5.4781-3.2987 6.7264-4.6359 10.025-4.3585 3.918 0.32942 3.2946-1.5561 3.621 1.7685 0.32956 3.3577-0.34489 4.1903-6.25 7.7151-11.485 6.8556-21.308 8.3508-28.011 4.2635z"/>
</svg>
