<?xml version="1.0" encoding="UTF-8"?>
<svg version="1.1" viewBox="0 0 305.11 469.89" xmlns="http://www.w3.org/2000/svg" xmlns:cc="http://creativecommons.org/ns#" xmlns:dc="http://purl.org/dc/elements/1.1/" xmlns:rdf="http://www.w3.org/1999/02/22-rdf-syntax-ns#">
<metadata>
<rdf:RDF>
<cc:Work rdf:about="">
<dc:format>image/svg+xml</dc:format>
<dc:type rdf:resource="http://purl.org/dc/dcmitype/StillImage"/>
<dc:title>ASL letter</dc:title>
<dc:date>11/11/2013</dc:date>
<dc:creator>
<cc:Agent>
<dc:title>edited by Paul Sherman</dc:title>
</cc:Agent>
</dc:creator>
<dc:rights>
<cc:Agent>
<dc:title>PD</dc:title>
</cc:Agent>
</dc:rights>
<dc:publisher>
<cc:Agent>
<dc:title>WPClipart</dc:title>
</cc:Agent>
</dc:publisher>
<dc:subject>
<rdf:Bag>
<rdf:li>sign</rdf:li>
<rdf:li>language</rdf:li>
<rdf:li>letter</rdf:li>
<rdf:li>american</rdf:li>
</rdf:Bag>
</dc:subject>
<cc:license rdf:resource="http://creativecommons.org/publicdomain/zero/1.0/"/>
</cc:Work>
<cc:License rdf:about="http://creativecommons.org/publicdomain/zero/1.0/">
<cc:permits rdf:resource="http://creativecommons.org/ns#Reproduction"/>
<cc:permits rdf:resource="http://creativecommons.org/ns#Distribution"/>
<cc:permits rdf:resource="http://creativecommons.org/ns#DerivativeWorks"/>
</cc:License>
</rdf:RDF>
</metadata>
<path d="m87.068 454.5s-3.0524-1.4326-1.4002-3.9359c6.5959-9.9934 2.8624-12.237 1.9984-39.28l-0.79594-24.912-5.5981-4.5781c-7.8289-6.4025-17.79-14.811-22.921-27.497-5.958-14.731-10.04-14.342-13.846-29.074-4.4388-17.177-5.7617-23.248-8.5636-35.276-3.1425-13.491-6.5069-36.678-11.426-78.75-3.1729-27.136-4.2377-32.895-8.0885-43.75-9.0201-25.425-4.5288-39.281 16.011-49.392 4.8041-2.365 8.2793-4.876 8.2793-5.982 0-1.0484 1.3739-4.2505 3.0532-7.116 4.0161-6.853 12.608-11.358 34.838-18.265 16.409-5.0985 17.791-5.7888 27.818-13.9 5.8033-4.6946 11.992-9.0832 13.752-9.7525 5.5222-2.0995 17.056-1.4479 22.376 1.2642 2.6766 1.3646 5.0846 2.263 5.3511 1.9965 0.26652-0.26652-0.29707-9.4174 3.4757-19.044 11.078-28.264 11.467-27.014 20.677-32.476 13.11-7.7738 21.873-3.9431 31.158 0.77612 12.361 6.283 16.206 11.3 16.296 21.265l0.0624 6.875 5.8834-6.4949c7.1062-7.8449 16.589-12.88 24.258-12.88 11.715 0 33.256 14.572 36.705 43.871 1.1138 9.4621 5.2956 25.511-1.9426 70.175-2.2576 13.931-3.3494 29.908-3.3494 29.908-2.2228 21.373-6.1018 47.088-13.444 92.359-3.7765 23.285-4.2149 33.656-6.9635 40.46-4.9191 12.178-9.1559 19.872-21.628 33.488-8.6147 9.4045-11.49 9.3603-13.446 14.597-1.4417 3.8591-3.3533 7.8604-4.2479 8.8916-2.2107 2.5483-0.59255 15.096 4.3522 33.75 6.5671 24.774 10.163 41.556 9.1071 42.505-0.55926 0.50274-2.7999 1.2466-4.9792 1.6531l-3.9623 0.73901-2.4749-10.886c-1.3612-5.9874-4.904-22.558-7.8728-36.824-3.4958-16.797-5.9407-25.938-6.9383-25.938-0.8472 0-7.045 1.9926-13.773 4.428-13.488 4.8826-6.3678 0.0103-15.339-2.7074l1.706-1.3076 6.5946-2.9464c31.442-14.048 24.548-10.132 37.515-21.131 13.833-11.733 19.74-14.161 23.882-30.046l7.3542-28.204 3.7285-20.862c6.4784-36.248 12.348-76.995 14.806-115.51 0.65778-10.308 1.7498-23.577 3.1619-30.233 4.0469-19.077 4.8759-45.625 1.3567-43.45-0.56062 0.34648-4.2196 12.691-4.6252 22.174-0.86344 20.189-1.3098 3.9231-8.5711 38.967-0.88945 4.2927-6.1126 10.831-8.0579 16.045-5.4442 14.593-12.371 25.126-21.959 33.387-4.8461 4.1759-5.0132 4.2173-13.967 3.4604-13.135-1.1103-17.973-3.4636-24.56-11.945l-5.6089-7.2226-7.2398 0.60038c-4.4012 0.36498-11.846-0.30524-18.987-1.7093-10.971-2.1572-12.065-2.6552-16.568-7.5397-6.4029-6.9463-7.2781-12.902-4.5449-30.926 1.1418-7.5301 1.9017-13.865 1.6886-14.079-0.21317-0.21316-4.788 2.1205-10.166 5.1859-5.3783 3.0654-10.136 5.5642-10.572 5.553-0.91211-0.0235-12.822-16.612-15.15-21.101-1.1989-2.3121-1.2269-4.0884-0.12262-7.7739 1.1182-3.7324-0.82963-6.3488 6.4649-11.964 9.5282-7.3344 15.26-9.1404 11.534-9.1404-7.1168 0-18.978 9.8722-24.23 20.167-6.3055 12.36 2.8044 29.726 24.569 46.835 8.1626 6.4166 20.928 20.503 25.264 27.878 3.0414 5.1735 3.4206 7.1761 3.8098 20.12 0.25121 8.3551-0.40312 21.201-1.5625 30.675-5.1292 41.915-0.32133 61.011 20.726 82.32 8.6531 8.7608 11.029 11.93 11.029 14.71 0 3.4092-0.23261 3.544-6.1178 3.544-4.9673 0-6.7953-0.64646-9.7204-3.4375-10.535-10.052-17.658-22.244-24.485-41.909-3.8592-11.117-4.003-12.253-4.0272-31.839-0.0139-11.171-0.21952-20.312-0.45715-20.312-0.23762-1e-3 -2.0375 1.1414-3.9997 2.5386-7.0769 5.0392-16.555 5.3603-20.415 4.5124-5.2674-1.1569-14.528-4.1115-14.528-6.9869 0-4.2021-2.0107-3.871-4.1853 0.68924-1.554 3.2588-3.8037 5.1793-8.6847 7.4139-13.921 6.3733-25.587 3.3886-33.991-8.6968-4.1788-6.0093-17.458-18.222-19.813-18.222-0.60159 0-0.71076 0.98437-0.2426 2.1875 0.46816 1.2031 1.3507 10.344 1.9611 20.312 1.1125 18.167 3.8634 36.869 8.6461 58.783 1.4075 6.4488 2.559 11.987 2.559 11.987 0.14337 0.0144 1.5907 8.0662 3.9385 14.986 6.2158 18.321 9.3357 17.367 14.76 35.856 5.644 19.239 14.033 20.465 17.547 23.646 5.015 4.5402 11.704 5.8017 24.522 7.9769 18.064 3.0655 13.631 5.5813 6.0878 9.0512-4.0613 1.8682-4.3771 0.89966-10.217 1.2263l-8.9864 0.50271 0.47288 52.99-3.7832 7.4345c-3.704 7.2786-1.7501 7.4422-7.2702 7.8046-3.1011 0.20357 7.8884-2.8685-0.71997-3.317zm2.6608-236.86c5.015-5.8436 6.3943-10.002 5.4364-16.391-0.57156-3.8114-2.1298-6.3454-4.207-8.602-17.53-19.044-11.313-11.881-28.261-38.254-6.0752-9.4531-21.512-25.076-22.033-25.076-1.9943 0-14.327 10.141-15.837 13.022-2.6546 5.0664 2.2563 23.328 11.121 41.353 4.5401 9.2321 7.7338 12.754 12.518 13.805 4.7438 1.0419 10.86 6.4436 15.365 13.571 1.9586 3.0987 4.0279 5.3455 4.5984 4.9929 0.57047-0.35258 1.0372-3.9105 1.0372-7.9065 0-6.6387 0.40925-7.7266 4.7443-12.612l4.7443-5.3461 6.5154 2.1641c5.7964 1.9253 7.791 4.4567 3.5116 4.4567-4.1682 0-13.127 7.824-16.563 14.465-3.5208 6.805-3.5379 6.9387-1.0777 8.4126 3.2764 1.9627 9.3608 3.1566 12.5 2.4526 1.375-0.30834 4.0244-2.3368 5.8874-4.5078zm40.769-0.711c4.5887-2.6888 10.593-6.843 13.343-9.2314l5-4.3426v-10.456c0-5.7509-0.46251-12.122-1.0278-14.159-0.64836-2.3356-8.9724-11.796-22.548-25.625-11.836-12.057-19.686-24.735-21.827-28.173-3.6215-5.8151-10.019-13.651-12.372-24.49l-0.97496-4.4901-15 5.5278c-17.007 6.2673-21.875 9.8645-21.875 16.163 0 2.5431 2.7441 9.5049 7.1752 18.204 6.4647 12.691 13.533 12.917 22.244 30.428 12.218 24.562 17.607 30.407 29.248 43.755 10.879 12.473 5.6643 14.478 18.615 6.8891zm-19.433-12.513c-1.8802-3.5132 1.2113-8.7285 4.0203-12.3 2.8335-3.6022 14.949-14.672 17.313-14.672 2.1372 0 15.52 3.6144 15.52 5.4515 0 0.98304-2.0374 2.2594-5.418 1.937-4.8026-0.45802-12.396 0.86804-18.79 7.4689-3.7377 3.859-6.4194 8.582-6.7248 8.582s-2.7887 4.1583-2.7887 4.1583zm124.7-37.646c4.0443-4.1522 6.7443-8.3051 7.9236-12.188 0.98385-3.239 5.989-11.38 9.3983-18.975 4.9357-10.996 8.5-9.8469 12.745-42.509 3.5743-8.9865 3.7046-25.111 3.2892-30.067l-0.99205-11.837-7.7678-7.1331c-8.6798-7.9706-12.485-8.9293-19.197-4.8367-4.635 2.8263-6.117 4.7797-14.297 18.845-10.876 18.7-14.191 30.617-15.476 55.625-0.50521 9.8353-2.8365 18.164-4.9818 26.576-3.0052 11.783-2.2013 14.628-0.72355 20.788 1.3515 5.6336 2.3327 7.1263 6.1333 9.3303 3.0208 1.7518 6.7324 2.6333 11.168 2.6525 6.3485 0.0274 6.9162-0.25108 12.778-6.2696zm4.4682-20.451s1.1934-1.3178 2.572-4.0586c3.487-6.9324-1.8571-11.329-5.4146-14.128-4.4326-3.4867-8.6959-4.4328-12.39-2.7497-2.7216 1.2401-3.7305 1.683-7.4168 7.3429-2.4183 3.713-0.0264 4.6162-1.9397 7.84-9.694-5.5376-8.0614 2.9576-6.8262-4.6968 0.29819-1.8827 5.8902-7.3475 6.3028-10.613 0.41266-3.2656 0.96965-5.9375 1.2377-5.9375 0.26809 0 3.7346-0.84579 7.7034-1.8795 8.8679-2.3098 13.171-1.17 19.246 5.0975 3.5093 3.6207 4.2808 5.3698 4.2626 9.664-0.022 5.1907 5.245 17.744-3.1356 17.744-0.58719 0-0.3486-0.89572-1.3835-2.3732zm-54.037 8.0553c6.9986-2.6608 12.669-18.414 14.423-40.068 0.8253-10.191 2.798-21.023 6.1973-34.031 8.004-30.628 8.1017-41.562 0.43545-48.733-6.4808-6.0623-11.355-7.7118-22.995-7.7828-14.181-0.08646-17.253 1.9022-19.399 12.556-2.4914 12.367-5.3888 42.283-5.3888 55.641 0 6.9442-0.81416 15.801-1.8093 19.681-2.7563 10.749-5.838 31.497-5.0479 33.987 0.7656 2.4122 1.164 2.6234 13.107 6.9487 8.6754 3.1418 15.397 3.733 20.478 1.801zm-25.779-35.915 3.437-4.7661 9.1889-0.36992c10.678-0.42987 19.388 5.9767 22.165 12.624 3.2603 7.803 0.37083 6.7046-8.519 2.6738-10.517-4.7686-17.863-7.8648-23.804-2.968l-6.8447 2.5825 2.8108-6.9582zm-21.886-13.482c4.9723-2.9983 7.1875-3.7906 7.1875-2.5706 0 0.96993 0.5625 2.1112 1.25 2.5361 0.80315 0.49637 1.25-3.9398 1.25-12.409v-13.182l-4.5276-1.8918c-6.1739-2.5796-6.7661-2.4229-5.9657 1.5788 0.60017 3.0008-3.2547 9.4869-3.5044 5.4728-0.57776-9.2875-11.006 1.2307-13.245 3.2391-4.8003 4.3063-0.51648 13.061 3.5838 18.274 3.3848 4.3031 5.3428 4.1564 13.972-1.0469z"/>
</svg>
