<?xml version="1.0" encoding="UTF-8"?>
<svg version="1.1" viewBox="0 0 335.81 438.09" xmlns="http://www.w3.org/2000/svg" xmlns:cc="http://creativecommons.org/ns#" xmlns:dc="http://purl.org/dc/elements/1.1/" xmlns:rdf="http://www.w3.org/1999/02/22-rdf-syntax-ns#">
<metadata>
<rdf:RDF>
<cc:Work rdf:about="">
<dc:format>image/svg+xml</dc:format>
<dc:type rdf:resource="http://purl.org/dc/dcmitype/StillImage"/>
<dc:title>ASL letter</dc:title>
<dc:date>11/11/2013</dc:date>
<dc:creator>
<cc:Agent>
<dc:title>edited by Paul Sherman</dc:title>
</cc:Agent>
</dc:creator>
<dc:rights>
<cc:Agent>
<dc:title>PD</dc:title>
</cc:Agent>
</dc:rights>
<dc:publisher>
<cc:Agent>
<dc:title>WPClipart</dc:title>
</cc:Agent>
</dc:publisher>
<dc:subject>
<rdf:Bag>
<rdf:li>sign</rdf:li>
<rdf:li>language</rdf:li>
<rdf:li>letter</rdf:li>
<rdf:li>american</rdf:li>
</rdf:Bag>
</dc:subject>
<cc:license rdf:resource="http://creativecommons.org/publicdomain/zero/1.0/"/>
</cc:Work>
<cc:License rdf:about="http://creativecommons.org/publicdomain/zero/1.0/">
<cc:permits rdf:resource="http://creativecommons.org/ns#Reproduction"/>
<cc:permits rdf:resource="http://creativecommons.org/ns#Distribution"/>
<cc:permits rdf:resource="http://creativecommons.org/ns#DerivativeWorks"/>
</cc:License>
</rdf:RDF>
</metadata>
<path d="m61.26 424.01c-1.1584-1.768-3.4571-4.5654-5.1082-6.2165-4.7421-4.7421-6.0025-13.927-6.8999-50.285l-0.83306-33.75-4.0577-7.828c-3.1432-6.0638-5.1601-13.388-8.949-32.5-2.6902-13.57-7.7769-36.766-11.304-51.547-13.575-56.896-12.88-52.769-11.254-66.829 3.5539-30.727 18.147-56.224 42.534-74.316 9.9808-7.4044 18.028-11.429 27.88-13.945 8.6374-2.2054 9.5859-3.5886 9.5859-13.979v-8.8905l6.0909-5.8709c6.8686-6.6204 15.408-10.36 30.603-13.401 9.5533-1.9119 13.687-1.6188 20.893 1.4814 1.5548 0.66893 2.2779-0.52744 3.4846-5.7656 1.6176-7.022 9.4117-21.272 13.814-25.256 5.4744-4.9542 46.968-3.7422 61.794 1.805 6.7992 2.5439 13.321 8.3519 13.321 11.863 0 3.0143 2.8294 3.7131 18.125 4.4765 22.95 1.1454 40.669 8.3617 45.936 18.708 3.2494 6.383 2.7562 18.996-1.5606 39.918-2.0568 9.9687-3.742 19.339-3.7449 20.822-5e-3 2.727 11.91 45.062 15.595 55.411 4.4754 12.567 7.1458 25.677 6.5133 31.976-1.2393 12.341-5.1885 17.951-50.636 71.937-11.219 13.326-24.229 29.854-28.912 36.729-21.296 31.262-32.915 61.639-35.749 93.458-0.77643 8.7192-1.2192 9.9609-4.3462 12.188-6.3503 4.5218-6.5995 3.9297-5.6637-13.458 1.0984-20.408 3.6903-38.305 6.6913-46.203 2.0234-5.3252 10.711-20.851 23.982-42.86 1.8655-3.0938 4.8412-8.1849 6.6127-11.314 3.6282-6.4082 7.1474-10.72 26.058-31.925 28.219-31.643 42.324-50.014 48.666-63.38 4.887-10.301 3.9977-18.342-4.0186-36.334-7.8389-17.594-14.631-39.479-15.976-51.475-1.3112-11.692-3.3716-14.273-16.06-20.112-5.8074-2.6725-11.402-6.4826-15.422-10.502l-6.3078-6.3078-24.295 1.6733-5.7117 15.926h-5.9498c-4.6513 0-7.1502-0.85051-11.45-3.8969-7.1872-5.0922-21.125-18.732-21.125-20.673 0-0.90809 4.6304 1.6345 10.594 5.76 10.283 7.1132 23.173 13.193 28.579 5.9564l3.5482-4.7493-4.9693-4.0109c-2.7331-2.206-7.831-7.4845-11.329-11.73-3.4976-4.2455-7.6238-8.6049-9.1695-9.6875-6.5556-4.5917-17.647-0.78118-22.648 7.7807-3.7576 6.4338-4.2455 18.506-1.0409 25.75 3.1052 7.0198 16.268 21.035 27.754 29.551 8.9262 6.6182 21.944 13.255 28.368 14.464 4.0496 0.76161 5.1575 2.1615 2.8429 3.592-0.67075 0.41455-3.2036 4.3016-5.6286 8.6378-6.1079 10.922-9.4627 24.872-9.5007 39.506-0.0344 13.221 1.2632 19.042 5.172 23.203 3.6464 3.8814 2.8904 8.7952-1.2812 8.3272-6.4462-0.72321-11.884-8.4686-13.267-18.898-1.2961-9.7703 1.8161-41 4.6483-46.645 2.7253-5.431 2.9169-7.2417 0.76467-7.2256-2.674 0.02-7.1875 17.559-7.1875 27.93v9.3908l-5.5616 4.5573c-5.5923 4.5825-19.973 10.535-25.57 10.584-1.6538 0.0145-4.8507-1.3799-7.1041-3.0986s-4.4159-3.125-4.8055-3.125c-0.38962 0-0.7084 2.1615-0.7084 4.8034 0 12.239-9.6524 20.808-25.059 22.247-7.6162 0.71121-8.7192 0.4671-17.21-3.8087-6.5137-3.2802-9.4415-5.5271-10.382-7.9674l-1.3099-3.3988-2.3251 4.494c-1.8078 3.4942-4.0274 5.2323-9.9768 7.8125-4.2085 1.8252-8.8804 3.3132-10.382 3.3068-6.433-0.0276-24.605-13.938-24.605-18.835 0-1.2711 1.125-5.1653 2.5-8.6537 2.7334-6.9346 3.1328-11.923 1.3337-16.655-1.8804-4.9458-8.6277-11.835-15.213-15.534l-6.1181-3.4362-0.0013-14.042-0.0013-14.042 4.3623 2.0802c4.8147 2.296 5.0732 2.8416 6.25 13.19 0.69789 6.1373 1.682 8.2344 6.7461 14.375 10.718 12.997 11.865 15.677 12.42 29.018 0.52969 12.751 1.4858 14.947 7.9695 18.299 4.7908 2.4774 10.134 2.1652 13.921-0.81352 3.7661-2.9624 11.844-18.826 12.358-24.266 0.323-3.424-0.0261-3.7669-4.6508-4.5686-4.6894-0.81287-12.075-2.3094-16.903-0.34336-9.0193 3.6727-19.324 7.0588-14.773 1.1461 1.6646-2.1627 3.8498-4.7717 7.5035-7.5266 0.3579-0.35791 7.7629-4.2566 13.549-4.1294 8.5551 0.18809 5.1526-1.5093 8.5551 0.18809 4.4375 2.2137 7.1608 2.0772 3.9481-6.3756-3.6134-9.507-4.969-16.489-6.2301-32.088-1.3239-16.376-2.926-22.491-6.9459-26.511-3.6366-3.6366-10.226-3.9406-14.473-0.6677-1.6396 1.2637-6.6373 4.1893-11.106 6.5013-5.3924 2.7899-11.717 7.7976-18.805 14.89-9.0553 9.0607-11.741 12.778-17.659 24.436-5.0449 9.9388-7.1471 15.598-7.5844 20.418-0.39146 4.3152-1.0136 9.7877-0.11462 10.014 0.76404 0.19214 5.5637 3.2348 10.795 3.1053l9.7052-0.24023 12.746-9.1573c13.822-2.4945 5.797 1.2531 8.6642 1.8885 2.5282 0.56035 2.0699 3.6162 1.3344 3.8967-0.73554 0.28052-9.1609 3.96-12.864 6.3457-3.7029 2.3856-8.6408 4.6955-10.973 5.1331-4.5827 0.85973-15.652 4e-3 -19.496-1.507-2.2634-0.88978-2.3341-0.4167-1.4909 9.976 0.50734 6.2526 2.4913 16.079 4.6474 23.019 4.5002 14.484 11.625 44.796 17.978 76.484 2.5498 12.719 5.7267 25.263 7.0597 27.877 3.4943 6.8513 11.379 11.348 24.447 13.944 6.0298 1.1975 12.498 2.971 14.374 3.9412 3.4136 1.7653 6.7658 6.3742 5.5328 7.6072-0.36024 0.36025-8.3946-0.23045-17.854-1.3127-9.4595-1.0822-17.393-1.7733-17.631-1.5357-3.1915 3.1915-3.3642 49.517-0.26709 71.628 1.6784 11.983 1.2761 14.43-1.6405 9.9787zm89.971-221.19c6.2842-6.8995 6.5672-10.701 2.9547-39.688-4.2662-34.233-4.2438-33.541-1.4184-43.736 3.547-12.8 3.385-27.022-0.49764-43.695-1.6722-7.181-4.1275-14.493-5.4561-16.25-2.212-2.9246-3.1527-3.1801-11.161-3.0318-27.597 0.51089-36.275 14.902-26.038 43.182 3.0982 8.559 4.642 15.593 5.6626 25.802 0.777 7.7722 2.846 18.624 4.6368 24.32 1.7786 5.6567 3.4539 11.046 3.723 11.977 0.27843 0.96311 1.3377 1.3666 2.4586 0.93648 1.0832-0.41564 5.719-1.0656 10.302-1.4444 12.148-1.004 17.734-1.0998 19.964 10.034 1.63 8.1359 5.1956 8.3 3.2542 11.263-1.6153 2.4653 3.4182 6.5426 0.11811 6.5426-4.717 0-5.6159-5.3677-6.9247-11.193-1.259-5.604-9.5681-8.3111-13.055-9.1863-7.6678-1.9245-14.413 6.8219-16.749 21.717-1.0655 6.7947-0.97783 7.1547 2.5438 10.444 4.082 3.8131 6.1356 4.4042 16.151 4.6488 5.7643 0.14079 7.4126-0.31614 9.5313-2.6423zm41.883-22.688c4.2036-2.7543 6.5319-8.5446 6.5784-16.36l0.0373-6.2642-5.7685-2.6135c-6.4791-2.9355-15.418 2.2121-17.75 3.7904-2.9962 2.0285-3.0967 8.8773-2.3653 12.703 1.511 7.9032 0.61212 10.3 0.61212 10.3-6.2498-0.33366-9.3177-2.0137-8.2044-13.273 0.37785-3.8213 0.53431-9.3665 0.53431-9.3665l7.7113-8.3135c3.9312-4.2382 5.6484-3.9219 8.3972-4.6436 4.2452-1.1146 13.863 0.34367 17.554 1.8277 1.4615 0.58764 3.4998-3.6495 4.7158-8.1928 1.5258-5.7011 1.4692-6.0526-1.2633-7.8436-9.9727-6.5366-24.791-21.325-34.447-34.377l-2.7729-3.7482-0.0396 4.5888c-0.0217 2.5238-1.213 9.5293-2.6471 15.568-2.0654 8.6965-2.4384 13.07-1.7943 21.036 2.4404 30.182 8.3878 46.618 17.527 48.437 3.538 0.70404 9.5877-0.7671 13.384-3.2547zm102.86-98.954c1.0103-4.7691 1.8466-11.514 1.8586-14.988 0.019-5.5116-0.4964-6.8123-4.0408-10.199-5.0876-4.8612-9.9945-6.8832-25.269-10.413-10.831-2.5029-12.814-2.6304-18.752-1.2058l-6.6403 1.593-2.014 10.146c-1.1077 5.5803-2.0135 10.755-2.013 11.499 6.4e-4 0.87413 2.4133 1.1528 6.8182 0.7875 9.8369-0.81576 12.002 0.08194 21.73 9.0096 4.811 4.4151 9.9832 8.6888 11.494 9.4973 4.4186 2.3648 13.001 4.6712 14.037 3.7724 0.52465-0.45508 1.7805-4.7294 2.7908-9.4985zm-123.74-28.059c5.3015-7.222 14.8-12.487 22.529-12.487 5.7255 0 14.899 5.6004 25.846 15.779 3.2362 3.0091 6.3693 5.471 6.9625 5.471 1.019 0 4.051-21.767 4.0357-28.974-8e-3 -3.7902-1.8056-4.344-25.632-7.8973-24.262-3.6183-31.862-1.9513-37.025 8.1211-3.3548 6.5448-6.0999 18.383-6.0999 26.304 0 8.6535 1.288 10.29 3.3688 4.2792 0.86545-2.4998 3.5726-7.2683 6.0158-10.597zm1.8654 279.74c-15.099-5.7939-35.357-32.244-42.279-55.204-4.2135-13.975-4.5004-32.587-0.62865-40.778 6.0034-12.699 6.5737-12.259 6.6176 5.1126 0.0704 27.865 7.4791 47.766 25.333 68.049 11.394 12.944 18.639 15.597 28.648 10.491l5.0922-2.5978 3.658 3.5046c4.8843 4.6795 4.1914 7.7149-2.5761 11.285-6.9007 3.6403-14.622 3.6849-23.866 0.1378zm83.75-201.71c0-3.2442 7.7196-16.16 12.826-21.46 3.3656-3.493 4.7691-4.0625 10.011-4.0625 5.1282 0 6.0317 0.34744 5.6886 2.1875-0.22431 1.2031-2.3464 3.1559-4.7157 4.3394-2.3694 1.1836-8.6958 6.5141-14.059 11.846-7.4656 7.4218-9.7509 9.0974-9.7509 7.1495z"/>
</svg>
