<?xml version="1.0" encoding="UTF-8"?>
<svg version="1.1" viewBox="0 0 341.45 450.06" xmlns="http://www.w3.org/2000/svg" xmlns:cc="http://creativecommons.org/ns#" xmlns:dc="http://purl.org/dc/elements/1.1/" xmlns:rdf="http://www.w3.org/1999/02/22-rdf-syntax-ns#">
<metadata>
<rdf:RDF>
<cc:Work rdf:about="">
<dc:format>image/svg+xml</dc:format>
<dc:type rdf:resource="http://purl.org/dc/dcmitype/StillImage"/>
<dc:title>ASL letter</dc:title>
<dc:date>11/11/2013</dc:date>
<dc:creator>
<cc:Agent>
<dc:title>edited by Paul Sherman</dc:title>
</cc:Agent>
</dc:creator>
<dc:rights>
<cc:Agent>
<dc:title>PD</dc:title>
</cc:Agent>
</dc:rights>
<dc:publisher>
<cc:Agent>
<dc:title>WPClipart</dc:title>
</cc:Agent>
</dc:publisher>
<dc:subject>
<rdf:Bag>
<rdf:li>sign</rdf:li>
<rdf:li>language</rdf:li>
<rdf:li>letter</rdf:li>
<rdf:li>american</rdf:li>
</rdf:Bag>
</dc:subject>
<cc:license rdf:resource="http://creativecommons.org/publicdomain/zero/1.0/"/>
</cc:Work>
<cc:License rdf:about="http://creativecommons.org/publicdomain/zero/1.0/">
<cc:permits rdf:resource="http://creativecommons.org/ns#Reproduction"/>
<cc:permits rdf:resource="http://creativecommons.org/ns#Distribution"/>
<cc:permits rdf:resource="http://creativecommons.org/ns#DerivativeWorks"/>
</cc:License>
</rdf:RDF>
</metadata>
<path d="m65.231 420.4c-0.98239-22.021-2.6028-29.068-6.0584-38.962-2.0616-5.9024-3.2952-10.295-14.159-20.855-7.0728-6.875-9.1668-17.153-9.9502-19.215-1.9725-5.1928-9.0585-47.752-10.669-64.434-0.72989-7.5625-3.0112-21.062-5.0697-30-6.7474-29.297-7.3026-32.407-7.3245-41.04-0.03556-13.992 10.612-40.543 27.853-69.457 12.69-21.282 25-32.766 45.055-42.032 10.789-4.9849 11.65-5.1129 14.859-2.2086 2.2541 2.04 2.5105 1.9405 5.637-2.1875 1.8015-2.3786 7.2518-8.3287 12.112-13.223 6.7976-6.8449 10.506-9.5127 16.071-11.563 3.9789-1.4655 8.5273-2.6646 10.108-2.6646 2.4366 0 3.1804-1.1049 4.8947-7.2712 2.6079-9.3802 6.3815-13.024 18.205-17.579 20.556-7.9197 33.446-7.7277 42.308 0.63044 2.48 2.339 4.5633 4.1047 4.6296 3.9239 0.0663-0.18081 1.4504-2.9745 3.0758-6.2082 4.5194-8.9909 10.441-15.121 19.137-19.81 7.2414-3.9047 8.8025-4.2622 18.533-4.2446 7.7687 0.01406 12.898 0.79292 19.081 2.8973 11.719 3.9883 12.397 4.8658 11.385 14.735l-0.82965 8.0978 4.8689-3.333c4.1756-2.8585 5.7806-3.2418 11.272-2.6922 7.1817 0.71877 14.247 3.9582 23.182 10.629 7.1264 5.3204 7.11 5.1944 4.112 31.476-2.4691 21.645-5.0457 36.681-6.87 40.09-0.79275 1.4813-5.1844 6.7463-9.7592 11.7-4.5748 4.9538-11.534 13.226-15.464 18.382l-7.1464 9.3752 4.3996 15.539c2.4198 8.5465 6.6846 23.133 9.4775 32.414 6.4483 21.429 7.3348 32.085 3.755 45.134-4.8318 17.612-18.487 43.522-37.481 71.116-15.828 22.996-31.231 39.667-45.859 49.637-16.942 11.547-20.785 20.254-21.395 48.467-0.32091 14.857-0.70235 17.717-2.5429 19.062-5.5069 4.0268-5.6843 3.1606-5.1146-24.979 0.31645-15.631 1.1529-28.479 2.0325-31.218 2.7048-8.4254 8.8079-14.832 19.54-20.513 11.963-6.3325 20.375-14.866 35.337-35.852 20.425-28.646 40.805-66.134 44.732-82.279 1.9055-7.836 1.8788-8.1566-1.863-22.325-9.6442-36.518-14.832-55.933-15.556-58.214-0.62308-1.9632-2.6015-2.7671-9.4711-3.8488-17.03-2.6816-26.43-11.654-27.351-26.104-0.61188-9.6093 1.8003-15.481 14.026-34.141 13.47-20.559 13.918-23.586 4.1881-28.293-12.54-6.0661-12.361-4.5341-2.6793-22.949l7.4153-18.787 10.017 1.9782c2.4146 0.47682-12.689 0.20782-12.443 0.41394 0.24613 0.20612 10.535-3.6247 8.0907 0.39888-4.2932 7.0674-9.2622 28.375-8.5578 28.913 1.7093 1.3047 8.5583 2.7503 9.0743 1.9153 0.36337-0.58795 1.0235-4.6325 1.467-8.9878 0.4435-4.3554 1.5649-10.099 2.492-12.763 2.9574-8.5002 2.3868-10.171-4.4836-13.126-9.3867-4.0381-20.478-3.6774-27.696 0.90073-7.3771 4.6784-14.221 12.813-18.569 22.07-6.0194 12.817-6.9512 19.045-6.8256 45.625l0.11512 24.375 6.7599 25.522 6.7599 25.522 6.875 3.6882c14.623 7.8448 23.408 18.146 26.834 31.468 2.9651 11.529 2.3232 18.895-2.782 31.925-0.83896 2.1412-2.5289-7.9428-2.6924-16.066-0.13542-6.7282-7.8993-23.83-13.944-30.714-8.8254-10.052-15.951-10.731-32.416-3.0916-6.7517 3.1328-10.956 6.6626-24.873 20.883-33.795 34.532-42.726 51.692-49.716 95.531-1.8884 11.844-2.5819 13.865-5.7959 16.893l-3.6509 3.4396 0.85876-12.5c1.741-25.341 8.9024-50.455 19.489-68.344 2.7158-4.589 4.9378-8.6023 4.9378-8.9185s-3.2338-0.97897-7.1862-1.4728c-9.0632-1.1324-13.493-3.4112-15.98-8.2201-2.2023-4.2588-0.89567-4.7235-12.507 4.4476-3.7874 2.9916-5.8332 3.7003-10.194 3.5316-11.137-0.43104-16.986-18.849-28.01-32.699-7.1588-8.9934 1.2689 4.8029-11.036-17.125-3.438-6.1269-4.3642-14.519-5.4504-16.808-4.1561-8.7583-8.0116-16.834 0.10164-21.567 3.2258-1.8818 3.9284-1.9319 5.2224-0.37268 1.161 1.3989 1.152 3.3349-0.0403 8.6627-1.9578 8.7484 2.3328 12.825 8.7832 25.788 3.2165 6.4639 10.696 18.382 10.696 18.382s11.511 22.288 16.317 24.89c7.6525 4.1424 15.174-2.0015 20.376-16.16 3.1021-8.4436 3.366-10.534 1.0917-8.6469-1.101 0.91379-2.4932 0.78678-4.6875-0.42765-4.7401-2.6234-11.278-2.1035-16.871 1.3416-2.75 1.6938-5.5798 3.0825-6.2884 3.086-1.665 9e-3 -4.6063-7.7315-3.3887-8.917 1.2651-1.2318 17.162-4.8277 21.317-4.8219 1.848 2e-3 5.2017 1.1276 7.4526 2.5 2.251 1.3724 4.3604 2.4953 4.6875 2.4953s0.59479-2.154 0.59479-4.7866c0-3.3882-2.4151-18.906-6.9473-25.588-4.1626-6.1375-4.3089-11.54-9.5581-24.702-4.5906-11.511-2.7428-12.847-7.1218-17.908-2.4738-2.8591-5.7227-6.7562-7.2198-8.6604l-2.722-3.4621-8.2213 3.7277c-10.509 4.7652-21.899 12.755-26.581 18.646-4.3371 5.4575-17.331 26.754-22.243 36.456-3.1859 6.2924-8.1363 19.24-8.1363 21.28 0 0.47354 3.173-0.73951 7.0512-2.6957 4.2062-2.1216 9.0468-3.5567 11.997-3.5567 4.358 0 5.672 0.78025 11.052 6.5625 3.3582 3.6094 6.1157 7.0563 6.1278 7.6598 0.0345 1.73-9.4084-0.22797-15.595-3.2334-5.5896-2.7156-5.6445-2.7175-8.6117-0.29845-1.6424 1.339-6.3728 5.1558-10.512 8.4817-4.1391 3.3259-7.8373 7.2389-8.2183 8.6955-0.38091 1.4566 0.918 8.8604 2.8865 16.453 5.121 19.752 4.9972 36.887 11.531 77.158l5.1506 31.747 9.9436 22.048c13.415 20.499 21.683 16.742 26.216 18.1 4.1991 1.2581 9.4067 2.0334 13.64-0.0938 6.3663-3.1993 14.285-5.238 14.285-5.238 1.0984 1.2908-11.996 10.858-16.449 12.718-3.3204 1.3873-5.4568 1.5228-8.9224 0.56594-2.5062-0.692-8.8817-0.35467-9.1496-0.0867-0.26793 0.26792-0.85957 5.6787-0.50375 12.103 0.47331 8.546 1.4099 16.233 2.1588 26.228 1.796 23.973 1.077 17.85-2.3041 19.39-1.6724 0.76201-2.9824-0.21123 0.23156-0.21123 0.2075 0-5.7811-6.5923-6.2525-17.159zm97.746-203.4c6.0262-4.3294 6.1773-4.5927 5.5984-9.7556-0.3922-3.4976 0.28782-7.8145 1.9952-12.666 1.4246-4.0479 3.5374-14.204 4.6951-22.568 2.0831-15.051 2.0769-15.301-0.60368-24.126-1.4897-4.9046-3.5384-9.7473-4.5527-10.762-2.2874-2.2874-13.507-4.8005-16.524-3.7015-1.2271 0.44685-4.7623 2.8857-7.856 5.4197-6.6517 5.4482-10.622 7.6842-11.711 6.5955-2.9185-2.9185 1.7035-13.178 7.8045-17.324 3.7532-2.5504 5.9932-3.0487 13.705-3.0487 8.2921 0 9.1273-0.21984 8.3107-2.1875-0.49935-1.2031-3.5626-9.5-6.8072-18.438-6.7356-18.554-9.9299-25.249-13.652-28.615-2.5749-2.3287-2.6882-2.3168-7.3205 0.77029-6.6638 4.4408-21.016 18.754-23.37 23.306-1.9127 3.6988-1.8411 4.1041 2.0319 11.493 3.5354 6.7446 4.7805 14.809 8.0061 26.107l4.3392 15.199c2.4274 8.5026 9.2147 17.063 10.414 25.49 0.31316 2.2008 1.6354 2.5986 11.048 3.324 5.8805 0.45319 11.902 1.4718 13.382 2.2635 4.5405 2.43 13.189 7.8975 11.257 17.559-0.61184 3.0592-0.36921 4.5397-2.6942 4.5397-2.7883 0-1.5637-0.66665-1.913-7.5581-0.42231-8.333-10.295-8.288-19.971-9.0538-10.018-0.7929-13.264 1.1081-14.235 8.3365-0.94952 7.0711 0.4179 12.018 5.1146 18.501 3.9994 5.5211 9.8607 8.0656 14.601 6.3387 1.4932-0.544 5.5019-2.9914 8.9082-5.4386zm39.368-38.236c4.3263-3.0341 5.8897-4.914 5.625-6.7637-0.52395-3.6616-5.0067-3.8769-13.018-0.62525-7.2733 2.952-9.1973 5.1928-9.2678 10.794-0.0244 1.9358-0.84818 4.9259-1.8307 6.6447-3.5485 6.2075-1.7386 6.3053 5.3125 0.28707 3.9531-3.374 9.8837-8.0255 13.179-10.337zm10.958-33.841c-9.7822-39.896-10.5-45.384-9.4874-72.568 0.84036-22.572 0.7837-23.419-1.7344-25.938-7.2215-7.2215-39.06 1.6027-43.418 12.034-2.2225 5.3193-2.1435 14.601 0.16239 19.06 1.016 1.9648 4.1351 10.515 6.9313 19 2.7962 8.4854 8.7846 23.224 13.308 32.753 6.6998 14.115 8.3435 18.817 8.8701 25.379 0.54248 6.7581 0.96995 7.9249 2.6575 7.2538 1.1061-0.43986 5.2528-1.414 9.215-2.1647 6.0829-1.1526 7.8822-1.0416 11.562 0.71348 2.3972 1.1432 4.3586 2.6134 4.3586 3.2673 0 2.1222 2.5517 7.9666 3.1967 7.3216 0.34471-0.34472-2.185-12.095-5.6216-26.111zm64.037-2.4966c5.5312-2.7721 12.138-8.3129 12.138-10.18 0-2.2113-0.38655-8.953-4.6795-11.644l-8.4833-5.3173-6.4236-0.0361c-1.78-0.01-6.0741 5.1788-7.4491 7.0474-2.1459 2.9162-16.014 10.608-13.262 7.0407l2.8768-3.7289 4.4151-7.7875c2.1649-3.8185 15.792-11.769 18.598-11.129 5.6684 1.2941 9.9495 4.3448 15.812 10.183l5.7796 5.7556 6.9273-9.0958c7.8187-10.266 9.0304-13.869 11.582-34.435 2.8863-23.267 2.7527-24.374-3.4934-28.968-17.148-12.611-28.314-4.7337-33.567 23.682-2.1717 11.747-5.1571 17.244-23.57 43.394-1.7531 2.4898-4.5369 7.5881-4.5369 9.9503 0 7.9761 11.899 17.889 19.212 17.901 1.5743 3e-3 5.2305-1.1822 8.125-2.6328z"/>
</svg>
