<?xml version="1.0" encoding="UTF-8"?>
<svg version="1.1" viewBox="0 0 362.12 521.56" xmlns="http://www.w3.org/2000/svg" xmlns:cc="http://creativecommons.org/ns#" xmlns:dc="http://purl.org/dc/elements/1.1/" xmlns:rdf="http://www.w3.org/1999/02/22-rdf-syntax-ns#">
<metadata>
<rdf:RDF>
<cc:Work rdf:about="">
<dc:format>image/svg+xml</dc:format>
<dc:type rdf:resource="http://purl.org/dc/dcmitype/StillImage"/>
<dc:title>ASL letter</dc:title>
<dc:date>11/11/2013</dc:date>
<dc:creator>
<cc:Agent>
<dc:title>edited by Paul Sherman</dc:title>
</cc:Agent>
</dc:creator>
<dc:rights>
<cc:Agent>
<dc:title>PD</dc:title>
</cc:Agent>
</dc:rights>
<dc:publisher>
<cc:Agent>
<dc:title>WPClipart</dc:title>
</cc:Agent>
</dc:publisher>
<dc:subject>
<rdf:Bag>
<rdf:li>sign</rdf:li>
<rdf:li>language</rdf:li>
<rdf:li>letter</rdf:li>
<rdf:li>american</rdf:li>
</rdf:Bag>
</dc:subject>
<cc:license rdf:resource="http://creativecommons.org/publicdomain/zero/1.0/"/>
</cc:Work>
<cc:License rdf:about="http://creativecommons.org/publicdomain/zero/1.0/">
<cc:permits rdf:resource="http://creativecommons.org/ns#Reproduction"/>
<cc:permits rdf:resource="http://creativecommons.org/ns#Distribution"/>
<cc:permits rdf:resource="http://creativecommons.org/ns#DerivativeWorks"/>
</cc:License>
</rdf:RDF>
</metadata>
<path d="m176.16 509.51c-4.7458-0.67584-6.5264-5.4877-8.5033-22.981-2.4894-22.027-7.6974-49.499-10.07-53.121-1.0464-1.597-5.9409-5.5717-10.877-8.8327-16.783-11.089-34.822-37.603-47.124-69.267l-4.2109-10.838-26.374-17.139c-27.43-17.826-27.31-17.716-37.71-34.227-2.1101-3.3499-4.5694-9.3795-5.4651-13.399-0.89573-4.0197-4.3724-15.721-7.726-26.002-3.3536-10.282-6.0974-19.731-6.0974-21 0-4.2536 3.9379-10.251 11.692-17.807 4.2333-4.125 10.506-11.114 13.94-15.531 5.1728-6.6539 7.9576-8.9046 16.243-13.128 5.5-2.8032 13.938-6.6272 18.75-8.4976 4.8125-1.8705 15.478-6.0138 23.701-9.2075 8.2229-3.1937 18.067-7.4195 21.875-9.3908s16.206-6.1542 27.549-9.2954c19.672-5.4472 47.569-13.609 60.312-17.646 7.0218-2.2241 7.3485-3.7606 3.3556-15.782-2.509-7.5537-9.6684-20.898-11.212-20.898-0.42109 0-5.5054 1.4792-11.298 3.2872-14.272 4.4543-40.606 5.6205-47.383 2.0985-5.8917-3.0618-9.5598-8.9684-10.565-17.012-0.7816-6.2556-0.48489-7.3495 4.501-16.593 2.9358-5.4428 8.6357-14.679 12.666-20.526 4.0307-5.8464 9.1103-13.3 11.288-16.563 5.0706-7.5979 11.469-10.137 32.3-12.817 8.4754-1.0903 18.571-2.8557 22.435-3.9232 10.094-2.7886 19.438-1.7116 35.475 4.0892 13.076 4.7296 14.026 5.3172 19.375 11.977 3.1743 3.9524 6.8925 10.574 8.5344 15.198 1.6002 4.507 5.0124 11.449 7.5828 15.426 2.5704 3.9773 7.5519 15.106 11.07 24.731 12.502 34.203 29.433 80.219 34.954 95 3.0816 8.25 6.4667 17.812 7.5225 21.25 1.0558 3.4375 4.5164 13.562 7.6903 22.5l5.7707 16.25-0.0549 23.125c-0.0582 24.524-1.5543 35.539-10.526 77.5-1.9844 9.2812-5.0689 25.962-6.8544 37.069l-3.2465 20.194 8.0334 23.833c11.664 34.602 13.451 47.654 6.526 47.654-2.056 0-3.3598-1.0414-4.3039-3.4375-6.726-17.071-20.199-53.167-20.199-54.115 0-0.65846-1.1852-1.1972-2.6337-1.1972-1.814 0-2.4124-0.57691-1.9225-1.8535 2.6906-7.0116 16.271-78.778 22.017-116.35l3.6443-23.829-2.9186-18.046c-4.9794-30.787-25.839-95.825-35.121-109.5-4.1509-6.1167-10.917-26.271-16.925-50.418l-5.4434-21.875-11.74-17.5c-6.4568-9.625-12.797-18.431-14.09-19.568-4.456-3.9224-27.203-8.8575-36.948-8.0163-1.9491 0.16824-10.012 0.97997-17.919 1.8038s-17.353 1.802-20.992 2.1737l-6.6173 0.6758-7.7577 10.614c-9.4809 12.972-9.6908 13.484-5.1704 12.62 2.8335-0.54165 4.3605 0.14545 7.6631 3.4481 4.3925 4.3925 5.0137 7.3054 2.6599 12.471-2.1028 4.6152-7.8206 7.6964-20.524 11.06-10.154 2.6884-11.171 3.2352-11.525 6.1972-0.35915 3.0038 0.23964 3.4426 7.9442 5.8223 11.381 3.5152 20.295 3.2359 37.672-1.1807l14.772-3.7544 8.9191-9.1962c4.9055-5.0579 11.515-13.066 14.688-17.795 5.8707-8.7511 7.7109-9.167 3.3764-0.76301-1.3156 2.5507-5.7874 9.3776-9.9374 15.171-4.15 5.7932-7.2998 10.931-6.9995 11.416 1.1201 1.8124 13.924 2.4867 20.588 1.0842 11.076-2.3311 19.779-7.1501 28.296-15.667 8.9081-8.9081 11.637-8.5271 4.8772 0.68102-10.793 14.703-28.899 25.077-43.767 25.077-4.3217 0-5.6644 0.46671-5.6644 1.9688 0 1.0828 3.3965 10.138 7.5478 20.122 4.1513 9.9845 8.335 21.176 9.2972 24.87 1.7342 6.6578 7.4176 14.029 12.245 15.881 1.1878 0.4558 2.1596 1.4089 2.1596 2.118 0 1.887-7.6182 1.4904-11.25-0.58577-3.9927-2.2825-4.4196-2.2768-6.7857 0.0892-1.6034 1.6034-1.9643 1.639-1.9643 0.19379 0-2.5893-4.8128-6.5953-6.2259-5.1822-0.64175 0.64175-2.8283 9.0378-4.8591 18.658-2.0308 9.6201-5.1938 24.497-7.029 33.06-3.1721 14.8-3.2275 15.648-1.1225 17.188 3.9801 2.9103 6.8642 1.7348 15.609-6.3619 8.194-7.5864 16.788-13.025 18.259-11.554 0.3732 0.3732-2.7484 4.2473-6.9368 8.6091-4.1884 4.3618-8.5337 10.128-9.6561 12.815-1.9825 4.7449-1.9619 4.948 0.72377 7.1227 4.9396 3.9998 9.1727 2.752 30.663-9.0394 11.305-6.2028 25.146-12.971 30.758-15.04 11.613-4.2818 30.813-8.8538 31.63-7.5319 0.30009 0.48555-8.5633 4.7494-19.696 9.4753-30.146 12.796-44.332 20.181-55.175 28.718-2.9934 2.3571-2.8655 2.4852 10.845 10.863 12.326 7.5316 52.213 34.837 52.213 35.743 0 0.98002-3.869-0.43817-14.062-5.1547-5.3281-2.4653-9.6875-4.2481-9.6875-3.9618 0 0.28631 6.5575 4.9127 14.572 10.281 13.183 8.83 14.859 10.383 17.577 16.292 1.9194 4.1716 2.8642 8.2176 2.6153 11.199l-0.38982 4.6678-8.6515-10.574c-11.255-13.756-22.797-25.681-27.987-28.917-2.359-1.4706-3.8674-3.2881-3.5074-4.2262 0.64015-1.6682-4.4056-4.8961-22.822-14.6-5.0702-2.6715-12.172-7.0395-15.783-9.7066-19.517-14.418-31.232-20.019-41.784-19.976-5.6068 0.023-5.8271 0.1802-11.652 8.3131-5.9103 8.2517-7.8031 15.363-4.6138 17.334 0.72802 0.44995 4.3843-2.3928 8.125-6.3172 3.7407-3.9244 6.8013-6.7719 6.8013-6.3278 0 2.6958-7.1208 14.072-11.419 18.244-5.3603 5.202-7.8156 11.835-6.4706 17.481 1.1751 4.9325 4.8178 11.569 13.989 25.483 4.6849 7.1082 9.1677 15.392 9.9618 18.408 1.2724 4.8326 2.8167 6.543 13.004 14.402 14.501 11.187 25.291 17.724 30.935 18.74 2.4062 0.43308 5.2023 1.229 6.2134 1.7688 3.4763 1.8556-6.7326 2.6906-14.865 1.2159-4.3218-0.78369-8.1256-1.1571-8.4529-0.8298-0.32729 0.3273 0.40665 2.1239 1.631 3.9925l2.2261 3.3974-3.0637-0.95586c-3.1833-0.99319-10.868-6.5984-13.662-9.9652-1.2906-1.5551-1.9738-1.6341-3.4605-0.40026-1.8869 1.566-3.3557 0.35475-8.5568-7.0561-0.93588-1.3335-1.878-2.1773-2.0936-1.875-0.2156 0.30228-2.5629 4.2058-5.2162 8.6746-6.1008 10.275-8.9114 13.397-14.762 16.397-2.6972 1.3831-4.6828 3.3218-4.6763 4.5658 6e-3 1.1892 1.8897 7.611 4.1857 14.271 4.6519 13.493 11.713 26.203 19.41 34.938l5.108 5.7968-6.9095-2.1378c-6.3345-1.9599-7.3833-2.8441-12.603-10.624-3.1312-4.6676-7.3283-11.939-9.3268-16.159l-3.6337-7.6725 0.75472 8.6829 0.75474 8.6829-3.0889-3.6829c-3.7273-4.444-4.8252-8.9269-5.7969-23.671-0.71913-10.911-0.84773-11.289-4.4202-12.997-2.0238-0.96741-7.5417-2.0353-12.262-2.373l-8.5826-0.61408-5.8629-6.9459c-10.083-11.946-14.798-16.109-18.929-16.715-2.1555-0.31637-4.1394-0.21883-4.4086 0.21676-0.2692 0.43559 7.8 15.389 17.932 33.229l18.421 32.437 10.819 7.1979c9.7074 6.4585 10.9 7.6784 11.613 11.875 0.43666 2.5724 2.94 15.646 5.5631 29.052 8.6756 44.341 9.1303 49.696 4.1598 48.988zm-5.9589-148.29c2.3995-1.7846 2.3986-1.8564-0.0736-6.4612-1.375-2.5611-3.987-5.7516-5.8044-7.09-3.1936-2.3519-3.5213-2.3614-9.7766-0.28371-3.5597 1.1824-6.7758 2.9407-7.1468 3.9074-1.0525 2.7427 5.3787 10.244 9.2906 10.837 7.2367 1.0963 11.17 0.83157 13.511-0.90937zm16.952-9.8688c1.4207-2.7122 2.8226-8.4861 3.2245-13.28 0.68924-8.2212 0.50675-8.9373-5.9447-23.326-7.6478-17.058-13.703-24.37-22.04-26.615l-5.192-1.3981 4.2561-6.3245c6.6286-9.8501 8.3233-16.927 8.9515-37.382 0.45185-14.712 0.0999-20.301-1.8695-29.684-1.8962-9.0337-2.0925-11.836-0.89894-12.826 1.1406-0.94665 2.8935 1.5837 6.9247 9.9963 4.5628 9.522 5.8579 11.264 8.375 11.264 4.6073 0 7.4654-2.0778 10.778-7.8355 4.188-7.2794 12.814-34.536 15.126-47.796 1.8959-10.872 2.5894-26.868 1.1648-26.868-2.7112 0-77.868 25.462-77.399 26.221 0.323 0.52262 2.848 1.3117 5.6111 1.7536 8.5148 1.3616 16.512 10.879 9.0203 10.734-1.1626-0.0224-5.2075-1.1291-8.9887-2.4592-9.1315-3.2122-25.124-3.3711-31.25-0.31056l-4.375 2.1856-0.70503 18.125c-0.65901 16.942 0.1848 52.178 2.0275 84.665 0.76238 13.441 0.99121 14.339 5.362 21.045l4.5656 7.0045 9.375-0.71402c5.1562-0.39272 11.484-1.077 14.062-1.5207 5.487-0.94427 5.9286 0.31619 1.7068 4.8716-2.0782 2.2425-5.2952 3.6716-10.625 4.7202-4.2044 0.82716-7.6443 1.736-7.6443 2.0197 0 0.87597 10.18 14.591 13.477 18.158l3.1195 3.3744 4.7768-2.4369c12.023-6.1339 19.922-1.6223 31.316 17.889l5.1844 8.8769 3.0063-3.6638c1.6535-2.015 4.1374-5.8231 5.5198-8.4622zm-45.151 8.5045c0-1.4212-4.337-7.559-6.7945-9.6157-2.6192-2.1921-6.9594-2.99-6.9508-1.2778 0.0116 2.327 5.2832 9.2583 7.8157 10.276 3.2408 1.303 5.9296 1.5828 5.9296 0.61705zm7.3476-16.71c2.4262-1.5368 0.58936-3.8706-3.0464-3.8706-2.2179 0-3.0512 0.68279-3.0512 2.5 0 2.6464 3.0138 3.3239 6.0976 1.3706zm-26.098-6.8081c0-4.6233-14.352-19.563-18.793-19.563-1.3511 0-3.6418 1.1853-5.0904 2.6339-3.2916 3.2916-2.8791 3.7357 11.384 12.261 11.459 6.8493 12.5 7.2379 12.5 4.6679zm-40-14.563c-3.5683-3.1245-6.8819-4.939-9.0625-4.9627-1.8906-0.0205-3.4375 0.43717-3.4375 1.0171 0 0.91814 15.83 8.9659 17.5 8.8968 0.34375-0.0143-1.9062-2.2423-5-4.9512zm-16.164-12.5c0.6226 0-0.34705-3.2344-2.1548-7.1875-7.2782-15.916-12.965-33.511-19.211-59.439-7.683-31.896-7.1895-31.431-19.131-18.014l-7.5512 8.4837 8.6218 21.516c14.227 35.504 17.956 43.736 21.543 47.559 3.8941 4.1505 12.6 8.585 15.087 7.6848 0.9156-0.3314 2.1741-0.60255 2.7967-0.60255zm32.857-4.6875c-3.7755-11.573-6.7046-43.419-7.6977-83.691-0.529-21.452-1.3551-39.397-1.8357-39.878-0.92642-0.92643-31.44 11.7-38.18 15.799-3.7976 2.3095-3.9792 2.7798-3.9573 10.251 0.04975 17.013 5.6503 45.493 13.954 70.956 6.9145 21.204 12.407 29.29 20.851 30.697 2.5011 0.41675 5.1099 0.9485 5.7974 1.1817 0.6875 0.23316 3.895 0.46835 7.1277 0.52262l5.8777 0.0987-1.937-5.9375zm59.164-233.58c5.3958-4.0286 6.2942-6.2575 4.1026-10.18-1.5241-2.7276-2.9576-3.5035-7.026-3.8032-4.9796-0.36678-5.2568-0.17362-10.765 7.5-3.1094 4.3321-5.3603 8.3608-5.002 8.9527 1.2085 1.9965 15.181 0.15003 18.69-2.4699zm115.97 284.44c-0.45099-0.7297 2.6062-5.0891 6.7937-9.6875 4.1875-4.5984 9.671-11.604 12.186-15.567 2.5145-3.9636 4.787-6.9913 5.05-6.7284s-0.13388 3.2246-0.88183 6.5815c-3.0207 13.557-19.376 31.505-23.147 25.402z"/>
</svg>
