<?xml version="1.0" encoding="UTF-8"?>
<svg version="1.1" viewBox="0 0 367.76 561.5" xmlns="http://www.w3.org/2000/svg" xmlns:cc="http://creativecommons.org/ns#" xmlns:dc="http://purl.org/dc/elements/1.1/" xmlns:rdf="http://www.w3.org/1999/02/22-rdf-syntax-ns#">
<metadata>
<rdf:RDF>
<cc:Work rdf:about="">
<dc:format>image/svg+xml</dc:format>
<dc:type rdf:resource="http://purl.org/dc/dcmitype/StillImage"/>
<dc:title>ASL letter</dc:title>
<dc:date>11/11/2013</dc:date>
<dc:creator>
<cc:Agent>
<dc:title>edited by Paul Sherman</dc:title>
</cc:Agent>
</dc:creator>
<dc:rights>
<cc:Agent>
<dc:title>PD</dc:title>
</cc:Agent>
</dc:rights>
<dc:publisher>
<cc:Agent>
<dc:title>WPClipart</dc:title>
</cc:Agent>
</dc:publisher>
<dc:subject>
<rdf:Bag>
<rdf:li>sign</rdf:li>
<rdf:li>language</rdf:li>
<rdf:li>letter</rdf:li>
<rdf:li>american</rdf:li>
</rdf:Bag>
</dc:subject>
<cc:license rdf:resource="http://creativecommons.org/publicdomain/zero/1.0/"/>
</cc:Work>
<cc:License rdf:about="http://creativecommons.org/publicdomain/zero/1.0/">
<cc:permits rdf:resource="http://creativecommons.org/ns#Reproduction"/>
<cc:permits rdf:resource="http://creativecommons.org/ns#Distribution"/>
<cc:permits rdf:resource="http://creativecommons.org/ns#DerivativeWorks"/>
</cc:License>
</rdf:RDF>
</metadata>
<path d="m236.28 547.94c-0.68369-0.85938-3.6269-10.124-6.5405-20.588-2.9136-10.464-6.22-20.676-7.3475-22.693-1.1275-2.0169-4.9429-6.1115-8.4786-9.0992-13.287-11.227-26.751-28.624-44.011-56.865-4.9445-8.0904-13.114-18.574-22.561-28.952-14.223-15.624-14.843-16.537-15.655-23.035-1.1663-9.3345 3.3582-44.605 6.8633-53.503 1.3654-3.4659 12.824-10.367 19.577-11.79 3.1537-0.6645 4.7426-2.1498 7.2727-6.7985 3.8132-7.0061 19.742-21.876 26.426-24.668 2.8218-1.179 6.5615-1.7012 9.4291-1.3166 4.585 0.61498 5.0007 0.34414 11.793-7.6838 16.319-19.289 17.209-20.081 24.353-21.662 3.68-0.81478 6.8543-1.591 7.0541-1.725 0.19975-0.13395-1.2603-5.2918-3.2445-11.462-3.4948-10.868-24.003-47.996-44.034-79.722-10.617-16.815-12.341-20.789-13.247-30.539l-0.82045-8.8278 4.3771-4.1281c5.2007-4.9049 11.86-7.1299 21.337-7.1299 6.4789 0 7.4009 0.39548 13.842 5.9375 9.7359 8.3767 25.473 25.632 32.75 35.91 3.3969 4.7975 10.014 13.235 14.705 18.75 4.6908 5.515 10.8 13.965 13.575 18.777s6.8625 11.562 9.082 15c2.2195 3.4375 8.9788 18.062 15.021 32.5 6.042 14.438 14.32 34.125 18.396 43.75 14.835 35.033 16.988 41.06 17.866 50.005 0.47216 4.8096 2.8628 23.37 5.3126 41.245 5.4512 39.776 6.1151 63.346 2.2967 81.543l-2.422 11.543 2.8725 17.832c4.499 27.929 4.5678 29.234 1.625 30.808-3.677 1.9679-5.2536-0.62645-7.3066-12.023-4.6496-25.811-5.7303-38.408-5.0147-58.453 0.51468-14.417 0.34641-19.268-0.60278-17.378-1.6967 3.379-17.603 11.154-20.525 10.033-2.0407-0.78308-2.0334-0.9827 0.12275-3.3652 1.2607-1.393 4.4588-3.7505 7.1069-5.2388 8.4951-4.7745 10.253-9.2347 10.749-27.28l0.43263-15.728-6.4745-7.7799c-7.1983-8.6497-9.9369-10.139-18.647-10.139-9.1259 0-23.365-4.1361-46.866-13.613-28.535-11.508-36.784-13.934-50.218-14.771-21.792-1.358-29.727 4.6951-31.352 23.918-0.64899 7.6775-0.4042 9.9492 1.3627 12.646 2.7246 4.1582 3.4052 3.4214 4.5359-4.9108 1.6308-12.018 9.3161-23.555 17.137-25.726 3.7353-1.037 4.7746-0.62257 11.861 4.7296 4.2721 3.2264 8.5375 7.4728 9.4787 9.4364 1.5958 3.3295 1.3627 4.2735-3.4556 13.997-7.1956 14.521-10.192 17.805-16.719 18.321l-5.2597 0.41593 8.75 4.1374c17.56 8.303 29.606 11.53 46.976 12.584 18.36 1.1141 18.16 1.0252 31.115 13.802 9.5617 9.4298 9.3832 10.95-0.59094 5.0336-3.4375-2.039-6.6917-3.717-7.2315-3.7287-1.5696-0.0341 0.94473 3.8758 6.797 10.57 4.5572 5.2126 4.8291 5.7854 1.6845 3.5486-2.0625-1.4671-7.3581-5.8058-11.768-9.6415-12.492-10.866-25.121-15.875-28.811-11.429-2.511 3.0255-4.8221 17.064-3.8453 23.358 1.1645 7.5034 3.1953 10.877 12.237 20.324 7.3573 7.6877 9.786 11.744 6.25 10.439-0.85938-0.31717-4.5235-1.5502-8.1424-2.74-12.223-4.0188-17.795-15.883-17.795-37.891 0-15.419-1.4277-19.059-7.4742-19.059-2.8023 0-4.877 1.5153-9.527 6.9582-3.2695 3.827-7.6692 7.85-9.7772 8.9401-4.5797 2.3682-22.421 2.5869-30.634 0.37542-2.9372-0.7909-5.6104-1.168-5.9404-0.8379-1.8598 1.8598 14.316 23.75 36.229 49.029l17.415 20.09 6.8194 21.652c6.9872 22.185 7.5742 27.543 3.0177 27.543-1.2777 0-2.8825-0.70313-3.5662-1.5625zm-22.037-122.43c0.4229-0.68428-0.74793-1.0218-2.7346-0.78825-1.9108 0.2246-3.6804 1.0378-3.9326 1.807-0.55616 1.6968 5.5671 0.76115 6.6671-1.0187zm-6.6425-2.5013c7.1726-4.6026 8.28-2.9563-9.8232-14.603-14.892-9.5802-26.973-20.107-37.334-32.529-4.6432-5.5669-9.2481-10.122-10.233-10.122-1.1952 0-1.5987-0.93555-1.213-2.8125 0.3179-1.5469 0.91933-7.0312 1.3365-12.188 0.41717-5.1562 1.0494-10.359 1.405-11.562 0.49318-1.6686-0.0879-2.1875-2.4497-2.1875-2.8734 0-3.2035 0.6524-4.5856 9.0625-0.81911 4.9844-2.1894 12.859-3.0451 17.5-1.4008 7.597-0.9104 10.576 1.1835 7.1875 0.4249-0.6875 1.4144-1.25 2.1988-1.25 1.0273 0 1.0067 0.41954-0.0737 1.5-2.1376 2.1376-1.855 3.9037 0.48126 3.0072 1.1704-0.44913 0.40302 1.2324-1.875 4.1086-5.839 7.3723-5.224 9.8141 5.5108 21.88 11.646 13.09 19.31 19.891 26.137 23.196 6.5776 3.1842 11.385 3.2377 17.356 0.19322l4.6392-2.3652v2.9902c0 4.1144 2.832 3.84 10.384-1.0062zm9.5118-12.768c-0.28647-0.28315-3.4737-1.6352-7.0828-3.0047-6.9069-2.6208-7.8146-1.2029-1.1005 1.719 3.6055 1.5691 9.3893 2.4778 8.1833 1.2857zm-3.473-23.235c1.2745-1.7188 2.9344-6.4886 3.6887-10.6 0.75426-4.1111 2.2036-9.0842 3.2208-11.051 1.6651-3.22 1.6383-3.8097-0.26954-5.9178-1.1654-1.2878-4.5897-3.285-7.6095-4.4383-5.1716-1.975-5.6299-1.9706-7.8908 0.0754-5.9817 5.4134-11.756 25.346-9.0573 31.268 0.81098 1.7799 2.6786 3.6816 4.1502 4.226 4.4004 1.6278 11.229-0.1393 13.767-3.5628zm127.82-2.8125c-0.33038-2.2344-2.2141-16.438-4.1861-31.562-3.2808-25.164-4.0117-28.506-8.6032-39.344-2.7598-6.5143-5.6157-12.043-6.3466-12.287-2.4669-0.8223-15.356 7.5623-22.476 14.621-3.8892 3.8558-12.339 13.103-18.777 20.549-11.473 13.269-11.659 13.586-9.3422 15.89 2.9633 2.9474 17.175 6.6711 21.407 5.609 1.743-0.43748 9.1105-6.8125 16.372-14.167l13.203-13.371-4.1398 7.5c-2.2769 4.125-5.5681 9.4038-7.3138 11.731-1.7457 2.3268-2.6657 3.9963-2.0446 3.7099 0.62114-0.28639 2.6786-1.2972 4.5721-2.2462 5.3563-2.6844 5.6072-0.49706 0.53848 4.6938-2.5334 2.5945-4.6063 5.0984-4.6063 5.5642s2.6719 1.6287 5.9375 2.5841c7.1941 2.1048 10.841 0.85189 13.733-4.7174 3.0988-5.9688 3.2932-1.6099 0.2443 5.4775l-2.7332 6.3534 5.6311 6.0201c3.0971 3.311 6.0192 7.2429 6.4936 8.7374 1.3312 4.1944 3.11 3.2122 2.4361-1.3451zm-159.41-25.225c1.3796-3.1188 3.9986-7.6244 5.8201-10.012l3.3118-4.3419-4.3506-31.983 4.6692-7.2856c5.1123-7.977 4.6963-7.9368-7.3119 0.7065-5.0974 3.669-8.9158 7.806-12.257 13.28-4.4689 7.3208-5.4822 11.442-1.943 7.9032 2.0222-2.0222 3.4792-1.8565 3.4792 0.39584 0 1.0312-0.62268 1.875-1.3837 1.875-0.76105 0-1.0677 0.82354-0.68146 1.8301 0.69267 1.8051-3.6463 5.6419-8.2661 7.3095-2.8786 1.0391-4.4112 5.2758-5.4001 14.929-0.79945 7.8031-0.77459 7.884 4.5181 14.701 2.9271 3.7704 7.6319 8.9029 10.455 11.406l5.1331 4.5504 0.84964-9.7965c0.46731-5.3881 1.9784-12.348 3.358-15.467zm42.163 10.867c-1.5292-1.5292-4.492 2.7323-4.4403 6.3866l0.0553 3.9094 2.5351-4.8054c1.3943-2.643 2.2268-5.1138 1.85-5.4906zm30.955-28.766c-2.2364-9.0808-6.9848-21.074-9.8111-24.779-1.727-2.2642-3.14-4.485-3.14-4.935 0-0.45005 2.3154-0.42707 5.1454 0.051l5.1454 0.86932-0.90711-13.886c-0.49893-7.6373-1.2675-16.799-1.7079-20.359-0.85713-6.9281-0.80298-6.8846-11.087-8.9074-4.2609-0.8381-3.9291-1.179-24.592 25.264-1.0946 1.4008-0.61387 1.368 2.3781-0.16195 6.6767-3.4142 11.173-3.8126 14.315-1.2684l2.8512 2.3087-7.7608 2.1577c-10.509 2.9218-19.156 7.4757-25.769 13.571-5.1802 4.7749-5.5064 5.4667-5.4162 11.484 0.0529 3.5218 0.76843 8.6335 1.5902 11.359l1.4941 4.956 19.972 0.17021c16.257 0.13854 21.484 0.64359 28.097 2.7148 10.606 3.3216 10.176 3.35 9.2011-0.60952zm22.144-10c5.8673-6.0156 13.143-13.722 16.168-17.126 3.0254-3.4036 6.4222-6.2562 7.5485-6.3392 2.4081-0.1774 17.353-11.42 18.234-13.717 0.47361-1.2342-2.2657-8.974-7.6006-21.475-0.0516-0.121-3.1824 0.81113-6.9572 2.0714-3.7748 1.2603-13.488 2.8865-21.584 3.6138-9.6443 0.86631-16.71 2.2024-20.49 3.8742l-5.769 2.5519 0.86373 14.054c1.0349 16.839 1.9659 23.429 3.31 23.429 0.5497 0 2.5025-3.1771 4.3395-7.0602 2.1859-4.6207 3.6736-6.5204 4.3055-5.498 1.2927 2.0916-0.23919 8.4266-4.4114 18.243-2.8765 6.7682-3.2081 8.6044-2.0232 11.205 0.77938 1.7106 1.8627 3.1101 2.4074 3.1101s5.7908-4.9219 11.658-10.938zm-10.26-58.38c4.1649-1.5425 9.204-1.9511 21.25-1.7231 10.72 0.20288 16.693-0.19808 18.602-1.2488 2.7209-1.4979 2.7485-1.6967 0.85863-6.1918-1.0739-2.5543-5.336-12.8-9.4714-22.769s-8.922-20.545-10.637-23.503l-3.1182-5.3777-3.9716 2.6672c-4.8966 3.2884-31.405 16.213-33.252 16.213-2.2762 0-1.5368 3.9192 3.6557 19.375 2.8299 8.4235 5 17.277 5 20.4 0 6.1972 0.11713 6.2201 11.085 2.1583zm-10.926-53.395c4.556-1.3406 11.287-4.3725 14.958-6.7375 3.6709-2.365 7.1151-4.3 7.654-4.3 2.1867 0 0.54125-3.0609-8.7078-16.198-5.3281-7.5681-10.556-13.769-11.617-13.781-6.2458-0.0673-30.989 9.0222-36.046 13.242-0.59321 0.49493 14.469 26.574 17.055 29.53 2.075 2.3717 3.0167 2.2728 16.704-1.7548zm-13.596-39.976c8.0781-2.1355 14.688-4.2857 14.688-4.7784 0-2.6554-20.126-27.299-30.785-37.695-13.519-13.186-16.883-14.763-25.796-12.092-3.7872 1.1347-5.4147 2.4812-6.6911 5.5362-3.2367 7.7465-1.2474 12.69 18.402 45.73 2.3346 3.9255 5.0884 7.3957 6.1197 7.7114 2.7261 0.83464 7.5867-0.0566 24.062-4.412zm24.169 221.5c1.8427-2.7845 3.5901-5.0627 3.883-5.0627 0.29298 0 0.18503 0.5625-0.23987 1.25-1.7333 2.8045 3.1348 1.0069 5.5343-2.0436 1.4249-1.8115 2.5907-2.6985 2.5907-1.9712 0 1.9082-7.1372 8.7629-11.442 10.989l-3.6766 1.9012 3.3504-5.0628zm5.7365-18.5c-0.23585-3.0374-2.1172-3.7862-3.1405-1.25-0.34676 0.85937-0.67489-1.7477-0.72916-5.7936l-0.0987-7.3561 2.573 3.271c1.9308 2.4546 2.4533 4.6026 2.0934 8.6061-0.26377 2.9343-0.57786 4.0694-0.69797 2.5226zm6.2189-1.7728c-0.103-1.8344-0.51101-4.3656-0.90668-5.625-0.67997-2.1643-0.64137-2.1682 0.70497-0.0704 0.78337 1.2207 1.1914 3.7519 0.90666 5.625l-0.51766 3.4056-0.18729-3.3353zm-151.54-243.23c-0.0558-1.2031-0.1964-4.4375-0.3125-7.1875l-0.2111-5-38.125-0.94906c-20.969-0.52198-46.751-1.2866-57.294-1.6991l-19.169-0.75007 39.794-20.583c43.698-22.602 55.134-28.929 69.169-38.274 13.066-8.6989 29.864-21.303 29.938-22.463 0.15743-2.4608-8.813-3.1074-53.688-3.87-26.469-0.44976-55.819-1.1738-65.222-1.6089-16.985-0.78595-17.086-0.80848-15.455-3.4219 0.90321-1.4469 2.8772-6.4276 4.3867-11.068 1.5094-4.6406 3.1086-8.4375 3.5538-8.4375s24.446 3.3481 53.336 7.4402c57.747 8.1798 74.737 10.005 94.401 10.143 19.647 0.13791 20.01 0.58969 7.5449 9.3972-11.678 8.2515-48.359 32.42-73.17 48.209-15.252 9.7064-26.875 18.847-26.875 21.135 0 0.55361 0.98438 1.3099 2.1875 1.6807 2.0977 0.64649 25.026 3.585 38.75 4.9661l6.5625 0.66043v-9.3161c0-5.1496 0.53927-9.3161 1.2058-9.3161 0.66317 0 6.4288 3.0013 12.813 6.6696s16.56 9.3558 22.614 12.639c6.0538 3.2832 10.818 6.158 10.588 6.3884-0.7631 0.7631-44.6 16.803-45.923 16.803-0.71334 0-1.3426-0.98438-1.3984-2.1875z"/>
</svg>
