<?xml version="1.0" encoding="UTF-8"?>
<svg version="1.1" viewBox="0 0 383.6 485.71" xmlns="http://www.w3.org/2000/svg" xmlns:cc="http://creativecommons.org/ns#" xmlns:dc="http://purl.org/dc/elements/1.1/" xmlns:rdf="http://www.w3.org/1999/02/22-rdf-syntax-ns#">
<metadata>
<rdf:RDF>
<cc:Work rdf:about="">
<dc:format>image/svg+xml</dc:format>
<dc:type rdf:resource="http://purl.org/dc/dcmitype/StillImage"/>
<dc:title>ASL letter</dc:title>
<dc:date>11/11/2013</dc:date>
<dc:creator>
<cc:Agent>
<dc:title>edited by Paul Sherman</dc:title>
</cc:Agent>
</dc:creator>
<dc:rights>
<cc:Agent>
<dc:title>PD</dc:title>
</cc:Agent>
</dc:rights>
<dc:publisher>
<cc:Agent>
<dc:title>WPClipart</dc:title>
</cc:Agent>
</dc:publisher>
<dc:subject>
<rdf:Bag>
<rdf:li>sign</rdf:li>
<rdf:li>language</rdf:li>
<rdf:li>letter</rdf:li>
<rdf:li>american</rdf:li>
</rdf:Bag>
</dc:subject>
<cc:license rdf:resource="http://creativecommons.org/publicdomain/zero/1.0/"/>
</cc:Work>
<cc:License rdf:about="http://creativecommons.org/publicdomain/zero/1.0/">
<cc:permits rdf:resource="http://creativecommons.org/ns#Reproduction"/>
<cc:permits rdf:resource="http://creativecommons.org/ns#Distribution"/>
<cc:permits rdf:resource="http://creativecommons.org/ns#DerivativeWorks"/>
</cc:License>
</rdf:RDF>
</metadata>
<path d="m21.555 470.69c-9.2944-5.8866-10.246-8.1192-9.2335-21.653 0.47367-6.3285 4.6459-37.944 9.2717-70.256 5.7476-40.149 8.1443-60.333 7.5698-63.75-0.61155-3.6372-0.32482-5.581 1.052-7.1316 1.3224-1.4893 4.3566-19.524 10.07-59.856 7.9307-55.98 8.1263-57.974 6.4717-65.993-0.93835-4.5482-1.6673-12.895-1.6199-18.548 0.0777-9.2676 0.43416-10.743 3.623-15 10.447-13.945 40.152-41.438 63.264-58.552 5.0449-3.7358 10.298-7.6278 11.673-8.649s8.6875-6.4326 16.25-12.026c7.5625-5.5929 15.438-11.731 17.5-13.64 11.347-10.504 20.554-16.029 33.35-20.013 19.785-6.1606 33.513-10.47 55.914-17.555 19.598-6.198 20.981-6.4587 30.957-5.8364 5.7432 0.35831 11.137 1.2107 11.986 1.8943s3.5121 1.6539 5.9183 2.1565 5.1381 1.5299 6.0708 2.283c2.1334 1.7227 6.2188 4.1066 9.8667 5.7573 1.5469 0.7 2.8125 1.8492 2.8125 2.5537s1.0125 1.2809 2.25 1.2809 2.8483 0.59827 3.5795 1.3295c0.73122 0.73122 6.5454 3.7892 12.92 6.7955s12.189 6.0643 12.92 6.7955c0.73123 0.73122 2.1571 1.3295 3.1686 1.3295 1.0115 0 2.7271 0.73821 3.8125 1.6405 1.0854 0.90226 4.5047 2.6938 7.5984 3.9813 7.8568 3.2696 11.445 6.7248 10.994 10.587-0.3367 2.8863-0.81136 3.1272-5.3694 2.7249-3.0056-0.26525-6.968-1.8857-9.9338-4.0625-2.7136-1.9917-5.9464-3.6212-7.1842-3.6212-3.977 0-25.083-10.826-39.565-20.294-1.8246-1.1929-4.4425-2.7492-5.8175-3.4584-1.375-0.70921-4.9791-2.6863-8.0091-4.3936-5.3425-3.0102-10.116-4.0475-10.116-2.1983 0 0.49816 2.0665 2.7442 4.5922 4.9912 2.5257 2.247 4.2166 4.461 3.7577 4.9199-0.45896 0.45897-1.8666-0.09956-3.1281-1.2412-1.2615-1.1416-2.8118-2.0854-3.4452-2.0973-0.63336-0.01187-2.4762-1.4181-4.0953-3.125-1.619-1.7069-3.5073-3.1034-4.1962-3.1034-0.68889 0-0.9403-0.81366-0.55869-1.8081 0.5136-1.3384-0.67796-2.0139-4.5868-2.6-4.5405-0.6809-11.583 1.2556-50.248 13.817l-44.967 14.609-10.625 8.9961c-5.8438 4.9478-24.284 20.38-40.979 34.294-16.694 13.914-30.091 25.723-29.77 26.243 0.32099 0.51937 0.19887 1.4945-0.2714 2.1669-1.1028 1.5769-10.995 9.283-11.917 9.283-1.3202 0-10.182 6.4273-14.985 10.868-6.6777 6.1742-9.5704 13.562-9.612 24.548-0.04549 12.032-2.6046 35.61-6.1957 57.084-0.74732 4.4688-1.8783 11.219-2.5132 15-3.8608 22.992-9.9866 62.198-9.9961 63.976-0.0065 1.2278 1.1521 2.2665 2.7886 2.5 3.5125 0.50113 4.3271 4.2337 1.5852 7.2635-1.5049 1.6629-1.756 2.9399-0.90348 4.5945 1.454 2.8218 0.64833 5.4165-1.6818 5.4165-3.8846 0-5.5632 6.3525-9.918 37.533-2.446 17.513-5.2762 37.757-6.2894 44.985-2.1477 15.323-2.3273 25.06-0.57846 31.356 1.0694 3.8499 0.72347 5.7755-2.3972 13.343-3.3751 8.1848-3.4921 8.9788-1.5693 10.653 4.3799 3.8129 6.9594 4.4667 10.97 2.7806 6.9909-2.9394 16.083-21.024 20.081-39.944 3.2609-15.43 3.5792-20.906 1.4166-24.369-1.2325-1.9735-0.94653-3.1942 1.6797-7.1705 4.1565-6.2932 5.3207-10.082 9.7302-31.667 3.6487-17.861 3.6671-18.15 1.2641-19.84-1.6044-1.1283-2.4386-3.1701-2.4386-5.9688 0-3.6251 0.50807-4.3648 3.4375-5.0049 5.3674-1.1728 9.9994-7.685 11.496-16.163 0.71849-4.0692 1.8744-9.9299 2.5688-13.024 0.69436-3.0938 1.7646-8.1562 2.3784-11.25 0.61374-3.0938 2.1067-10.315 3.3176-16.048 2.1807-10.324 1.8821-16.089-1.4186-27.389-0.65428-2.24-0.32238-2.8125 1.6306-2.8125 1.3486 0 3.4702 1.125 4.7145 2.5s3.0846 2.5 4.0895 2.5c1.3135 0 1.5879 0.79057 0.97624 2.8125-1.8236 6.0283-1.5301 6.5469 3.9297 6.9436 4.8223 0.35035 5.7777-0.13192 11.843-5.978l6.5974-6.3591-18.061-17.812-0.1481-8.8659c-0.18741-11.219-0.0405-12.219 2.1214-14.446 2.9328-3.0214 5.6587 1.0905 7.5741 11.425 1.3667 7.3743 2.3994 9.7629 5.3092 12.28 18.863 16.318 18.893 16.339 18.893 13.163 0-1.8039-1.9884-5.7239-7.3108-14.413-5.3823-8.7869-2.8424-10.03 3.5608-1.7432 2.4062 3.1142 5.2797 6.1638 6.3854 6.7769 1.744 0.96703 1.8972 0.50045 1.1564-3.522-0.46972-2.5502-1.515-5.8653-2.3229-7.367-1.6533-3.0732-2.0155-10.88-0.46013-9.9188 0.55481 0.34289 3.3673 4.5776 6.25 9.4106 4.5739 7.6683 5.2343 9.7071 5.1868 16.013-0.0299 3.9741-0.5992 9.757-1.265 12.851-0.66583 3.0938-1.7596 8.7188-2.4305 12.5-1.5847 8.9305-3.0208 15.15-5.6287 24.375-1.1661 4.125-3.228 11.719-4.5821 16.875s-2.938 11.062-3.5199 13.125c-5.6433 20.004-6.5646 23.825-10.094 41.875-2.8876 14.766-3.7629 29.708-2.4206 41.32 1.3211 11.429 3.2021 18.68 4.846 18.68 0.43847 0 1.8292-4.5915 3.0906-10.203 2.8475-12.669 5.2884-17.908 9.1663-19.675 6.8366-3.115 16.892-0.57691 20.37 5.1413l2.2417 3.6862 2.0156-2.8777c1.1086-1.5827 2.0156-4.1429 2.0156-5.6893 0-2.7959 7.2852-31.793 8.2323-32.767 0.2728-0.2805-0.1305-1.2649-0.89621-2.1875-0.91888-1.1072-4.3288-1.6775-10.029-1.6775-8.5596 0-17.307-2.4635-17.307-4.8741 0-0.68843 0.9578-1.7877 2.1284-2.4428 1.7654-0.98799 1.8544-1.5213 0.52173-3.1271-2.7964-3.3695-0.17913-7.939 4.0919-7.1441 0.61442 0.11437 2.7238-0.14499 4.6875-0.57629 4.397-0.96574 4.8005-4.3356 0.51917-4.3356-3.7361 0-5.393-2.2162-2.4898-3.3302 2.4622-0.94485 9.799 2.5782 14.267 6.851 2.8704 2.7449 2.9416 3.0822 0.95694 4.5334-2.8058 2.0516-1.5076 3.1957 3.6264 3.1957 3.5046 0 4.2582-0.52955 4.8916-3.4375 2.4064-11.048 5.9684-19.679 17.078-41.377l12.385-24.19-3.3272-4.8012c-2.1972-3.1705-4.4538-4.9315-6.6442-5.185-2.1948-0.25402-3.2638-1.0905-3.1598-2.4726 0.0946-1.2574-0.50339-1.8352-1.5026-1.4517-0.91289 0.35032-2.3344 0.21997-3.159-0.28965-1.0887-0.67283-0.8899-1.3721 0.72588-2.5536 1.3964-1.021 1.976-2.5795 1.5564-4.1842-0.36778-1.4064-0.15887-2.5572 0.46427-2.5572 0.62313 0 1.133 0.4969 1.133 1.1042 0 0.60732 0.98438 1.4347 2.1875 1.8387 2.5857 0.8682 5.185 2.5116 12.645 7.9946 7.5258 5.5315 10.431 5.2902 15.048-1.25 2.0629-2.9219 5.5285-7.2812 7.7014-9.6875 8.5566-9.4759 15.186-21.663 19.719-36.25 2.7611-8.8857 3.4504-11.509 8.3737-31.875 3.4585-14.306 5.2402-20.76 6.9018-25 0.53883-1.375 1.9779-5.3125 3.198-8.75 2.5645-7.2256 6.0906-13.99 9.0402-17.342 3.0682-3.4871 22.517-2.2572 29.605 1.8721 2.7257 1.5881 5.1434 3.3279 5.3726 3.8662 0.22918 0.5383 1.0729 0.99055 1.875 1.005 0.80209 0.0145 4.5848 2.9676 8.4061 6.5625 3.8213 3.5949 9.9516 9.0675 13.623 12.161 9.2304 7.7784 10.032 8.6321 14.029 14.932 4.2184 6.6499 4.2614 7.3391 0.91494 14.685l-2.6104 5.7301-2.9001-2.9862c-1.5951-1.6424-4.08-5.2362-5.522-7.9862-3.4813-6.639-11.392-16.596-21.418-26.957-6.4607-6.6768-9.2273-8.6494-13.125-9.3579-2.7163-0.49377-7.0257-1.9467-9.5764-3.2288-5.9766-3.0039-11.601-2.967-14.665 0.0964-3.3954 3.3954-7.7933 18.251-6.8661 23.193 0.57865 3.0844 7.1817 10.409 29.395 32.606 15.757 15.746 28.649 29.27 28.649 30.055 0 1.9192-4.9167 3.1012-7.3896 1.7766-1.092-0.58497-6.2596-5.7592-11.484-11.498-17.389-19.104-29.179-30.521-36.339-35.189-11.056-7.2089-10.068-8.3593-14.81 17.254-4.4326 23.946-4.6099 24.419-13.814 36.875-4.8262 6.5312-10.708 14.406-13.07 17.5-15.918 20.844-27.406 37.241-33.28 47.5-6.5466 11.433-14.586 29.629-17.122 38.75-0.66888 2.4062-1.7847 6.3438-2.4796 8.75-0.69493 2.4062-1.6601 7.4574-2.1448 11.225-0.48473 3.7674-1.7011 9.1111-2.703 11.875-2.6069 7.191-4.7656 15.88-7.1486 28.775-8.623 46.66-10.028 49.375-25.558 49.375-8.576 0-16.016-3.1436-20.286-8.5713-10.881-13.831-13.666-44.368-7.852-86.077l0.73514-5.2735-14.659 0.7856c-14.302 0.76645-14.712 0.71501-16.843-2.1091-5.0232-6.6593-6.1972-2.8477-19.443 63.121-3.1749 15.812-6.9057 31-8.2907 33.75-10.943 21.729-13.753 25.814-19.425 28.245-9.1707 3.931-10.53 3.9241-16.862-0.0858zm120.89-33.784c0.4249-0.6875-0.38565-1.25-1.8012-1.25-1.4156 0-2.5738 0.5625-2.5738 1.25s0.81055 1.25 1.8012 1.25c0.99068 0 2.1489-0.5625 2.5738-1.25zm8.1121-8.3162c3.6243-2.1409 4.9707-6.3144 4.9991-15.496 0.0154-4.9703-1.7888-7.4375-5.4389-7.4375-1.349 0-4.9762-1.4789-8.0604-3.2864l-5.6077-3.2864-2.0369 2.7004c-1.1203 1.4852-2.7351 6.3808-3.5884 10.879-2.1796 11.49-0.69745 14.326 8.5005 16.264 3.7789 0.79657 7.0651 1.5114 7.3028 1.5886 0.23767 0.0771 2.0062-0.78953 3.93-1.926zm0.44861-30.128c1.0302-1.6668-3.8722-6.5562-6.5736-6.5562-3.0886 0-3.4129 2.7707-0.64785 5.5357 2.0535 2.0535 6.2192 2.6422 7.2214 1.0205zm-38.871-63.289c9.6196-5.1757 8.3338-1.621 18.589-51.392 0.70831-3.4375 1.8072-7.9774 2.442-10.089 1.4911-4.9597 1.4756-10.19-0.0331-11.122-1.7234-1.0651-2.8786 1.7973-8.2522 20.448-4.311 14.962-5.2257 16.983-8.6288 19.058-2.0936 1.2768-4.2285 2.3235-4.7441 2.326-1.7774 9e-3 -0.92432-4.7159 3.387-18.758 6.8316-22.251 7.0898-28.068 1.0918-24.598-1.413 0.81745-5.6003 3.1008-9.3052 5.0741-3.7049 1.9733-6.9161 3.7471-7.1361 3.9416-0.43232 0.38238-3.8278 14.133-6.4748 26.22-0.9033 4.125-2.9604 12.71-4.5713 19.078-3.4925 13.806-3.5687 15.703-0.81749 20.361 3.6575 6.1917 12.288 5.9989 24.453-0.54623zm-10.731-22.851c-1.6615-1.6615-0.87324-7.9167 0.99768-7.9167 2.0074 0 4.419 3.707 4.419 6.7928 0 1.9384-3.8113 2.7292-5.4167 1.1238zm64.167 22.083c0-0.6875-1.4062-1.25-3.125-1.25s-3.125 0.5625-3.125 1.25 1.4062 1.25 3.125 1.25 3.125-0.5625 3.125-1.25zm-36.25-83.125c0-1.0312-0.5293-1.875-1.1762-1.875-1.5762 0-2.7051 1.952-1.7065 2.9506 1.4077 1.4077 2.8827 0.85736 2.8827-1.0756zm111.25-81.102c0-2.4062 0.50309-4.6859 1.118-5.0659 0.61488-0.38001 1.4011-2.8038 1.7472-5.3863 2.024-15.103 13.652-41.446 22.854-51.775 4.9539-5.5606 6.288-4.9507 2.7606 1.262-5.1476 9.0663-8.3167 15.963-10.965 23.862-1.4833 4.4241-3.7974 9.4428-5.1424 11.153-3.3685 4.2824-7.3721 13.63-7.3721 17.212 0 1.6314-0.5625 2.9661-1.25 2.9661s-1.25 1.9356-1.25 4.3012c0 2.3657-0.5625 4.6489-1.25 5.0738-0.74239 0.45883-1.25-1.0041-1.25-3.6025z"/>
</svg>
