<?xml version="1.0" encoding="UTF-8"?>
<svg version="1.1" viewBox="0 0 244 495.46" xmlns="http://www.w3.org/2000/svg" xmlns:cc="http://creativecommons.org/ns#" xmlns:dc="http://purl.org/dc/elements/1.1/" xmlns:rdf="http://www.w3.org/1999/02/22-rdf-syntax-ns#">
<metadata>
<rdf:RDF>
<cc:Work rdf:about="">
<dc:format>image/svg+xml</dc:format>
<dc:type rdf:resource="http://purl.org/dc/dcmitype/StillImage"/>
<dc:title>ASL letter</dc:title>
<dc:date>11/11/2013</dc:date>
<dc:creator>
<cc:Agent>
<dc:title>edited by Paul Sherman</dc:title>
</cc:Agent>
</dc:creator>
<dc:rights>
<cc:Agent>
<dc:title>PD</dc:title>
</cc:Agent>
</dc:rights>
<dc:publisher>
<cc:Agent>
<dc:title>WPClipart</dc:title>
</cc:Agent>
</dc:publisher>
<dc:subject>
<rdf:Bag>
<rdf:li>sign</rdf:li>
<rdf:li>language</rdf:li>
<rdf:li>letter</rdf:li>
<rdf:li>american</rdf:li>
</rdf:Bag>
</dc:subject>
<cc:license rdf:resource="http://creativecommons.org/publicdomain/zero/1.0/"/>
</cc:Work>
<cc:License rdf:about="http://creativecommons.org/publicdomain/zero/1.0/">
<cc:permits rdf:resource="http://creativecommons.org/ns#Reproduction"/>
<cc:permits rdf:resource="http://creativecommons.org/ns#Distribution"/>
<cc:permits rdf:resource="http://creativecommons.org/ns#DerivativeWorks"/>
</cc:License>
</rdf:RDF>
</metadata>
<path d="m40.786 482.51c-1.3345-0.98206-3.4107-1.7856-4.6137-1.7856-3.2605 0-3.7638-1.7601-1.8385-6.4297 1.0698-2.5946 2.0663-12.065 2.6116-24.82 0.48502-11.344 1.6272-25.688 2.5383-31.875l1.6564-11.25c-3.9909-9.4541-8.5998-17.873-8.5998-17.873-1.0579-11.657-1.5686-6.4942-6.8173-23.414-3.119-10.055-7.7287-22.787-10.636-36.531-1.5363-7.264-4.0832-23.384-2.6785-33.334 2.1923-15.528 0.0296-11.158 1.0816-18.701 1.4897-10.681 3.1495-30.378 7.1356-39.52 3.5202-8.0737 3.5381-8.2476 2.8358-27.547-0.66161-18.181-0.51732-19.978 2.2586-28.125 2.7844-8.1723 2.8804-9.3913 1.574-19.982-1.1729-9.5081-1.0434-13.53 0.82495-25.625 1.2189-7.8906 2.4369-18.565 2.7066-23.722 1.0624-20.314 4.8156-27.686 15.894-31.222 4.8585-1.5505 13.383-1.2716 17.578 0.57531 2.2327 0.98285 2.2962 0.41093 1.4289-12.867-0.82821-12.678-0.67555-14.375 1.7426-19.37 3.0237-6.2462 10.046-12.37 18.446-16.085 7.1266-3.1524 20.123-2.8194 23.916 0.61271 2.3053 2.0863 2.5238 1.8797 6.4543-6.1045 5.5719-11.318 12.048-15.551 23.733-15.512 24.088 0.08071 31.987 15.801 27.415 54.564-1.1642 9.8718-1.0609 14.05 0.60824 24.588 1.106 6.9824 2.3425 16.475 2.7479 21.094 0.82715 9.4246-0.41972 8.5599 14.84 10.292 11.02 1.2506 14.606 5.6497 16.191 19.859 0.44767 4.015 2.2759 13.296 4.0627 20.625 2.7242 11.173 3.2246 15.975 3.0995 29.734-0.0971 10.682-0.77364 18.179-1.9382 21.48-1.5706 4.4516-1.5604 5.2602 0.0838 6.6248 4.8654 4.0379 5.8389 8.6244 5.0713 23.891l-0.74012 14.72 7.4759 7.8079c16.374 17.101 16.885 25.102 4.1414 64.834-4.2332 13.198-4.3496 13.385-22.373 35.99l-18.118 22.723-0.0421 7.7605c-0.0903 16.647-2.3459 32.751-6.1535 43.932-4.4809 13.159-4.5527 14.387-1.3808 23.606 1.333 3.8743 1.9833 7.3162 1.4453 7.6488-0.53807 0.33253-3.0487 0.26863-5.5792-0.14202-8.7376-1.4179-13.944-12.762-9.0958-19.819 0.93155-1.3561 2.9003-5.7211 4.375-9.7 2.2286-6.0129 2.6813-9.9533 2.6813-23.337v-16.102l-4.6875 1.2944c-2.5781 0.71194-10.974 1.0539-18.658 0.75982-13.015-0.49805-10.289-0.84557-18.861-5.0819-12.029-5.9453-24.363-18.465-30.054-30.507-3.6622-7.7499-4.0371-7.0555-4.0454-17.83-0.0112-15.249 6.9491-24.061 17.79-34.251 13.178-12.386 23.277-14.002 39.898-12.944 7.9756 0.50784 7.4941-4.7651 6.8203-7.2025-4.262-15.418-3.6034-29.142 2.3918-49.841 2.5194-8.6985 2.6831-10.407 1.2119-12.653-2.9042-4.4324-8.8913-19.877-11.241-28.998-2.119-8.2257-2.1275-9.1661-0.15429-17.022 1.4299-5.6926 2.0886-13.557 2.0886-24.937 0-13.368 0.51983-18.334 2.6553-25.368 1.4604-4.8103 3.5543-12.832 4.6531-17.826 1.8868-8.5752 1.8636-9.6863-0.41826-20-3.1264-14.131-3.7545-29.01-1.8962-44.923 1.1636-9.965 1.1566-13.791-0.0321-17.5-3.2443-10.123-12.34-17.865-19.02-16.188-4.3545 1.0929-11.919 11.368-14.235 19.336-1.7197 5.9157-1.7693 8.845-0.39786 23.494l1.5668 16.736h4.723c4.5941 0 14.492 3.7703 13.226 5.8186-0.34161 0.55274-8.2624 0.51316-11.28 0.96567l-5.4865 0.82275-0.69572 6.509c-0.38264 3.58-1.3097 18.04-2.0601 32.134-0.75042 14.094-2.2528 30.459-3.3386 36.366-1.8925 10.297-1.8621 11.332 0.73257 25 1.4887 7.8422 3.0018 15.473 3.3624 16.957 0.51647 2.126-0.71753 3.7843-5.8136 7.8125-3.5581 2.8125-6.9812 5.1136-7.607 5.1136-1.7886 0-1.331-4.1679 0.7902-7.1963 1.7514-2.5005 1.7004-3.7105-0.55712-13.216-4.1572-17.504-4.311-21.499-1.5241-39.613 1.4259-9.2675 3.1924-29.848 3.9257-45.735 1.234-26.736 1.1433-30.163-1.2196-46.062-1.404-9.4474-2.5528-17.692-2.5528-18.321 0-0.62923-1.8281-2.2587-4.0625-3.621-4.9286-3.005-14.505-3.2915-19.728-0.59014-6.0009 3.1032-7.206 7.0864-7.667 25.341l-0.41709 16.516 4.375 0.0174c2.4062 0.01 5.2188 0.58138 6.25 1.2707 1.5857 1.06 1.3438 1.7235-1.5674 4.3002-1.8933 1.6757-5.4929 3.4314-7.999 3.9016l-4.5566 0.85482 0.80695 17.638c0.44381 9.7011 0.809 22.842 0.81151 29.201l5e-3 11.562h5c3.2768 0 13.621-0.30037 13.621 0.76772 0 1.983-16.3 10.482-18.294 10.482-2.8605 0-2.9493 2.7585-0.45337 14.082 1.3995 6.3489 2.719 17.197 2.9323 24.107l0.38775 12.564-4.8474 3.686c-6.6119 5.0278-14.736 9.3722-16.03 8.5724-2.2824-1.4106-0.85858-4.8372 3.7981-9.1408 4.7274-4.3691 4.8895-4.7998 5.7634-15.319 0.74398-8.9557 0.49779-11.976-1.4267-17.5-2.0813-5.9747-2.2858-10.097-1.9444-39.217 0.33841-28.867-0.82346-50.396-3.0302-56.146-1.001-2.6084-4.7799-3.5257-10.526-2.5549-4.6854 0.7916-5.0398 1.173-6.771 7.2885-1.0048 3.5492-2.4456 12.264-3.2018 19.365-0.75623 7.1017-2.131 19.034-3.0551 26.516-1.873 15.166-1.0356 22.083 3.0001 24.779 2.551 1.7047 8.5846 0.85187 5.5688 4.4359-4.9551 5.8889-12.134 15.16-10.863 36.356 0.87556 14.611 0.76469 19.638-0.50219 22.772-2.3361 5.7797-2.0714 6.6026 2.1242 6.6026 5.0222 0 4.9489 3.2095-0.13689 5.9956-8.7622 4.8002-9.3991 7.0795-11.243 23.686-1.7837 16.06-2.8772 7.6989-1.3734 29.418 2.1634 31.246 4.5405 35.818 6.9085 44.047 3.6958 12.843 4.0366 18.466 9.6841 32.701 5.9736 15.058 5.9997 19.108 14.61 28.135 5.8974 6.1828 6.9365 8.011 7.4806 13.161l0.63191 5.9812-4.4152-4.1959c-4.0938-3.8905-4.5055-4.027-5.6559-1.875-3.1781 5.9448-5.2834 17.754-6.5424 36.696-0.75391 11.344-1.7537 22.975-2.2217 25.848-0.7991 4.9048-0.9988 5.1143-3.2774 3.4375zm117.95-88.119c8.7635-2.02 17.022-10.402 39.387-39.979 14.261-18.859 19-28.94 22.744-48.378 3.3152-17.213 2.3851-20.668-4.7694-17.717-2.2726 0.93735-6.6071 3.9717-9.6322 6.743l-5.5001 5.0387 0.89637-5c1.4933-8.3299 4.6543-13.454 9.2222-14.951l4.1184-1.3492-3.9073-3.7249c-2.149-2.0487-4.8267-5.2718-5.9504-7.1624-1.1766-1.9797-3.1215-3.4259-4.5861-3.41-4.4534 0.0481-12.434 4.432-16.501 9.0641-3.6283 4.1324-4.0812 4.3193-5.776 2.3837-3.2335-3.6928-5.8905-9.9846-5.8905-13.949 0-5.3935 6.4733-17.616 11.813-22.304 5.1242-4.4991 9.1796-5.8363 14.483-4.7756 4.1984 0.83968 4.9821-1.0759 1.5165-3.7066-2.8844-2.1895-9.598-2.1782-13.812 0.0234-11.903 6.2184-21.879 28.614-22.042 49.487-0.0986 12.588 2.7552 19.911 12.307 31.578 4.4123 5.3894 5.798 8.0622 5.5032 10.614-0.6146 5.3208-4.248 5.012-9.8088-0.8336-2.673-2.81-5.6369-5.109-6.5864-5.109-2.0737 0-8.3737 11.143-8.3737 14.81 0 1.4284 1.125 5.4512 2.5 8.9396 2.5557 6.484 3.3611 15 1.4186 15-2.736 0-7.5589-5.5209-11.353-12.996-5.2089-10.262-4.9036-14.233 2.2068-28.706 0.29094-0.59218-3.8982-0.85851-9.3091-0.59185-8.0942 0.39889-11.355 1.2402-18.399 4.7464-9.6242 4.791-19.914 13.431-22.921 19.245-2.3463 4.5373-2.488 17.535-0.26603 24.403 5.4799 16.938 17.19 29.581 30.288 32.7 5.8564 1.3949 20.666 1.3211 26.98-0.13442zm36.943-134.9c2.9831-1.1342 3.2007-1.6686 2.4196-5.9425-1.1293-6.1794-2.7093-10.321-3.9372-10.321-0.54492 0-3.03 1.3857-5.5223 3.0792-5.0894 3.4584-10.263 12.821-9.0813 16.435 0.42479 1.2987 0.99386 3.0953 1.2646 3.9926 0.34766 1.1521 2.1207 0.51095 6.0355-2.1825 3.0488-2.0976 7.0183-4.3746 8.8211-5.0601zm-11.845-36.887c8.6271-2.8655 9.0648-3.7521 6.521-13.211l-2.1623-8.0407-5.9855-1.158c-8.38-1.6213-12.088-0.0348-14.198 6.0752-0.93388 2.7044-2.5354 5.8424-3.5589 6.9734-2.4124 2.6656-2.3581 3.5618 0.71202 11.768l2.573 6.8769 5.0173-3.6345c2.7595-1.999 7.7459-4.5408 11.081-5.6485zm-18.562-23.66c2.8113-4.6358 4.0941-5.5866 8.5537-6.34 6.8892-1.1639 18.276 0.31291 20.64 2.677 1.0308 1.0308 1.9138 3.0997 1.9621 4.5975 0.0849 2.6314 0.12413 2.6389 1.1621 0.22321 1.4807-3.4458 1.5134-19.457 0.0487-23.876-0.66066-1.9932-2.0373-10.236-3.0593-18.317-2.5767-20.375-3.0388-21.14-14.112-23.353-16.329-3.2639-18.505-0.19673-17.237 24.296 0.64043 12.374 0.36718 18.933-1.1456 27.5-2.169 12.283-2.5118 18.147-1.0571 18.085 0.51562-0.0217 2.4258-2.4936 4.2448-5.4931z"/>
<path d="m192.3 171.88-6.9929-1.2668c0.32847 5.415-15.592-0.35778-15.981 1.5167 0 0 5.4614 1.1487-1.0479 1.1487l3.3453-5.7435c0.3829 0 17.074 3.4088 17.074 3.7917s-16.731-3.9629-17.074-3.7917c-0.48434 0.24216 7.0905 1.4141 6.8483 1.8984-0.17124 0.34248-8.3729 0.32616-7.997 0.39898 3.9777 0.77056 2.8498 1.1326 2.8498 0.74972s-2.6374-1.0683-2.8498-0.74972c-0.90111 1.3517 4.1485 3.4349-0.79191 3.0669" stroke="#000" stroke-width="4.4"/>
</svg>
