<?xml version="1.0" encoding="UTF-8"?>
<svg version="1.1" viewBox="0 0 516.98 431.84" xmlns="http://www.w3.org/2000/svg" xmlns:cc="http://creativecommons.org/ns#" xmlns:dc="http://purl.org/dc/elements/1.1/" xmlns:rdf="http://www.w3.org/1999/02/22-rdf-syntax-ns#">
<metadata>
<rdf:RDF>
<cc:Work rdf:about="">
<dc:format>image/svg+xml</dc:format>
<dc:type rdf:resource="http://purl.org/dc/dcmitype/StillImage"/>
<dc:title>ASL letter</dc:title>
<dc:date>11/11/2013</dc:date>
<dc:creator>
<cc:Agent>
<dc:title>edited by Paul Sherman</dc:title>
</cc:Agent>
</dc:creator>
<dc:rights>
<cc:Agent>
<dc:title>PD</dc:title>
</cc:Agent>
</dc:rights>
<dc:publisher>
<cc:Agent>
<dc:title>WPClipart</dc:title>
</cc:Agent>
</dc:publisher>
<dc:subject>
<rdf:Bag>
<rdf:li>sign</rdf:li>
<rdf:li>language</rdf:li>
<rdf:li>letter</rdf:li>
<rdf:li>american</rdf:li>
</rdf:Bag>
</dc:subject>
<cc:license rdf:resource="http://creativecommons.org/publicdomain/zero/1.0/"/>
</cc:Work>
<cc:License rdf:about="http://creativecommons.org/publicdomain/zero/1.0/">
<cc:permits rdf:resource="http://creativecommons.org/ns#Reproduction"/>
<cc:permits rdf:resource="http://creativecommons.org/ns#Distribution"/>
<cc:permits rdf:resource="http://creativecommons.org/ns#DerivativeWorks"/>
</cc:License>
</rdf:RDF>
</metadata>
<path d="m164.23 389.12c-8.7443-15.641-11.948-40.354-17.844-50.323-13.437-22.718-30.955-57.214-33.602-66.172-3.0315-10.256-3.805-15.053-11.39-45.93-5.2054-21.189-9.2819-42.077-22.471-61.871-8.2412-12.369-16.035-26.79-29.681-43.52 0 0-7.9764-11.143-14.669-25.056-8.0238-16.68-3.8696-6.1494-13.88-22.121-8.3081-13.255-8.8058-26.088-8.6702-38.637 0.14322-13.256 10.515-20.261 15.775-22.459 3.8854-1.6234 5.051-1.493 14.462 1.6173 5.6297 1.8606 11.998 4.9302 14.152 6.8211 2.1537 1.891 9.7251 8.6531 14.172 15.893 4.8968 7.972 7.3385 10.849 14.055 16.967 4.3142 9.6582 6.8862 8.8212 12.152 14.612 10.411 11.447 8.3386 13.819 16.669 22.035l10.195 10.055 9.3322-10.776c4.9957-5.7689 24.341-12.708 27.812-12.708 1.8022 0 6.2176 0.87333 9.8119 1.9407 7.9017 2.3466 10.528 1.6664 13.774-3.5678 1.3638-2.1989 4.3448-5.7785 6.6246-7.9547 5.0075-4.7801 29.855-17.918 33.888-17.918 1.5838 0 5.3672 1.5724 8.4076 3.4942l5.528 3.4942 11.471-7.2099c15.698-9.8664 27.754-15.993 32.975-16.757 6.9004-1.0104 14.431 2.3058 26.096 17.388 20.754 26.835 14.045 16.879 18.771 25.102 7.8346 13.633 11.236 24.366 19.731 51.132 1.0141 3.1948 2.1366 5.4276 4.5761 6.875 4.208 2.4967 3.6221 3.0892 13.69-13.843 12.068-20.297 22.678-33.968 39.635-51.069 24.564-24.773 36.918-31.911 57.542-33.249 18.55-1.2034 31.138 4.7075 37.344 17.535 2.9251 6.046 5.4759 25.347 3.771 28.532-0.65182 1.2179-6.8471 4.015-14.657 6.6173-11.463 3.8198-14.301 5.3146-18.596 9.7954-15.128 15.784-35.798 58.099-43.495 89.038-2.3958 9.6308-3.949 12.879-10.791 22.567-4.396 6.2244-11.02 17.756-14.719 25.625-23.787 50.596-22.372 48.264-41.17 67.823-32.577 33.894-31.496 31.588-32.219 68.768-0.51072 26.28 12.488 46.006 9.9997 48.08-1.4431 1.2031-16.808-15.989-16.808-15.989-3.9053 1.5872-2.3193 5.5404-3.9053 1.5872-2.5545-6.3671-2.8805-18.031-2.8565-34.087 0.0524-35.059 3.4704-42.182 38.087-79.375 18.231-19.588 21.8-24.716 26.78-38.474 5.5499-15.332 9.7313-23.56 19.515-38.401 14.995-22.747 13.894-20.221 24.394-55.938 1.7685-6.0156 8.47-21.69 14.892-34.833 13.465-27.554 16.33-31.043 37.345-45.478 13.929-9.5682 15.294-11.568 13.162-19.29-1.5306-5.5432-6.9393-10.283-13.831-12.121-11.027-2.9403-28.792 2.4638-43.435 13.212-7.8456 5.7592-26.954 25.729-34.158 35.697-3.2294 4.4688-10.738 14.875-16.687 23.125-17.495 24.265-30.615 40.726-38.629 48.466-6.8404 6.6069-19.949 14.659-23.865 14.659-0.87512 0-1.9335 1.0786-2.3519 2.3969-1.6378 5.1602-6.4615 9.166-25.989 21.583-39.192 24.92-51.25 41.169-51.315 69.145-0.0231 9.9648 0.52971 13.932 2.7256 19.559 3.6745 9.4163 11.205 17.8 18.488 20.581 5.1897 1.982 7.1067 2.0527 19.04 0.70268 15.414-0.0375 28.158 5.1354 17.644 6.6926-13.389 0.85659-29.71 7.2966-41.814 3.0056-20.161-7.5431-31.806-34.73-26.482-61.824 1.1729-5.9696 4.0601-15.709 6.4159-21.642l4.2834-10.789-3.3889-3.5694c-1.8639-1.9632-4.9526-4.6933-6.8638-6.0669l-3.4748-2.4975-5.1221 4.6276c-11.035 9.9693-24.979 12.31-37.953 6.3701-7.8686-3.6024-10.295-6.9201-15.652-21.399-4.4502-12.029-7.567-12.234-18.626-34.366-11.059-22.131-14.554-18.911-26.059-51.445-3.4932-9.878-9.5882-17.631-18.231-24.713-6.1397-5.031-22.571-30.267-27.848-26.379-0.63415 0.46729-4.9962 1.8628-9.8087 2.9607-4.8125 1.0979-10.12 2.3863-11.795 2.8632l-3.0447 0.86702 2.9466-4.1381c1.6206-2.276 5.3636-5.6033 8.3176-7.394 2.9541-1.7907 10.425-6.2991 10.425-6.2991s-5.876-10.891-14.818-24.425c-5.8521-8.8577-17.328-10.792-25.74-10.355-5.4601 0.28397-6.5403 0.81751-8.9677 4.4296-3.4953 5.2011-0.50836 13.637 1.4144 22.133 2.2736 10.045 5.8657 15.38 18.153 40.019 9.512 19.073 9.3097 14.393 20.324 26.238 12.079 12.99 12.657 21.51 20.62 33.109 7.5074 10.936 9.1763 11.292 12.235 21.277 4.2393 13.838 9.9399 19.735 12.374 36.458 2.4344 16.726 11.734 33.535 13.05 40.411 5.3162 27.773 20.289 64.602 31.393 77.217 4.4343 5.0376 6.5655 6.296 15.379 9.0808 12.437 3.9294 17.964 4.2173 27.703 1.4426 7.5111-2.1401 19.404-1.8071 19.404 0.54329 0 0.59892-0.42316 1.089-0.94038 1.089-0.5172 0-5.719 2.8125-11.56 6.25-12 7.0625-14.738 7.4538-30.74 4.3921-5.3407-1.0218-9.9153-1.653-10.166-1.4026-1.1143 1.1143 18.541 46.916 25.569 54.807 4.2969 4.8246 3.4251 10.95 3.4251 10.95-5.7385 4.4329-17.352 5.183-21.76 3.7676 0 0 5.0941-10.963-5.3764-29.691zm43.938-168.55c2.107-1.7729 5.037-4.9173 6.5112-6.9875l2.6802-3.764 1.2834-4.1011c-6.0598-2.4629-0.3439-3.9059-10.963-8.9847l-5.7529-3.9778c-2.7705-1.9156-14.337 2.8115-14.337 2.8115s-4.4678 6.1325-3.1848 10.372c1.2836 4.2394-1.7405 7.3948-2.1238 7.7781-0.38333 0.38332 7.617 2.5772 5.5218 2.5772-3.5254 0-3.6571 0.15239-1.7667 2.0428 6.9471 4.1626 15.862 7.4183 22.132 2.2336zm47.707-4.1803c4.8444-4.8444 4.6451-8.6417-0.89134-16.98-3.9564-5.9588-5.4176-7.1206-11.28-8.9685-5.9433-1.8734-6.9522-1.9057-8.5832-0.27474s-8.4211 6.7862-6.5623 11.518c3.1466 14.344-3.8171-3.1158 4.4082 8.812 6.9233 9.9942 16.376 12.426 22.909 5.8933zm-72.596-2.3572c0-0.5561-0.85289-2.103-1.8953-3.4375-1.7575-2.25-1.7884-2.1765-0.42437 1.0111 1.4718 3.4394 2.3197 4.3263 2.3197 2.4264zm-2.5468-20.816c6.286-6.4855 11.089-8.3702 18.026-7.0741 3.1739 0.59295 5.7708 0.61972 5.7708 0.0595 0-0.56023-1.2535 2.5071-5.65-12.028-5.8787-19.435-11.305-30.613-6.3559-24.65 6.8217 8.2198-13.432-2.8708-17.986-2.2349-2.506 0.34995-8.6469 5.053-12.33 6.0638-3.6833 1.0108-6.9021 1.6326-7.1529 1.3818-1.3299-1.3299 7.9262-9.9734 13.711-12.804l13.58-2.0173 2.156-20.607c2.3236-22.208-2.2654-25.311-8.8673-28.725-5.3854-2.7849-13.29-0.95517-26.995 5.6358-14.988 7.208-23.522 4.5856-17.004 23.04 5.7348 16.237 12.29 28.566 26.091 56.687 5.9515 12.127 15.829 24.134 16.54 25.68 1.6929 3.6862 1.5203-3.3052 6.4668-8.4087zm111.12-0.72041c3.8775-2.0884 8.9222-5.4949 11.211-7.57 4.7804-4.3349 4.7797-4.372-0.52819-27.181-3.6224-15.566-3.6844-18.365-0.65586-29.602 4.2268-15.683 4.2186-15.6 1.5337-15.6-1.3268 0-5.954 1.1023-10.283 2.4495-4.3286 1.3472-8.1391 2.1806-8.4676 1.852-1.4718-1.4718 9.9735-11.211 16.961-14.433 14.494-14.095 18.998 17.55 13.529 31.382-3.8866 9.234-3.8846 9.4895 0.17354 22.787l3.3302 10.912 6.3566-3.4125c3.4962-1.8768 9.9385-6.9765 14.316-11.333l7.9598-7.9201-1.3084 10.459c-0.84016 6.7158-10.328-17.946-13.322-32.719-3.0416-15.008-3.5311-14.836-8.5239-34.16-1.6978-6.5711-13.994-18.942-19.858-26.519-13.289-17.17-18.526-16.104-24.365-15.008-10.043 1.8841-25.557 13.121-31.045 22.486l-3.2087 5.4752 3.0724 24.796c3.0078 24.275 3.1836 25.002 8.3624 34.603l5.29 9.8073-0.1588 17.518c-0.0874 9.6349 0.46403 19.991 1.2253 23.015 3.0332 12.046 14.698 15.296 28.404 7.9146zm-29.278-4.652c-3.9718-4.3887 4.8207-18.702 11.959-19.736 9.913-1.4368 15.105 0.37911 24.193 12.811 3.418 4.6755 2.6805 4.9848-1.6371 7.2175-5.1631 2.67-8.8724 3.048-9.0714-1.5304-0.64261-14.781-18.993-11.512-21.459-2.7239-1.5721 5.6032 2.6139 9.4785-0.75398 5.7571zm-40.547-1.4124c0-1.9863 1.0752-4.9394 2.3892-6.5625 1.971-2.4344 3.5573-2.951 9.0625-2.951 3.6703 0 8.4155 0.44771 10.545 0.99491l3.8717 0.99491 0.84955-15.032c0.82469-14.592 0.75272-15.225-2.4596-21.62-1.82-3.6232-3.4928-6.792-3.7173-7.042-0.22453-0.24992-0.48644-4.2569-5.4082-2.7619-4.9217 1.4949-15.716 10.669-16.089 10.295-0.79374-0.79374 11.472-13.8 15.788-16.535l2.9562-1.8741-2.0966-21.489c-2.7344-28.027-3.6812-31.359-10.025-35.28-2.2473-1.3889-5.7071-2.5198-7.6885-2.5131-5.8103 0.0197-15.869 5.4694-21.006 11.38-8.3792 9.6429-2.4861 15.073-2.5352 42.993-0.0243 13.75 4.1806 25.012 4.7478 29.623 1.0274 8.3524 6.0796 14.058 9.7121 24.335 2.3803 6.7348 2.0037 5.4191 4.5673 9.3988 2.5636 3.9797 5.083 7.2407 5.5986 7.2468 0.51563 6e-3 0.9375-1.6142 0.9375-3.6006z"/>
</svg>
