<?xml version="1.0" encoding="UTF-8"?>
<svg version="1.1" viewBox="0 0 283.5 511.26" xmlns="http://www.w3.org/2000/svg" xmlns:cc="http://creativecommons.org/ns#" xmlns:dc="http://purl.org/dc/elements/1.1/" xmlns:rdf="http://www.w3.org/1999/02/22-rdf-syntax-ns#">
<metadata>
<rdf:RDF>
<cc:Work rdf:about="">
<dc:format>image/svg+xml</dc:format>
<dc:type rdf:resource="http://purl.org/dc/dcmitype/StillImage"/>
<dc:title>ASL letter</dc:title>
<dc:date>11/11/2013</dc:date>
<dc:creator>
<cc:Agent>
<dc:title>edited by Paul Sherman</dc:title>
</cc:Agent>
</dc:creator>
<dc:rights>
<cc:Agent>
<dc:title>PD</dc:title>
</cc:Agent>
</dc:rights>
<dc:publisher>
<cc:Agent>
<dc:title>WPClipart</dc:title>
</cc:Agent>
</dc:publisher>
<dc:subject>
<rdf:Bag>
<rdf:li>sign</rdf:li>
<rdf:li>language</rdf:li>
<rdf:li>letter</rdf:li>
<rdf:li>american</rdf:li>
</rdf:Bag>
</dc:subject>
<cc:license rdf:resource="http://creativecommons.org/publicdomain/zero/1.0/"/>
</cc:Work>
<cc:License rdf:about="http://creativecommons.org/publicdomain/zero/1.0/">
<cc:permits rdf:resource="http://creativecommons.org/ns#Reproduction"/>
<cc:permits rdf:resource="http://creativecommons.org/ns#Distribution"/>
<cc:permits rdf:resource="http://creativecommons.org/ns#DerivativeWorks"/>
</cc:License>
</rdf:RDF>
</metadata>
<path d="m72.175 497.66c-3.5056-1.7736-3.4297-1.4089-6.9886-33.597l-2.1656-19.587-5.1136-3.6176c-5.1487-3.6425-7.6789-6.9583-16.207-21.24-5.0788-8.5052-7.8391-16.276-11.888-33.468-5.5673-23.638-15.379-68.94-15.838-73.125-3.1297-28.532-3.0066-29.967 3.8149-44.512l4.168-8.8868 14.557-7.0789c16.591-8.0685 17.256-8.9211 18.677-23.98 0.4587-4.8576 1.6539-11.556 2.656-14.886 1.0021-3.3298 1.822-7.4058 1.822-9.0578 0-4.4062 5.5646-15.423 10.169-20.132 5.803-5.9354 17.204-12.226 24.006-13.246l5.896-0.88415-0.74619-40.856c-0.72251-39.559-3.1571-78.081-5.5842-88.356-3.0676-12.987-0.58029-20.276 8.4755-24.839 7.967-4.0147 13.003-4.9524 21.137-3.9361 6.2496 0.78083 7.4292 1.4699 13.594 7.9403 3.7128 3.8969 6.7624 7.7529 6.7768 8.5688 0.0145 0.81595 3.0478 12.91 6.7409 26.875 4.8924 18.501 7.8214 33.194 10.793 54.141 2.2432 15.812 4.2353 28.936 4.4269 29.162 0.19158 0.22676 2.5066-0.72103 5.1444-2.1062 2.6378-1.3852 9.9268-3.6902 16.198-5.1222 10.794-2.465 15.473-2.4424 15.473 0.0749 0 0.61394 0.84375 1.1163 1.875 1.1163s1.875-0.14856 1.875-0.33015c0-0.18157 1.1349-3.416 2.522-7.1875 1.5022-4.0845 2.7786-11.406 3.1566-18.107 1.9315-34.241 3.4056-45.652 7.3136-56.611 3.6679-10.286 4.194-11.05 9.5078-13.796 10.267-5.3052 25.578-1.9925 34.594 7.4846 7.7371 8.1329 8.486 12.087 8.4849 44.797-5.5e-4 16.156-0.69406 35-1.5412 41.875-0.84708 6.875-2.3956 20.094-3.4411 29.375-2.3993 21.299-5.0202 42.412-7.0604 56.875-0.93016 6.5942-1.6503 25.476-1.7401 45.625-0.0881 19.78-0.78745 38.355-1.6471 43.75-1.1352 7.1243-1.1679 15.853-0.13619 36.36 2.3407 46.524-0.58011 59.175-17.457 75.616l-6.4732 6.3058 2.1169 5.2906c2.1988 5.4954 2.1972 5.7975-0.23025 44.287-0.74655 11.837-0.88622 12.293-4.3084 14.062-1.9452 1.0059-3.9342 1.829-4.4198 1.829-0.48567 0-0.54135-11.897-0.12375-26.438 0.61923-21.562 0.42486-27.238-1.054-30.778-3.3782-8.0851-2.497-11.418 4.8545-18.362 7.9101-7.4712 13.312-15.229 16.57-23.798 2.1501-5.6539 2.3895-10.184 2.51-47.5 0.0881-27.313 0.61774-42.725 1.5674-45.617 0.78885-2.4017 1.4343-4.5111 1.4343-4.6875s-1.6875-0.32075-3.75-0.32075-3.75-0.29242-3.75-0.64984c0-0.35741 1.4062-2.8775 3.125-5.6002 1.7188-2.7227 3.125-5.3323 3.125-5.7991 0-0.46682-2.141-3.7124-4.7578-7.2123-12.742-17.042-21.492-34.634-21.492-43.207 0-4.3494-0.33443-4.4344-7.5-1.9062-6.1419 2.167-13.75 2.4775-13.75 0.56121 0-1.1731 1.8524-2.1381 10.625-5.5352 2.0424-0.7909 1.3939-1.2635-3.5433-2.582-3.3238-0.88767-6.3103-1.881-6.6367-2.2073-0.32635-0.32634 2.5062-2.3667 6.2946-4.5342 5.3746-3.0751 6.6923-4.409 5.9974-6.0717-1.8515-4.4301-6.8366-13.284-8.3079-14.755-0.84217-0.84216-4.5513-7.5934-8.2425-15.003-7.2187-14.49-8.1891-20.417-5.6589-34.56 1.0209-5.7068 0.94748-5.9375-1.8893-5.9375-1.6233 0-6.8473 1.5285-11.609 3.3966-8.16 3.2015-8.8174 3.7585-11.444 9.6974-5.7683 13.043-11.437 41.87-10.051 51.112 0.7619 5.0807 1.5734 6.2644 6.7285 9.8149l5.8621 4.0374-3.4375 1.2121c-3.81 1.3434-3.8992 1.7085-2.1631 8.8545 0.66809 2.75 2.376 10.625 3.7954 17.5 4.1325 20.017 3.9456 19.675 15.178 27.745 26.797 19.253 28.388 22.598 5.3036 11.155-7.7949-3.8639-14.933-7.0252-15.862-7.0252-3.339 0-4.6892 3.0863-4.6892 10.719 0 4.2453-0.34834 9.4605-0.77409 11.589-1.0238 5.119-7.8014 12.744-11.726 13.191-1.7188 0.1961-5.18 1.2375-7.6916 2.3143-4.3769 1.8764-4.5686 2.2185-4.6152 8.2326-0.0695 8.9676-2.0966 15.335-6.4253 20.184-4.2291 4.7368-4.6048 7.9354-2.2876 19.474 2.0387 10.152 8.512 21.181 17.004 28.973 3.9273 3.6033 6.6448 6.5564 6.0389 6.5625-0.60592 6e-3 -6.033-2.811-12.06-6.26-9.537-5.4576-11.239-6.9575-13.122-11.562-3.3922-8.2986-4.5108-13.284-5.3948-24.041l-0.82176-10-5-1.0596c-14.953-3.1687-28.652-13.573-44.279-33.628l-6.5743-8.4375-8.9484 0.0251c-4.9216 0.0139-12.587 0.55099-17.034 1.1937-6.0299 0.87144-8.3237 0.78557-9.0208-0.33763-1.0257-1.6528 4.307-3.2153 19.919-5.8367 13.799-2.3169 11.929-4.6158-6.5625-8.0661-11.802-2.2021-21.875-5.3338-21.875-6.8008 0-0.47607 3.2344-0.85142 7.1875-0.83411 6.5133 0.0285 7.225-0.23236 7.5869-2.781 0.21969-1.5469 0.65561-2.8125 0.9687-2.8125 1.9115 0 19.491 9.7922 24.793 13.811 6.7162 5.0899 8.6305 7.085 14.276 14.878 6.2606 8.6425 27.667 27.562 31.185 27.562 0.59638 0 0.8661-2.9531 0.59939-6.5625-0.60873-8.238 2.2661-13.286 9.5071-16.694l5.1408-2.4195-7.2118-12.474c-8.9952-15.559-22.997-35.225-31.799-44.662-6.2414-6.6917-7.0885-7.1856-12.281-7.16-6.234 0.0308-14.565 3.3726-20.175 8.0933-2.0454 1.7211-4.4812 3.1293-5.4129 3.1293-2.301 0-6.7106 6.4193-7.6557 11.145-0.54578 2.7289-1.4848 3.8552-3.2141 3.8552-2.0817 0-2.3172-0.57316-1.5921-3.8744 0.79586-3.6235 0.66062-3.8174-2.0882-2.9938-1.6165 0.48431-4.6102 1.8279-6.6527 2.9857-4.8 2.721-7.9775 12.727-9.0119 28.379l-0.75153 11.372 4.1036-0.60228c2.8583-0.41952 3.8376-0.17201 3.2272 0.81565-0.48198 0.77986-1.618 1.4179-2.5245 1.4179-5.1552 0-4.9352 5.5704 1.111 28.125 3.4905 13.021 7.3283 29.753 12.537 54.656 3.3994 16.254 5.3701 20.804 14.679 33.89 6.6452 9.3417 11.328 14.107 15.029 15.294 2.3131 0.74199 3.6857 4.4985 3.7288 10.204 0.0143 1.9002 0.81476 8.597 1.7788 14.882 2.6261 17.121 3.8763 36.702 2.3419 36.68-0.70622-0.01-2.6874-0.72843-4.4026-1.5962zm63.992-164.64c3.3031-5.3588 3.394-5.915 1.9219-11.751-1.82-7.2152-3.9508-8.8968-9.8666-7.7869-7.0591 1.3243-10.697 11.371-6.822 18.84 4.385 8.452 9.8287 8.7093 14.767 0.698zm22.798-29.163c3.3909-2.4795 3.4694-17.498 0.12388-23.714-2.8122-5.2252-4.8721-6.3886-8.1784-4.6192-1.28 0.68502-3.4071 1.2455-4.7269 1.2455-1.3198 0-3.8174 1.3139-5.5501 2.9198-2.9892 2.7703-3.0912 3.2982-1.9934 10.312 1.3 8.3063 3.6236 12.628 7.6642 14.256 4.1193 1.6593 10.102 1.4699 12.661-0.40074zm-20.546-29.724c2.4062-1.9363 7.2905-4.2631 10.854-5.1708l6.4789-1.6502-1.9759-4.3338c-6.5476-14.361-8.0473-17.727-11.678-26.209-2.207-5.1562-5.5436-11.625-7.4148-14.375-1.8712-2.75-9.205-13.859-16.297-24.688l-12.895-19.688h-7.1456c-6.1245 0-8.1034 0.64176-13.848 4.491-8.2998 5.5611-12.328 9.8734-12.328 13.198 0 1.4024-1.0521 4.0429-2.3381 5.8678-3.7039 5.2562-6.4119 16.637-6.4119 26.948 0 8.4554 0.257 9.4951 2.3469 9.4951 3.514 0 4.9502-2.5086 5.3856-9.4067l0.39245-6.2183 15.105 15c18.838 18.707 29.729 32.64 43.645 55.833l2.5 4.1667 0.625-9.8705c0.59961-9.4695 0.80272-10.013 5-13.391zm-20-22.206c-2.7506-0.79008-2.8507-1.003-0.83526-1.7776 1.2594-0.48398 3.5928-0.87995 5.1856-0.87995s6.1612-1.7177 10.152-3.8171c6.2068-3.265 6.9032-3.4254 4.8144-1.1093-1.3431 1.4893-2.4419 3.9101-2.4419 5.3796 0 2.3791-0.7531 2.6953-6.875 2.8868-3.7812 0.11825-8.2812-0.18886-10-0.68255zm130 2.5187c0-2.8132-2.3967-5.1762-5.25-5.1762-2.9314 0-2.841 1.4115 0.35009 5.4683 2.7409 3.4845 4.8999 3.3558 4.8999-0.29211zm-89.352-10.249c1.9358-6.0993-4.5516-20.917-8.5717-19.578-2.5586 0.85181-2.305 4.3169 0.81444 11.131 1.6732 3.6549 3.3771 7.6296 3.7865 8.8327 1.0048 2.9531 2.9718 2.7623 3.9708-0.38506zm91.078-6.6531c0.41078-1.6366 1.3116-13.59 2.0019-26.562 0.69029-12.973 1.6065-28.091 2.036-33.597l0.78092-10.01-7.9598-2.7075c-18.318-6.2309-35.944-13.539-34.98-14.503 2.2364-2.2364 19.612-1.009 32.413 2.2896 7.0908 1.8272 13.14 3.0746 13.442 2.7721 2.1662-2.1662 5.5429-42.595 5.5369-66.295-5e-3 -19.571-2.1345-35.643-5.3146-40.109-3.2437-4.5553-9.2107-7.0545-16.829-7.0485-9.6484 0.0075-13.14 2.9719-16.371 13.9-2.3767 8.0374-5.1521 31.087-5.2115 43.283l-0.0198 4.0625 12.812 0.0544c15.059 0.064 22.892 1.3549 25.747 4.2435 1.9285 1.9507 1.4036 2.0224-7.9349 1.083-22.606-2.2741-31.858-0.2912-31.891 6.8354-9e-3 1.8748-1.4557 7.9087-3.2153 13.409-1.7596 5.5-3.6534 12.25-4.2085 15-0.555 2.75-2.5097 11.549-4.3438 19.552l-3.3347 14.552 7.1004 11.073c3.9052 6.09 8.8044 13.604 10.887 16.698s5.3582 10.969 7.2789 17.5c4.1675 14.171 7.0992 17.5 15.411 17.5 4.6661 0 5.5236-0.41381 6.1666-2.9757zm-101.12-23.732c2.0912-1.5291 2.1623-2.1244 0.68096-5.7006-3.0753-7.4244 0.44228-41.372 5.2675-50.836 3.202-6.2803 2.3877-8.7673-3.7256-11.378-4.3553-1.8596-5.6343-1.8427-17.205 0.2274-6.875 1.23-14.716 2.5099-17.424 2.8443-6.9473 0.85765-9.3578 4.2233-9.4092 13.138-0.0498 8.6305 1.7077 11.774 15.188 27.163 9.4198 10.754 18.521 23.108 18.521 25.14 0 1.7159 5.4974 1.3106 8.1072-0.59765zm96.893-55.793c-6.0581-3.2005-15.681-5.2646-13.261-2.8444 1.7824 1.7824 13.946 6.3775 17.011 6.4265 2.4319 0.0389 1.6002-0.75559-3.75-3.5821zm-44.122-7.272c0.62227-4.6394 0.46206-5.0175-1.8678-4.4082-3.1284 0.8181-4.56 5.8173-2.6746 9.3401 1.8679 3.4902 3.6761 1.5269 4.5424-4.9318zm-47.135-15.332c4e-3 -1.776-0.53647-6.276-1.2014-10-0.6649-3.724-2.0881-12.677-3.1628-19.896-3.0782-20.678-2.0466-18.875-10.342-18.077-14.528 1.3973-26.882 3.2877-29.61 4.531-2.6082 1.1884-2.8616 2.3348-3.6156 16.358-1.0556 19.632-1.0261 29.056 0.0945 30.176 0.49795 0.49794 11.463 0.73232 24.367 0.52084l23.462-0.38451 7e-3 -3.229zm-19.055-52.638 9.0625-1.3514-8e-3 -4.516c-0.0265-16.223-9.2151-49.287-15.203-54.706-1.5994-1.4474-5.0809-2.366-10.173-2.684-7.3318-0.4579-8.0601-0.23961-13.755 4.1227l-6.0131 4.6062 0.80026 7.0725c1.5497 13.696 5.6174 37.299 7.5487 43.803l1.9534 6.5777 8.3619-0.78651c4.5992-0.43258 12.44-1.3946 17.425-2.1379zm-45.626 213.56c0.24313-0.79506 3.7048-3.0137 7.6926-4.9304 5.7681-2.7724 7.6186-3.1793 9.0511-1.9905 2.1581 1.7911 1.2434 2.7559-4.5554 4.8053-8.1902 2.8945-12.664 3.6711-12.188 2.1156z"/>
</svg>
