<?xml version="1.0" encoding="UTF-8"?>
<svg version="1.1" viewBox="0 0 280.42 550.26" xmlns="http://www.w3.org/2000/svg" xmlns:cc="http://creativecommons.org/ns#" xmlns:dc="http://purl.org/dc/elements/1.1/" xmlns:rdf="http://www.w3.org/1999/02/22-rdf-syntax-ns#">
<metadata>
<rdf:RDF>
<cc:Work rdf:about="">
<dc:format>image/svg+xml</dc:format>
<dc:type rdf:resource="http://purl.org/dc/dcmitype/StillImage"/>
<dc:title>ASL letter</dc:title>
<dc:date>11/11/2013</dc:date>
<dc:creator>
<cc:Agent>
<dc:title>edited by Paul Sherman</dc:title>
</cc:Agent>
</dc:creator>
<dc:rights>
<cc:Agent>
<dc:title>PD</dc:title>
</cc:Agent>
</dc:rights>
<dc:publisher>
<cc:Agent>
<dc:title>WPClipart</dc:title>
</cc:Agent>
</dc:publisher>
<dc:subject>
<rdf:Bag>
<rdf:li>sign</rdf:li>
<rdf:li>language</rdf:li>
<rdf:li>letter</rdf:li>
<rdf:li>american</rdf:li>
</rdf:Bag>
</dc:subject>
<cc:license rdf:resource="http://creativecommons.org/publicdomain/zero/1.0/"/>
</cc:Work>
<cc:License rdf:about="http://creativecommons.org/publicdomain/zero/1.0/">
<cc:permits rdf:resource="http://creativecommons.org/ns#Reproduction"/>
<cc:permits rdf:resource="http://creativecommons.org/ns#Distribution"/>
<cc:permits rdf:resource="http://creativecommons.org/ns#DerivativeWorks"/>
</cc:License>
</rdf:RDF>
</metadata>
<path d="m56.395 535.63c-18.312 5.7529-13.458 2.1416-15.554-11.842l-4.603-17.794c-2.755-10.65-15.707-79.167-20.197-98.656-6.035-26.193-5.2974-63.889 2.1265-108.68 3.2526-19.624 3.0243-18.97 9.441-27.069 9.5519-12.056 9.6718-12.378 10.126-27.237 0.52128-17.059 2.3385-21.776 10.604-27.52 3.4079-2.3685 6.3484-4.4164 6.5345-4.5509 0.18611-0.13459-1.337-7.2789-3.3847-15.877-2.0477-8.5977-6.5551-21.719-8.295-29.594-3.5987-16.289-6.2302-26.103-9.8738-40.888-2.232-9.0576-2.9183-13.118-3.4207-26.725-0.64933-17.588 2.4376-28.243 8.6071-36.999 9.3593-13.282 26.119-14.015 38.131-1.6659 8.7491 8.9945 9.197 20.071 19.303 52.046 3.1103 9.8411 5.3329 27.218 7.0551 40.612 3.17 24.653 13.431 61.798 13.514 74.087 0.10953 16.283-3.8122-5.8828-0.19348-5.353 2.3747 0.3477 2.8353-0.0507 2.2774-1.9701-0.38462-1.3232 0.93248-10.393-0.29109-18.68l-0.85359-13.68-1.5793-29.883c-0.55968-10.59 0.63043-15.504 0.20506-30.813-0.37974-13.666-5.3641-76.011-5.3641-87.846 0-5.3013 3.619-8.0752 8.0571-14.577 0 0 15.565-12.478 21.807-12.478 7.1798 0 15.323 4.8255 19.46 11.532 4.7896 7.7642 7.1782 20.028 8.8545 45.462 0.75667 11.481 1.9263 21.932 2.5992 23.224 0.67286 1.2925 3.3384 25.921 3.7709 32.084 1.0101 14.394 1.306 20.295 1.8058 31.669 0.81307 18.504-1.1682 33.137 3.579 51.546 2.4428 9.473 2.8332 5.622 4.4634 3.3403 1.44-2.0154 6.2035-3.7906 4.6996-19.632l1.6514-15.185 1.3152-14.407c0.70586-7.732 4.1707-16.778 4.5762-20.468 0.40552-3.6899 5.7055-29.758 9.6799-35.48 4.2924-6.1808 0 0 3.355-22.153 4.0167-26.522 7.3788-40.275 17.668-44.954 5.2945-2.4077 6.1799-4.4837 14.154-3.2147 25.164 4.0043 30.994 22.653 22.671 72.516-2.1102 12.642-5.9348 38.648-8.4991 57.791-2.5643 19.143-6.5963 44.854-8.96 57.134-2.3637 12.281-6.325 36.513-8.8029 53.851-4.1437 28.992-4.4886 33.736-4.2975 59.104l0.20783 27.582-5.8286 21.672c-3.2057 11.919-9.4055 33.492-13.777 47.94-19.181 63.389-17.917 63.379-17.933 76.507-0.0166 13.569-1.5292 13.862-9.6915 9.8605l-4.6686-2.2888 0.67629-13.144c0.57794-11.233 1.6971-16.39 7.6979-35.472 7.001-22.263 15.497-50.896 20.252-68.256 2.994-10.93 3.3048-9.2802-9.4092-49.953l-9.0326-28.895-6.6996-6.5672c-3.6848-3.6119-10.673-10.409-15.53-15.104-8.3739-8.0957-9.185-9.4204-15.68-25.612-8.881-22.14-11.662-25.027-33.868-35.152l-16.465-7.5075-4.2271 3.3146c-5.1905 4.07-10.005 12.335-12.017 20.629-0.83243 3.4313-1.7491 6.2388-2.0371 6.2388-0.28797 0-4.1004-1.8576-8.4721-4.1279-11.628-6.0389-28.023-13.105-28.727-12.381-1.2445 1.2794 1.1764 12.426 3.9045 17.979 4.0118 8.165 12.621 13.736 36.246 23.457 21.996 9.0502 33.107 15.457 34.799 20.065 0.5955 1.6221 1.7296 7.9154 2.5202 13.985 1.1078 8.505 2.509 13.006 6.1099 19.625 8.271 15.205 14.384 20.444 33.658 28.844 2.5722 1.1211 0.86053 1.4094-8.7924 1.481-14.117 0.10475-16.988-1.2431-26.833-12.599-6.9612-8.0293-7.0766-8.0347-16.404-0.76872-8.1309 6.3339-16.684 23.927-16.726 43.368-1.0156 30.346 17.134 63.52 17.134 63.52-4.3229-1.8942-7.32-12.722-4.3229-1.8942-2.9971-10.828-31.323-55.993-12.518-100.88 0.71299-1.7018-0.16378-2.2609-4.4788-2.8559-7.4223-1.0235-21.029-8.3931-25.179-13.638-1.8972-2.3974-5.1031-6.4502-7.1242-9.006-2.0212-2.5558-6.2573-6.2029-9.4137-8.1045-5.1888-3.1261-5.853-3.248-6.9289-1.2716-0.79471 1.4599-2.8554 2.186-6.2041 2.186-4.2603 0-5.3072 0.58259-6.9633 3.875-1.0721 2.1312-2.9059 4.4254-4.0753 5.0982-2.8101 1.6167-4.0519 11.132-4.1687 31.941-0.11586 20.64 3.3501 42.663 9.5782 60.861 2.4753 7.2325 6.8567 24.653 9.5289 40.964 2.671 16.303 7.4224 35.932 8.8061 38.721 4.1204 8.303 9.4844 25.92 9.4844 25.92s-1.6931-1.1095-4.3281-0.28177zm165.17-213.99c0.48409-31.99 0.66563-33.978 5.1276-56.149 2.5442-12.642 6.6934-31.851 9.2206-42.686 3.273-14.034 5.494-28.581 7.7205-50.567 1.7191-16.976 8.9202-43.256 11.376-59.985 4.1086-27.992 4.3559-33.288 3.1032-43.976-1.57-13.395-5.9288-18.878-14.855-22.005-11.962-4.1901-17.61 5.6388-20.264 31.772-0.95691 9.4248-1.5731 17.307-1.3693 17.517 0.20381 0.2095 2.8775-0.50701 5.9415-1.5923 5.8681-2.0784 15.283 0.34495 21.423 3.5706 4.3311 2.2752 3.193 2.7233-0.84283 4.6136-2.2188 1.0393-4.8343-0.89382-7.6443-1.9008-3.4351-1.231-6.9203 0.30596-10.312 3.2397-2.6016 2.2504-4.8034 3.1137-6.7209 2.6349-2.4339-0.60769-3.2992 0.2864-5.9051 6.1023-1.6793 3.7479-5.2561 1.3453-7.1772 8.9304-1.9212 7.5851-3.1808 14.667-3.784 17.748-4.6538 23.768-9.7448 33.972-7.8245 58.444 0.95158 12.126 2.4463 20.293 2.4463 20.293 5.5304-0.19127-0.33611 5.9336-6.2972 5.7808-3.0559-0.0782-4.2024-1.028-7.9456-0.52498-4.4079 0.5923-8.5511 0.32254-11.759-0.7661-4.2794-1.4519-5.3901-1.3866-8.161 0.47986-6.8729 4.6296-8.0147 0.84327-1.9035-6.3123l3.9492-4.6239-1.6268-21.574c-1.518-20.132-0.92045-20.65-1.8286-43.844-1.0352-26.437-1.7227-31.875-3.5526-45.26-0.99211-7.2568-3.3649-12.139-4.5079-31.21-1.3721-22.894-3.0235-31.103-8.4121-41.816-1.8204-3.6191-2.7517-4.1542-7.2306-4.1542-8.1605 0-17.243 5.7654-21.106 13.397-2.4825 4.9051-2.2472 12.971 0.82166 28.159 1.4392 7.1228 2.0847 24.887 2.9767 37.889 1.3716 19.995 1.0948 23.925 1.3833 29.429 0.55329 10.557 0.71188 11.877 1.0537 35.36 0.43775 30.072-0.0131 38.428 2.2973 46.86l4.1958 15.313 6.1009 3.1782c9.7796 5.0947 15.634 12.473 22.24 28.032 8.5151 20.054 12.062 25.327 26.695 39.69 12.164 11.94 13.604 13.907 20.255 27.682 3.9378 8.1557 7.8534 17.341 8.7014 20.411 0.84798 3.0701 1.9821 5.5821 2.5203 5.5821 0.53821 0 1.2044-14.924 1.4804-33.164zm-94.329-234.74c-3.3646-9.0139 16.873-18.107 26.959-11.312 2.8142 1.8957 3.091 2.5814 1.725 4.2735-1.2473 1.5451-3.0688 1.8189-7.8041 1.1731-5.0824-0.69311-9.2878-3.6106-12.014-1.4061-3.8672 3.1273-7.86 9.9673-8.866 7.272zm-18.033 259.15c6.4248-3.381 8.8067-9.0446 8.1624-19.409-0.45852-7.3757-1.1024-9.5661-3.3662-11.451-4.1227-3.432-14.488-3.8744-16.87-1.4264-1.7139 1.762 0.58375 7.8814 1.6177 11.49 0 0-0.06657 3.6018-0.60818 6.3988l2.17 12.22-5.0039-2.3884c-5.8847-2.8089-11.152-25.161-10.089-30.137 0.95894-4.4885 3.2264-6.5155 8.6069-7.6939l4.1443-0.90768-5.1104-2.7178c-2.8107-1.4948-10.175-4.5529-16.365-6.7959-12.087-4.3796-20.183-9.3462-28.41-17.428l-5.1692-5.0783-3.9834 4.2792c-3.2756 3.5188-4.3435 6.2811-6.0098 15.546-2.5307 14.071-2.6239 13.2 1.2508 11.686 4.6413-1.8141 4.8544-1.7346 7.4482 2.7794 1.5896 2.7665 4.9217 5.2544 10.457 7.8074 6.9251 3.1942 8.9306 4.9521 13.593 11.914 14.496 21.647 29.21 28.85 43.535 21.312zm-74.02-26.732c0.60245-0.57424-0.11621-1.7107-1.597-2.5254-1.8146-0.99838-2.7416-2.8578-2.8435-5.7038l-0.15116-4.2225-0.97528 3.9403c-0.53641 2.1672-1.0433 5.6055-1.1264 7.6408-0.1328 3.2511 0.19789 3.592 2.7234 2.8076 1.581-0.49107 3.3675-1.3627 3.97-1.937zm51.088-76.168c2.1638-3.9414 8.2478-11.696 2.0936-14.421-4.3331-1.9188 1.82-7.3134-7.3458-10.287-12.986-4.2133-22.862 0.4359-29.317 6.652-4.9294 4.7472 2.0442 14.287 15.291 20.815 6.8345 3.3682 10.731 3.6443 10.731 3.6443s6.3842-2.4614 8.5479-6.4028zm13.613-39.842c0-11.594-1.2084-14.279-6.3033-41.685-3.7498-20.171-2.0317-27.678-7.6057-45.709-3.2876-10.634-9.0414-22.958-9.0414-22.958-1.1115-0.03878-4.7118-1.7705-8.7231-2.1379-4.0113-0.36736-7.2933-1.259-7.2933-1.9814s2.8746-2.303 6.388-3.5124c7.0728-2.4347 7.2272-3.0192 3.2595-12.343-2.8797-6.7675-9.8205-10.65-15.857-8.8704-8.0211 2.3649-14.208 16.066-14.208 35.655 0 12.963 2.1279 20.239 5.3022 38.492 2.204 12.673 4.1703 15.726 7.5658 26.674 5.042 16.257 3.0775 8.2962 8.3629 22.406l7.3821 19.708 6.9148 0.91643c3.8031 0.50403 10.296 2.3734 14.428 4.1542 4.1321 1.7808 7.9441 3.2893 8.4711 3.3522 0.52699 0.063 0.95819-5.4094 0.95819-12.161z"/>
</svg>
