<?xml version="1.0" encoding="UTF-8"?>
<svg version="1.1" viewBox="0 0 248.88 515.97" xmlns="http://www.w3.org/2000/svg" xmlns:cc="http://creativecommons.org/ns#" xmlns:dc="http://purl.org/dc/elements/1.1/" xmlns:rdf="http://www.w3.org/1999/02/22-rdf-syntax-ns#">
<metadata>
<rdf:RDF>
<cc:Work rdf:about="">
<dc:format>image/svg+xml</dc:format>
<dc:type rdf:resource="http://purl.org/dc/dcmitype/StillImage"/>
<dc:title>ASL letter</dc:title>
<dc:date>11/11/2013</dc:date>
<dc:creator>
<cc:Agent>
<dc:title>edited by Paul Sherman</dc:title>
</cc:Agent>
</dc:creator>
<dc:rights>
<cc:Agent>
<dc:title>PD</dc:title>
</cc:Agent>
</dc:rights>
<dc:publisher>
<cc:Agent>
<dc:title>WPClipart</dc:title>
</cc:Agent>
</dc:publisher>
<dc:subject>
<rdf:Bag>
<rdf:li>sign</rdf:li>
<rdf:li>language</rdf:li>
<rdf:li>letter</rdf:li>
<rdf:li>american</rdf:li>
</rdf:Bag>
</dc:subject>
<cc:license rdf:resource="http://creativecommons.org/publicdomain/zero/1.0/"/>
</cc:Work>
<cc:License rdf:about="http://creativecommons.org/publicdomain/zero/1.0/">
<cc:permits rdf:resource="http://creativecommons.org/ns#Reproduction"/>
<cc:permits rdf:resource="http://creativecommons.org/ns#Distribution"/>
<cc:permits rdf:resource="http://creativecommons.org/ns#DerivativeWorks"/>
</cc:License>
</rdf:RDF>
</metadata>
<path d="m78.643 502.56c-1.5469-0.74604-2.8125-1.851-2.8125-2.4556 0-2.4522 3.6623-9.4321 7.3614-14.03 2.751-3.4194 3.7005-5.6707 3.1632-7.5-1.6082-5.4752-7.1334-12.266-14.611-17.957-13.421-10.215-21.755-18.799-24.541-25.275-3.661-8.5101-5.7518-19.35-9.4877-49.189l-3.2342-25.832-11.2-20.566c-11.539-21.189-13.015-26.06-9.7933-32.314 3.7303-7.2404 12.776-17.062 25.136-27.291 7.4792-6.1903 14.085-12.478 14.679-13.972 0.5943-1.4943 1.7327-8.6232 2.5298-15.842 1.6903-15.309 3.7704-24.885 8.8492-40.74l3.6776-11.481 6.8268-3.2323c3.7547-1.7778 8.2254-3.5834 9.9348-4.0124 5.515-1.3842 6.0833-3.2666 5.3528-17.731-0.51635-10.224-2.4143-16.729-3.615-29.042-2.0575-21.099-2.9764-27.586-2.8648-46.374 0.0857-14.427 0.10357-14.848-2.323-35.98-2.0846-18.153-0.66509-22.559 0.63176-28.354 1.7141-7.6593 7.6158-13.992 14.081-18.35 4.9155-3.3125 11.641-4.117 17.925-1.4009 5.8498 2.5287 17.824 16.316 21.153 23.573 2.635 5.7434 3.9679 12.903 4.21 21.248 0.69627 24.005 0.22953 29.448 3.0679 54.05 1.5865 13.751 5.7279 39.378 6.1549 47.825 0.39967 7.9062 1.0655 19.016 1.4796 24.688 0.82817 11.342 0.90141 11.411 10.139 9.5637l3.7441-0.74883 2.4176-20.824c2.9438-25.357 6.3415-31.323 8.5042-44.552 2.7561-16.859 4.2074-13.852 2.815-47.396-1.0711-25.803 2.138-35.715 7.2941-45.891 5.2706-10.401 15.568-9.286 22.056-8.6732 7.6018 0.71792 18.656 14.599 21.527 21.685 0.97965 2.4183 1.9418 12.504 2.411 25.274 0.48259 13.135 2.7792 20.825 3.1038 29.634l0.75863 20.586-2.346 23.101c-3.4466 33.938-7.1657 42.927-7.5201 84.179-0.28857 33.592-0.50479 36.724-2.9484 42.717l-2.637 6.467 8.2571 28.533c10.254 35.433 10.857 46.436 5.9534 64.814-3.0548 11.448-1.0532 9.2008-4.3842 18.082-5.1339 13.688-7.2346 23.199-8.5161 26.746-3.0854 8.5417-6.6041 14.057-9.3131 21.806-5.4663 15.637-6.3268 32.041-6.3268 41.129 0 6.3332 2.7563 15.418 0.6095 17.703-2.0863 2.2208-9.747-3.9925-11.564-4.9649-2.9408-1.5739-2.6644-9.8262 1.5677-32.622 4.376-23.572 8.0985-29.015 13.489-41.382l5.8982-13.533c0.95724-4.7737 3.5555-9.4245 4.5127-15.552 1.8725-11.986 2.3126-11.514 4.1969-24.857 1.7252-12.217 4.9368-29.038-4.1063-50.204-2.8125-6.5829-9.0522-17.153-10.356-23.49-5.0587-24.585-8.3319-29.304-25.065-36.136-6.3512-2.5931-11.668-4.5554-11.815-4.3605-0.1468 0.19483-1.8651 3.3375-3.8185 6.9837-3.9734 7.4168-11.881 15.246-15.399 15.246-3.7489 0-23.569-13.484-24.405-16.603-1.427-5.3228-0.88584-8.3969 1.478-8.3969 2.839 0 12.4 6.0918 16.4 10.449 1.6667 1.8156 3.9521 3.3011 5.0786 3.3011 2.5053 0 7.7656-5.4578 10.517-10.912l2.0367-4.0372-8.4565-4.2716c-4.6511-2.3494-10.659-6.0297-13.351-8.1785-9.1187-7.2781-13.298-6.7774-17.297 2.0723-2.091 4.6274-2.7028 8.4563-2.7488 17.202-0.066 12.562 1.3853 16.751 8.8069 25.422 5.5573 6.4924 21.438 16.143 29.361 17.842 5.882 1.2614 6.6182 1.9222 17.024 15.277 5.9816 7.6774 12.872 16.459 15.312 19.514 2.4402 3.0551 3.593 5.0605 2.5618 4.4565-14.757-8.6433-22.384-14.611-26.127-20.445-2.2734-3.5428-4.4966-6.449-4.9406-6.4584-0.44395-0.01-2.0728-0.35625-3.6197-0.7708-2.2972-0.61561-2.8125-0.24628-2.8125 2.0157 0 4.8522-3.9878 11.394-8.9454 14.675-2.6426 1.7488-4.8119 4.0892-4.8208 5.201-9e-3 1.1118-1.1339 5.5871-2.5 9.9452-3.0545 9.7444-3.2704 24.561-0.49597 34.037 3.1916 10.9 13.029 28.321 20.752 36.75 6.4 6.9844 15.068 12.714 22.652 14.972 3.4749 1.0347 1.214 3.1926-3.3451 3.1926-18.841 0-50.136-37.608-52.843-63.5l-0.7767-7.4311-12.026-0.58299c-20.186-0.97855-26.456-5.266-36.321-24.835-5.6571-11.222-5.8511-11.436-13.11-14.498-10.309-4.3474-13.306-6.5544-15.265-11.244-2.3952-5.7326-2.2571-20.928 0.21272-23.398 1.6551-1.6551 9.2926-4.4835 12.163-4.5044 0.52553-4e-3 -0.7401 3.352-2.8125 7.4574-2.0724 4.1054-3.768 8.6054-3.768 10 0 4.5413 9.1834 12.264 17.481 14.701 6.7751 1.9895 7.6659 2.6468 8.9243 6.5851 0.76885 2.4062 3.3298 8.0991 5.691 12.651 8.5452 16.472 27.763 24.344 38.607 15.814 3.292-2.5895 8.0468-10.843 8.0468-13.968 0-2.6957-16.882-7.9951-19.751-6.1996-2.5944 1.6241-3.3857 6.9283-1.5463 10.365 1.4145 2.643 0.53585 8.8375-1.2536 8.8375-2.7223 0-6.7254-8.3344-7.2081-15.007-0.47493-6.566-0.25672-7.2581 3.2071-10.173 3.3684-2.8343 3.5488-3.3532 1.9244-5.5364-1.3068-1.7564-1.5736-4.2033-0.9851-9.0326l0.8072-6.6236-6.279-6.0839c-3.7725-3.6553-8.107-9.7434-10.858-15.251-9.5916-19.202-15.339-19.295-37.702-0.61137-16.451 13.745-29.899 28.379-31.747 34.547-1.5415 5.1451-1.5021 5.2618 7.9465 23.534 11.382 22.011 12.902 27.082 14.686 48.988 3.2001 39.306 6.4377 48.69 20.381 59.071 17.507 13.035 16.377 12.509 25.638 11.921 6.9329-0.4405 9.6485-1.3237 15.865-5.1597l7.5-4.6282 2.8125 3.2174c3.3291 3.8084 3.6446 6.828 0.71336 6.828-1.1545 0-7.342 2.6554-13.75 5.9009l-11.651 5.9008v6.0098c0 4.1565-1.1253 8.2391-3.6492 13.239-2.0071 3.976-4.0384 9.3037-4.5141 11.839-0.92154 4.9122-2.6022 5.579-7.7742 3.0847zm62.041-184.24c0.26338-0.22191-1.2835-2.4107-3.4375-4.864-4.3438-4.9474-4.5504-5.9315-2.4874-11.85 1.2345-3.5413 1.1262-4.2687-0.79618-5.3444-5.8019-3.2469-12.02-10.56-16.239-19.099-6.4642-13.083-6.8658-19.696-2.4904-41.008l3.4768-16.935-4.17-4.7563c-6.2884-7.1725-12.23-11.475-17.112-12.391-6.3649-1.1941-17.532 1.6006-19.656 4.9194-2.0521 3.2054-9.1256 34.926-10.291 46.147-0.68998 6.6455-0.54659 7.603 0.95609 6.3846 0.97229-0.78836 4.1739-2.1477 7.1147-3.0207l5.3469-1.5873-3.2715-3.4147c-3.164-3.3025-3.2022-3.5206-1.1613-6.6353 2.0547-3.1358 2.2138-3.1683 6.0496-1.2344 7.0346 3.5467 10.726 8.1925 14.696 18.496 5.4962 14.264 6.7042 16.304 14.811 25.018 7.8469 8.4348 10.727 14.792 9.413 20.775-0.98111 4.467 1.5663 8.0607 7.5194 10.608 3.1502 1.3478 10.027 1.2255 11.729-0.20861zm8.8962-9.1887c0-2.748-4.7988-7.8206-6.4393-6.8067-1.7776 1.0986-1.1976 3.3262 1.6572 6.3649 3.3235 3.5377 4.7821 3.6725 4.7821 0.44176zm66.346-79.616c0.47672-31.533 4.9376-52.645 7.8284-81.671 0.9137-9.1745 3.6187-30.693-1.1612-52.785-1.0831-5.0056 0.13184-16.069-0.35947-25.35-0.80416-15.191-1.8412-19.564-4.748-24.065-7.2246-11.187-18.687-12.615-24.031-6.4027-4.9984 5.811-7.8008 29.481-6.4626 42.543 0.71949 7.0225-0.68858 8.8148 5.05 6.3938 2.1888-0.92339 7.2005-2.8416 12.602-2.8416 10.218 0 20.248 1.127 14.034 3.9585-2.3044 1.0499-7.4513 2.2385-10.46 0.99241-3.404-1.41-4.174-1.3748-5.3688 0.24584-10.081 3.8092-17.495 2.3895-17.512 13.032-1.319 8.618-1.5712 16.329-4.2436 28.647-4.921 22.682-7.6162 34.453-8.8297 51.716-0.91425 13.006 0.5961 9.4243 8.2689 13.972 3.6348 2.1542 3.908 2.6902 2.5118 4.9259-1.8492 2.9611-4.8437 3.08-15.965 0.63365-12.99-2.8573-24.426-2.4086-32.325 1.2682l-6.6995 3.1188 0.84666-3.4435c1.2934-5.2605 4.0625-8.8403 7.2091-9.3197 1.7741-0.27027 1.4264-1.5468 2.3643-2.2785 0 0 1.2022-9.892 0.75361-25.284-0.45317-15.549-4.0922-31.104-4.6405-48.125-0.66434-20.625-1.4623-29.987-2.106-40.625-2.1067-34.815-4.2319-42.167-21.968-55.272-4.3163-3.189-2.4977-2.3982-6.3931-2.4786-5.5757-0.11518-12.771 6.3426-14.586 19.169-1.2941 9.1496-2.623 28.305 2.8764 36.01l2.1787 3.0526 7.9376-1.6037c8.0998-1.6365 3.5739-1.9979 6.8653-1.3969 5.087 0.92889 11.436 1.9129 11.436 3.8395 0 2.219-1.5855 3.9683-5.8751 2.6518-3.5875-1.101-8.2915-1.2024-10.943 1.2882-2.1073 1.9797-3.7307-0.13529-5.9306-0.55583-2.6935-0.5149-5.379-0.46192-5.379 2.0424 0 1.6307 0.73661 11.215-0.65754 17.474l0.59397 10.754 2.6349 30.7c2.9892 34.829 9.9217 47.385 6.8883 50.418-1.9752 1.9753-4.4797-5.1923 2.1851-2.0246 8.3999 3.9923 18.752 12.978 22.088 19.173 2.0126 3.7371 2.8838 4.3127 5.6808 3.7532 2.697-0.5394 4.891 0.69402 11.946 6.716 12.916 11.025 15.717 12.683 28.319 16.768 13.781 4.4669 28.008 12.066 34.42 18.384 2.5593 2.5221 5.1333 4.2161 5.7199 3.7645 0.58664-0.45165 3.1509-15.142 3.404-31.88zm-188.42 93.879c-0.86174-2.2456 3.583-7.459 8.5728-10.055 3.9614-2.0612 14.238-2.346 15.423-0.42748 1.4861 2.4046-3.3205 6.1712-7.875 6.1712-3.1126 0-4.9984 0.87019-6.772 3.125-2.7653 3.5156-8.1911 4.2041-9.349 1.1864z"/>
</svg>
